<?xml version="1.0" encoding="utf-8"?>
<!-- Generator: Adobe Illustrator 17.0.2, SVG Export Plug-In . SVG Version: 6.00 Build 0)  -->
<!DOCTYPE svg PUBLIC "-//W3C//DTD SVG 1.1//EN" "http://www.w3.org/Graphics/SVG/1.1/DTD/svg11.dtd">
<svg version="1.1" id="Layer_1" xmlns="http://www.w3.org/2000/svg" xmlns:xlink="http://www.w3.org/1999/xlink" x="0px" y="0px"
	 width="51.3px" height="48.7px" viewBox="0 0 51.3 48.7" enable-background="new 0 0 51.3 48.7" xml:space="preserve">
<path fill="#3F3D3E" d="M51.3,5.9c0,2.7-2.3,4.9-5.1,4.9H6.6c-2.8,0-5.1-2.2-5.1-4.9l0,0C1.5,3.2,3.8,1,6.6,1h39.7
	C49.1,1,51.3,3.2,51.3,5.9L51.3,5.9z"/>
<path fill="#3F3D3E" d="M51.3,42.8c0,2.7-2.3,4.9-5.1,4.9H6.6c-2.8,0-5.1-2.2-5.1-4.9l0,0c0-2.7,2.3-4.9,5.1-4.9h39.7
	C49.1,37.9,51.3,40.1,51.3,42.8L51.3,42.8z"/>
<path fill="#3F3D3E" d="M51.3,23.9c0,2.7-2.3,4.9-5.1,4.9H6.6c-2.8,0-5.1-2.2-5.1-4.9l0,0c0-2.7,2.3-4.9,5.1-4.9h39.7
	C49.1,19,51.3,21.2,51.3,23.9L51.3,23.9z"/>
<g>
</g>
<g>
</g>
<g>
</g>
<g>
</g>
<g>
</g>
<g>
</g>
</svg>
