<?xml version="1.0" encoding="utf-8"?>
<!-- Generator: Adobe Illustrator 16.0.0, SVG Export Plug-In . SVG Version: 6.00 Build 0)  -->
<!DOCTYPE svg PUBLIC "-//W3C//DTD SVG 1.1//EN" "http://www.w3.org/Graphics/SVG/1.1/DTD/svg11.dtd">
<svg version="1.1" id="Layer_1" xmlns="http://www.w3.org/2000/svg" xmlns:xlink="http://www.w3.org/1999/xlink" x="0px" y="0px"
	 width="900px" height="254.83px" viewBox="0 0 900 254.83" enable-background="new 0 0 900 254.83" xml:space="preserve">
<g>
	<path d="M68.036,102.671l-2.122,17.443c0,9.508,1.061,25.381,3.182,47.616c2.122,22.237,4.282,35.045,6.482,38.423
		c4.243,6.522,10.587,9.782,19.035,9.782c8.445,0,14.633-2.316,18.563-6.954c1.492,0,3.339-0.274,5.54-0.825l1.179,1.296
		c0,7.702-6.129,12.729-18.386,15.086c-2.908,0.549-6.188,0.825-9.842,0.825c-3.653,0-7.956-1.809-12.906-5.422
		s-8.447-7.621-10.49-12.022c-2.044-4.399-4.048-18.071-6.011-41.016c-1.965-22.942-2.947-43.137-2.947-60.581
		c0-17.444,0.51-27.736,1.532-30.88c-0.55-2.75-0.825-5.342-0.825-7.779c0-9.665,3.457-17.188,10.372-22.57
		c6.914-5.381,15.399-8.074,25.458-8.074c2.75,0,5.755,0.866,9.017,2.593c3.26,1.729,4.891,3.851,4.891,6.365
		c0,1.809-1.258,2.711-3.771,2.711c-0.707,0-1.69-0.49-2.946-1.473c-1.258-0.982-2.298-1.474-3.124-1.474s-1.709,0.159-2.652,0.472
		c-1.886-0.628-3.812-0.943-5.775-0.943c-1.965,0-4.342,0.413-7.13,1.237c-2.79,0.825-5.109,1.886-6.954,3.182
		c-1.847,1.297-3.418,3.046-4.714,5.245c-1.296,2.201-2.298,4.302-3.005,6.306c-0.707,2.003-1.258,4.578-1.65,7.72
		c-0.472,4.479-0.708,10.018-0.708,16.619L68.036,102.671z"/>
	<path d="M175.172,61.655c0,0,0.431-0.354,1.296-1.061c0.864-0.707,1.571-1.061,2.122-1.061c0.549,0,2.239,0.471,5.068,1.414
		c0,12.573,0.51,31.372,1.532,56.397c1.02,25.027,1.532,45.181,1.532,60.463c0,15.283,0.51,29.839,1.532,43.667l-1.532,2.711
		c-0.159-1.65-2.634-2.475-7.425-2.475c-0.787-35.751-1.179-57.319-1.179-64.706l-0.589-0.943l0.825-2.122
		c0-2.514-0.276-5.499-0.825-8.958l-3.771-0.943c-1.415,0.472-3.026,0.708-4.833,0.708l-15.439-2.475l-2.475,0.943l-0.708,30.408
		l0.708,1.061l1.414,40.309c0,4.166-1.337,6.247-4.007,6.247c-3.536,0-5.304-4.832-5.304-14.497l0.472-44.198
		c0-14.615-0.236-22.471-0.708-23.572c0.785-1.571,1.179-6.914,1.179-16.029l-1.768-56.456c0-1.099,0.412-2.14,1.237-3.123
		c0.825-0.982,1.786-1.474,2.888-1.474c3.221,0,4.832,4.676,4.832,14.026l-0.943,58.931c0,1.886,6.442,2.829,19.33,2.829
		c3.064,0,5.283-0.569,6.659-1.709c1.374-1.138,2.062-4.302,2.062-9.488c0-5.186-0.53-15.184-1.591-29.996
		c-1.061-14.81-1.591-25.909-1.591-33.295C175.172,62.167,175.172,61.655,175.172,61.655z M171.519,134.375l0.471,0.472h-0.471
		V134.375z"/>
	<path d="M262.743,113.042l0.235,4.833c-0.315,4.086-0.53,9.587-0.648,16.5c-0.118,6.915-0.236,13.477-0.354,19.683
		c-0.118,6.208-0.335,12.926-0.648,20.154c-0.315,7.23-0.943,13.712-1.886,19.447c-2.201,13.672-5.775,22.788-10.726,27.344
		c-5.344,5.028-11.591,5.54-18.74,1.532c-3.064-1.727-5.639-3.889-7.72-6.482c-2.083-2.593-3.753-10.941-5.009-25.046
		c-1.258-14.103-2.004-28.974-2.239-44.61c-0.708-46.986-1.455-73.781-2.24-80.381l1.532-3.418c3.692,0.471,5.54,4.911,5.54,13.318
		l0.708,63.999l2.593,51.152c0,18.309,6.05,27.461,18.15,27.461c7.464,0,12.179-16.854,14.144-50.562
		c0.157-2.278,0.53-13.16,1.12-32.647c0.589-19.486,0.884-42.979,0.884-70.481l-0.472-4.361c0-1.807,1.158-2.711,3.477-2.711
		c2.316,0,3.692,0.53,4.125,1.591c0.431,1.061,0.648,5.815,0.648,14.261c0,8.447-0.512,14.673-1.532,18.681
		c0.156,0.315,0.235,0.825,0.235,1.532L262.743,113.042z"/>
	<path d="M292.444,64.837c0-4.164,1.689-6.247,5.068-6.247c2.199,0,6.344,0.943,12.435,2.829c6.088,1.886,9.173,3.576,9.252,5.068
		c-0.158,0.315-0.235,0.551-0.235,0.707c2.985,4.715,4.989,9.449,6.011,14.203c1.02,4.755,1.532,11.904,1.532,21.451
		s-1.296,17.856-3.89,24.928h0.236c-0.63,1.494-1.867,3.595-3.712,6.306c-1.847,2.71-2.967,4.419-3.359,5.127
		c3.142,2.436,5.637,5.913,7.484,10.431c1.845,4.519,2.985,8.545,3.418,12.081c0.431,3.536,0.766,7.779,1.002,12.729l0.235,6.247
		v3.418c0,15.401-4.793,26.795-14.379,34.18c-5.108,3.928-11.276,5.893-18.504,5.893c-1.414,0-2.534-0.492-3.359-1.474
		c-0.825-0.983-1.278-2.219-1.355-3.712c-0.079-1.492-0.118-3.967-0.118-7.425l2.475-50.916l-0.472-21.451l1.415-57.752
		c0-6.128-0.079-10.803-0.236-14.025l-0.943-1.179V64.837z M298.455,203.796l0.236,10.961c5.971,0,11.079-2.808,15.322-8.427
		c4.243-5.617,6.364-11.53,6.364-17.738v-0.354c0.077-1.415,0.118-2.788,0.118-4.125c0-1.335-0.059-3.634-0.177-6.895
		c-0.118-3.26-0.374-6.247-0.766-8.958c-0.394-2.711-1.081-5.716-2.062-9.017c-0.983-3.3-2.142-6.088-3.477-8.368
		c-3.3-5.421-7.858-8.132-13.672-8.132c-0.786,12.022-1.178,22.65-1.178,31.881c0,9.234,0.235,15.107,0.707,17.621
		C298.926,193.975,298.455,197.826,298.455,203.796z M299.869,111.393l-0.236,16.854v2.947l0.943,3.182h1.768
		c10.607,0,15.911-10.725,15.911-32.176c0-2.906-0.236-7.896-0.707-14.968l-0.472-0.471c-1.022-13.357-5.068-20.037-12.14-20.037
		c-3.536,0-5.304,10.569-5.304,31.705L299.869,111.393z"/>
	<path d="M354.911,64.837c0-4.164,1.689-6.247,5.068-6.247c2.199,0,6.344,0.943,12.435,2.829c6.088,1.886,9.173,3.576,9.252,5.068
		c-0.158,0.315-0.235,0.551-0.235,0.707c2.985,4.715,4.989,9.449,6.011,14.203c1.02,4.755,1.532,11.904,1.532,21.451
		s-1.296,17.856-3.89,24.928h0.236c-0.63,1.494-1.867,3.595-3.712,6.306c-1.847,2.71-2.967,4.419-3.359,5.127
		c3.142,2.436,5.637,5.913,7.484,10.431c1.845,4.519,2.985,8.545,3.418,12.081c0.431,3.536,0.766,7.779,1.002,12.729l0.235,6.247
		v3.418c0,15.401-4.793,26.795-14.379,34.18c-5.108,3.928-11.276,5.893-18.504,5.893c-1.414,0-2.534-0.492-3.359-1.474
		c-0.825-0.983-1.278-2.219-1.355-3.712c-0.079-1.492-0.118-3.967-0.118-7.425l2.475-50.916l-0.472-21.451l1.415-57.752
		c0-6.128-0.079-10.803-0.236-14.025l-0.943-1.179V64.837z M360.921,203.796l0.236,10.961c5.971,0,11.079-2.808,15.322-8.427
		c4.243-5.617,6.364-11.53,6.364-17.738v-0.354c0.077-1.415,0.118-2.788,0.118-4.125c0-1.335-0.059-3.634-0.177-6.895
		c-0.118-3.26-0.374-6.247-0.766-8.958c-0.394-2.711-1.081-5.716-2.062-9.017c-0.983-3.3-2.142-6.088-3.477-8.368
		c-3.3-5.421-7.858-8.132-13.672-8.132c-0.786,12.022-1.178,22.65-1.178,31.881c0,9.234,0.235,15.107,0.707,17.621
		C361.393,193.975,360.921,197.826,360.921,203.796z M362.336,111.393l-0.236,16.854v2.947l0.943,3.182h1.768
		c10.607,0,15.911-10.725,15.911-32.176c0-2.906-0.236-7.896-0.707-14.968l-0.472-0.471c-1.022-13.357-5.068-20.037-12.14-20.037
		c-3.536,0-5.304,10.569-5.304,31.705L362.336,111.393z"/>
	<path d="M444.367,169.38l0.236,38.305c0,11.629-1.69,17.443-5.068,17.443c-0.55,0-1.219-0.315-2.003-0.943
		c-0.786-0.63-1.296-1.219-1.532-1.768c1.571-3.928,2.357-17.992,2.357-42.194c0-4.714-0.295-11.433-0.884-20.154
		s-0.924-14.418-1.001-17.09l-1.532-3.064l0.707-2.947c-2.044-4.714-5.816-14.889-11.315-30.526
		c-8.014-22.394-12.101-35.397-12.257-39.012l3.3-2.593c1.571,0.236,3.928,5.363,7.071,15.381
		c3.142,10.018,6.227,20.057,9.252,30.114c3.024,10.059,5.166,15.245,6.423,15.558l0.943-4.361l-0.472-1.179
		c1.179-1.415,2.729-7.131,4.656-17.149c1.924-10.018,3.987-19.524,6.188-28.522c2.199-8.996,4.32-13.495,6.365-13.495
		c2.042,0,3.064,0.866,3.064,2.593c0,1.729-0.866,5.639-2.593,11.728c-1.729,6.09-3.34,11.65-4.832,16.677
		c-1.494,5.029-2.613,8.919-3.359,11.668c-0.748,2.751-1.591,6.208-2.534,10.372c-1.886,7.858-2.829,15.204-2.829,22.04
		c0.784,1.965,1.179,3.341,1.179,4.125l-1.415,6.954L444.367,169.38z"/>
	<path d="M515.909,113.632l-0.235-14.732c0-42.194,7.974-63.292,23.926-63.292c5.657,0,11.255,2.28,16.795,6.836
		c5.54,4.558,8.781,9.587,9.724,15.086c4.399,24.83,6.601,56.143,6.601,93.936c0,21.766-1.532,37.206-4.597,46.32
		c-1.179,3.379-4.637,9.193-10.372,17.443c0.078,1.179,0.451,2.672,1.12,4.479c0.667,1.807,1.12,3.124,1.355,3.949
		c0.236,0.825,0.51,2.829,0.825,6.011c0.313,3.182,0.648,5.912,1.002,8.192c0.354,2.277,1.276,4.379,2.77,6.306
		c1.492,1.924,3.536,2.887,6.129,2.887c5.657,0,8.486,1.062,8.486,3.183c0,3.064-3.064,4.597-9.193,4.597
		c-0.63,0-1.906-0.512-3.831-1.532c-1.926-1.022-3.046-1.572-3.359-1.65c-3.064-1.337-5.362-3.812-6.895-7.425
		c-1.532-3.615-2.77-8.409-3.713-14.379c-0.943-5.972-1.69-9.821-2.239-11.55h-11.079c-11.944-8.486-19.329-20.311-22.158-35.477
		c-1.494-8.092-2.24-17.718-2.24-28.876L515.909,113.632z M521.567,141.801v10.136c0,16.815,2.396,31.351,7.189,43.608
		c1.807,4.558,4.32,8.448,7.543,11.668c3.221,3.223,6.914,4.833,11.079,4.833l1.65-1.179c0.313-1.1,1.256-1.689,2.829-1.768
		c1.571-0.077,2.632-0.313,3.182-0.707c5.107-4.479,7.818-11.981,8.133-22.512c0.077-2.435,0.118-5.342,0.118-8.722
		c0-3.377,0.059-5.814,0.177-7.307c0.118-1.492,0.431-3.575,0.943-6.247c0.51-2.67,0.766-4.714,0.766-6.128v-32.766
		c-0.63-1.571-0.943-4.361-0.943-8.368s-0.138-7.876-0.413-11.609c-0.276-3.731-0.748-8.427-1.414-14.084
		c-0.668-5.657-1.102-9.388-1.296-11.197c-0.197-1.807-0.374-3.948-0.531-6.423c-0.158-2.475-0.315-4.399-0.471-5.775
		c-0.159-1.374-0.394-3.162-0.707-5.363c-0.315-2.199-0.708-3.967-1.179-5.304c-0.472-1.335-1.081-2.847-1.827-4.538
		c-0.748-1.688-1.65-3.044-2.71-4.066c-1.061-1.02-2.339-2.003-3.831-2.946c-2.751-1.807-6.718-2.711-11.904-2.711
		C527.027,42.326,521.567,75.485,521.567,141.801z"/>
	<path d="M650.389,113.042l0.235,4.833c-0.315,4.086-0.53,9.587-0.648,16.5c-0.118,6.915-0.236,13.477-0.354,19.683
		c-0.118,6.208-0.335,12.926-0.648,20.154c-0.315,7.23-0.943,13.712-1.886,19.447c-2.201,13.672-5.775,22.788-10.726,27.344
		c-5.344,5.028-11.591,5.54-18.74,1.532c-3.064-1.727-5.639-3.889-7.72-6.482c-2.083-2.593-3.753-10.941-5.009-25.046
		c-1.258-14.103-2.004-28.974-2.239-44.61c-0.708-46.986-1.455-73.781-2.24-80.381l1.532-3.418c3.692,0.471,5.54,4.911,5.54,13.318
		l0.708,63.999l2.593,51.152c0,18.309,6.05,27.461,18.15,27.461c7.464,0,12.179-16.854,14.144-50.562
		c0.157-2.278,0.53-13.16,1.12-32.647c0.589-19.486,0.884-42.979,0.884-70.481l-0.472-4.361c0-1.807,1.158-2.711,3.477-2.711
		c2.316,0,3.692,0.53,4.125,1.591c0.431,1.061,0.648,5.815,0.648,14.261c0,8.447-0.512,14.673-1.532,18.681
		c0.156,0.315,0.235,0.825,0.235,1.532L650.389,113.042z"/>
	<path d="M709.084,185.527l-6.364,0.236c-2.28-0.943-4.793-1.415-7.543-1.415c-2.751,0-4.243,0.079-4.479,0.236
		c-0.236,0.158-0.394,0.433-0.471,0.825c-0.079,0.394-0.159,0.668-0.236,0.825l-0.472,4.833c-0.315,4.086-1.061,8.998-2.239,14.732
		c-2.201,11.238-4.519,16.854-6.954,16.854c-1.022,0-2.083-0.433-3.183-1.296c-1.101-0.864-1.65-1.807-1.65-2.829
		c2.042-6.049,4.164-15.204,6.365-27.461c2.199-12.258,3.574-19.898,4.125-22.924c0.549-3.024,1.571-9.134,3.064-18.328
		c1.492-9.193,2.475-15.243,2.946-18.151c0.472-2.906,1.748-9.193,3.831-18.857c2.081-9.665,3.339-15.989,3.771-18.976
		c0.431-2.985,0.923-7.031,1.474-12.14c1.335-12.571,2.396-19.565,3.182-20.979l3.3,0.235c1.963,0,3.418-0.471,4.361-1.414
		c1.02,0,2.003,0.335,2.946,1.001c0.943,0.669,1.415,1.553,1.415,2.652c0,7.701,0.981,22.59,2.946,44.669
		c1.963,22.081,3.516,36.36,4.656,42.842c1.138,6.482,2.455,12.847,3.948,19.094c1.492,6.247,2.239,11.02,2.239,14.32l-1.179,3.3
		c0,3.615,0.667,8.939,2.004,15.97c1.335,7.033,2.003,11.983,2.003,14.851c0,2.869-0.63,4.656-1.886,5.363
		c-3.3,0-5.324-0.472-6.07-1.415c-0.748-0.943-1.12-2.455-1.12-4.538c0-2.081-0.138-4.635-0.413-7.661
		c-0.276-3.023-0.551-5.44-0.825-7.248c-0.276-1.807-0.748-4.656-1.415-8.545c-0.668-3.89-1.081-6.383-1.238-7.484
		C716.863,185.921,713.248,185.527,709.084,185.527z M692.112,173.624c0,1.65,1.924,3.025,5.775,4.125
		c5.893,1.65,12.415,2.475,19.565,2.475h2.475c-1.022-3.142-1.532-6.757-1.532-10.843v-5.54c0-9.978-1.238-24.515-3.713-43.609
		c-2.475-19.093-3.792-33.314-3.948-42.666c-8.409,41.566-13.613,67.24-15.617,77.022
		C693.114,164.371,692.112,170.717,692.112,173.624z"/>
	<path d="M794.416,219.589l-8.015-0.825c-1.258,0-2.751,0.453-4.479,1.355c-1.729,0.904-3.792,1.355-6.188,1.355
		c-2.397,0-3.91-0.785-4.538-2.357l-4.007,0.236c-3.458,0-5.657-0.825-6.6-2.475c0-1.02,0.451-1.865,1.355-2.534
		c0.902-0.667,1.512-1.197,1.827-1.591h6.954l0.943-0.943l0.825-5.068l-1.768-52.802l1.179-56.337
		c0-10.921-0.395-20.232-1.179-27.934c-1.573-0.471-3.969-0.707-7.189-0.707l-5.775,0.472c-3.064,0-4.597-1.374-4.597-4.125
		c0-0.707,0.726-1.374,2.181-2.003c1.453-0.628,2.652-0.943,3.595-0.943c22.394,0,33.59,2.437,33.59,7.307
		c0,0.472-0.197,1.102-0.589,1.886l-5.54,0.471c-1.258-0.943-3.576-1.415-6.954-1.415l-1.179,0.708
		c0.472,1.414,0.707,5.698,0.707,12.847l-0.707,57.398l1.65,52.92l-0.235,7.425c0,3.771,0.235,6.011,0.707,6.718l-0.236,0.589
		c0,1.573,1.768,2.357,5.304,2.357l7.072-0.236c4.792,0,7.189,1.14,7.189,3.418c0,1.415-0.512,2.575-1.532,3.477
		C797.165,219.138,795.907,219.589,794.416,219.589z"/>
	<path d="M831.424,215.936l22.748,0.707h0.707c0.864,0,1.689,0.453,2.475,1.355c0.785,0.904,1.179,1.827,1.179,2.77
		c0,1.807-1.296,2.829-3.89,3.064c-4.166-0.159-10.843-0.236-20.036-0.236l0.471,0.236l-8.958,0.825c-2.28,0-3.615-1.847-4.007-5.54
		c0.313-1.571,0.472-4.243,0.472-8.014l1.415-128.705l1.178-15.912c0-1.099,0.589-1.65,1.768-1.65l4.007,0.943l-0.236,19.093
		l0.236,52.566c-0.472,13.201-0.707,19.959-0.707,20.272l0.471,20.508l-0.707,2.003l0.236-0.236l-0.236,1.886
		c0,1.337,0.236,2.475,0.707,3.418l-0.707,23.101v1.532c0,2.516,0.077,4.146,0.236,4.891
		C830.402,215.563,830.794,215.936,831.424,215.936z"/>
</g>
</svg>
