<?xml version="1.0" encoding="utf-8"?>
<!-- Generator: Adobe Illustrator 17.0.2, SVG Export Plug-In . SVG Version: 6.00 Build 0)  -->
<!DOCTYPE svg PUBLIC "-//W3C//DTD SVG 1.1//EN" "http://www.w3.org/Graphics/SVG/1.1/DTD/svg11.dtd">
<svg version="1.1" id="Layer_1" xmlns="http://www.w3.org/2000/svg" xmlns:xlink="http://www.w3.org/1999/xlink" x="0px" y="0px"
	 width="2876.7px" height="488.2px" viewBox="47.9 122.8 2876.7 488.2" enable-background="new 47.9 122.8 2876.7 488.2"
	 xml:space="preserve">
<g>
	<g>
		<g>
			<g>
				<path fill="none" d="M2736.2,597.4"/>
				<path fill="none" stroke="#3F3B3C" stroke-width="12.1176" stroke-linecap="round" stroke-miterlimit="10" d="M2736.2,597.4"/>
				<path fill="none" stroke="#3F3B3C" stroke-width="12.1176" stroke-linecap="round" stroke-miterlimit="10" d="M2652.7,529.8"/>
			</g>
		</g>
		<g>
			<g>
				<g>
					<g>
						<g>
							<polygon fill="#3F3B3C" points="103.5,609.4 105.3,609.8 110.1,608.6 							"/>
							<path fill="#3F3B3C" d="M134.6,606.6c-0.9-0.2-0.5-0.6-1.4-0.8l-18.3,3.6C123.1,611.3,129.2,605.2,134.6,606.6z"/>
							<path fill="#3F3B3C" d="M140,606.9c7.1,0.8,10-0.8,11.7-1.4C149.2,606.8,138.5,605.1,140,606.9z"/>
							<path fill="#3F3B3C" d="M763.8,606.1c-0.7,0-1.5,0.1-2.2,0.1C762.7,606.2,763.4,606.2,763.8,606.1z"/>
							<path fill="#3F3B3C" d="M926.6,600.4l1.7-1.3c-30.4,2.4-64.6,0-96.7,1l2.2-0.5c-81.5-0.5-156.7,1.7-237.5,2.8
								c1.3-0.1,1.7-0.5,3-0.7c-3.9,0.5-8.2,1.3-12.6,1.2c-1.1-0.3,1.2-0.6,2.6-0.8c-17.1-2.2-50.2,1.4-60.8-0.3
								c-4.8,0.2-6.9,1.2-4.2,1.9c-63.3,0.6-131,1-195.5,2.7c-3.1-0.3-3.7-0.9-2.8-1.7c-55.1,3.6-112.8,2.2-169.2,1.6
								c-2.2,1,5.7,1,0.2,2c18.1,1.2,33.2-2.3,49.6-0.6l-2.1,0.9c12,0.6,2.4-2.3,14.8-1.1c4.9,0.8-1.2,1.2,1.1,1.2
								c25.4-0.4,51.9,0.5,75.9-1.8c5.9,2,27.3,0.1,36.7,2c6.6-0.8,13.2-0.6,15.7-1.9c89,1.1,179.9-0.9,271-0.7
								c42.7-3.8,93.7,0.7,144.4-0.5c0.3,0.1,0.3,0.3-0.1,0.4c16.5-0.9,40.5-1.4,60.2-0.9l16.7-1.6c118.5,3.3,239.6,1,360,2.4
								c136.8,1,256.6,3.7,389.9-1.3c-0.2,0.4,0.9,0.6-2.5,0.7c38.4-0.8,73.5,0.6,109.7-0.2l-0.1,0.4c89.8-3.2,187,0.4,273.6-3
								c105.4,0.3,224.7,0,336.2-1l-0.3,0.8c89.3-1.6,175.6,2.4,264.7,1.2c3.7,0.1,7.4,0.1,11.1,0.2c3.8,0,7.6,0.1,11.4,0.1
								c0.9,0,1.7,0,2.5-0.3c0.8-0.3,1.6-0.7,2.3-1.1c0.4-0.2,0.7-0.4,1-0.6c0.3-0.2,0.6-0.4,0.9-0.6c0.6-0.4,1.1-0.8,1.7-1.3
								c2.2-1.7,4.2-3.5,6.2-5.3c4-3.7,7.8-7.5,11.5-11.3c7.5-7.7,14.8-15.7,21.9-23.8c3.6-4.1,7.1-8.2,10.6-12.3
								c0.9-1.1,1.7-2,2.8-3.4c0.5-0.6,1-1.3,1.3-2c0.3-0.7,0.6-1.5,0.8-2.3c0.4-1.5,0.4-3.1,0.1-4.7c-0.3-1.5-1-3-2-4.1
								c-0.5-0.6-1.1-1.1-1.7-1.5c-0.3-0.2-0.6-0.4-1-0.5c-0.4-0.1-0.7-0.1-1.1-0.1c-1.5-0.1-3.1,0-4.7,0l-4.1,0.1l-4,0
								c-5.4,0-10.8-0.2-16.2-0.6c-10.8-0.8-21.5-2.5-32-5.2c-10.5-2.7-20.7-6.5-30.3-11.5c-9.6-5.1-18.5-11.4-26.1-19
								c-7.7-7.6-14.1-16.3-18.9-25.7c-0.8-1.6-1.5-3.3-2.2-4.9c-0.7-1.7-1.4-3.4-2.1-5.1c-1.4-3.4-2.5-7-3.8-10.6
								c-2.4-7.2-4.7-14.6-6.6-22.3c-1.9-7.7-3.4-15.6-4.5-23.6c-1.1-8-1.6-16.2-1.5-24.4c0.1-16.3,2.8-32.7,8.4-47.3
								c2.9-7.3,6.5-14.1,10.8-20.1c2.3-2.9,4.6-5.7,7.3-8.1c2.6-2.4,5.5-4.5,8.5-6c1.3-0.6,2.5-1.2,3.9-1.6c0.9-0.4,2-0.5,2.8-1.3
								c0.8-0.7,1.3-1.6,1.7-2.6c0.4-1,0.6-2,0.7-3.1c0.1-1,0.1-2.1,0.1-3.1c-0.1-2.1-0.5-4.1-1.1-6.1c-0.3-1-0.8-2-1.3-2.9
								c-0.1-0.2-0.3-0.5-0.5-0.7l-0.5-0.6c-0.3-0.4-0.6-0.7-0.8-1.2c-2.1-3.2-3.5-7-5.2-10.7c-0.9-1.9-1.8-3.7-3-5.5
								c-0.6-0.9-1.2-1.8-2-2.6c-0.4-0.4-0.9-0.8-1.3-1.2c-0.5-0.4-1-0.7-1.5-1l-1.7-0.8l-0.8-0.4c-0.3-0.1-0.6-0.2-0.9-0.3
								c-0.6-0.2-1.2-0.3-1.8-0.5l-1.9-0.3c-2.5-0.2-5,0-7.3,0.5c-1.1,0.2-2.3,0.5-3.4,0.7c-1.1,0.2-2.3,0.5-2.9,0.7
								c-1.5,0.5-3,0.9-4.6,1.2c-0.8,0.1-1.5,0.3-2.3,0.2c-0.4,0-0.8-0.1-1.1-0.2c-0.4-0.1-0.7-0.4-0.8-0.8c-0.3-0.7-0.2-1.6,0-2.3
								c0.2-0.8,0.4-1.5,0.7-2.2c0.6-1.4,1.3-2.8,1.9-4.2l0.3-0.6c0.1-0.3,0.2-0.5,0.4-0.8c0.3-0.7,0.4-0.9,0.6-1.4
								c0.2-0.4,0.4-0.8,0.7-1.2c0.3-0.4,0.5-0.9,0.8-1.3c1.2-1.7,2.5-3.4,3.9-5.1c1.4-1.6,2.8-3.3,4.2-4.6c3.5-3.2,6.5-6.8,9-10.8
								c1.2-2,2.3-4.2,3.2-6.5c0.8-2.3,1.4-4.8,1.5-7.4c0.1-2.6-0.4-5.2-1.4-7.6c-1-2.5-2.4-4.4-4.6-6.6l-0.6-0.6l-0.3-0.3l-0.2-0.1
								l0,0c0,0-0.1,0.1-0.1,0l-0.1-0.1c-0.5-0.3-1-0.4-1.6-0.6c-1.1-0.2-2.3-0.4-3.3-0.5c-1.8-0.2-3.6-0.2-5.4-0.3
								c-3.6-0.1-7.2,0.1-10.7,0.4c-7.1,0.7-14.2,2-21,4.7c-3.4,1.3-6.7,2.9-9.7,5c-1.5,1.1-2.8,2.1-4.2,3.2c-1.4,1-2.8,2-4.2,3
								c-2.9,1.9-5.8,3.7-8.9,5c-3.1,1.3-6.4,2.3-9.7,2c-3.3-0.2-6.4-1.9-8.4-4.5c-2.1-2.6-3.3-5.9-3.9-9.3
								c-0.6-3.4-0.6-6.9-0.3-10.4c0.1-1.8,0.5-3.5,0.8-5.2c0.4-1.7,0.8-3.4,1.4-5.1c0.5-1.7,1.2-3.3,1.9-5c0.8-1.6,1.5-3.2,2.4-4.8
								c0.4-0.8,0.8-1.6,1.3-2.3l1.4-2.2l1.5-2.2c0.5-0.8,1.1-1.4,1.6-2.2c4.6-5.6,10.6-10,17.4-12.9c3.2-1.1,6.5-1.9,9.9-2.2
								c0.8-0.1,1.7-0.1,2.5-0.2l2.5,0l2.5,0.2c0.8,0.1,1.6,0.3,2.5,0.4c6.5,1.2,12.8,3.3,18.8,6c6,2.8,11.6,6.1,16.9,10
								c2.6,2,5.2,4,7.6,6.2c2.4,2.2,4.8,4.6,6.8,7.2c0.6,0.8,1.5,1.4,2.4,2c1,0.6,2,1.1,3,1.7c2.1,1,4.2,2,6.4,2.8
								c2.2,0.9,4.4,1.7,6.5,2.3c1.1,0.2,2.2,0.6,3.4,0.9l3.4,0.9c2.3,0.6,4.6,1.2,6.9,1.9l6.8,2.1c1.1,0.4,2.3,0.7,3.4,1.1l3.3,1.3
								c1.1,0.5,2.2,0.9,3.3,1.4l3.2,1.5c2.2,1,4.2,2.2,6.3,3.4c2.1,1.1,4.1,2.5,6.1,3.8l1.5,1c0.3,0.2,0.5,0.4,0.8,0.6l0.7,0.6
								l2.7,2.3l5.2,4.7c7,6.3,13.9,12.6,20.7,19c27.4,25.4,54.3,51,79.9,77.4c17.9,15,35.2,32.5,52.8,50.6
								c4.4,4.5,8.8,9.1,13.3,13.7c2.2,2.3,4.5,4.6,6.7,6.9l3.4,3.4l1.7,1.7l0.7,0.7c0,0,0.1,0.1,0.1,0.2c0,0,0,0-0.1,0
								c0,0,0,0,0,0.1l0.1,0.1l0.3,0.5c3.6,5.5,7.4,10.7,11.3,15.9c3.9,5.2,7.9,10.3,12,15.3l-0.4-2c4.7,8.2,12.1,15.6,18.9,22.4
								c6.8,6.7,13,12.8,15.3,18.5l-1.5-1.3c2.5,4.4,7.3,7.8,11.8,10.8c4.5,3,8.6,5.6,9.8,8.6l1.9,0.4c4.3,4.1,4.4,4.5,4.1,4.8
								c-0.3,0.3-0.9,0.4,2.4,3.7c2.6,2.2,2.2-0.5,7.2,4.7c-0.9,2.1,4.8,6.9,10.8,10.9c3,2,6.1,3.8,8.4,5.3c2.3,1.5,3.9,2.6,3.8,3.9
								c-1.7-0.6-1.9-0.6-1.5-0.2c0.3,0.4,1.3,1,2.1,1.5c0.7,0.5,1.3,1,0.5,1.1c-0.7,0.1-2.9-0.1-6.7-1.7c1,0.6,3,1.7,5.9,2.6
								c1.4,0.4,3.1,0.8,4.9,0.9c0.9,0,1.9,0,3-0.1c1.1-0.1,2.1-0.4,3.1-0.8c2-0.8,3.6-2,4.8-3.4c0.6-0.7,1.1-1.4,1.5-2.1
								c0.4-0.7,0.6-1.3,0.8-1.8c0.4-1.1,0.5-1.9,0.5-2.4c0-0.5-0.2-0.7-0.5-0.5c-0.8-1.2-1-3.8-1.7-4.7c-0.4-0.5-0.8-0.5-1.6,0.2
								c-0.4,0.4-0.8,1-1.3,1.8c-0.5,0.9-1,1.8-1.8,2.7c0,0,0.1,0.6,0.2,1.3c0,0.6,0,1.3,0,1.3c-0.9,0.4-1.5,0.5-2,0.5
								c-0.4,0.1-0.7,0.1-0.9,0.1c-0.4,0-0.5-0.1-1.1-0.5c-1.2,0.3-2.6,0.1-3.9-0.2c-1.3-0.4-2.4-0.9-3.5-1.4
								c-2.1-1.1-3.6-2.4-5-3.6c-2.8-2.5-4.9-5-8.9-8.7c0.1,0.1,0.1,0.2-0.1,0.2c-3.5-1.5-7.1-4.3-10.3-7.3c-3.2-3-5.9-6.1-8-8.3
								l-1.1-2.3c-0.6-2-4.4-4.5-7.3-6.4c-2.9-1.9-4.9-3.3-2.1-2.6c-11.3-11.3-22.8-24.2-34.1-37.8c-5.7-6.8-11.3-13.8-16.9-20.9
								c-2.8-3.5-5.6-7.1-8.3-10.7c-2.7-3.6-5.5-7.2-8-10.7c-0.1-0.1-0.2-0.2-0.4-0.3c-0.1-0.1-0.1-0.1-0.2-0.2l-0.1-0.1l0,0
								c0,0,0.1-0.1-0.2,0.1c-0.4,0.3-0.8,0.5-1.2,0.8c-0.8,0.5-1.7,1-2.5,1.6l-0.6,0.4l0,0l0,0l0-0.1l0-0.1c0,0,0,0,0,0l0.2-0.2
								l0.4-0.3l0.8-0.7c1-0.8,1.9-1.6,2.9-2.4l0.2-0.2c0.1-0.1,0.1-0.1,0.1-0.1l-0.1,0l-0.1,0.1c-0.1,0-0.2,0.1-0.2,0.1
								c-0.1,0-0.2,0-0.2,0.1l0,0.1l0,0l0,0c3.4-2.6-4.6,3.6-3.8,2.9l0.1-0.1c0.3-0.4,0.8-1,1.5-1.8l0.6-0.7l0.5-0.7l0.3-0.3
								c0,0,0.1-0.1,0.1-0.1l0,0l-0.1-0.1c-0.5-0.4-1-0.9-1.6-1.3c-0.5-0.4-1-0.8-1.5-1.3c-2-1.8-4.3-3.9-6.2-5.7
								c-3.9-3.6-6.8-5.9-4.7-2.3c-4.7-8.2-23.8-27.1-31.2-33.9c0.4,0.1,1,0.2,2,1.3c-11.7-15.8-18.9-13.4-29.2-29
								c-4.1,0.2-23.3-23.3-33.2-27.8c-1.2-2-1.3-3-0.3-2.8c-23.8-22.5-49.3-48-69.5-67c-2.4-1.8-4.8-3.7-7.3-5.8
								c-1.2-1.1-2.5-2.1-3.8-3.2l-1-0.9l-1.2-1c-0.7-0.6-1.1-0.8-1.5-1l-1.1-0.7c-1.5-1-3.1-2-4.6-3c-1.6-0.9-3.2-1.9-4.8-2.8
								l-1.2-0.7l-1.2-0.6l-2.5-1.3l-2.5-1.3c-0.8-0.4-1.7-0.8-2.6-1.1c-0.9-0.4-1.7-0.7-2.6-1.1c-0.9-0.4-1.7-0.8-2.6-1
								c-1.7-0.6-3.4-1.1-5.1-1.7c-1.7-0.5-3.4-1.1-5-1.6c-1.7-0.4-3.3-0.9-4.9-1.3c-1.6-0.4-3.2-0.8-4.8-1.1
								c-0.8-0.2-1.5-0.3-2.3-0.5c-0.4-0.1-0.6-0.1-0.9-0.1c-0.2,0-0.6-0.1-0.8-0.1c-2.4-0.5-5-1.1-7.3-1.6
								c-1.5-0.8-3.1-1.6-4.7-2.5c-0.4-0.2-0.8-0.5-1.2-0.7c-0.4-0.2-0.7-0.5-1.1-0.7c-0.3-0.2-0.6-0.5-0.7-0.6
								c-0.1-0.1-0.2-0.2-0.2-0.3l0.1,0.1l-0.1-0.1l-0.1-0.2l-0.3-0.4l-0.5-0.7c-0.4-0.5-0.7-0.9-1.1-1.4c-0.8-0.9-1.5-1.8-2.3-2.7
								c-1.6-1.8-3.3-3.4-5.1-5.1c-3.6-3.3-7.6-6.3-11.9-9.1c-8.6-5.5-18.5-9.8-28.7-11.4l2.6,0.1c-1.8-0.4-3.6-0.9-5.5-1.1
								c-0.9-0.1-1.9-0.3-2.9-0.4c-1.1-0.1-2.1-0.2-3.2-0.2c-4.3-0.1-8.6,0.4-12.6,1.6c-8.1,2.3-15.4,6.6-21.1,12.3l-1.1,1.1l-1,1.1
								c-0.3,0.4-0.7,0.7-1,1.1l-0.9,1.2c-0.3,0.4-0.6,0.8-0.9,1.2l-0.8,1.2c-0.5,0.8-1,1.5-1.5,2.3c-0.5,0.7-0.9,1.5-1.4,2.2
								c-0.4,0.8-0.9,1.6-1.3,2.3c-0.9,1.5-1.5,3.1-2.2,4.7c-2.6,6.2-3.8,12.3-3.9,17.3c-0.3,0.5-0.6,1-0.8,1.6
								c-0.2,0.6-0.4,1.1-0.6,1.8c-0.4,1.2-0.7,2.5-0.9,3.9c-0.1,0.7-0.2,1.4-0.2,2.2c0,0.7,0,1.5,0,2.3c0.1,1.6,0.2,3.2,0.7,4.9
								c0.8,3.4,2.1,7,5,10.5c1.4,1.7,3.1,3.2,5.2,4.5c2,1.3,4.4,2.2,6.7,2.7c3.6,0.4,7.4-0.1,10.8-1.2c3.4-1,6.6-2.6,9.7-4.3
								c3.1-1.8,6.1-3.7,9-5.9c0.7-0.5,1.5-1.1,2.2-1.6l1.1-0.8l0.5-0.4l0.4-0.3c1.1-0.9,2.4-1.6,3.7-2.3c5.4-2.9,12.1-4.7,18.9-5.8
								c3.4-0.5,6.8-0.9,10.2-1.1c1.7-0.1,3.3-0.1,5-0.2c0.8,0,1.6,0,2.4,0c0.4,0,0.8,0,1.2,0l0.5,0l0.3,0c0.1,0.2,0.2,0.3,0.4,0.4
								c0.1,0.1,0.2,0.1,0.2,0.2c0.1,0.1,0.1,0.2,0.2,0.3c0.1,0.1,0.1,0.2,0.2,0.3l0.1,0.1c0.1,0.1,0.1,0.1,0.2,0.3
								c0.2,0.2,0.4,0.5,0.5,0.8l0.2,0.4l0.2,0.4c0.5,1.1,0.9,2.2,0.9,3.4c0.1,2.4-0.9,4.7-1.9,4.7c-1.2,4.7-4.8,10.2-9,14.5
								l-1.2,1.2c-0.4,0.4-0.7,0.8-1,1.2c-0.7,0.8-1.3,1.5-1.9,2.3c-1.2,1.5-2.3,3.1-3.4,4.7c-0.6,0.8-1.1,1.7-1.6,2.5
								c-0.3,0.4-0.5,0.9-0.8,1.4l-0.4,0.7l-0.2,0.4l-0.2,0.4c-0.3,0.6-0.5,1.2-0.8,1.8l-0.2,0.4l-0.2,0.5l-0.9,1.9
								c-0.3,0.7-0.6,1.4-0.9,2.1c-1.2,2.8-2.1,5.5-2.4,8l-0.1,0.9l0,0.9c0,0.6,0.1,1.1,0.1,1.7c0.2,1.1,0.4,2.2,1,3.2
								c0.5,1.1,1.6,2,2.6,2.5c1,0.5,2.1,0.8,3.2,0.9c2.3,0.3,5,0,7.8-0.8c2.7-0.7,6.2-2.1,7.6-2.4c1.8-0.5,3.5-0.9,5.1-1.2
								c3.1-0.5,5.5-0.3,8.2,1c0.2,0.1,0.4,0.2,0.6,0.3c0.2,0.2,0.4,0.3,0.6,0.5c0.4,0.4,0.9,1,1.4,1.6c0.9,1.3,1.8,2.9,2.7,4.6
								c0.9,1.8,1.8,3.6,2.7,5.4c0.9,1.9,2,3.8,3.4,5.8c0.3,0.5,0.8,1,1.2,1.5l0.4,0.5c0.1,0.1,0.1,0.1,0.1,0.2c0,0,0,0.1,0.1,0.1
								c0.3,0.5,0.6,1.1,0.9,1.8c0.5,1.4,0.9,3,1,4.6c0,0.4,0.1,0.8,0.1,1.2c0,0.2,0,0.4,0,0.6c0,0.2,0,0.4,0,0.5
								c0,0.4-0.1,0.9-0.3,1.3c-0.1,0.4-0.3,0.8-0.7,1.1c-0.3,0.3-0.8,0.4-1.1,0.6l-0.3,0.1l-0.4,0.1c-0.4,0.1-0.7,0.3-1,0.4l-1.9,1
								c-0.7,0.3-1.2,0.7-1.8,1.1l-1.8,1.1c-1.1,0.8-2.2,1.6-3.2,2.5c-1,0.9-2.1,1.8-3,2.7c-3.8,3.7-7,7.8-9.9,12.1
								c-2.8,4.3-5.3,8.8-7.5,13.4c-2.2,4.6-4,9.3-5.6,14.1c-6.3,19.1-8.7,39-8.1,58.1c0,0-0.1-0.3-0.1-0.6
								c-0.1-0.3-0.1-0.6-0.1-0.6c0.5,2.7,1.2,5.5,1.9,8.3c0.4,1.4,0.9,2.8,1.3,4.2c0.4,1.4,0.9,2.8,1.4,4.2c1,2.8,2,5.6,3.1,8.3
								c0.5,1.3,1.1,2.7,1.6,4c0.5,1.3,1.1,2.6,1.6,3.9c0.1,1.1-0.3,1.1-0.9-1.2c0.5,1.8,1,3.6,1.4,5.4c0.5,1.8,1,3.6,1.4,5.3
								c0.2,0.9,0.4,1.8,0.7,2.7c0.2,0.9,0.5,1.8,0.7,2.6c0.5,1.8,0.9,3.5,1.4,5.3c0.5,1.8,1.1,3.5,1.6,5.2c0.6,1.7,1.1,3.5,1.8,5.2
								c1.3,3.5,2.9,6.9,4.7,10.3c-0.4,0.1-0.4,0.1-1.9-2c1.8,3.1,3.7,6.3,5.6,9.5c1.9,3.2,3.9,6.5,6.2,9.7c2.3,3.2,4.8,6.4,7.6,9.3
								c2.9,2.9,6.1,5.7,9.6,8.1l0.3,1.1c0,0,0.6,0.4,1.4,1c0.9,0.6,2,1.3,3.2,2c1.2,0.7,2.3,1.4,3.2,1.9c0.9,0.5,1.5,0.8,1.5,0.8
								c-0.6,0.5-1.7,1.3-6.3-2.4c14.7,11.3,31.9,18.8,49.6,23.5c17.7,4.6,36,6.5,54.2,6.3l1.6,0l0.4,0l0.8,0c0.1,0,0.3,0,0.4,0.1
								c0.1,0.1,0.2,0.2,0.3,0.3c0.2,0.2,0.4,0.4,0.5,0.7c0.2,0.5,0.1,1.2-0.1,1.7c-0.1,0.3-0.3,0.5-0.5,0.7l-0.2,0.3l-0.5,0.6
								l-1.1,1.2c-5.7,6.7-11.6,13.3-17.5,19.9c-6,6.6-12,13.1-18.2,19.4c-3.1,3.1-6.2,6.2-9.4,9.1c-1.6,1.4-3.2,2.9-4.8,4.1
								c-0.4,0.3-0.8,0.6-1.2,0.9l-0.5,0.3c-0.1,0.1-0.2,0.1-0.3,0.2c-0.4,0.2-0.8,0.4-1.2,0.4c-14.4,0.2-28.9,0.4-43.3,0.5
								c-14.6,0.1-29.2,0.3-43.8,0.4c-29.2,0.2-58.4,0.3-87.6,0.2l4.8-0.7l-25.2,1.3c0.1-0.4,1.3-0.6,2.5-0.8
								c-32.1-1.3-65.5,0.9-96.8,0.5c0.1-0.4,4.9-1.1,0.5-1.6c-23.2,2.1-37.2-2.7-48.9,1.6c-1.1-0.2-1.8-1.2,0.5-1.5
								c-64.5,1.5-130.8,1.4-195.8,0.7c-54.1,4-114.6,0.4-170.9,3.5l0.3-0.8c-72.8,2.8-150-0.2-225.5,0.4c-31.3-0.3-52.5,0.6-84,0.7
								l-0.8-1c-53,3.8-111.4-3.4-166.7,0.8l3.8-1.3c-8.6,2.1-33.4-0.7-30.2,2.8l-9.8-1.1c-37.6,4.7-68.4-2.2-114.4,0.9l3-0.8
								c-12.2,0.7-26.5,1.2-35.6,0.4c1.4-0.1,0.8-0.4,3.7-0.6c-38.3-3.3-81,0.3-121.4,0.2l4.6-1.6c-19.6,1.8-55.4,0.1-81.1,1
								l1.6-0.7l-13,1l-0.3-1.5C990.7,598.9,959.2,600.2,926.6,600.4z"/>
							<path fill="#3F3B3C" d="M589.2,602c0.1,0,0.2,0,0.4,0C590.6,602,590.1,602,589.2,602z"/>
							<path fill="#3F3B3C" d="M2875.7,481.2c1.1,1,2,1.9,2.9,2.7C2878.5,483.5,2876.6,482.1,2875.7,481.2z"/>
						</g>
					</g>
				</g>
			</g>
		</g>
		<g>
			<g>
				<g>
					<g>
						<g>
							<polygon fill="#3F3B3C" points="2907.1,590.6 2906.9,590.1 2906.4,591.4 							"/>
							<path fill="#3F3B3C" d="M2903.8,593.4c0.1,0.2,0,0.6,0.1,0.8l1.9-3.6C2905,588.6,2904.4,594.8,2903.8,593.4z"/>
							<path fill="#3F3B3C" d="M2903.2,593c-0.7-0.8-1.1,0.8-1.2,1.4C2902.3,593.1,2903.4,594.9,2903.2,593z"/>
							<path fill="#3F3B3C" d="M2837.3,593.9c0.1,0,0.2-0.1,0.2-0.1C2837.4,593.7,2837.3,593.8,2837.3,593.9z"/>
							<path fill="#3F3B3C" d="M2820.1,599.6l-0.2,1.3c3.2-2.4,6.8,0,10.2-1l-0.2,0.5c8.6,0.5,16.6-1.7,25.1-2.8
								c-0.1,0.1-0.2,0.5-0.3,0.7c0.4-0.5,0.9-1.3,1.3-1.2c0.1,0.3-0.1,0.6-0.3,0.8c1.8,2.2,5.3-1.4,6.4,0.3
								c0.5-0.2,0.7-1.2,0.4-1.9c6.7-0.6,13.9-1,20.7-2.7c0.3,0.3,0.4,0.9,0.3,1.7c5.8-3.6,11.9-2.2,17.9-1.6c0.2-1-0.6-1,0-2
								c-1.9-1.2-3.5,2.3-5.2,0.6l0.2-0.9c-1.3-0.6-0.3,2.3-1.6,1.1c-0.5-0.8,0.1-1.2-0.1-1.2c-2.7,0.4-5.5-0.5-8,1.8
								c-0.6-2-2.9-0.1-3.9-2c-0.7,0.8-1.4,0.6-1.7,1.9c-9.4-1.1-19,0.9-28.7,0.7c-4.5,3.8-9.9-0.7-15.3,0.5c0-0.1,0-0.3,0-0.4
								c-1.7,0.9-4.3,1.4-6.4,0.9l-1.8,1.6c-12.5-3.3-25.3-1-38.1-2.4c-14.5-1-27.1-3.7-41.2,1.3c0-0.4-0.1-0.6,0.3-0.7
								c-1,0.2-2,0.3-3,0.2c-0.5,0-1,0-1.5-0.1l-0.7,0l-0.4,0c-0.1,0-0.2,0-0.3,0c-1-0.1-1.8-0.3-3.1,0.1l0.3-0.4
								c-0.4,0.2-0.9,0.4-1.4,0.5c-0.6,0.3-0.7-0.1-0.9-0.3c-0.3-0.5-0.4-1.3-0.5-2c-0.1-0.8-0.1-1.6,0-2.4l0-0.7l0.1-0.9l0.2-1.8
								c0.5-4.8,1.2-9.5,0.3-14.2c2.3-10.8,5.4-22.9,9.4-34l0.7,0.3c1.2-4.6,4-8.4,7-11.9c3-3.5,6.3-6.6,8.9-10.3
								c3.8-2.8,6.6-6.7,10.2-10.3c1.8-1.8,3.7-3.4,5.9-4.7c1.1-0.7,2.2-1.2,3.4-1.6c1.2-0.4,2.4-0.8,3.6-0.8
								c3.4,0.8,6.3-1.2,9.5-2.9c1.6-0.9,3.2-1.7,4.8-2.1c1.6-0.4,3.2-0.4,4.7,0.4c6.1,2.2,11.6,2.5,17.3,2c5.6-0.6,11.5-2,17.5-3.1
								c5.3,1.6,10.7,1.6,16.1,2c5.4,0.4,10.7,1.3,15.3,4.5c2.7-0.7,5.1,0.7,7.4,2.4c2.3,1.7,4.6,3.7,7.3,4.1l0.1-1
								c1.1,3.3,5.4-2.6,5.3,1.9l-0.3,0.1c0.3,2.4,3.9-4.1,3.7-1.5l0.5-1c1.3,0.1-0.2,1.2,0.6,1.9c0.4,0,0.7-1.8,1.3-1
								c-1.2,4.2,3.3,0.1,1.7,4.8c-0.6-0.2,0.4,2.1-1.4,2.6c0.2,0.6,2.2,1.1,2.8-0.9c0.9-2,2.4-3.5,1.8-5.6l-0.8,1.4
								c0.1-1.7,0-0.9,0.2-2.1c-1.5-0.8-1-3.1-1.9-4.4c0,0,0,0.1-0.1,0.2c-1.4,1.6-2.2,0.1-2.7-0.4l0-0.9c0.2-1.9-3,2.9-1.5,0
								c-3.6-0.3-7.4-1.5-11.1-2.5c-0.9,1-2.8-0.9-2.6,1.6c-0.2-2.9-2.9-4.2-3.9-4.4c0.1-0.2,0.2-0.5,0.4-0.4
								c-1.2-3.9-3.2,2.5-4.1-2.1c-1,2.8-3.3-1.8-5.1,1.4c-0.1-0.7,0-1.3,0.2-1.8c-3.4-0.8-7.1-2.7-10-3.4c-1.5,1.1-3,0.5-4.4,0.1
								c-1.5-0.4-2.9-0.7-4.3,0.9c-1.7-1-4.4-3-7.2-1.8l0.3-0.4c-1.5-0.1-3.1-0.2-4.6,0.1c-1.5,0.2-3,0.7-4.1,1.8
								c-0.6-3.6-1.9-2.9-3.1-4.1c-2,1.5-6,0.8-9,2.2c-0.4-1.6-2.5,0.7-2.6-1.7c-8.4,4.5-18.2,3.7-28.1,2.5l0.1-0.2
								c-0.9,1.6-1.5,4.7-2.2,6.6c-0.2-0.2-0.3-0.5,0-0.6c-1.4,0.8-3.6-0.8-5,0.1c-0.1-0.4-0.1-0.4,0-0.8c-0.6,0.8-1.5,0.5-2.4,0.5
								c-0.9,0-1.9,0.1-2.4,1.2l-0.3-0.5l-0.8,1.2c-0.3-0.7-0.7-1.8,0-1.8c-3.5,1.3-6.8,3.2-9.9,5.5c-3,2.3-5.7,5-8.1,7.8
								c-4.9,5.7-8.6,12-12.6,17.9l-0.3-0.8c0,0-0.1,0.8-0.2,1.5c-0.1,0.8-0.1,1.5-0.1,1.5c-0.3-0.2-0.4-0.4-0.5-0.6
								c-1.5,1.2-2.2,2.9-2.7,4.7c-0.5,1.8-0.9,3.5-1.7,5c-0.3-0.2-0.8-1-1.4-0.7c0.4,1.6-0.6,2.2-1.3,2.9c-0.7,0.6-1.1,1.3,0.7,2.7
								c-0.2,0-1.2-0.3-1.4-0.6c-1.3,7.1-3.5,13.9-5.9,20.6c1.2,3.3,0.7,6.3,0.1,9.4c-0.6,3-1.2,6.2,0,9.3l-0.8-0.1
								c0.4,2,0.6,4,0.5,6c0,1-0.1,2-0.2,3c-0.1,1.1-0.2,2.2-0.3,3.2c-0.2,2.2-0.4,4.6,0.2,6.7c0,0.1,0,0.2,0.1,0.2l0.2,0l0.4,0
								l0.8,0.1l1.7,0.1c1.1,0.1,2.3,0.1,3.4,0.1c0.9,0.1,1.8,0.1,2.6,0.1c0.7,0,1.4-0.1,2.1-0.2c1.4-0.2,2.8-0.4,4.4-0.5l0.1,1
								c5.6-3.8,11.8,3.4,17.6-0.8l-0.4,1.3c0.9-2.1,3.5,0.7,3.2-2.8l1,1.1c4-4.7,7.2,2.2,12.1-0.9l-0.3,0.8
								c1.3-0.7,2.8-1.2,3.8-0.4c-0.1,0.1-0.1,0.4-0.4,0.6c4.1,3.3,8.6-0.3,12.8-0.2l-0.5,1.6c2.1-1.8,5.9-0.1,8.6-1l-0.2,0.7l1.4-1
								l0,1.5C2813.3,601.1,2816.6,599.8,2820.1,599.6z"/>
							<path fill="#3F3B3C" d="M2855.7,597.9C2855.7,597.9,2855.7,597.9,2855.7,597.9C2855.6,598,2855.6,598,2855.7,597.9z"/>
							<path fill="#3F3B3C" d="M2901.5,501.6c0.1,0.1,0.2,0.3,0.3,0.4C2901.9,501.8,2901.6,501.7,2901.5,501.6z"/>
						</g>
					</g>
				</g>
			</g>
		</g>
		<g>
			<g>
				<g>
					<g>
						<g>
							<path fill="#3F3B3C" d="M2639.6,596.6c0,0-0.2-0.2-0.3-0.4c-0.2-0.2-0.4-0.3-0.4-0.3s-0.2,0-0.4,0.1
								c-0.2,0.1-0.6,0.2-0.8,0.3c-0.5,0.2-0.9,0.5-0.9,0.5s0.1,0,0.4-0.1c0.2,0,0.4-0.1,0.9-0.1
								C2638.8,596.5,2639.6,596.6,2639.6,596.6z"/>
							<path fill="#3F3B3C" d="M2633.9,599c0.1,0.2,0.1,0.6,0.2,0.8c0,0,0-0.2,0-0.6c0.1-0.4,0-0.8,0.2-1.3c0.1-0.2,0.2-0.5,0.2-0.7
								c0.1-0.2,0.3-0.4,0.4-0.6c0.2-0.4,0.5-0.6,0.5-0.6c-0.3-0.2-0.5-0.3-0.6-0.4c-0.2,0-0.3,0.1-0.5,0.2
								c-0.2,0.3-0.3,0.9-0.3,1.4c0,0.6,0,1.2,0,1.5C2634,599.2,2634,599.4,2633.9,599z"/>
							<path fill="#3F3B3C" d="M2634.1,600.7c0.1,0.5,0.1,0.9,0,1.2c0,0.2,0,0.4,0,0.5c0,0.1,0,0.1,0,0.2c0,0,0,0.1,0,0.1
								c0,0,0,0.1,0,0.1c0-0.1,0-0.1,0-0.3c0-0.2,0-0.4,0-0.7C2634.2,601.1,2634,600.5,2634.1,600.7z"/>
							<path fill="#3F3B3C" d="M2656.9,574.7c0,0,0,0.1,0,0.2C2657,574.8,2657,574.7,2656.9,574.7z"/>
							<path fill="#3F3B3C" d="M2658.3,562.9l-1-0.9c0.8,3-2.4,3.3-2.8,5.6l-0.3-0.4c-3.4,4-4.4,9.2-6.4,14
								c-0.1-0.2-0.4-0.4-0.5-0.6c0.2,0.5,0.8,1.2,0.5,1.4c-0.3-0.1-0.5-0.4-0.5-0.6c-2.5-0.4-0.7,3.4-2.5,3c0,0.4,0.7,1,1.4,1.3
								c-1.8,3.6-3.9,7.5-4.7,11.8c-0.4,0-0.9-0.3-1.5-0.8c0.6,2.4,0.1,4.2-0.8,5.7c-0.4,0.7-1,1.4-1.4,1.9
								c-0.1,0.1-0.1,0.1-0.1,0.1c0,0,0,0,0,0l0,0l0,0l-0.1-0.1l-0.3-0.1c-0.3-0.2-0.7-0.3-1-0.4c-1.4-0.6-2.4-1-3.1-1.1
								c-0.1,0-0.2,0-0.3,0c-0.1,0-0.1,0-0.2,0l0,0l0,0c1.8-0.6-4,1.4,4-1.4l0,0l-0.1,0l-0.1,0.1l-0.5,0.3c-0.6,0.6-1.2,0.4-1.6,0.7
								c-0.1,0.1-0.3,0.2-0.3,0.3c0,0,0,0-0.1,0.1l0,0l0,0c0,0,0,0,0,0c0,0,0,0,0,0c0,0,0,0.1,0,0c0,0.1,0,0,0,0c0,0,0,0,0.1-0.1
								c0.2-0.2,0.2-0.2,0.6-0.4c0.3-0.2,0.6,0,1-0.4l0.5-0.4l0.3-0.2l0.1-0.1l0,0c0.9-0.3-7.6,2.6-4,1.4l0,0l0,0l0,0l0,0
								c0,0,0.1,0,0.1,0c0.5,0,1.9,0.5,3.3,1.1c0.4,0.2,0.8,0.3,1.1,0.5l0.6,0.3l0.3,0.1l0,0c0,0-0.1,0-0.1-0.1
								c0-0.1,0.2-0.2,0.6-0.2l0.8,0.5c0.8-0.2-2-1.2-0.6-1.2c0.8,0.2,1,0.6,1.1,0.6c0.4-1.4,2-2.4,0.9-4.8c1.9,0.8,1-1.4,2.9-0.8
								c-0.4-0.8,0-1-1-1.9c4-4.1,5.6-9.9,9.1-14.6c-1.6-4.4,4-4.5,4.8-7.8c0.1,0.1,0.2,0.1,0.3,0.2c-0.2-1.4,0.3-2.9,1.5-3.7
								l-0.7-1.8c7.1-4.2,9.7-11.9,15.3-17.2c2.6-2.9,5.5-5.3,7.9-7.9l1.2-1.4c0.1-0.2,0.3-0.4,0.4-0.7l0.2-0.5
								c0-0.1,0.1-0.2,0.1-0.3l0.2-0.1c0.3-0.2,0.6-0.4,1-0.7c0.2-0.1,0.5-0.3,0.7-0.5c0.1,0,0.2-0.1,0.3-0.1l0.4-0.1l0.8-0.2
								c-0.1,0.4-0.1,0.6-0.3,0.7c2.6-0.2,4.6,1.6,7.1,1.2l-0.1,0.4c3-1,5.8-0.7,8.6-0.3c1.4,0.1,2.9,0.3,4.3,0.2
								c0.4,0,0.7,0,1.1-0.1c0.1,0,0.4-0.1,0.7-0.2c0.5-0.2,1-0.4,1.7-0.7c0.3-0.2,0.7-0.4,1.1-0.6c1.4,0,2.8-0.2,4.2-0.6
								c0.1,0,0.2,0,0.2,0.1c0,0.1,0.1,0.2,0.1,0.3c0,0.2,0,0.4,0,0.6c0,0.4,0,0.7,0,1.1c0,0.7-0.1,1.5-0.2,2.2
								c-0.3,3.3-0.6,6.7-0.9,10l-0.7-0.2c0.2,2.9-1.1,5.5-2.5,8c-1.4,2.5-2.8,4.9-3.1,7.8c-1.7,2.5-1.7,5.6-1.9,8.7
								c-0.2,3.1-0.6,6.4-3.1,8.4c-2.5,0.6-2.6,2.8-3.1,5.1c-0.3,1.1-0.6,2.3-1.4,3.1c-0.4,0.4-0.8,0.7-1.3,0.9
								c-0.5,0.2-1.1,0.2-1.7,0c-2.3-0.4-4.1-0.5-5.7-0.4c-1.7,0.2-3.2,0.7-4.7,1.4c-3.1,1.4-6.1,3.8-9.4,6.1
								c-3.4-0.6-6.5,0.6-9.7,1.4c-3.2,0.8-6.4,1.3-9.7-0.6c-2.8,2.9-6.5-3-9.7-2l0.2,0.9c-1.4-2.8-2.4,4.2-3.4,0l0.1-0.2
								c-0.8-2.1-1.1,5.2-1.7,2.6l0,1.1c-0.7,0.4-0.2-1.2-0.8-1.6c-0.2,0.2,0.1,1.9-0.4,1.4c-0.5-4.3-1.7,1.1-2.3-3.7
								c0.4,0-0.9-1.8,0-2.9c-0.3-0.5-1.8,0-1.3,2c0.2,2.2,0,4.2,1,5.8l-0.1-1.6c0.5,1.6,0.3,0.8,0.5,2c1,0.1,1.4,2.4,2.1,3.3
								c0,0,0-0.1,0-0.2c0.3-2,1-0.9,1.4-0.6l0.2,0.9c0.4,1.9,0.8-3.7,0.8-0.5c1.9-0.9,4.3-1,6.6-1.2c0.3-1.2,1.8,0,1.1-2.3
								c0.7,2.6,2.5,3.2,3.1,3.1c0,0.3,0,0.5-0.1,0.4c1.4,3.4,1.3-3.3,2.7,0.9c0-3,2.2,0.8,2.6-2.7c0.2,0.7,0.3,1.3,0.3,1.8
								c2.1-0.1,4.6,0.8,6.4,0.8c1.3-2.8,3.9,0.8,4.9-2.9c1.2,0.6,3.2,2,4.5,0.3l-0.1,0.5c1.7-0.4,3.9-1,4.7-3.4
								c1.1,3.4,1.8,2.5,2.8,3.5c0.9-1.8,3.4-1.9,4.9-3.8c0.7,1.5,1.3-1.1,2.1,1.2c2-2.9,4.5-4.5,7.5-5.8c1.5-0.7,3.2-1.2,5-2.1
								c1.9-0.9,3.5-1.7,5.2-2.5l0.1,0.2c-0.5-1.5-2.3-3.9-3.3-5.4c0.2,0.1,0.5,0.3,0.4,0.4c0.2-1.1,2.6-0.7,2.8-1.8
								c0.3,0.2,0.3,0.2,0.6,0.5c-0.4-1.3,2.6-0.9,1.5-2.7l0.6,0.2l-0.5-1c0.7,0.4,1.7,0.9,1.3,1.1c2.3-3.8,3.2-8.2,3.8-12.6
								c0.6-4.3,1-8.6,2.4-12.7l0.6,0.5l-0.9-1.9c0.4,0.1,0.5,0.2,0.7,0.4c1.8-1.7,0.2-4.4,1-6.3c0.4,0.1,1,0.6,1.5,0.4
								c-1.7-1.9,3.2-1.8-0.9-3.5c0.2,0,1.2,0.1,1.5,0.4c-0.1-0.6-0.1-1.1-0.1-1.7c0-0.8,0.1-1.6,0.1-2.4c0.1-1.5,0.2-3,0.4-4.5
								c0.1-1.5,0.3-2.9,0.2-4.3c0-1.4-0.2-2.5-0.6-3.7c-0.2,0-0.4-0.1-0.6-0.1c-0.2,0-0.4,0.1-0.6,0.2c-0.4,0.1-0.8,0.2-1.1,0.4
								c-0.4,0.1-0.7,0.2-1,0.3c-0.4,0.1-0.7,0.1-1.1,0.1c-0.3,0-0.7,0-1,0.1l-0.5,0l-0.6,0l-2.2,0.2c-0.9,0.1-1.9,0.2-2.8,0.4
								c-0.5,0.1-0.9,0.3-1.3,0.5c-0.3,0.2-0.7,0.4-1,0.7l0-0.8c-2.3,1.3-4.8,1-7.1,0.4c-2.3-0.6-4.6-1.6-7-1.7
								c-1.9-0.7-3.4,0-5.3-0.4l0.2-1c-0.4,0.3-0.8,0.5-1.2,0.5c-0.4,0.1-0.8,0.1-1.1,0c-0.7-0.1-1.5-0.5-2.3-1
								c-0.4-0.2-0.8-0.5-1.2-0.7c-0.1-0.1-0.2-0.1-0.3-0.2c-0.1,0-0.2,0-0.3,0c-0.2,0-0.4,0.1-0.6,0.2c-0.7,0.3-1.5,0.7-2,1.5
								c-0.5,0.8-0.9,1.8-0.8,3c0,0-0.2-0.3-0.4-0.6c-0.2-0.3-0.4-0.6-0.4-0.6c1.1,2-2.1,1.4,0.9,3.5l-1.2-0.2
								c2.3,4.8-4.4,2.2-3.7,6.4l-0.6-0.7c0.1,1-0.1,2.1-1,2.1c0-0.1-0.3-0.3-0.3-0.5c-4.1,0-2.8,4.4-4.4,6.4l-1.1-1.2
								c0.8,2.1-2,2.9-2.3,4.8l-0.5-0.5l0.4,1.3l-1.2-0.9C2659.4,558.7,2659.3,561.1,2658.3,562.9z"/>
							<path fill="#3F3B3C" d="M2647.2,581.5C2647.3,581.5,2647.3,581.5,2647.2,581.5C2647.2,581.4,2647.2,581.4,2647.2,581.5z"/>
							<path fill="#3F3B3C" d="M2640,610.7c-0.1-0.1-0.2-0.2-0.3-0.3C2639.8,610.7,2639.9,610.6,2640,610.7z"/>
						</g>
					</g>
				</g>
			</g>
		</g>
	</g>
	<path opacity="0.8" enable-background="new    " d="M251.2,278.6l2.4,5.2v-6.3v-11.9v-10.7v-1.2c0-7.6,1.9-11.5,5.6-11.5
		c2.6,0,4,2.1,4,6.3c0,2.1-0.2,7.1-0.6,15.1c-0.9,20.1-1.4,35-1.4,44.7c0,12.9,0.3,22,0.8,27.3c0.8,7.9,1.2,12,1.2,12.3
		c0,4.7-1.7,7.1-5.1,7.1c-4,0-5.9-3-5.9-9.1c0-4.5,0.1-8.6,0.4-12.3c0.8-7.1,1.2-11.3,1.2-12.7c0-24-7.4-43.2-22.2-57.6
		c-14.8-14.4-34.5-21.6-59.1-21.6c-33.3,0-58.5,12.4-75.4,37.2c-18,26.1-27,58.6-27,97.4c0,39.6,9.1,70.6,27.3,93.1
		c18.2,22.4,43.4,33.7,75.7,33.7c25.9,0,46.5-7.2,61.8-21.6c15.3-14.4,23.5-34.1,24.6-59.2c0.5-10.6,2.8-15.8,6.7-15.8
		c4,0,6,2.6,6,7.9c0,28.8-9.4,52.2-28.1,70.3c-18.8,18.1-42.9,27.1-72.5,27.1c-35.1,0-62.8-12.5-83-37.4
		c-20.2-25-30.3-59.1-30.3-102.4c0-42,10.4-75.7,31.1-101.2c20.8-25.5,48.4-38.2,82.8-38.2c25.8,0,46.3,7.1,61.5,21.4
		C238.4,258.8,244.4,267,251.2,278.6z"/>
	<path opacity="0.8" enable-background="new    " d="M334.8,342.1c6.9-10.3,13.7-18.1,20.6-23.4c14.5-10.8,31.8-16.2,51.9-16.2
		c14.8,0,27.7,3,38.8,9.1c12.4,7.1,20.5,17.3,24.2,30.5c2.1,7.7,3.2,21,3.2,40V428c0,30.9,1,49.5,3.2,55.8c2.1,6.3,8.2,9.5,18.2,9.5
		c1.9,0,4.6,0,8.3,0c3.7,0,6.5,0,8.3,0h2c5.8,0,8.7,1.5,8.7,4.4c0,3.2-2.5,4.7-7.5,4.7h-1.2l-13.9-1.2l-16.2-1.2h-11.1h-7.9h-10.7
		l-15.8,1.2l-13.1,1.2h-1.6c-5,0-7.5-1.5-7.5-4.4c0-3.2,2.9-4.7,8.7-4.7h2c1.8,0,4.5,0,7.9,0c3.4,0,5.9,0,7.5,0
		c10,0,16.1-3.2,18.2-9.5c2.1-6.3,3.2-25,3.2-55.8v-44c0-14.5-0.4-24.3-1.2-29.3c-1.6-10.8-5.4-19.7-11.5-26.5
		c-10.3-11.9-25.5-17.8-45.6-17.8c-18.5,0-34.3,5.9-47.5,17.8c-15,13.5-22.6,32.6-22.6,57.4V428c0,30.6,1,49.2,3.2,55.6
		c2.1,6.5,8.1,9.7,17.8,9.7c1.6,0,4.2,0,7.7,0c3.6,0,6.1,0,7.7,0h2c5.8,0,8.7,1.5,8.7,4.4c0,3.2-2.5,4.7-7.5,4.7h-1.2l-13.5-1.2
		l-15.8-1.2h-10.3h-7.9h-11.1l-16.6,1.2l-13.8,1.2c-0.3,0-0.7,0-1.2,0c-5,0-7.5-1.5-7.5-4.4c0-3.2,2.9-4.7,8.7-4.7h2
		c1.9,0,4.7,0,8.5,0s6.7,0,8.5,0c10,0,16.1-3.2,18.2-9.5c2.1-6.3,3.2-25,3.2-56V289.2c0-26.2-1-41.2-3-44.9c-2-3.7-6.4-5.6-13.3-5.6
		c-3.7,0-8,0.4-13.1,1.1c-7.4,1.1-11.4,1.7-11.9,1.7c-5.3,0-7.9-1.7-7.9-5.2c0-3.4,2.4-5.1,7.1-5.1h0.8h11.5h15.8c1.6,0,4,0,7.3,0
		c3.3,0,5.7,0,7.3,0c6.3,0,9.5,3.2,9.5,9.5L334.8,342.1L334.8,342.1z"/>
	<path opacity="0.8" enable-background="new    " d="M694.4,483.9v-15.2c-4.7,9.2-10.2,16.6-16.2,22.2
		c-14.2,12.9-32.2,19.4-53.9,19.4c-25.9,0-44.9-7.3-57-21.8c-6.6-7.9-11-17.6-13.1-28.9c-1-6.6-1.6-17.4-1.6-32.5v-57.8
		c0-23.8-0.8-38.1-2.4-43.2c-1.6-5-6.3-7.5-14-7.5c-3.7,0-8,0.3-12.8,0.8c-6.9,0.8-10.8,1.2-11.6,1.2c-5.1,0-7.6-1.9-7.6-5.6
		c0-3.2,2-4.8,6-4.8h1.2l11.1,1.2h23l3.9-0.4l6.3-0.8c4.7,0,7.1,4.9,7.1,14.6v2.4c0,2.1,0,5.1,0,9.1v91.9c0,14,0.7,24.2,2,30.5
		c1.9,10.6,6.2,19.4,13.1,26.5c10.8,11.4,26.4,17,46.7,17c26.9,0,46.1-9.4,57.4-28.1c8.2-13.5,12.3-33.5,12.3-60.2v-44.7
		c0-26.7-1-41.8-3-45.3c-2-3.6-6.4-5.4-13.1-5.4c-4,0-8.5,0.3-13.3,0.8l-11.7,1.2c-5.1,0-7.6-1.7-7.6-5.1c0-3.4,2.1-5.2,6.3-5.2h1.2
		l10.7,1.2h19.8c4,0,6.7-0.2,8.3-0.6c1.6-0.4,3.3-0.6,5.2-0.6c5,0,7.5,5.3,7.5,15.8c0,3.7,0,6.3,0,7.9c0,0.8,0,4.7,0,11.9
		c0,7.4,0,14.4,0,21v80c0,26.7,0.9,41.8,2.8,45.3c1.9,3.6,6.2,5.4,13.1,5.4c0.8,0,5-0.1,12.7-0.4c5.3-1,9.4-1.6,12.3-1.6
		c5,0,7.5,1.7,7.5,5.2s-2.4,5.2-7.1,5.2h-0.8l-11.5-0.8l-9.1-0.4h-4.7c-0.8,0-2.1,0.4-4,1.2c-1.9,0-3.4,0-4.7,0c-1.9,0-4.1,0-6.7,0
		c-4,0-6.6-1.1-7.9-3.4c-1.3-2.3-2-6.8-2-13.4L694.4,483.9L694.4,483.9z"/>
	<path opacity="0.8" enable-background="new    " d="M798.5,249.7v104.6c6.1-12.7,13.1-22.4,21-29.3c14.2-12.4,31.3-18.6,51.1-18.6
		c25.1,0,45.3,9.3,60.6,27.9s23,43.2,23,73.9c0,31.4-7.7,56.3-23.2,74.6c-15.5,18.4-36.6,27.5-63.6,27.5c-31.2,0-54.1-14.6-68.9-44
		c0,9.8,0.1,16.1,0.4,19c0.5,5.5,0.8,9.9,0.8,13.1c0,5.8-2.1,8.7-6.3,8.7c-4.2,0-6.3-2.5-6.3-7.5l1.2-51.2V293
		c0-29.1-1.5-45-4.3-47.6c-2.1-1.9-6.1-2.8-11.9-2.8c-4,0-8.3,0.3-13.1,0.8c-6.9,0.8-10.8,1.2-11.9,1.2c-5,0-7.5-1.6-7.5-4.8
		c0-3.2,2.1-4.8,6.3-4.8h1.2h11.5h15.4c1.9,0,4.4,0,7.7,0s5.9,0,7.7,0c4.2,0,7,1.4,8.3,4.4C798.2,241,798.5,244.4,798.5,249.7z
		 M867.2,502.4c23.7,0,42.3-8.2,55.7-24.7c13.4-16.5,20.1-39.1,20.1-67.9c0-29.6-6.5-52.9-19.4-69.9c-12.9-17-30.7-25.5-53.3-25.5
		c-21.1,0-38.2,7.4-51.3,22.2c-7.6,8.7-13,18.4-16,29.1c-3,10.7-4.5,25.7-4.5,44.9c0,29.6,5.4,51.6,16.2,66.1
		C827.6,493.8,845.1,502.4,867.2,502.4z"/>
	<path opacity="0.8" enable-background="new    " d="M1003,249.7v104.6c6.1-12.7,13.1-22.4,21-29.3c14.3-12.4,31.3-18.6,51.1-18.6
		c25.1,0,45.3,9.3,60.6,27.9c15.3,18.6,23,43.2,23,73.9c0,31.4-7.7,56.3-23.2,74.6c-15.4,18.4-36.6,27.5-63.6,27.5
		c-31.2,0-54.1-14.6-68.9-44c0,9.8,0.1,16.1,0.4,19c0.5,5.5,0.8,9.9,0.8,13.1c0,5.8-2.1,8.7-6.3,8.7c-4.2,0-6.3-2.5-6.3-7.5
		l1.2-51.2V293c0-29.1-1.4-45-4.4-47.6c-2.1-1.9-6.1-2.8-11.9-2.8c-4,0-8.3,0.3-13.1,0.8c-6.9,0.8-10.8,1.2-11.9,1.2
		c-5,0-7.5-1.6-7.5-4.8c0-3.2,2.1-4.8,6.3-4.8h1.2H963h15.4c1.9,0,4.4,0,7.7,0c3.3,0,5.9,0,7.7,0c4.2,0,7,1.4,8.3,4.4
		C1002.8,241,1003,244.4,1003,249.7z M1071.8,502.4c23.7,0,42.3-8.2,55.7-24.7c13.4-16.5,20.1-39.1,20.1-67.9
		c0-29.6-6.5-52.9-19.4-69.9c-12.9-17-30.7-25.5-53.3-25.5c-21.1,0-38.2,7.4-51.3,22.2c-7.6,8.7-13,18.4-16,29.1
		c-3,10.7-4.5,25.7-4.5,44.9c0,29.6,5.4,51.6,16.2,66.1C1032.1,493.8,1049.6,502.4,1071.8,502.4z"/>
	<path opacity="0.8" enable-background="new    " d="M1351.4,334.1l-7.5,17.5l-66.5,160.2c-7.1,16.9-15.6,31.7-25.4,44.4
		c-12.9,16.4-30.4,24.6-52.3,24.6c-14.3,0-26.1-3.8-35.7-11.3c-9.5-7.5-14.2-17-14.2-28.3c0-5.5,1.9-10.4,5.7-14.7
		c3.8-4.2,8.2-6.3,13.3-6.3c3.7,0,6.9,1.3,9.7,4c2.8,2.6,4.2,5.8,4.2,9.5c0,8.2-4.3,12.3-13.1,12.3c-1.6,0-3.2-0.4-4.7-1.2
		c-0.5,0-1.1-0.1-1.6-0.4c-1.6,0-2.4,1.3-2.4,4c0,6.1,4,11.7,12.1,16.8c8,5.1,17,7.7,26.7,7.7c24.8,0,44.2-13.7,58.2-41.2
		c4.5-8.7,6.7-15.1,6.7-19c0-2.4-0.9-6-2.8-10.7l-61-154.3c-4.2-10.8-7.1-17.3-8.7-19.5c-4-5.6-9.8-8.3-17.4-8.3c-1.9,0-3.3,0-4.4,0
		h-4c-5.3,0-7.9-1.4-7.9-4.4c0-3.4,2.6-5.1,7.9-5.1c-0.8,0,2.8,0.4,10.7,1.2c4.7,1.1,13.3,1.6,25.7,1.6c6.1,0,14.7-0.6,25.8-1.7
		c7.4-0.8,12.7-1.1,15.8-1.1c6.6,0,9.9,1.7,9.9,5.1c0,2.9-2.9,4.4-8.7,4.4h-1.2h-10.7c-3.7,0-7.3,0-10.7,0
		c-10.6,0-15.8,2.5-15.8,7.5c0,1.9,0.5,4.4,1.6,7.5l4,12.2l56.3,143.8c1.3,3.4,2.4,5.1,3.2,5.1s1.9-1.7,3.2-5.1l63.8-156.4
		c1.1-2.9,1.6-4.9,1.6-6c0-5.8-5.4-8.7-16.2-8.7c-2.6,0-6.5,0.3-11.5,0.8c-5,0.5-8.7,0.8-11.1,0.8c-5.3,0-7.9-1.8-7.9-5.3
		c0-3.8,2.5-5.7,7.5-5.7c-0.3,0,3.6,0.4,11.5,1.1c1.3,0.7,5.4,1.3,12.3,1.7h15.1c11.9,0,21.8-0.7,29.7-2c6.9-0.5,10.5-0.8,11.1-0.8
		c4.7,0,7.1,1.5,7.1,4.4c0,3.4-3.2,5.1-9.5,5.1h-5.9c-1.1,0-2.7,0-4.8,0c-4.7,0-8.1,1-10.1,3C1356,324.8,1353.8,328.5,1351.4,334.1z
		"/>
	<path opacity="0.8" enable-background="new    " d="M1666.2,466c-9.9,14.5-24.4,26.8-43.5,36.8v14.7c1.3,23.5,3.8,38.5,7.5,45
		c3.7,6.5,11.8,9.7,24.4,9.7c11.3,0,19.4-3.2,24.4-9.5c5-6.3,7.5-16.8,7.5-31.3v-1.6c0,0.5,0-0.1,0-2c0-6.1,1.6-9.1,4.8-9.1
		c4.2,0,6.3,4.4,6.3,13.1c0,32.7-14.1,49.1-42.4,49.1c-13.5,0-23.4-3-29.7-8.9c-6.3-5.9-10.2-15.5-11.5-28.7
		c-0.5-5.3-1.2-17.4-2-36.4c-12.4,3.4-24,5.2-34.8,5.2c-33.8,0-61.3-12.8-82.4-38.4c-21.1-25.6-31.7-59-31.7-100.2
		c0-41.7,10.6-75.6,31.7-101.6c21.1-26,48.8-39,83.2-39c33.5,0,60.9,13.1,82,39.2c21.1,26.1,31.7,59.8,31.7,101
		C1691.6,410.4,1683.1,441.4,1666.2,466z M1620.7,468.7c0.8,6.3,1.2,14.3,1.2,23.8c9.8-5.5,17.1-10.7,22-15.4
		c4.9-4.8,9.8-11.7,14.9-21c13.7-24.8,20.6-52.8,20.6-84c0-32.7-7.8-61.8-23.4-87.1c-17.7-28.8-43.4-43.2-77.2-43.2
		c-30.6,0-55.6,12-74.8,36c-19.3,24-28.9,55.3-28.9,93.9c0,34.8,8.6,65.6,25.7,92.3c7.9,12.4,20.5,23,37.6,31.7
		c-7.9-9-11.9-18.9-11.9-29.7c0-12.4,4.4-22.4,13.3-30.1c8.9-7.6,20.5-11.5,35.1-11.5C1601.7,424.4,1617,439.2,1620.7,468.7z
		 M1578.8,503.2c10.3,0,21.2-2,32.9-5.9l0.4-5.5c2.6-38.8-10-58.2-38-58.2c-11.6,0-20.8,3.1-27.7,9.3c-6.9,6.2-10.3,14.4-10.3,24.8
		C1536,491.3,1550.2,503.2,1578.8,503.2z"/>
	<path opacity="0.8" enable-background="new    " d="M1890.3,483.9v-15.2c-4.8,9.2-10.2,16.6-16.2,22.2
		c-14.3,12.9-32.2,19.4-53.9,19.4c-25.9,0-44.9-7.3-57-21.8c-6.6-7.9-11-17.6-13.1-28.9c-1-6.6-1.6-17.4-1.6-32.5v-57.8
		c0-23.8-0.8-38.1-2.4-43.2c-1.6-5-6.3-7.5-14-7.5c-3.7,0-8,0.3-12.8,0.8c-6.9,0.8-10.8,1.2-11.6,1.2c-5.1,0-7.6-1.9-7.6-5.6
		c0-3.2,2-4.8,5.9-4.8h1.2l11.1,1.2h23l3.9-0.4l6.3-0.8c4.8,0,7.1,4.9,7.1,14.6v2.4c0,2.1,0,5.1,0,9.1v91.9c0,14,0.6,24.2,2,30.5
		c1.9,10.6,6.2,19.4,13.1,26.5c10.8,11.4,26.4,17,46.7,17c26.9,0,46.1-9.4,57.4-28.1c8.2-13.5,12.3-33.5,12.3-60.2v-44.7
		c0-26.7-1-41.8-3-45.3c-2-3.6-6.4-5.4-13.1-5.4c-4,0-8.4,0.3-13.3,0.8l-11.7,1.2c-5.1,0-7.6-1.7-7.6-5.1c0-3.4,2.1-5.2,6.3-5.2h1.2
		l10.7,1.2h19.8c4,0,6.7-0.2,8.3-0.6c1.6-0.4,3.3-0.6,5.2-0.6c5,0,7.5,5.3,7.5,15.8c0,3.7,0,6.3,0,7.9c0,0.8,0,4.7,0,11.9
		c0,7.4,0,14.4,0,21v80c0,26.7,0.9,41.8,2.8,45.3c1.9,3.6,6.2,5.4,13.1,5.4c0.8,0,5-0.1,12.7-0.4c5.3-1,9.4-1.6,12.3-1.6
		c5,0,7.5,1.7,7.5,5.2s-2.4,5.2-7.1,5.2h-0.8l-11.5-0.8l-9.1-0.4h-4.7c-0.8,0-2.1,0.4-4,1.2c-1.9,0-3.4,0-4.8,0c-1.9,0-4.1,0-6.7,0
		c-3.9,0-6.6-1.1-7.9-3.4c-1.3-2.3-2-6.8-2-13.4L1890.3,483.9L1890.3,483.9z"/>
	<path opacity="0.8" enable-background="new    " d="M2097.4,468.3l-0.4-3.2l-1.6,2.8c-3.4,5.8-8.3,11.9-14.6,18.2
		c-16.3,16.1-36.6,24.2-60.8,24.2c-19,0-34.4-5-46.2-15.1c-11.8-10-17.8-23.1-17.8-39.2c0-13.5,4.3-25.1,12.7-34.8
		c8.5-9.8,19.8-16.1,33.9-19c9.6-1.9,20.8-3.2,33.9-4c21.5-1.3,37.1-5.1,46.6-11.3c9.6-6.2,14.3-15.8,14.3-28.7
		c0-13.2-5.2-23.8-15.5-31.9c-10.4-8-24.1-12.1-41.1-12.1c-17.8,0-32.5,3.8-44.1,11.5c-11.6,7.6-17.4,17.3-17.4,28.9
		c0,4.2,1.2,6.3,3.6,6.3c0.5,0,1.3-0.5,2.4-1.6c0-0.3,0.3-1.1,0.8-2.4c1.9-4.5,5.4-6.7,10.7-6.7c7.9,0,11.9,4.2,11.9,12.7
		c0,4.5-1.8,8.4-5.3,11.7s-7.9,5-12.9,5c-6.1,0-11.3-2.3-15.6-6.9c-4.3-4.6-6.5-10.1-6.5-16.4c0-14.2,6.8-26.1,20.4-35.6
		c13.6-9.5,30.6-14.3,50.9-14.3c20.6,0,36.8,4.9,48.7,14.6c12.9,10.8,19.4,27.7,19.4,50.7v76.4v22.2c0.8,21.4,7.8,32.1,21,32.1
		c14.5,0,21.8-9.8,21.8-29.3v-2v-17.4c-0.3-7.7,1.4-11.5,5.1-11.5c3.2,0,4.8,2.6,4.8,7.9V466c-0.8,29.6-11.5,44.3-32.1,44.3
		c-19.3,0-29.5-11.6-30.9-34.8L2097.4,468.3L2097.4,468.3z M2021.8,502.4c21.1,0,39-7.4,53.7-22.2c14.6-14.8,22-32.6,22-53.5v-38.4
		c0-2.6-0.5-4-1.6-4c-0.3,0-1.7,1.6-4.4,4.7c-8.4,10.3-27.2,16.4-56.2,18.2c-16.9,1.1-29.5,3-37.8,5.9c-8.3,2.9-15.3,7.8-20.8,14.6
		c-6.3,7.7-9.5,17.2-9.5,28.5c0,13.2,5.2,24.2,15.5,32.9C1992.8,498,2005.9,502.4,2021.8,502.4z"/>
	<path opacity="0.8" enable-background="new    " d="M2228.9,431.9c0,30.9,1,49.5,3.2,55.8c2.1,6.3,8.2,9.5,18.2,9.5
		c1.8,0,4.6,0,8.3,0c3.7,0,6.5,0,8.3,0h2c5.8,0,8.7,1.5,8.7,4.4c0,3.2-2.4,4.7-7.1,4.7c-1.3,0-1.9,0-1.6,0l-13.9-1.2l-16.2-1.2
		h-11.5h-7.5h-11.1l-16.6,1.2l-13.9,1.2c-0.3,0-0.7,0-1.2,0c-5,0-7.5-1.4-7.5-4.4c0-3.2,2.9-4.7,8.7-4.7h2c1.9,0,4.7,0,8.5,0
		c3.8,0,6.7,0,8.5,0c10,0,16.1-3.2,18.2-9.5c2.1-6.3,3.2-24.9,3.2-55.8v-62.2c0-19.3,0-27.6,0-25c-0.5-13.7-2.5-21.6-5.9-23.8
		c-2.1-1.3-5.5-2-10.3-2c-1.6,0-5.9,0.3-13.1,0.8l-10.7,0.8c-0.3,0-0.7,0-1.2,0c-5.3,0-7.9-1.7-7.9-5.1c0-3.4,2.3-5.2,6.7-5.2h1.2
		l11.9,1.2h19c1.6,0,4-0.2,7.1-0.6c3.2-0.4,5.6-0.6,7.1-0.6c4.2,0,6.3,3,6.3,9.1L2228.9,431.9L2228.9,431.9z M2219.8,251.3
		c4,0,7.3,1.5,10.1,4.4c2.8,2.9,4.2,6.3,4.2,10.3c0,3.9-1.4,7.3-4.2,10.1c-2.8,2.8-6,4.2-9.7,4.2c-4.2,0-7.7-1.4-10.5-4.2
		c-2.8-2.8-4.2-6.1-4.2-10.1c0-4.2,1.4-7.7,4.2-10.5C2212.4,252.7,2215.8,251.3,2219.8,251.3z"/>
	<path opacity="0.8" enable-background="new    " d="M2313.1,235.9h18.2c1,0,4.5,0,10.3,0h3.6c3.7,0,6.1,1.2,7.1,3.5
		c0.5,1,0.8,3.8,0.8,8.3v184.4c0,30.5,1,49,3.2,55.5c2.1,6.5,8.3,9.7,18.6,9.7c1.9,0,4.6,0,8.3,0c3.7,0,6.5,0,8.3,0h2
		c5.6,0,8.3,1.5,8.3,4.4c0,3.2-2.4,4.7-7.1,4.7h-1.2l-13.9-1.2l-16.2-1.2h-11.5h-7.9h-11.5l-16.2,1.2l-13.9,1.2h-1.6
		c-4.8,0-7.1-1.4-7.1-4.4c0-3.2,2.9-4.7,8.7-4.7h1.6c1.8,0,4.7,0,8.5,0c3.8,0,6.7,0,8.5,0c10.3,0,16.5-3.2,18.6-9.5
		c2.1-6.3,3.2-24.9,3.2-55.7V294.3c0-24-0.8-38.3-2.4-43c-1.6-4.7-6.2-7.1-13.8-7.1c-4,0-8.3,0.2-13.1,0.5
		c-7.1,0.5-11.1,0.7-11.9,0.7c-5.3,0-7.9-1.6-7.9-4.7c0-3.2,2.2-4.8,6.7-4.8h1.2H2313.1z"/>
</g>
</svg>
