<?xml version="1.0" encoding="utf-8"?>
<!-- Generator: Adobe Illustrator 16.0.0, SVG Export Plug-In . SVG Version: 6.00 Build 0)  -->
<!DOCTYPE svg PUBLIC "-//W3C//DTD SVG 1.1//EN" "http://www.w3.org/Graphics/SVG/1.1/DTD/svg11.dtd">
<svg version="1.1" id="Layer_1" xmlns="http://www.w3.org/2000/svg" xmlns:xlink="http://www.w3.org/1999/xlink" x="0px" y="0px"
	 width="3728px" height="351.587px" viewBox="0 0 3728 351.587" enable-background="new 0 0 3728 351.587" xml:space="preserve">
<g>
	<g>
		<g>
			<path fill="none" d="M3481.504,291.724 M3546.793,336.549"/>
			<path fill="none" stroke="#3F3B3C" stroke-width="8.7271" stroke-linecap="round" stroke-miterlimit="10" d="M3546.793,336.549"
				/>
			<path fill="none" stroke="#3F3B3C" stroke-width="8.7271" stroke-linecap="round" stroke-miterlimit="10" d="M3481.504,291.724"
				/>
		</g>
	</g>
	<g>
		<g>
			<g>
				<g>
					<g>
						<polygon fill="#3F3B3C" points="48,344.962 50.07,345.29 55.444,344.383 						"/>
						<path fill="#3F3B3C" d="M83.316,342.944c-1.035-0.164-0.533-0.437-1.587-0.605l-20.734,2.589
							C70.263,346.394,77.213,341.964,83.316,342.944z"/>
						<path fill="#3F3B3C" d="M89.419,343.206c8.045,0.605,11.377-0.611,13.251-1.022C99.86,343.125,87.674,341.894,89.419,343.206z
							"/>
						<path fill="#3F3B3C" d="M797.598,342.602c-0.75,0.008-1.745,0.042-2.495,0.08
							C796.366,342.721,797.174,342.682,797.598,342.602z"/>
						<path fill="#3F3B3C" d="M982.363,338.477l1.933-0.972c-34.468,1.729-73.364-0.028-109.824,0.727l2.465-0.341
							c-92.521-0.377-177.843,1.242-269.634,1.981c1.43-0.106,1.913-0.39,3.392-0.503c-4.427,0.334-9.337,0.956-14.306,0.873
							c-1.292-0.215,1.39-0.451,2.987-0.547c-19.383-1.603-56.938,1.016-69.055-0.22c-5.452,0.171-7.858,0.839-4.821,1.347
							c-71.845,0.411-148.708,0.716-221.885,1.971c-3.52-0.218-4.161-0.652-3.195-1.206c-62.548,2.6-128.103,1.563-192.1,1.142
							c-2.455,0.685,6.527,0.725,0.227,1.435c20.577,0.854,37.683-1.675,56.346-0.431l-2.396,0.658
							c13.576,0.424,2.75-1.662,16.84-0.812c5.551,0.55-1.391,0.837,1.193,0.889c28.858-0.271,58.959,0.323,86.131-1.278
							c6.714,1.432,31.008,0.049,41.676,1.417c7.463-0.565,14.957-0.42,17.796-1.368c101,0.756,204.188-0.629,307.652-0.524
							c48.419-2.768,106.402,0.533,163.873-0.394c0.395,0.098,0.326,0.202-0.059,0.281c18.733-0.683,46.034-1.004,68.395-0.663
							l18.94-1.17c134.551,2.405,272.05,0.716,408.71,1.716c155.295,0.689,291.344,2.685,442.578-0.966
							c-0.197,0.271,1.025,0.42-2.879,0.533c43.646-0.559,83.41,0.437,124.514-0.141l-0.128,0.272
							c101.985-2.282,212.282,0.305,310.6-2.156c119.692,0.247,255.032,0,381.716-0.707l-0.297,0.552
							c101.375-1.159,199.338,1.749,300.484,0.873c104.017,1.251,213.909-3.145,318.812-1.477
							c64.904,2.695,150.158-3.083,211.129-0.29c9.369,0.315,18.716,0.592,28.03,0.832c9.337,0.206,18.64,0.412,27.896,0.617
							c0.5,0.012,1.001-0.058,1.486-0.165c0.474-0.161,0.957-0.304,1.396-0.539c0.436-0.203,0.825-0.4,1.197-0.623
							c0.377-0.217,0.764-0.428,1.117-0.66c1.466-0.896,2.821-1.876,4.188-2.854c2.697-1.979,5.3-4.047,7.868-6.147
							c5.132-4.206,10.114-8.554,15.033-12.963c2.458-2.205,4.896-4.43,7.317-6.674l3.616-3.383l1.796-1.709l2.009-1.947
							c0.38-0.366,0.755-0.768,1.133-1.15c0.358-0.393,0.684-0.802,0.982-1.208c0.145-0.204,0.292-0.407,0.422-0.622
							c0.116-0.224,0.192-0.474,0.29-0.709l0.277-0.718c0.096-0.238,0.107-0.496,0.166-0.743c0.42-1.974-0.016-4.165-1.361-5.719
							c-0.374-0.342-0.712-0.729-1.116-1.035c-0.43-0.255-0.85-0.6-1.288-0.782c-0.461-0.14-0.92-0.219-1.416-0.297
							c-0.514-0.052-1.016-0.12-1.549-0.137l-5.693-0.012c-13.012-0.103-26.01-1.313-38.68-4.037
							c-12.635-2.763-25.01-7.065-36.035-13.789c-5.498-3.36-10.63-7.327-15.17-11.903c-4.544-4.571-8.479-9.751-11.689-15.375
							c-3.203-5.622-5.798-11.686-7.98-17.832c-2.169-6.167-3.838-12.526-4.888-19.007c-1.047-6.479-1.491-13.08-1.202-19.678
							c0.312-6.594,1.336-13.178,3.121-19.586c1.856-6.381,4.439-12.603,8.003-18.308c3.587-5.649,8.019-10.986,13.923-14.666
							c0.801-0.405,1.553-0.893,2.399-1.217l1.242-0.531c0.202-0.098,0.429-0.146,0.642-0.222l0.545-0.17
							c0.454-0.136,0.908-0.283,1.344-0.475c0.405-0.251,0.763-0.577,1.017-0.982c0.512-0.809,0.703-1.78,0.747-2.733
							c0.049-0.922-0.09-2.065-0.354-3.075c-0.264-1.029-0.654-2.034-1.192-2.906c-0.147-0.204-0.273-0.434-0.433-0.62l-0.505-0.577
							l-0.632-0.689l-0.567-0.72c-0.723-0.972-1.363-1.977-1.947-2.988c-1.188-2.011-2.231-4.062-3.499-5.893
							c-0.625-0.92-1.311-1.783-2.095-2.479c-0.799-0.716-1.599-1.183-2.699-1.508c-2.064-0.748-4.25-0.992-6.455-0.781
							c-2.188,0.2-4.481,0.74-6.663,1.212c-2.474,0.687-5.039,1.456-7.442,1.628c-0.603,0.044-1.196,0.053-1.783-0.002
							c-0.582-0.059-1.181-0.173-1.691-0.514c-0.528-0.346-0.723-1.001-0.793-1.581c-0.052-0.599,0.015-1.181,0.138-1.764
							c0.512-2.308,1.805-4.573,3.062-6.862c1.069-2.331,2.598-4.15,4.149-5.882c1.578-1.717,3.194-3.41,5.073-4.871
							c3.459-2.811,6.637-6.226,8.406-10.21c0.859-1.981,1.258-4.141,0.799-6.141c-0.221-0.997-0.646-1.943-1.225-2.805
							c-0.562-0.867-1.357-1.66-2.041-2.241l-0.466-0.385c-0.165-0.115-0.373-0.147-0.568-0.188
							c-0.395-0.079-0.796-0.123-1.194-0.169c-0.898-0.095-1.865-0.157-2.804-0.203c-1.894-0.086-3.796-0.103-5.697-0.06
							c-3.801,0.087-7.598,0.4-11.337,0.983c-3.736,0.583-7.43,1.436-10.926,2.737c-1.746,0.649-3.442,1.41-5.037,2.316
							l-1.185,0.708l-1.231,0.769c-0.822,0.512-1.658,1.008-2.496,1.5c-3.371,1.94-6.879,3.743-10.74,4.891
							c-1.936,0.549-3.959,0.939-6.07,0.938c-2.104-0.019-4.305-0.534-6.197-1.642l-0.714-0.409l-0.644-0.508
							c-0.417-0.354-0.882-0.653-1.226-1.09c-0.776-0.795-1.383-1.7-1.921-2.632c-1.06-1.886-1.56-3.966-1.81-6.013
							c-0.153-1.03-0.128-2.055-0.146-3.082c0.084-1.014,0.097-2.044,0.295-3.038c0.262-2.019,0.866-3.948,1.514-5.847
							c1.402-3.75,3.497-7.237,5.95-10.286l1.866-2.282c0.3-0.391,0.686-0.742,1.026-1.113c0.345-0.375,0.708-0.727,1.088-1.058
							c1.474-1.383,3.091-2.571,4.775-3.635c6.722-4.224,14.784-6.44,22.804-5.582c7.771,0.933,15.224,3.383,22.149,6.746
							c3.459,1.699,6.791,3.641,9.961,5.827c3.153,2.176,6.207,4.66,8.794,7.515c0.238,0.277,0.527,0.5,0.828,0.706
							c0.334,0.208,0.703,0.435,1.093,0.637c0.769,0.417,1.588,0.8,2.409,1.17c1.652,0.734,3.348,1.406,5.055,2.022
							c1.704,0.607,3.439,1.193,5.145,1.597c1.786,0.453,3.57,0.905,5.352,1.357c1.785,0.471,3.578,0.889,5.349,1.407l5.299,1.55
							c1.78,0.457,3.478,1.186,5.195,1.831c1.731,0.614,3.372,1.454,5.053,2.179c3.095,1.229,6.154,2.636,9.116,4.276l1.121,0.599
							c0.192,0.098,0.396,0.218,0.592,0.357l0.531,0.373l2.051,1.504c1.347,1.021,2.697,2.044,4.053,3.071
							c5.389,4.138,10.766,8.41,16.158,12.769c10.782,8.72,21.615,17.801,32.562,27.039c21.893,18.477,44.235,37.583,67.431,55.802
							l-1.222-1.85c7.609,7.418,17.297,14.256,26.051,20.517l0.387,0.275l0.049,0.035c0.01,0.007-0.022-0.021-0.033-0.027
							c-0.038-0.003,0.021,0.058,0.033,0.08l0.15,0.182l0.672,0.745c0.459,0.487,0.915,0.971,1.367,1.451
							c0.912,0.951,1.809,1.887,2.689,2.806c1.762,1.835,3.445,3.607,5.001,5.319c3.111,3.424,5.709,6.606,7.415,9.541l-1.627-1.534
							c3.262,4.637,8.439,8.729,13.242,12.363c4.803,3.641,9.232,6.823,11.027,9.854l1.834,0.708
							c4.956,4.609,5.123,5.014,4.933,5.238c-0.18,0.212-0.71,0.227,3.03,3.888c2.985,2.575,2.017,0.009,7.863,5.757
							c-0.365,1.759,6.002,7.145,12.642,11.968c3.314,2.42,6.696,4.682,9.247,6.467c2.544,1.792,4.272,3.138,4.089,4.038
							c-3.349-1.798-0.926-0.064,0.53,1.136c0.727,0.598,1.201,1.074,0.451,0.983c-0.736-0.104-2.746-0.75-6.564-2.847
							c1.014,0.719,3.053,2.021,5.729,3.335c2.685,1.289,6.001,2.672,9.805,3.004c1.886,0.155,3.968-0.027,5.826-0.818
							c1.87-0.768,3.279-2.124,4.034-3.278c0.777-1.167,1.068-2.123,1.165-2.688c0.093-0.589-0.049-0.701-0.309-0.556
							c-0.37-1.2-0.038-3.987-0.407-4.932c-0.186-0.473-0.546-0.485-1.258,0.392c-0.356,0.438-0.8,1.099-1.354,2.036
							c-0.585,1-1.102,2.062-2.083,2.868c0,0-0.116,0.565-0.413,1.115c-0.279,0.555-0.76,1.054-0.76,1.055
							c-1.07,0.103-1.779-0.037-2.284-0.12c-0.504-0.094-0.806-0.175-1.025-0.238c-0.437-0.138-0.563-0.211-1.213-0.748
							c-1.933-0.333-3.702-1.03-5.248-1.749c-1.552-0.729-2.903-1.513-4.108-2.279c-2.408-1.543-4.24-3.015-5.903-4.439
							c-3.314-2.879-5.979-5.566-10.702-9.813c0.076,0.105,0.154,0.209-0.034,0.134c-7.67-4.358-16.136-13.192-21.002-18.135
							l-1.566-2.392c-1.056-1.945-5.157-5.021-8.288-7.396c-3.134-2.371-5.31-3.998-2.57-2.867
							c-6.514-6.383-13.121-13.167-19.723-20.266c-3.283-3.543-6.627-7.195-9.781-10.866l-0.558-0.665l-0.126-0.154l-0.058-0.072
							l-0.015-0.018c0.064-0.085-0.049-0.018-0.461,0.303l-1.848,1.396l-0.925,0.698c-0.141,0.099-0.049,0.014-0.085,0.03
							l-0.035-0.046l-0.035-0.047c0.039-0.048-0.112,0.074,0.083-0.113l1.376-1.264l1.375-1.264c0.609-0.551,0.23-0.247,0.395-0.413
							l0.108-0.164c0-0.022-0.097,0.043-0.14,0.061c-0.13,0.074-0.168,0.064-0.233,0.084c-0.083,0.022-0.013,0.063-0.016,0.09
							c-1.229,1.139,2.778-2.481-2.751,2.565l0.078-0.113l0.172-0.248l0.43-0.604l0.597-0.814c0.238-0.311,0.438-0.611,0.639-0.912
							l0.151-0.226c0.045-0.07,0.128-0.178,0.088-0.16l-0.076-0.061l-0.152-0.122l-0.305-0.243l-0.762-0.604
							c-0.979-0.778-1.961-1.559-2.944-2.341c-1.966-1.564-3.94-3.135-5.921-4.71c-15.82-12.635-32.061-25.606-48.093-38.412
							c-5.037-2.906-24.485-19.682-18.543-12.76c-6.816-7.927-30.379-27.362-39.306-34.361c0.445,0.121,0.951,0.261,2.295,1.424
							c-7.827-7.833-13.299-11.434-18.596-14.974c-2.65-1.77-5.255-3.525-8.103-5.784c-1.425-1.129-2.907-2.384-4.503-3.832
							c-0.809-0.747-1.652-1.527-2.538-2.347l-0.371-0.337l-0.217-0.189l-0.329-0.26c-0.311-0.227-0.626-0.456-0.944-0.688
							c-0.526-0.395-1.065-0.799-1.618-1.214c-0.508,0.025-1.422-0.268-2.656-0.804c-1.265-0.474-2.863-1.163-4.704-2.013
							c-0.925-0.415-1.941-0.794-2.993-1.241c-1.062-0.422-2.151-0.94-3.329-1.338c-1.169-0.427-2.379-0.87-3.618-1.324
							c-1.246-0.421-2.539-0.738-3.84-1.12c-2.606-0.737-5.285-1.504-7.924-2.096c-1.322-0.307-2.634-0.611-3.924-0.91
							c-0.646-0.143-1.285-0.285-1.918-0.425c-0.301-0.064-0.6-0.127-0.896-0.19c-0.24-0.05-0.448-0.074-0.713-0.138
							c-2.037-0.436-4.199-1.064-6.059-1.561c-1.878-0.514-3.534-0.956-4.844-1.225c-0.924-0.698-1.391-1.254-1.345-1.492
							c0.036-0.241,0.19-0.389,0.351-0.503c-0.055-0.046-0.118-0.081-0.162-0.133l-0.571-0.607
							c-0.233-0.243-0.466-0.498-0.702-0.729l-1.429-1.344c-0.968-0.845-1.933-1.706-2.937-2.466
							c-1.981-1.591-4.057-2.986-6.162-4.356c-4.24-2.666-8.709-4.978-13.388-6.891c-4.679-1.906-9.571-3.417-14.644-4.332
							c-1.289-0.188-2.525-0.403-3.857-0.56l-2.096-0.168c-0.697-0.033-1.391-0.02-2.085-0.027
							c-2.771,0.043-5.495,0.375-8.124,0.973c-5.243,1.246-10.145,3.357-14.51,6.396c-2.171,1.506-4.278,3.295-6.078,5.333
							c-0.791,0.945-1.578,1.885-2.362,2.821c-0.188,0.232-0.379,0.448-0.565,0.692l-0.559,0.77l-1.104,1.54
							c-1.373,2.126-2.654,4.305-3.617,6.652c-1.017,2.311-1.762,4.753-2.236,7.265c-0.504,2.499-0.638,5.122-0.403,7.77
							c0.249,2.643,0.885,5.367,2.281,7.953c0.233,0.452,0.589,0.89,0.89,1.331c0.328,0.437,0.6,0.88,1.014,1.296
							c0.387,0.421,0.784,0.836,1.188,1.243c0.407,0.401,0.875,0.718,1.322,1.071c0.875,0.724,1.904,1.253,2.933,1.779
							c0.506,0.281,1.068,0.426,1.607,0.631c0.546,0.182,1.096,0.394,1.646,0.479c0.552,0.111,1.106,0.214,1.663,0.309
							c0.55,0.076,1.082,0.083,1.627,0.119c1.108,0.097,2.097-0.044,3.148-0.096c1.985-0.265,3.912-0.672,5.658-1.268
							c3.549-1.143,6.729-2.697,9.761-4.367c1.514-0.836,3.005-1.703,4.445-2.589c0.794-0.491,1.286-0.76,1.874-1.098
							c0.604-0.305,1.201-0.618,1.844-0.889c5.106-2.24,11.209-3.306,17.1-3.827c2.959-0.262,5.903-0.369,8.742-0.378
							c1.417-0.002,2.816,0.026,4.131,0.091l0.958,0.057c0.193,0.015,0.228,0.012,0.241,0.009l0.071-0.008
							c0.099-0.014,0.204-0.015,0.288,0.04c-0.086-0.162,0.7,0.539,1.004,0.948c0.358,0.452,0.602,0.866,0.777,1.317
							c0.352,0.876,0.41,2.095,0.094,3.501c-0.68,1.561-1.901,3.324-3.504,5.032c-0.799,0.856-1.688,1.706-2.645,2.524
							c-0.48,0.404-0.975,0.806-1.479,1.187c-0.275,0.209-0.431,0.305-0.864,0.652c-0.358,0.288-0.79,0.613-1.083,0.882
							c-1.321,1.126-2.473,2.265-3.673,3.483c-0.588,0.632-1.177,1.238-1.766,1.932l-0.884,1.048
							c-0.299,0.373-0.604,0.802-0.904,1.206c-0.283,0.35-0.642,0.962-0.96,1.532l-0.387,0.7c-0.09,0.172-0.308,0.576-0.486,0.881
							c-0.743,1.304-1.502,2.627-2.121,3.951c-1.258,2.663-1.801,5.168-1.457,7.246c0.08,0.53,0.266,1.018,0.441,1.548
							c0.088,0.259,0.207,0.541,0.311,0.81c0.169,0.251,0.291,0.533,0.513,0.756c0.761,1.044,1.688,1.586,2.655,2.022
							c0.984,0.419,2.111,0.675,3.424,0.724c1.305,0.058,2.781-0.109,4.304-0.403c1.528-0.299,3.098-0.718,4.661-1.164l0.98-0.269
							l0.086-0.021l0.013-0.002l0.004-0.001c-0.006-0.038,0.033,0.142-0.062-0.311l-0.095-0.47c0.098,0.397-0.351-1.555,0.197,0.771
							l0.039-0.008l0.08-0.017l0.159-0.034l1.272-0.27c1.646-0.337,3.185-0.667,4.423-0.754c1.254-0.068,2.33-0.057,3.432,0.23
							c0.275,0.024,0.561,0.164,0.844,0.247l0.428,0.138c0.113,0.039,0.363,0.101,0.332,0.113c0.051,0.038,0.12,0.021,0.24,0.126
							c0.102,0.036,0.254,0.184,0.41,0.308c0.652,0.541,1.505,1.683,2.326,2.939c0.898,1.424,1.79,2.836,2.673,4.235l-1.628-2.164
							c0.931,1.586,1.908,3.351,3.324,5.283c0.404,0.499,0.742,0.977,1.231,1.49l0.715,0.756c0.033,0.054,0.043,0.071,0.079,0.097
							c0.148,0.189,0.408,0.6,0.612,1.105c0.188,0.52,0.369,1.098,0.449,1.673c0.038,0.254,0.07,0.645,0.075,0.672
							c0.006,0.077,0.004,0.153-0.003,0.231c-0.015,0.311-0.224,0.62-0.552,0.686l-0.88,0.301l-1.279,0.569
							c-0.87,0.364-1.667,0.805-2.453,1.257c-0.812,0.43-1.547,0.928-2.281,1.429c-0.755,0.483-1.447,1.018-2.126,1.563
							c-2.733,2.166-5.121,4.591-7.228,7.146c-4.169,5.14-7.323,10.729-9.606,16.29c-2.307,5.555-3.803,11.063-4.681,16.171
							c-0.882,5.111-1.143,9.817-1.109,13.863c-1.524,4.535-1.999,10.37-1.603,16.677c0.384,6.317,1.645,13.079,3.195,19.762
							c0.844,2.516,1.955,5.279,3.124,8.303c0.64,1.486,1.308,3.035,1.999,4.639c0.695,1.6,1.512,3.206,2.293,4.885
							c1.666,3.342,3.612,6.947,5.96,10.394c0.284,0.438,0.57,0.879,0.857,1.321c0.317,0.421,0.636,0.845,0.955,1.271
							c0.644,0.847,1.292,1.7,1.944,2.56c0.629,0.879,1.367,1.677,2.087,2.498c0.724,0.818,1.45,1.641,2.181,2.468
							c6.029,6.455,13.421,11.965,21.163,16.27c7.742,4.348,15.9,7.33,23.526,9.44c2.135,1.328,8.499,2.959,14.503,4.086
							c6.004,1.153,11.638,1.899,12.343,2.819c8.207,0.754,16.602,0.979,25.096,0.796l1.59-0.04l0.365-0.012l0.098-0.011
							l0.199-0.021l0.855-0.082c0.588,0.015,1.127,0.541,1.193,1.145c0.043,0.305-0.035,0.611-0.152,0.902
							c-0.156,0.272-0.383,0.486-0.609,0.755l-0.204,0.224l-0.104,0.113l-0.268,0.271l-1.117,1.127l-2.264,2.253
							c-6.089,6.002-12.416,11.987-18.953,17.843c-3.273,2.916-6.6,5.818-10.009,8.573c-1.7,1.382-3.43,2.723-5.16,3.947
							c-0.863,0.616-1.731,1.184-2.55,1.662c-0.213,0.139-0.394,0.207-0.562,0.301c-0.115,0.062-0.23,0.127-0.343,0.163
							c-0.221,0.099-0.465,0.146-0.707,0.135c-7.453,0.013-14.955,0.025-22.491,0.038c-7.595-0.024-15.224-0.049-22.867-0.073
							c-15.288-0.083-30.639-0.235-45.913-0.443c-30.547-0.416-60.786-1.058-89.597-1.829l1.331-0.119
							c-11.91,0.925-25.635,2.968-37.752,4.161c-1.192-0.146-1.055-0.426,1.489-0.417c-16.761,0.312-32.438-1.343-49.179-1.034
							c0.139-0.278,0.139-0.278,2.85-0.545c-15.706,0.75-32.467-1.347-51.013-0.043l-1.035-0.445l-11.792,0.624
							c0.286-0.556,0.74-1.393,7.04-1.212c-143.897-0.543-292.438,2.346-440.182,1.929l5.423-0.529l-28.651,0.946
							c0.157-0.283,1.519-0.417,2.889-0.543c-36.489-0.946-74.359,0.626-109.922,0.39c0.167-0.271,5.551-0.81,0.571-1.116
							c-26.324,1.521-42.287-1.974-55.469,1.181c-1.223-0.147-2.061-0.857,0.621-1.11c-73.245,1.046-148.452,0.986-222.24,0.475
							c-61.453,2.855-130.144,0.271-193.973,2.536l0.315-0.567c-82.642,1.997-170.311-0.136-255.969,0.263
							c-35.573-0.229-59.601,0.445-95.341,0.479l-0.896-0.707c-60.162,2.702-126.457-2.427-189.222,0.546l4.328-0.966
							c-9.73,1.494-37.968-0.525-34.251,2.033l-11.082-0.775c-42.642,3.383-77.613-1.56-129.868,0.635l3.431-0.607
							c-13.892,0.473-30.091,0.846-40.384,0.287c1.607-0.087,0.857-0.266,4.16-0.426c-43.519-2.405-91.948,0.252-137.863,0.16
							l5.206-1.132c-22.193,1.327-62.903,0.092-92.077,0.699l1.775-0.53l-14.76,0.75l-0.384-1.074
							C1055.145,337.426,1019.414,338.351,982.363,338.477z"/>
						<path fill="#3F3B3C" d="M599.375,339.695c0.108,0.008,0.276,0.008,0.404,0.033
							C600.914,339.635,600.361,339.646,599.375,339.695z"/>
						<path fill="#3F3B3C" d="M3642.489,248.979c1.27,1.152,2.323,2.109,3.384,3.072
							C3645.737,251.667,3643.578,249.959,3642.489,248.979z"/>
					</g>
				</g>
			</g>
		</g>
	</g>
	<g>
		<g>
			<g>
				<g>
					<g>
						<polygon fill="#3F3B3C" points="3680.479,331.598 3680.333,331.27 3679.954,332.178 						"/>
						<path fill="#3F3B3C" d="M3677.992,333.615c0.073,0.164,0.037,0.437,0.111,0.605l1.46-2.589
							C3678.911,330.166,3678.422,334.596,3677.992,333.615z"/>
						<path fill="#3F3B3C" d="M3677.562,333.354c-0.566-0.605-0.801,0.611-0.933,1.022
							C3676.827,333.435,3677.686,334.666,3677.562,333.354z"/>
						<path fill="#3F3B3C" d="M3627.705,333.958c0.053-0.008,0.123-0.042,0.176-0.081
							C3627.792,333.839,3627.735,333.877,3627.705,333.958z"/>
						<path fill="#3F3B3C" d="M3614.697,338.083l-0.136,0.972c2.427-1.729,5.165,0.028,7.731-0.727l-0.173,0.341
							c6.514,0.378,12.521-1.242,18.982-1.981c-0.101,0.106-0.135,0.391-0.238,0.503c0.312-0.334,0.657-0.956,1.007-0.873
							c0.091,0.215-0.098,0.451-0.21,0.547c1.364,1.603,4.008-1.016,4.861,0.22c0.384-0.17,0.554-0.84,0.339-1.347
							c5.059-0.411,10.47-0.716,15.621-1.971c0.248,0.218,0.293,0.652,0.226,1.206c4.403-2.6,9.019-1.564,13.524-1.143
							c0.172-0.684-0.46-0.724-0.017-1.434c-1.448-0.854-2.653,1.675-3.967,0.431l0.169-0.658c-0.956-0.425-0.193,1.661-1.186,0.812
							c-0.391-0.55,0.098-0.838-0.084-0.889c-2.032,0.271-4.151-0.324-6.064,1.278c-0.473-1.432-2.183-0.049-2.934-1.417
							c-0.525,0.564-1.053,0.42-1.253,1.368c-7.11-0.757-14.375,0.629-21.659,0.524c-3.408,2.768-7.491-0.533-11.537,0.394
							c-0.027-0.098-0.022-0.202,0.004-0.281c-1.318,0.683-3.24,1.004-4.814,0.663l-1.334,1.17
							c-9.473-2.406-19.152-0.716-28.773-1.716c-10.934-0.69-20.512-2.685-31.158,0.966c0.014-0.271-0.072-0.42,0.203-0.533
							c-3.073,0.559-5.873-0.437-8.767,0.141l0.009-0.272l-0.336,0.104l-0.182,0.097c-0.125,0.062-0.256,0.119-0.393,0.173
							c-0.273,0.107-0.568,0.197-0.875,0.274c-0.616,0.152-1.277,0.248-1.934,0.307l-0.491,0.037
							c-0.103,0.036-0.108-0.072-0.149-0.131c-0.041-0.064-0.053-0.139-0.07-0.212c-0.082-0.29-0.098-0.6-0.122-0.908
							c-0.028-0.621-0.01-1.254,0.033-1.874c0.053-0.701,0.105-1.4,0.158-2.096c0.078-0.889,0.135-1.774,0.186-2.66
							c0.076-1.773,0.077-3.539-0.221-5.338c0.92-4.071,2.022-8.371,3.388-12.664c1.376-4.287,2.998-8.57,4.862-12.622l0.472,0.288
							c1.228-3.369,3.569-6.082,6.085-8.458c2.528-2.4,5.258-4.401,7.616-6.922c3.117-1.736,5.619-4.382,8.685-6.639
							c3.014-2.259,6.504-4.178,10.288-4.297c1.274,0.394,2.483,0.276,3.688-0.12c1.213-0.347,2.429-0.94,3.656-1.544
							c1.235-0.545,2.482-1.09,3.711-1.358c1.23-0.221,2.439-0.17,3.564,0.427c4.553,1.772,8.742,2.077,13.052,1.704
							c4.294-0.378,8.683-1.383,13.224-2.202c3.988,1.154,8.089,1.077,12.161,1.325c4.062,0.239,8.09,0.769,11.653,3.058
							c4.091-1.173,7.166,4.023,11.275,4.469l0.021-0.696c0.926,2.354,3.939-1.973,4.06,1.231l-0.187,0.093
							c0.347,1.711,2.728-3.063,2.706-1.146l0.329-0.705c0.985,0.044-0.124,0.87,0.505,1.364c0.294-0.017,0.482-1.321,0.923-0.735
							c-0.748,3.053,2.454,0,1.509,3.409c-0.491-0.147,0.374,1.542-0.938,1.922c0.216,0.438,1.741,0.723,2.043-0.75
							c0.609-1.476,1.645-2.603,1.068-4.078l-0.534,1.048c0.025-1.206-0.07-0.629,0.07-1.495c-1.192-0.521-0.88-2.182-1.584-3.115
							c-0.001,0.035-0.001,0.068-0.031,0.122c-0.996,1.157-1.611,0.126-2.044-0.198l-0.021-0.676
							c0.061-1.388-2.119,2.154-1.128,0.023c-2.692-0.137-5.592-0.914-8.452-1.562c-0.601,0.754-2.164-0.587-1.927,1.207
							c-0.27-2.051-2.3-3.012-3.11-3.107c0.068-0.173,0.146-0.365,0.255-0.267c-1.016-2.796-2.306,1.876-3.123-1.427
							c-0.656,2.069-2.504-1.217-3.814,1.13c-0.088-0.508-0.065-0.946,0.073-1.312c-2.603-0.557-5.374-1.828-7.599-2.29
							c-2.196,1.573-4.518-1.568-6.527,0.823c-1.277-0.748-3.377-2.089-5.406-1.267l0.221-0.296
							c-2.178-0.074-4.907-0.202-6.514,1.347c-0.447-2.551-1.427-2.141-2.32-2.99c-1.531,1.071-4.46,0.574-6.714,1.589
							c-0.315-1.18-1.839,0.451-1.934-1.227c-6.309,3.191-13.714,2.366-20.958,1.163l0.079-0.135
							c-0.734,1.074-1.362,3.239-1.973,4.587c-0.113-0.125-0.16-0.401,0.021-0.433c-1.11,0.571-2.593-0.792-3.73-0.218
							c-0.058-0.273-0.059-0.273,0.073-0.576c-0.926,1.012-2.699-0.649-3.672,0.976l-0.205-0.405c0,0-0.165,0.216-0.329,0.431
							c-0.161,0.22-0.323,0.441-0.323,0.441c-0.151-0.536-0.377-1.344,0.134-1.328c-1.316,0.393-2.631,0.791-3.923,1.327
							c-1.277,0.591-2.583,1.134-3.795,1.873c-1.209,0.743-2.442,1.438-3.558,2.323l-1.693,1.279
							c-0.553,0.439-1.071,0.926-1.604,1.387c-4.245,3.744-7.716,8.064-11.162,12.281l-0.176-0.644l-0.52,2.258
							c-0.223-0.175-0.271-0.333-0.312-0.488c-1.172,0.819-1.822,2.067-2.354,3.342c-0.495,1.301-0.939,2.596-1.645,3.688
							c-0.23-0.141-0.51-0.753-0.955-0.579c0.393,2.398-3.231,1.887-0.839,4.162c-0.171,0.015-0.837-0.239-0.978-0.527
							c-1.451,5.306-3.315,10.354-5.248,15.411c0.797,2.531,0.324,4.784-0.133,7.103c-0.449,2.304-0.907,4.675-0.038,7.063
							l-0.562-0.086c0.18,0.766,0.275,1.519,0.355,2.273c0.073,0.783,0.099,1.607,0.122,2.381c0.06,1.562-0.076,3.16,0.299,4.764
							c0.014,0.276,0.284,0.175,0.457,0.219l0.578,0.053l1.175,0.118l2.44,0.254c1.755,0.195,3.204,0.229,4.72,0.133
							c2.504,0.229,4.195-0.445,6.712-0.479l0.063,0.708c4.235-2.702,8.902,2.427,13.321-0.546l-0.305,0.966
							c0.685-1.494,2.673,0.526,2.411-2.033l0.78,0.775c3.002-3.383,5.464,1.56,9.143-0.635l-0.241,0.607
							c0.978-0.473,2.118-0.846,2.843-0.288c-0.113,0.088-0.061,0.267-0.293,0.427c3.063,2.405,6.474-0.252,9.706-0.16l-0.366,1.132
							c1.562-1.328,4.429-0.092,6.482-0.699l-0.125,0.53l1.039-0.75l0.026,1.074C3609.574,339.134,3612.09,338.209,3614.697,338.083
							z"/>
						<path fill="#3F3B3C" d="M3641.661,336.864c-0.008-0.008-0.02-0.008-0.028-0.034
							C3641.553,336.924,3641.592,336.914,3641.661,336.864z"/>
						<path fill="#3F3B3C" d="M3675.784,272.642c0.103,0.096,0.186,0.188,0.263,0.301
							C3676.082,272.727,3675.875,272.714,3675.784,272.642z"/>
					</g>
				</g>
			</g>
		</g>
	</g>
	<g>
		<g>
			<g>
				<g>
					<g>
						<path fill="#3F3B3C" d="M3470.811,335.515c0,0-0.104-0.116-0.208-0.232c-0.112-0.114-0.224-0.228-0.224-0.228
							s-0.408,0.133-0.771,0.309c-0.293,0.189-0.537,0.401-0.537,0.401s0.085-0.029,0.213-0.073c0.124-0.043,0.291-0.1,0.551-0.123
							C3470.309,335.508,3470.811,335.515,3470.811,335.515z"/>
						<path fill="#3F3B3C" d="M3467.026,337.339c0.046,0.159,0.073,0.431,0.124,0.593c0,0,0.003-0.163,0.05-0.416
							c0.032-0.251,0.082-0.586,0.207-0.932c0.075-0.34,0.306-0.69,0.454-0.948c0.158-0.26,0.381-0.428,0.365-0.428
							C3466.825,333.837,3467.344,338.299,3467.026,337.339z"/>
						<path fill="#3F3B3C" d="M3466.917,337.088c-0.026-0.279,0.033,0.413,0.044,0.719c0.021,0.192,0.033,0.34,0.04,0.494
							c0.018,0.281-0.002,0.593,0,0.725c0.007,0.24-0.017,0.395-0.033,0.505c0.014-0.083,0.034-0.235,0.034-0.411l-0.003-0.135
							l0.008-0.242c0.003-0.168,0-0.338-0.009-0.499c-0.014-0.173-0.027-0.339-0.04-0.486c0.003-0.041,0.008-0.04,0.007-0.089
							C3466.965,337.583,3466.949,337.415,3466.917,337.088z"/>
						<path fill="#3F3B3C" d="M3484.978,321.191c-0.013,0.028-0.013,0.082-0.003,0.13
							C3485.037,321.307,3485.028,321.256,3484.978,321.191z"/>
						<path fill="#3F3B3C" d="M3486.671,312.744l-0.691-0.688c0.41,2.196-1.961,2.286-2.343,3.919l-0.197-0.296
							c-2.726,2.672-3.713,6.404-5.521,9.78c-0.045-0.113-0.252-0.308-0.301-0.426c0.144,0.352,0.498,0.901,0.306,1.006
							c-0.2-0.095-0.314-0.329-0.348-0.44c-1.744-0.397-0.686,2.449-1.955,2.055c-0.009,0.281,0.449,0.779,0.921,1.002
							c-1.528,2.538-3.263,5.188-4.087,8.295c-0.26-0.021-0.619-0.268-1.033-0.638c0.252,1.798-0.217,3.054-0.935,4.062
							c-0.346,0.485-0.803,0.983-1.093,1.239c-0.022,0.01-0.088,0.085-0.078,0.042l-0.001-0.009l-0.329-0.179l-0.734-0.372
							l-0.734-0.342c-0.156-0.095-0.318-0.181-0.486-0.255c-0.167-0.075-0.34-0.14-0.516-0.193c-0.18-0.051-0.383-0.096-0.426-0.144
							c-0.088-0.039-0.188-0.044-0.282-0.01l-0.018,0.007l-0.009,0.003c1.028-0.413-2.314,0.931,2.304-0.926l-0.016,0.016
							l-0.03,0.028l-0.062,0.059l-0.497,0.465c-0.729,0.083-0.729,0.562-0.592,0.134c0.024-0.082-0.062,0.215-0.006,0.015
							c-0.001,0.06-0.085,0.195-0.055,0.146c0.009-0.01-0.004,0.01,0.016-0.015c0.03-0.038,0.062-0.07,0.096-0.095l0.05-0.033
							c0.033-0.019,0.076-0.041,0.114-0.056c0.079-0.032,0.16-0.052,0.241-0.059c0.042-0.015,0.076,0.019,0.124-0.026l0.144-0.134
							l0.284-0.267l0.142-0.133l0.035-0.033l0.01-0.008l0.002-0.002l0.001-0.001c0.503-0.202-4.378,1.759-2.311,0.928l0.01-0.004
							l0.04-0.015c0.054-0.017,0.109-0.021,0.163-0.014c0.109,0.061,0.63,0.184,0.989,0.342c0.19,0.082,0.375,0.178,0.551,0.285
							l0.836,0.39c0.278,0.137,0.553,0.278,0.824,0.427l0.405,0.227c0.07,0.043,0.011,0.015,0.022,0.025
							c-0.026-0.048,0.092-0.103,0.431-0.05l0.519,0.41c0.547-0.065-1.35-0.976-0.39-0.878c0.562,0.153,0.659,0.518,0.753,0.473
							c0.358-0.987,1.555-1.589,0.935-3.416c1.298,0.658,0.795-0.955,2.141-0.456c-0.261-0.583,0.037-0.731-0.638-1.405
							c3.108-2.743,4.68-6.881,7.439-10.085c-0.885-3.288,3.173-3.019,3.958-5.413c0.085,0.05,0.164,0.119,0.215,0.182
							c-0.035-1.024,0.433-2.089,1.28-2.571l-0.4-1.345c5.375-2.671,7.721-8.05,12.14-11.594c1.8-1.654,3.678-3.086,5.374-4.551
							l0.625-0.547c0.126-0.098,0.151-0.095,0.229-0.152c0.129-0.087,0.239-0.181,0.344-0.297c0.189-0.353,0.465-0.265,0.846-0.48
							l0.187-0.094c0.1-0.024,0.027-0.095,0.283-0.1c0.38-0.035,0.762-0.086,1.146-0.151c0.765-0.149,1.543-0.35,2.333-0.646
							c-0.054,0.266-0.028,0.421-0.209,0.505c1.895-0.246,3.396,0.985,5.191,0.629l-0.04,0.27c2.141-0.814,4.192-0.59,6.277-0.412
							c1.036,0.104,2.084,0.168,3.118,0.117c0.293-0.009,0.439-0.041,0.619-0.079c0.18-0.039,0.362-0.087,0.553-0.147
							c0.385-0.116,0.795-0.283,1.268-0.539c0.241-0.119,0.488-0.255,0.76-0.406c1.012,0.003,2.031-0.117,3.084-0.368
							c0.158-0.022,0.177,0.186,0.193,0.3c0.018,0.134,0.019,0.27,0.02,0.404c-0.003,0.27-0.021,0.538-0.042,0.807
							c-0.045,0.537-0.105,1.073-0.171,1.614c-0.145,1.118-0.29,2.244-0.435,3.364c-0.182,1.298-0.363,2.589-0.541,3.858
							l-0.528-0.159c0.003,2.147-1.021,3.983-2.117,5.741c-1.1,1.767-2.266,3.451-2.633,5.491c-1.375,1.687-1.528,3.915-1.909,6.177
							c-0.364,2.228-1.025,4.577-3.058,5.717c-1.881,0.134-2.2,1.578-3.119,3.042c-0.885,1.443-2.19,2.801-3.843,1.879
							c-3.086-1.15-5.401-1.054-7.77-0.138c-2.341,0.894-4.652,2.521-7.094,4.054c-4.848-0.99-9.341,3.147-14.111,0.322
							c-2.081,2.072-4.681-2.211-7.075-1.528l0.12,0.675c-0.978-2.018-1.78,2.981-2.489-0.049l0.084-0.144
							c-0.558-1.532-0.846,3.724-1.234,1.894l-0.023,0.77c-0.533,0.258-0.123-0.865-0.569-1.141c-0.154,0.107,0.04,1.4-0.323,0.984
							c-0.326-3.135-1.271,0.791-1.648-2.721c0.323-0.032-0.646-1.312,0.012-2.119c-0.235-0.347-1.277-0.049-0.984,1.426
							c0.118,1.591-0.059,3.009,0.645,4.164l-0.03-1.162c0.318,1.131,0.206,0.56,0.369,1.416c0.701,0.074,0.969,1.756,1.501,2.405
							c-0.008-0.033-0.015-0.064-0.012-0.125c0.231-1.41,0.779-0.624,1.062-0.445l0.154,0.638c0.252,1.337,0.647-2.684,0.574-0.358
							c1.422-0.664,3.139-0.72,4.812-0.825c0.193-0.891,1.288,0.021,0.843-1.656c0.51,1.911,1.786,2.342,2.249,2.245
							c-0.009,0.185-0.02,0.39-0.096,0.32c1.028,2.463,0.96-2.37,1.961,0.651c0.024-2.171,1.585,0.614,1.934-1.958
							c0.131,0.475,0.19,0.907,0.173,1.294c1.537-0.031,3.292,0.643,4.612,0.653c0.983-1.969,2.791,0.662,3.547-2.035
							c0.84,0.486,2.246,1.466,3.268,0.302l-0.077,0.329c1.249-0.274,2.834-0.595,3.493-2.345c0.688,2.446,1.18,1.885,1.846,2.596
							c0.696-1.27,2.484-1.186,3.613-2.473c0.411,1.102,0.984-0.675,1.373,0.96c1.558-1.961,3.429-2.933,5.582-3.424
							c2.167-0.526,4.588-0.437,7.699-1.157v0.146c0.119-1.219-0.645-3.253-1.079-4.495c0.142,0.069,0.33,0.275,0.235,0.353
							c0.336-0.747,2.059-0.159,2.35-0.988c0.209,0.185,0.21,0.184,0.327,0.457c-0.103-1.036,2.062-0.397,1.52-1.888l0.392,0.218
							l-0.199-0.807c0.451,0.324,1.13,0.816,0.811,0.961c2.191-2.684,3.164-5.901,3.904-9.041c0.74-3.156,1.244-6.278,2.415-9.162
							l0.431,0.383l-0.526-1.44c0.268,0.093,0.378,0.188,0.479,0.282c1.376-1.187,0.327-3.175,0.951-4.538
							c0.259,0.078,0.718,0.442,1.069,0.321c-1.173-1.463,2.376-1.236-0.538-2.565c0.154-0.014,0.852,0.126,1.069,0.3l-0.035-0.611
							c-0.003-0.226-0.026-0.349,0.005-0.685l0.143-1.716c0.107-1.115,0.246-2.19,0.38-3.254c0.134-1.062,0.251-2.113,0.246-3.084
							c-0.019-0.971-0.075-1.852-0.36-2.705c-0.142-0.021-0.271-0.064-0.439-0.081c-0.158,0.008-0.305,0.079-0.451,0.114
							l-0.83,0.233c-0.517,0.139-0.982,0.238-1.526,0.277c-0.512,0.044-0.979,0.042-1.442,0.024l-1.623,0.109
							c-0.697,0.105-1.376,0.161-2.041,0.321c-0.651,0.158-1.352,0.45-1.803,0.855l0.024-0.566c-1.686,0.951-3.452,0.824-5.169,0.42
							c-1.726-0.385-3.416-1.034-5.166-1.069c-1.396-0.432-2.464,0.085-3.91-0.128l0.086-0.703c-0.69,0.535-1.328,0.624-1.926,0.471
							c-0.298-0.079-0.587-0.215-0.87-0.38c-0.31-0.168-0.645-0.385-0.992-0.604c-0.735-0.505-1.646-0.992-2.405-1.123l-0.072-0.013
							l-0.037-0.006l-0.009-0.002h-0.002h-0.001c0.032,0.13,0.008,0.036,0.016,0.064l-0.006,0.001l-0.02,0.001
							c-0.053-0.001-0.104,0.009-0.15,0.029c-0.098,0.03-0.185,0.079-0.271,0.13c-0.169,0.115-0.316,0.286-0.448,0.478
							c-0.265,0.378-0.454,0.889-0.522,1.487c0,0-0.085-0.251-0.17-0.502c-0.079-0.255-0.158-0.51-0.158-0.51
							c0.182,0.842-0.186,1.026-0.453,1.299c-0.263,0.274-0.373,0.584,0.525,1.495c0,0-0.205-0.065-0.41-0.131
							c-0.215-0.055-0.43-0.109-0.43-0.109c1.277,3.584-3.317,1.3-3.119,4.381l-0.36-0.508c-0.025,0.74-0.183,1.483-0.881,1.432
							c-0.022-0.107-0.177-0.202-0.208-0.409c-2.99-0.242-2.296,3.01-3.59,4.373l-0.718-0.9c0.411,1.556-1.614,2.018-1.93,3.324
							l-0.356-0.399l0.178,0.947l-0.828-0.685C3487.797,309.785,3487.555,311.502,3486.671,312.744z"/>
						<path fill="#3F3B3C" d="M3477.576,325.6c0.01,0.002,0.015-0.004,0.037,0.008C3477.57,325.513,3477.564,325.537,3477.576,325.6
							z"/>
						<path fill="#3F3B3C" d="M3471.375,345.778c-0.071-0.059-0.134-0.12-0.195-0.203
							C3471.209,345.79,3471.315,345.738,3471.375,345.778z"/>
					</g>
				</g>
			</g>
		</g>
	</g>
</g>
<g>
	<path d="M164.036,154.671l-2.122,17.443c0,9.508,1.061,25.381,3.182,47.616c2.122,22.237,4.282,35.045,6.482,38.423
		c4.243,6.522,10.587,9.782,19.035,9.782c8.445,0,14.633-2.316,18.563-6.954c1.492,0,3.339-0.274,5.54-0.825l1.179,1.296
		c0,7.702-6.129,12.729-18.386,15.086c-2.908,0.549-6.188,0.825-9.842,0.825c-3.653,0-7.956-1.809-12.906-5.422
		s-8.447-7.621-10.49-12.022c-2.044-4.399-4.048-18.071-6.011-41.016c-1.965-22.942-2.947-43.137-2.947-60.581
		c0-17.444,0.51-27.736,1.532-30.88c-0.55-2.75-0.825-5.342-0.825-7.779c0-9.665,3.457-17.188,10.372-22.57
		c6.914-5.381,15.399-8.074,25.458-8.074c2.75,0,5.755,0.866,9.017,2.593c3.26,1.729,4.891,3.851,4.891,6.365
		c0,1.809-1.258,2.711-3.771,2.711c-0.707,0-1.69-0.49-2.946-1.473c-1.258-0.982-2.298-1.474-3.124-1.474s-1.709,0.159-2.652,0.472
		c-1.886-0.628-3.812-0.943-5.775-0.943c-1.965,0-4.342,0.413-7.13,1.237c-2.79,0.825-5.109,1.886-6.954,3.182
		c-1.847,1.297-3.418,3.046-4.714,5.245c-1.296,2.201-2.298,4.302-3.005,6.306c-0.707,2.003-1.258,4.578-1.65,7.72
		c-0.472,4.479-0.708,10.018-0.708,16.619L164.036,154.671z"/>
	<path d="M271.172,113.655c0,0,0.431-0.354,1.296-1.061c0.864-0.707,1.571-1.061,2.122-1.061c0.549,0,2.239,0.471,5.068,1.414
		c0,12.573,0.51,31.372,1.532,56.397c1.02,25.027,1.532,45.181,1.532,60.463c0,15.283,0.51,29.839,1.532,43.667l-1.532,2.711
		c-0.159-1.65-2.634-2.475-7.425-2.475c-0.787-35.751-1.179-57.319-1.179-64.706l-0.589-0.943l0.825-2.122
		c0-2.514-0.276-5.499-0.825-8.958l-3.771-0.943c-1.415,0.472-3.026,0.708-4.833,0.708l-15.439-2.475l-2.475,0.943l-0.708,30.408
		l0.708,1.061l1.414,40.309c0,4.166-1.337,6.247-4.007,6.247c-3.536,0-5.304-4.832-5.304-14.497l0.472-44.198
		c0-14.615-0.236-22.471-0.708-23.572c0.785-1.571,1.179-6.914,1.179-16.029l-1.768-56.456c0-1.099,0.412-2.14,1.237-3.123
		c0.825-0.982,1.786-1.474,2.888-1.474c3.221,0,4.832,4.676,4.832,14.026l-0.943,58.931c0,1.886,6.442,2.829,19.33,2.829
		c3.064,0,5.283-0.569,6.659-1.709c1.374-1.138,2.062-4.302,2.062-9.488c0-5.186-0.53-15.184-1.591-29.996
		c-1.061-14.81-1.591-25.909-1.591-33.295C271.172,114.167,271.172,113.655,271.172,113.655z M267.519,186.375l0.471,0.472h-0.471
		V186.375z"/>
	<path d="M358.743,165.042l0.235,4.833c-0.315,4.086-0.53,9.587-0.648,16.5c-0.118,6.915-0.236,13.477-0.354,19.683
		c-0.118,6.208-0.335,12.926-0.648,20.154c-0.315,7.23-0.943,13.712-1.886,19.447c-2.201,13.672-5.775,22.788-10.726,27.344
		c-5.344,5.028-11.591,5.54-18.74,1.532c-3.064-1.727-5.639-3.889-7.72-6.482c-2.083-2.593-3.753-10.941-5.009-25.046
		c-1.258-14.103-2.004-28.974-2.239-44.61c-0.708-46.986-1.455-73.781-2.24-80.381l1.532-3.418c3.692,0.471,5.54,4.911,5.54,13.318
		l0.708,63.999l2.593,51.152c0,18.309,6.05,27.461,18.15,27.461c7.464,0,12.179-16.854,14.144-50.562
		c0.157-2.278,0.53-13.16,1.12-32.647c0.589-19.486,0.884-42.979,0.884-70.481l-0.472-4.361c0-1.807,1.158-2.711,3.477-2.711
		c2.316,0,3.692,0.53,4.125,1.591c0.431,1.061,0.648,5.815,0.648,14.261c0,8.447-0.512,14.673-1.532,18.681
		c0.156,0.315,0.235,0.825,0.235,1.532L358.743,165.042z"/>
	<path d="M388.444,116.837c0-4.164,1.689-6.247,5.068-6.247c2.199,0,6.344,0.943,12.435,2.829c6.088,1.886,9.173,3.576,9.252,5.068
		c-0.158,0.315-0.235,0.551-0.235,0.707c2.985,4.715,4.989,9.449,6.011,14.203c1.02,4.755,1.532,11.904,1.532,21.451
		s-1.296,17.856-3.89,24.928h0.236c-0.63,1.494-1.867,3.595-3.712,6.306c-1.847,2.71-2.967,4.419-3.359,5.127
		c3.142,2.436,5.637,5.913,7.484,10.431c1.845,4.519,2.985,8.545,3.418,12.081c0.431,3.536,0.766,7.779,1.002,12.729l0.235,6.247
		v3.418c0,15.401-4.793,26.795-14.379,34.18c-5.108,3.928-11.276,5.893-18.504,5.893c-1.414,0-2.534-0.492-3.359-1.474
		c-0.825-0.983-1.278-2.219-1.355-3.712c-0.079-1.492-0.118-3.967-0.118-7.425l2.475-50.916l-0.472-21.451l1.415-57.752
		c0-6.128-0.079-10.803-0.236-14.025l-0.943-1.179V116.837z M394.455,255.796l0.236,10.961c5.971,0,11.079-2.808,15.322-8.427
		c4.243-5.617,6.364-11.53,6.364-17.738v-0.354c0.077-1.415,0.118-2.788,0.118-4.125c0-1.335-0.059-3.634-0.177-6.895
		c-0.118-3.26-0.374-6.247-0.766-8.958c-0.394-2.711-1.081-5.716-2.062-9.017c-0.983-3.3-2.142-6.088-3.477-8.368
		c-3.3-5.421-7.858-8.132-13.672-8.132c-0.786,12.022-1.178,22.65-1.178,31.881c0,9.234,0.235,15.107,0.707,17.621
		C394.926,245.975,394.455,249.826,394.455,255.796z M395.869,163.393l-0.236,16.854v2.947l0.943,3.182h1.768
		c10.607,0,15.911-10.725,15.911-32.176c0-2.906-0.236-7.896-0.707-14.968l-0.472-0.471c-1.022-13.357-5.068-20.037-12.14-20.037
		c-3.536,0-5.304,10.569-5.304,31.705L395.869,163.393z"/>
	<path d="M450.911,116.837c0-4.164,1.689-6.247,5.068-6.247c2.199,0,6.344,0.943,12.435,2.829c6.088,1.886,9.173,3.576,9.252,5.068
		c-0.158,0.315-0.235,0.551-0.235,0.707c2.985,4.715,4.989,9.449,6.011,14.203c1.02,4.755,1.532,11.904,1.532,21.451
		s-1.296,17.856-3.89,24.928h0.236c-0.63,1.494-1.867,3.595-3.712,6.306c-1.847,2.71-2.967,4.419-3.359,5.127
		c3.142,2.436,5.637,5.913,7.484,10.431c1.845,4.519,2.985,8.545,3.418,12.081c0.431,3.536,0.766,7.779,1.002,12.729l0.235,6.247
		v3.418c0,15.401-4.793,26.795-14.379,34.18c-5.108,3.928-11.276,5.893-18.504,5.893c-1.414,0-2.534-0.492-3.359-1.474
		c-0.825-0.983-1.278-2.219-1.355-3.712c-0.079-1.492-0.118-3.967-0.118-7.425l2.475-50.916l-0.472-21.451l1.415-57.752
		c0-6.128-0.079-10.803-0.236-14.025l-0.943-1.179V116.837z M456.921,255.796l0.236,10.961c5.971,0,11.079-2.808,15.322-8.427
		c4.243-5.617,6.364-11.53,6.364-17.738v-0.354c0.077-1.415,0.118-2.788,0.118-4.125c0-1.335-0.059-3.634-0.177-6.895
		c-0.118-3.26-0.374-6.247-0.766-8.958c-0.394-2.711-1.081-5.716-2.062-9.017c-0.983-3.3-2.142-6.088-3.477-8.368
		c-3.3-5.421-7.858-8.132-13.672-8.132c-0.786,12.022-1.178,22.65-1.178,31.881c0,9.234,0.235,15.107,0.707,17.621
		C457.393,245.975,456.921,249.826,456.921,255.796z M458.336,163.393l-0.236,16.854v2.947l0.943,3.182h1.768
		c10.607,0,15.911-10.725,15.911-32.176c0-2.906-0.236-7.896-0.707-14.968l-0.472-0.471c-1.022-13.357-5.068-20.037-12.14-20.037
		c-3.536,0-5.304,10.569-5.304,31.705L458.336,163.393z"/>
	<path d="M540.367,221.38l0.236,38.305c0,11.629-1.69,17.443-5.068,17.443c-0.55,0-1.219-0.315-2.003-0.943
		c-0.786-0.63-1.296-1.219-1.532-1.768c1.571-3.928,2.357-17.992,2.357-42.194c0-4.714-0.295-11.433-0.884-20.154
		s-0.924-14.418-1.001-17.09l-1.532-3.064l0.707-2.947c-2.044-4.714-5.816-14.889-11.315-30.526
		c-8.014-22.394-12.101-35.397-12.257-39.012l3.3-2.593c1.571,0.236,3.928,5.363,7.071,15.381
		c3.142,10.018,6.227,20.057,9.252,30.114c3.024,10.059,5.166,15.245,6.423,15.558l0.943-4.361l-0.472-1.179
		c1.179-1.415,2.729-7.131,4.656-17.149c1.924-10.018,3.987-19.524,6.188-28.522c2.199-8.996,4.32-13.495,6.365-13.495
		c2.042,0,3.064,0.866,3.064,2.593c0,1.729-0.866,5.639-2.593,11.728c-1.729,6.09-3.34,11.65-4.832,16.677
		c-1.494,5.029-2.613,8.919-3.359,11.668c-0.748,2.751-1.591,6.208-2.534,10.372c-1.886,7.858-2.829,15.204-2.829,22.04
		c0.784,1.965,1.179,3.341,1.179,4.125l-1.415,6.954L540.367,221.38z"/>
	<path d="M611.909,165.632l-0.235-14.732c0-42.194,7.974-63.292,23.926-63.292c5.657,0,11.255,2.28,16.795,6.836
		c5.54,4.558,8.781,9.587,9.724,15.086c4.399,24.83,6.601,56.143,6.601,93.936c0,21.766-1.532,37.206-4.597,46.32
		c-1.179,3.379-4.637,9.193-10.372,17.443c0.078,1.179,0.451,2.672,1.12,4.479c0.667,1.807,1.12,3.124,1.355,3.949
		c0.236,0.825,0.51,2.829,0.825,6.011c0.313,3.182,0.648,5.912,1.002,8.192c0.354,2.277,1.276,4.379,2.77,6.306
		c1.492,1.924,3.536,2.887,6.129,2.887c5.657,0,8.486,1.062,8.486,3.183c0,3.064-3.064,4.597-9.193,4.597
		c-0.63,0-1.906-0.512-3.831-1.532c-1.926-1.022-3.046-1.572-3.359-1.65c-3.064-1.337-5.362-3.812-6.895-7.425
		c-1.532-3.615-2.77-8.409-3.713-14.379c-0.943-5.972-1.69-9.821-2.239-11.55h-11.079c-11.944-8.486-19.329-20.311-22.158-35.477
		c-1.494-8.092-2.24-17.718-2.24-28.876L611.909,165.632z M617.567,193.801v10.136c0,16.815,2.396,31.351,7.189,43.608
		c1.807,4.558,4.32,8.448,7.543,11.668c3.221,3.223,6.914,4.833,11.079,4.833l1.65-1.179c0.313-1.1,1.256-1.689,2.829-1.768
		c1.571-0.077,2.632-0.313,3.182-0.707c5.107-4.479,7.818-11.981,8.133-22.512c0.077-2.435,0.118-5.342,0.118-8.722
		c0-3.377,0.059-5.814,0.177-7.307c0.118-1.492,0.431-3.575,0.943-6.247c0.51-2.67,0.766-4.714,0.766-6.128v-32.766
		c-0.63-1.571-0.943-4.361-0.943-8.368s-0.138-7.876-0.413-11.609c-0.276-3.731-0.748-8.427-1.414-14.084
		c-0.668-5.657-1.102-9.388-1.296-11.197c-0.197-1.807-0.374-3.948-0.531-6.423c-0.158-2.475-0.315-4.399-0.471-5.775
		c-0.159-1.374-0.394-3.162-0.707-5.363c-0.315-2.199-0.708-3.967-1.179-5.304c-0.472-1.335-1.081-2.847-1.827-4.538
		c-0.748-1.688-1.65-3.044-2.71-4.066c-1.061-1.02-2.339-2.003-3.831-2.946c-2.751-1.807-6.718-2.711-11.904-2.711
		C623.027,94.326,617.567,127.485,617.567,193.801z"/>
	<path d="M746.389,165.042l0.235,4.833c-0.315,4.086-0.53,9.587-0.648,16.5c-0.118,6.915-0.236,13.477-0.354,19.683
		c-0.118,6.208-0.335,12.926-0.648,20.154c-0.315,7.23-0.943,13.712-1.886,19.447c-2.201,13.672-5.775,22.788-10.726,27.344
		c-5.344,5.028-11.591,5.54-18.74,1.532c-3.064-1.727-5.639-3.889-7.72-6.482c-2.083-2.593-3.753-10.941-5.009-25.046
		c-1.258-14.103-2.004-28.974-2.239-44.61c-0.708-46.986-1.455-73.781-2.24-80.381l1.532-3.418c3.692,0.471,5.54,4.911,5.54,13.318
		l0.708,63.999l2.593,51.152c0,18.309,6.05,27.461,18.15,27.461c7.464,0,12.179-16.854,14.144-50.562
		c0.157-2.278,0.53-13.16,1.12-32.647c0.589-19.486,0.884-42.979,0.884-70.481l-0.472-4.361c0-1.807,1.158-2.711,3.477-2.711
		c2.316,0,3.692,0.53,4.125,1.591c0.431,1.061,0.648,5.815,0.648,14.261c0,8.447-0.512,14.673-1.532,18.681
		c0.156,0.315,0.235,0.825,0.235,1.532L746.389,165.042z"/>
	<path d="M805.084,237.527l-6.364,0.236c-2.28-0.943-4.793-1.415-7.543-1.415c-2.751,0-4.243,0.079-4.479,0.236
		c-0.236,0.158-0.394,0.433-0.471,0.825c-0.079,0.394-0.159,0.668-0.236,0.825l-0.472,4.833c-0.315,4.086-1.061,8.998-2.239,14.732
		c-2.201,11.238-4.519,16.854-6.954,16.854c-1.022,0-2.083-0.433-3.183-1.296c-1.101-0.864-1.65-1.807-1.65-2.829
		c2.042-6.049,4.164-15.204,6.365-27.461c2.199-12.258,3.574-19.898,4.125-22.924c0.549-3.024,1.571-9.134,3.064-18.328
		c1.492-9.193,2.475-15.243,2.946-18.151c0.472-2.906,1.748-9.193,3.831-18.857c2.081-9.665,3.339-15.989,3.771-18.976
		c0.431-2.985,0.923-7.031,1.474-12.14c1.335-12.571,2.396-19.565,3.182-20.979l3.3,0.235c1.963,0,3.418-0.471,4.361-1.414
		c1.02,0,2.003,0.335,2.946,1.001c0.943,0.669,1.415,1.553,1.415,2.652c0,7.701,0.981,22.59,2.946,44.669
		c1.963,22.081,3.516,36.36,4.656,42.842c1.138,6.482,2.455,12.847,3.948,19.094c1.492,6.247,2.239,11.02,2.239,14.32l-1.179,3.3
		c0,3.615,0.667,8.939,2.004,15.97c1.335,7.033,2.003,11.983,2.003,14.851c0,2.869-0.63,4.656-1.886,5.363
		c-3.3,0-5.324-0.472-6.07-1.415c-0.748-0.943-1.12-2.455-1.12-4.538c0-2.081-0.138-4.635-0.413-7.661
		c-0.276-3.023-0.551-5.44-0.825-7.248c-0.276-1.807-0.748-4.656-1.415-8.545c-0.668-3.89-1.081-6.383-1.238-7.484
		C812.863,237.921,809.248,237.527,805.084,237.527z M788.112,225.624c0,1.65,1.924,3.025,5.775,4.125
		c5.893,1.65,12.415,2.475,19.565,2.475h2.475c-1.022-3.142-1.532-6.757-1.532-10.843v-5.54c0-9.978-1.238-24.515-3.713-43.609
		c-2.475-19.093-3.792-33.314-3.948-42.666c-8.409,41.566-13.613,67.24-15.617,77.022
		C789.114,216.371,788.112,222.717,788.112,225.624z"/>
	<path d="M890.416,271.589l-8.015-0.825c-1.258,0-2.751,0.453-4.479,1.355c-1.729,0.904-3.792,1.355-6.188,1.355
		c-2.397,0-3.91-0.785-4.538-2.357l-4.007,0.236c-3.458,0-5.657-0.825-6.6-2.475c0-1.02,0.451-1.865,1.355-2.534
		c0.902-0.667,1.512-1.197,1.827-1.591h6.954l0.943-0.943l0.825-5.068l-1.768-52.802l1.179-56.337
		c0-10.921-0.395-20.232-1.179-27.934c-1.573-0.471-3.969-0.707-7.189-0.707l-5.775,0.472c-3.064,0-4.597-1.374-4.597-4.125
		c0-0.707,0.726-1.374,2.181-2.003c1.453-0.628,2.652-0.943,3.595-0.943c22.394,0,33.59,2.437,33.59,7.307
		c0,0.472-0.197,1.102-0.589,1.886l-5.54,0.471c-1.258-0.943-3.576-1.415-6.954-1.415l-1.179,0.708
		c0.472,1.414,0.707,5.698,0.707,12.847l-0.707,57.398l1.65,52.92l-0.235,7.425c0,3.771,0.235,6.011,0.707,6.718l-0.236,0.589
		c0,1.573,1.768,2.357,5.304,2.357l7.072-0.236c4.792,0,7.189,1.14,7.189,3.418c0,1.415-0.512,2.575-1.532,3.477
		C893.165,271.138,891.907,271.589,890.416,271.589z"/>
	<path d="M927.424,267.936l22.748,0.707h0.707c0.864,0,1.689,0.453,2.475,1.355c0.785,0.904,1.179,1.827,1.179,2.77
		c0,1.807-1.296,2.829-3.89,3.064c-4.166-0.159-10.843-0.236-20.036-0.236l0.471,0.236l-8.958,0.825c-2.28,0-3.615-1.847-4.007-5.54
		c0.313-1.571,0.472-4.243,0.472-8.014l1.415-128.705l1.178-15.912c0-1.099,0.589-1.65,1.768-1.65l4.007,0.943l-0.236,19.093
		l0.236,52.566c-0.472,13.201-0.707,19.959-0.707,20.272l0.471,20.508l-0.707,2.003l0.236-0.236l-0.236,1.886
		c0,1.337,0.236,2.475,0.707,3.418l-0.707,23.101v1.532c0,2.516,0.077,4.146,0.236,4.891
		C926.402,267.563,926.794,267.936,927.424,267.936z"/>
</g>
</svg>
