<?xml version="1.0" encoding="utf-8"?>
<!-- Generator: Adobe Illustrator 16.0.0, SVG Export Plug-In . SVG Version: 6.00 Build 0)  -->
<!DOCTYPE svg PUBLIC "-//W3C//DTD SVG 1.1//EN" "http://www.w3.org/Graphics/SVG/1.1/DTD/svg11.dtd">
<svg version="1.1" id="Layer_1" xmlns="http://www.w3.org/2000/svg" xmlns:xlink="http://www.w3.org/1999/xlink" x="0px" y="0px"
	 width="3728px" height="360px" viewBox="0 0 3728 360" enable-background="new 0 0 3728 360" xml:space="preserve">
<g>
	<g>
		<g opacity="0.8">
			<g opacity="0.8">
				<path fill="#F9B7A1" d="M3406.752,264.88c-2.494,5.484,0.597,2.742,2.838,1.43c-0.15-0.222-0.289-0.466-0.426-0.719
					C3408.36,265.374,3407.549,265.153,3406.752,264.88z"/>
				<path fill="#F9B7A1" d="M3409.164,265.591c0.137,0.253,0.275,0.497,0.426,0.719c0.283-0.164,0.548-0.299,0.788-0.394
					C3409.979,265.809,3409.572,265.7,3409.164,265.591z"/>
				<path fill="#F9B7A1" d="M3408.112,262.125c-0.571,1.095-1.014,1.997-1.36,2.755c0.797,0.273,1.608,0.494,2.412,0.711
					C3408.667,264.66,3408.293,263.529,3408.112,262.125z"/>
				<path fill="#F9B7A1" d="M3410.378,265.916c0.431,0.104,0.854,0.242,1.286,0.326
					C3411.49,265.667,3411.006,265.663,3410.378,265.916z"/>
				<path fill="#FEEFEB" d="M3450.953,236.21c-0.806-0.729-1.6-1.454-2.394-2.133c-0.79-0.691-1.544-1.435-2.301-2.146
					c-1.538-1.364-2.945-2.848-4.378-4.173c-2.762-2.805-5.354-5.449-7.616-8.003c0.068,1.944,0.169,3.926,0.347,5.773
					c0.199,1.828,0.491,3.521,0.861,4.938c1.053,4.468,3.609,5.961,6.461,6.318c1.415,0.213,2.973,0.042,4.48-0.084
					C3447.928,236.562,3449.487,236.253,3450.953,236.21z"/>
				<path fill="#FDE4DC" d="M3428.157,213.105c-1.116-1.411-2.038-2.721-2.797-3.861c0.001,0.523,0.041,1.022,0.13,1.477
					c0.087,0.451,0.207,0.88,0.475,1.223c0.24,0.351,0.546,0.623,0.892,0.835c0.175,0.104,0.364,0.186,0.568,0.244
					C3427.645,213.078,3427.898,213.104,3428.157,213.105z"/>
				<path fill="#FEEFEB" d="M3450.303,237.286c-2.993,0.223-6.23,1.025-9.141,0.689c-1.449-0.172-2.83-0.594-3.959-1.586
					c-1.145-0.969-2.086-2.432-2.605-4.679c-0.375-1.42-0.699-3.089-0.883-4.935c-0.188-1.85-0.304-3.817-0.381-5.764
					c-3.699-4.024-6.588-7.812-8.463-10.687c-1.886,0.08-2.271-1.44-1.758-3.075c-0.185-0.244-0.162-0.454-0.264-0.639
					c-0.059-0.183-0.208-0.376-0.23-0.509c0.01-0.267-0.231-0.485-0.145-0.548c0.004-0.023-0.017-0.032-0.034-0.043l-0.035-0.013
					c-0.024-0.005,0.034-0.021-0.137,0.074c-0.47,0.271-0.983,0.523-1.54,0.75l-0.426,0.166l-0.108,0.04
					c-0.026,0.02-0.017,0.065-0.026,0.097l-0.037,0.208c-0.056,0.278-0.13,0.557-0.224,0.833c-0.095,0.276-0.209,0.55-0.344,0.817
					c-0.067,0.134-0.14,0.267-0.217,0.397c-0.041,0.142-0.073-0.061-0.108-0.146l-0.104-0.317l-0.831-2.539l-0.208-0.635
					l-0.013-0.04c1.753,0.573-3.935-1.312,3.929,1.28l-0.005-0.019l-0.021-0.074l-0.044-0.148l-0.088-0.298l-0.366-1.18
					c-0.49-1.564-1.015-3.113-1.57-4.663c-1.116-3.098-2.35-6.189-3.757-9.267c-2.779-6.162-6.127-12.274-10.037-18.409
					c-1.99-3.067-4.099-6.146-6.328-9.256c-2.251-3.106-4.643-6.256-7.089-9.512c-0.263-0.367-0.937-1.168-1.775-2.214
					c-0.415-0.521-0.872-1.097-1.353-1.7c-0.473-0.622-0.967-1.271-1.462-1.922c-1.009-1.333-1.829-2.708-2.548-3.935
					c-0.175-0.31-0.337-0.614-0.483-0.902c-0.128-0.272-0.248-0.527-0.358-0.76c-0.208-0.483-0.378-0.876-0.503-1.166
					c0.001,0-0.093-0.238-0.183-0.563c-0.096-0.333-0.207-0.791-0.291-1.27c-0.094-0.489-0.129-0.949-0.137-1.314
					c-0.01-0.364-0.002-0.615-0.002-0.615l-0.02-0.019c-0.028,0.424-0.041,0.83-0.042,1.216c0.011,0.396,0.044,0.799,0.077,1.175
					c0.039,0.386,0.064,0.729,0.136,1.106c0.069,0.364,0.14,0.73,0.21,1.098c0.119,0.68,0.35,1.436,0.578,2.134
					c0.209,0.677,0.496,1.439,0.811,2.146c0.284,0.816,0.834,1.747,1.301,2.558c0.514,0.861,1.094,1.709,1.473,2.492
					c1.843,3.615,3.371,6.901,5.115,10.311c1.768,3.398,3.814,6.906,7.358,10.655c1.396,1.098,1.042,2.694,0.568,4.329
					c-0.507,1.64-1.136,3.327,0.249,4.425c2.971,4.592,3.363,9.04,3.379,13.526c0.039,4.475-0.298,8.98,2.181,13.218
					c0.29,0.429,0.574,0.85,0.854,1.262l0.027,0.039l0.013,0.019l0.004,0.005c-0.558-2.719-0.152-0.751-0.276-1.356l0.008,0.01
					l0.06,0.078l0.119,0.155l0.238,0.307c0.162,0.203,0.323,0.404,0.482,0.604c0.326,0.397,0.647,0.788,0.964,1.172l0.482,0.571
					l0.241,0.282l0.12,0.14l0.061,0.07c0.019,0.011,0.032-0.009,0.049-0.012c0.512-0.232,0.934-0.497,1.294-0.781
					c0.177-0.141,0.34-0.287,0.474-0.431c0.229-0.007,0.469,0.017,0.681,0.022c0.429,0.02,0.801,0.038,1.083,0.088
					c0.333,0.052,0.684,0.121,0.891,0.244c0.109,0.062,0.198,0.135,0.266,0.223c0.058,0.088,0.198,0.195,0.259,0.319
					c0.141,0.255,0.195,0.581,0.163,1.015c0.583,0.484,2.975-0.416,3.571,0.05c0.859,2.471,2.625,5.608,4.944,9.184
					c2.327,3.579,5.193,7.626,8.431,12.114c0.953,0.542,1.072,3.181,1.404,5.54c0.345,2.323,0.884,4.376,2.312,3.877
					c2.135-1.342,4.039-2.187,5.793-2.686c1.781-0.556,3.431-0.782,5.058-0.986c0.673,0.373-0.111,6.414,1.388,7.075
					c1.333,1.014,2.787,1.506,4.234,1.88c1.458,0.333,2.942,0.42,4.39,0.558c1.456,0.093,2.888,0.176,4.278,0.434
					c1.396,0.216,2.746,0.616,4.076,1.26c-0.25-0.554-0.496-1.098-0.74-1.64C3459.517,244.808,3454.722,241.04,3450.303,237.286z"/>
				<g>
					<path fill="#FEEFEB" d="M3481.662,257.494c-0.896,0.048-1.796,0.047-2.643,0.04c0.67,0.479,1.364,0.911,2.078,1.327
						c0.707,0.388,1.437,0.73,2.183,1.058c1.499,0.681,3.032,1.119,4.62,1.557c3.162,0.787,6.42,1.24,9.797,1.837
						c-2.917-0.575-5.672-1.462-8.332-2.427C3486.707,259.864,3484.145,258.732,3481.662,257.494z"/>
					<path fill="#FEEFEB" d="M3472.769,253.373l0.154,0.278c-2.851-1.688-5.597-3.454-8.243-5.279c0.244,0.542,0.49,1.086,0.74,1.64
						c1.574,0.754,3.116,1.843,4.661,3.421c0.407,0.423,0.832,0.824,1.266,1.211c0.642-0.052,1.313-0.15,1.994-0.26
						c0.103,0.173,0.202,0.342,0.306,0.517c1.282,2.091,3.222,2.613,5.373,2.633c-0.459-0.329-0.916-0.677-1.353-1.039
						c-0.825-0.65-1.649-1.275-2.462-1.795C3474.39,254.175,3473.584,253.775,3472.769,253.373z"/>
				</g>
				<path fill="#FBD0C1" d="M3467.814,286.39c-1.779-0.204-3.354-0.118-4.917,0.386c-1.563,0.521-3.055,1.241-4.594,2.094
					c-1.54,0.862-3.109,1.74-4.739,2.286c-1.631,0.563-3.349,0.849-5.093,0.254c-5.16-1.313-10.452-0.962-16.093-0.152
					c5.787,1.372,11.611,2.06,17.48,1.682c5.869-0.38,11.783-1.779,17.601-4.259C3467.334,288.132,3467.381,287.401,3467.814,286.39
					z"/>
				<path fill="#FCD9CD" d="M3494.952,265.229c-0.828,0.49-1.778,1.145-2.93,1.756c-1.151,0.55-2.507,1.238-4.111,1.598
					c-2.719,0.661-5.268,0.487-7.651,0.042c-1.191-0.25-2.351-0.494-3.485-0.732c-1.134-0.25-2.249-0.427-3.374-0.404
					c-1.569-0.112-3.164-0.16-4.805-0.033c-1.636,0.089-3.308,0.274-5.024,0.58c-1.707,0.239-3.462,0.614-5.239,0.964
					c-1.771,0.319-3.585,0.716-5.391,0.971c-3.612,0.533-7.262,0.746-10.566-0.255c-3.295-0.999-6.248-3.226-8.211-7.583
					c-0.941-1.921-1.963-3.536-3.037-4.984c-1.069-1.459-2.224-2.656-3.44-3.697c-1.203-1.07-2.494-1.922-3.847-2.657
					c-1.332-0.774-2.754-1.374-4.22-1.92c-1.442-0.587-2.974-1.044-4.512-1.53c-1.515-0.525-3.117-0.95-4.661-1.515
					c-3.097-1.102-6.223-2.404-8.826-4.446c-0.521-0.405-1.271-0.604-2.152-0.712c-0.881-0.106-1.84-0.19-2.846-0.253
					c-0.998-0.071-2.014-0.16-2.916-0.352c-0.875-0.227-1.632-0.566-2.135-1.075c-3.342-3.385-6.214-7.022-8.381-11.003
					c-0.277-0.492-0.572-0.97-0.829-1.471l-0.705-1.536l-0.692-1.531l-0.343-0.764l-0.286-0.837
					c-0.367-1.119-0.733-2.234-1.099-3.347c-0.255-1.019-0.675-1.959-0.892-2.942c-0.08-0.378-0.346-0.746-0.346-1.105v-0.009
					v-0.004c1,0.193,0.186-0.269,0.195-0.223l0.121-0.017l0.062-0.034l0.036-0.067l0.03-0.134l0.05-0.265
					c0.033-0.175,0.079-0.348,0.129-0.518c0.202-0.68,0.541-1.322,0.957-1.936c0.836-1.229,1.994-2.35,3.062-3.476
					c2.15-2.258,3.884-4.505,2.198-7.787c-0.131-0.869,3.651-3.162,3.459-4.001c-3.042-9.625-4.762-19.708-5.765-29.733
					c-0.479-5.008-0.829-10.017-0.871-14.94c-0.021-2.464-0.017-4.928,0.226-7.353c0.245-2.437,0.613-4.842,1.738-7.313
					c0.138-0.134,0.138-0.135-0.005,0.005c-1.264,1.23-2.199,2.752-3.002,4.331c-0.72,1.617-1.38,3.275-1.882,4.986
					c-1.06,3.407-1.896,6.905-2.761,10.415c-1.659,7.015-3.549,14.156-4.465,20.969c-1.926,9.251-1.86,18.458-1.05,27.496
					l0.634,6.785l0.092,3.388l-0.19,0.423v0.013l0.352,0.605l0.119,0.026l0.064,0.052l0.043,0.103l0.043,0.206l0.118,0.826
					l0.214,1.653c0.023,0.89,0.519,2.773,0.873,4.304l0.588,2.411l0.645,2.09c0.793,2.858,1.85,5.57,2.867,8.395
					c2.073,5.171,5.045,10.079,8.644,14.301c0.906,1.029,1.853,2.03,2.818,3.013c0.985,0.912,2.007,1.783,3.045,2.629
					c1.034,0.873,2.126,1.573,3.224,2.278c1.104,0.681,2.221,1.377,3.374,1.892c0.417-0.743,0.949-1.62,1.626-2.682
					c0.055,1.461,0.334,2.659,0.758,3.679c0.402,0.157,0.801,0.312,1.201,0.469c0.653-0.187,1.153-0.165,1.281,0.435
					c-0.434-0.119-0.855-0.273-1.281-0.435c-0.255,0.07-0.534,0.181-0.834,0.319c1.078,1.958,2.811,2.896,4.739,3.402
					c1.934,0.47,4.085,0.351,6.096,0.218c4.065-0.386,7.57-1.061,8.856,1.39c1.108,2.158,2.531,3.797,4.149,5.081
					c1.613,1.319,3.438,2.167,5.358,2.806c3.854,1.236,8.112,1.32,12.264,1.113c4.166-0.247,8.23-0.772,11.965-0.984
					c3.744-0.244,7.16-0.123,10.189,0.555c6.233,0.75,12.242-0.481,17.57-2.732c5.35-2.206,9.963-5.435,13.893-7.854
					C3495.545,265.135,3495.235,265.189,3494.952,265.229z"/>
				<path fill="#FCDED4" d="M3493.821,263.146c-0.386-0.189-0.738-0.389-1.023-0.558c-3.858,0.097-8.475,0.944-13.484,0.981
					c-4.996,0.092-10.273-0.694-15.124-2.084c-0.862-0.143-2.18-3.443-3.561-5.491c-0.954-0.708-1.885-0.813-2.817-0.565
					c-0.933,0.252-1.869,0.86-2.793,1.467c-1.839,1.206-3.705,2.688-5.181,1.323c-1.603-1.365-3.201-2.725-4.797-4.083
					c-1.55-1.292-3.097-2.582-4.642-3.87c-1.542-1.206-3.017-2.48-4.53-3.582c-1.485-1.162-2.969-2.25-4.446-3.28
					c-5.862-4.204-11.677-7.434-17.381-10.471c-5.628-3.083-11.29-5.958-15.925-9.941l-0.898-0.742
					c-0.275-0.258-0.528-0.527-0.799-0.793c-0.518-0.54-1.111-1.065-1.607-1.635l-1.435-1.766l-0.362-0.449l-0.269-0.393
					l-0.561-0.799l-0.589-0.823c-0.104-0.102-0.197-0.367-0.292-0.587l-0.282-0.679l-0.557-1.359l-0.275-0.681l-0.136-0.34
					l-0.067-0.17l-0.009-0.021c0.163,0.803,0.041,0.21,0.076,0.384l-0.015-0.043l-0.029-0.086c-0.614-1.828-1.189-3.657-1.707-5.501
					c-0.37-1.694,10.899-1.794,12.342-4.591c0.107-3.422-0.836-6.458-1.295-9.458c-0.457-2.994-0.381-5.952,1.26-9.004
					c1.463-0.962-4.885-2.797-7.298-5.123c-1.994-2.136-2.981-4.321-3.62-6.499c-0.315-1.091-0.496-2.171-0.688-3.258
					c-0.16-1.076-0.276-2.158-0.418-3.229c-0.244-2.138-0.562-4.273-1.113-6.415c-0.549-2.158-1.379-4.332-2.375-6.65
					c-1.23-2.537-1.66-5.006-1.961-7.519c-0.081-0.645-0.107-1.253-0.151-1.896c-0.059-0.659-0.054-1.283-0.029-1.93
					c0-1.328,0.178-2.636,0.6-4.037c0.021-0.113,0.047-0.195,0.071-0.256c-1.125,2.472-1.493,4.877-1.738,7.313
					c-0.242,2.425-0.247,4.889-0.226,7.353c0.042,4.923,0.393,9.932,0.871,14.94c1.003,10.025,2.723,20.107,5.765,29.733
					c0.192,0.839-3.59,3.133-3.458,4.001c1.302,2.535-0.511,4.392-2.585,6.63c-1.031,1.117-2.124,2.326-2.887,3.746
					c-0.382,0.71-0.68,1.472-0.846,2.301c-0.084,0.415-0.324,0.844-0.332,1.292l-0.193,0.169v0.085v0.01v0.006
					c0,0.1,0.146-0.217,0.236,0.226l0.098,0.021l0.051,0.042l0.059,0.343c0.029,0.23,0.08,0.464,0.131,0.702
					c0.224,1.003,0.404,1.947,0.67,2.982c0.368,1.121,0.738,2.238,1.104,3.354l0.29,0.832l0.342,0.76l0.689,1.522l0.7,1.525
					c0.257,0.495,0.549,0.97,0.823,1.458c2.149,3.947,4.99,7.559,8.379,10.998c0.503,0.509,1.26,0.849,2.135,1.075
					c0.902,0.192,1.918,0.281,2.916,0.352c1.006,0.063,1.965,0.147,2.846,0.253c0.881,0.108,1.631,0.308,2.152,0.712
					c2.604,2.042,5.729,3.344,8.826,4.446c1.544,0.565,3.146,0.99,4.661,1.515c1.538,0.486,3.069,0.943,4.512,1.53
					c1.466,0.546,2.888,1.146,4.22,1.92c1.353,0.735,2.644,1.586,3.847,2.657c1.217,1.041,2.371,2.238,3.44,3.697
					c1.074,1.448,2.096,3.062,3.037,4.984c1.963,4.357,4.916,6.584,8.211,7.583c3.305,1.001,6.954,0.789,10.566,0.255
					c1.806-0.254,3.619-0.652,5.391-0.971c1.777-0.35,3.532-0.726,5.239-0.964c1.717-0.306,3.389-0.491,5.024-0.58
					c1.641-0.127,3.235-0.079,4.805,0.033c1.125-0.023,2.24,0.154,3.374,0.404c1.135,0.238,2.294,0.482,3.485,0.732
					c2.384,0.445,4.933,0.619,7.651-0.042c1.604-0.36,2.96-1.048,4.111-1.598c1.151-0.611,2.102-1.266,2.93-1.756
					c-1.981,0.233-2.998-1.034-3.166-2.289C3492.287,263.011,3493.065,263.071,3493.821,263.146z"/>
				<path fill="#FDE8E1" d="M3498.544,263.5c-1.146,0.463-2.892-0.142-3.805-0.594c-0.462-0.221-0.714-0.31-0.623-0.206
					c0.089,0.086,0.533,0.43,1.438,0.725c-0.755-0.047-1.547-0.097-2.054-0.128c0.145,0.913,1.175,1.963,3.064,1.296
					C3497.302,264.107,3497.943,263.735,3498.544,263.5z"/>
				<path fill="#FDE8E1" d="M3492.104,262.154c-1.014-0.308-2.006-0.593-2.987-0.916c-1.536-0.228-3.101-0.478-4.648-0.736
					c-1.563-0.334-3.103-0.614-4.635-1.14c-1.524-0.488-3.013-1.073-4.442-1.875c-0.714-0.399-1.41-0.803-2.084-1.272
					c-0.677-0.482-1.33-1.02-1.96-1.572c-2.159,0.171-4.058-0.37-5.173-2.859c-0.256-0.602-0.505-1.188-0.754-1.772
					c-1.33-0.644-2.681-1.043-4.076-1.26c-1.391-0.258-2.822-0.341-4.278-0.434c-1.447-0.138-2.932-0.225-4.39-0.558
					c-1.447-0.374-2.901-0.866-4.234-1.88c-1.499-0.661-0.715-6.702-1.388-7.075c-1.627,0.204-3.276,0.431-5.058,0.986
					c-1.754,0.499-3.658,1.343-5.793,2.686c-1.429,0.5-1.968-1.554-2.312-3.877c-0.332-2.359-0.451-4.998-1.404-5.54
					c-3.237-4.488-6.104-8.535-8.431-12.114c-2.319-3.576-4.085-6.713-4.944-9.184c-0.597-0.466-2.988,0.434-3.571-0.05
					c0.032-0.434-0.022-0.76-0.163-1.015c-0.061-0.124-0.201-0.231-0.259-0.319c-0.067-0.088-0.156-0.162-0.266-0.223
					c-0.207-0.123-0.558-0.192-0.891-0.244c-0.282-0.05-0.654-0.068-1.083-0.088c-0.212-0.006-0.451-0.03-0.681-0.022
					c-0.134,0.144-0.297,0.291-0.474,0.431c-0.36,0.284-0.782,0.549-1.294,0.781c-0.017,0.003-0.03,0.023-0.049,0.012l-0.061-0.07
					l-0.12-0.14l-0.241-0.282l-0.482-0.571c-0.316-0.385-0.638-0.775-0.964-1.172c-0.159-0.2-0.32-0.401-0.482-0.604l-0.238-0.307
					l-0.119-0.155l-0.06-0.078l-0.008-0.01c0.124,0.605-0.281-1.362,0.276,1.356l-0.004-0.005l-0.013-0.019l-0.027-0.039
					c-0.279-0.413-0.563-0.833-0.854-1.262c-2.479-4.238-2.142-8.743-2.181-13.218c-0.016-4.486-0.408-8.934-3.379-13.526
					c-1.385-1.098-0.756-2.785-0.249-4.425c0.474-1.635,0.828-3.231-0.568-4.329c-3.544-3.749-5.591-7.257-7.358-10.655
					c-1.744-3.41-3.272-6.696-5.115-10.311c-0.379-0.783-0.959-1.631-1.473-2.492c-0.467-0.812-1.017-1.742-1.301-2.558
					c-0.314-0.706-0.602-1.469-0.811-2.146c-0.229-0.699-0.459-1.454-0.578-2.134c-0.07-0.368-0.141-0.734-0.21-1.098
					c-0.071-0.378-0.097-0.721-0.136-1.106c-0.033-0.376-0.066-0.779-0.077-1.175c0.001-0.386,0.014-0.792,0.042-1.216l-0.074-0.07
					c0.011-0.119,0.022-0.22,0.04-0.306c-0.422,1.401-0.6,2.708-0.6,4.037c-0.024,0.647-0.029,1.271,0.029,1.93
					c0.044,0.643,0.07,1.251,0.151,1.896c0.301,2.513,0.73,4.982,1.961,7.519c0.996,2.319,1.826,4.492,2.375,6.65
					c0.552,2.141,0.869,4.277,1.113,6.415c0.142,1.071,0.258,2.153,0.418,3.229c0.191,1.087,0.372,2.167,0.688,3.258
					c0.639,2.178,1.626,4.363,3.62,6.499c2.413,2.325,8.761,4.16,7.298,5.123c-1.641,3.052-1.717,6.01-1.26,9.004
					c0.459,3,1.402,6.036,1.295,9.458c-1.442,2.797-12.712,2.897-12.342,4.591c0.518,1.844,1.093,3.673,1.707,5.501l0.029,0.086
					l0.015,0.043c-0.035-0.174,0.087,0.419-0.076-0.384l0.009,0.021l0.067,0.17l0.136,0.34l0.275,0.681l0.557,1.359l0.282,0.679
					c0.095,0.22,0.188,0.485,0.292,0.587l0.589,0.823l0.561,0.799l0.269,0.393l0.362,0.449l1.435,1.766
					c0.496,0.57,1.09,1.096,1.607,1.635c0.271,0.266,0.523,0.535,0.799,0.793l0.898,0.742c4.635,3.982,10.297,6.858,15.925,9.941
					c5.704,3.038,11.519,6.268,17.381,10.471c1.478,1.03,2.961,2.118,4.446,3.28c1.514,1.102,2.988,2.376,4.53,3.582
					c1.545,1.288,3.092,2.578,4.642,3.87c1.596,1.358,3.194,2.719,4.797,4.083c1.476,1.364,3.342-0.118,5.181-1.323
					c0.924-0.607,1.86-1.215,2.793-1.467c0.933-0.248,1.863-0.143,2.817,0.565c1.381,2.047,2.698,5.348,3.561,5.491
					c4.851,1.39,10.128,2.176,15.124,2.084c5.01-0.037,9.626-0.884,13.484-0.981C3492.369,262.32,3492.104,262.154,3492.104,262.154
					z"/>
				<path fill="#FBD0C1" d="M3369.241,250.528c0.928,1.185,1.854,2.406,2.819,3.583c0.977,1.109,1.96,2.226,2.951,3.352
					c1,1.158,2.017,2.176,3.051,3.234c0.52,0.527,1.04,1.057,1.563,1.589c0.523,0.545,1.048,1.068,1.58,1.552
					c0.288,0.219,0.938,0.808,1.851,1.631c-2.234-2.291-4.365-5.002-6.586-7.489c-1.109-1.328-2.24-2.614-3.438-3.82
					C3371.828,252.961,3370.602,251.644,3369.241,250.528z"/>
				<path fill="#FBD0C1" d="M3390.186,271.425c4.781,3.652,10.418,6.958,13.504,8.456c-1.879-4.762-4.079-8.67-8.002-10.819
					c0,0-1.071,0.718-2.306,1.37C3392.147,271.086,3390.749,271.664,3390.186,271.425z"/>
				<g>
					<path fill="#FAC8B8" d="M3475.525,284.506c0.933-0.552,1.877-1.15,2.808-1.798c0.931-0.642,1.849-1.257,2.756-1.933
						c1.84-1.382,3.612-2.794,5.359-4.32c0.873-0.79,1.731-1.54,2.567-2.34c0.834-0.792,1.675-1.656,2.48-2.456
						c0.812-0.792,1.596-1.619,2.367-2.501c0.77-0.861,1.52-1.67,2.235-2.539c-0.729,0.813-1.499,1.527-2.283,2.28
						c-0.787,0.773-1.584,1.471-2.403,2.146c-0.832,0.707-1.662,1.411-2.49,2.114l-2.554,2.102c-1.729,1.418-3.476,2.841-5.294,4.41
						c-0.896,0.768-1.808,1.521-2.734,2.346L3475.525,284.506z"/>
					<path fill="#FBCFC1" d="M3495.861,265.021c-3.93,2.419-8.543,5.648-13.893,7.854c-5.328,2.251-11.337,3.482-17.57,2.732
						c-3.029-0.678-6.445-0.798-10.189-0.555c-3.734,0.212-7.799,0.737-11.965,0.984c-4.151,0.207-8.41,0.124-12.264-1.113
						c-1.921-0.639-3.745-1.487-5.358-2.806c-1.618-1.284-3.041-2.923-4.149-5.081c-1.286-2.451-4.791-1.776-8.856-1.39
						c-2.011,0.132-4.162,0.251-6.096-0.218c-1.929-0.507-3.661-1.444-4.739-3.402c-2.381,1.11-5.776,3.578-2.751-1.785
						c-1.153-0.515-2.271-1.211-3.374-1.892c-1.098-0.705-2.189-1.405-3.224-2.278c-1.038-0.846-2.06-1.718-3.045-2.629
						c-0.966-0.982-1.912-1.984-2.818-3.013c-3.599-4.222-6.57-9.13-8.644-14.301c-1.018-2.825-2.073-5.537-2.866-8.395l-0.645-2.09
						l-0.587-2.411c-0.354-1.531-0.848-3.415-0.872-4.304l-0.21-1.653l-0.111-0.826l-0.028-0.206l-0.015-0.103l-0.007-0.052
						l-0.233-0.026l-0.352-0.605v-0.013l0.19-0.423l-0.206-3.388l-0.576-6.785c-0.811-9.038-0.848-18.244,1.078-27.496
						c0.916-6.812,2.82-13.954,4.479-20.969c0.865-3.509,1.709-7.007,2.769-10.415c0.502-1.71,1.165-3.369,1.886-4.986
						c0.803-1.579,1.739-3.101,3.003-4.331c-0.099,0.109-0.302,0.263-0.667,0.449c-0.357,0.19-0.934,0.381-1.576,0.739
						c-0.379,0.191-0.762,0.385-1.159,0.585c-0.422,0.229-0.849,0.502-1.321,0.821c-0.481,0.317-0.99,0.682-1.469,1.1
						c-0.481,0.417-1.051,0.887-1.509,1.423c-2.071,2.064-3.899,4.278-5.563,6.565c-1.635,2.255-3.141,4.594-4.465,6.885
						c-2.682,4.62-4.796,9.219-6.454,13.714c-3.345,9.01-4.753,17.602-5.118,26.004c1.793,6.064,3.176,11.973,2.238,18.176
						c-0.658-3.019-1.688-6.01-2.878-9.02c0.104,3.771,0.42,7.514,0.859,11.27c0.116,0.933,0.233,1.867,0.352,2.805
						c0.265,1.374,0.53,2.751,0.796,4.135l0.26,1.327c0.004,0.059,0.081,0.335,0.143,0.564l0.193,0.697l0.405,1.394
						c0.559,1.848,1.174,3.739,1.837,5.532c-0.062-0.458-0.125-0.919-0.188-1.38c0.141,0.432,0.294,0.916,0.438,1.301l0.416,1.044
						c0.283,0.697,0.567,1.396,0.853,2.096c0.583,1.387,1.153,2.848,1.847,4.152c4.506,6.094,7.845,12.701,11.923,18.417
						c0.773,0.939,1.755,2.15,2.893,3.362c0.575,0.619,1.185,1.274,1.818,1.956c0.639,0.683,1.303,1.396,1.992,2.034
						c0.279,0.164,1.153,0.64,2.32,1.337c0.576,0.355,1.232,0.76,1.938,1.194c0.697,0.411,1.431,0.845,2.165,1.324
						c2.944,1.985,5.922,4.126,6.689,6.764c1.031,0.665,1.766,1.066,2.079,1.226c9.01,5.73,17.507,10.599,26.197,13.787
						c1.431-0.064,2.846-0.112,4.233-0.087c1.393-0.003,2.753,0.045,4.102,0.16c2.688,0.279,5.273,0.817,7.806,1.904
						c1.704,0.851,3.779,1.239,5.901,1.379c2.126,0.131,4.315-0.089,6.263-0.338c1.957-0.29,3.685-0.698,4.915-0.931
						c1.238-0.253,2-0.44,2.02-0.259c1.397-0.436,2.778-0.862,4.169-1.394c1.397-0.561,2.784-1.147,4.157-1.758
						c2.027-1.649,4.012-3.154,5.93-4.579c1.937-1.425,3.822-2.773,5.674-3.982c3.725-2.54,7.312-4.585,10.851-6.889
						c0.889-0.769,1.758-1.604,2.624-2.417c0.861-0.822,1.707-1.55,2.531-2.375c2.975-2.952,4.02-4.229,4.302-4.584
						C3496.844,264.619,3496.33,264.846,3495.861,265.021z"/>
				</g>
			</g>
		</g>
	</g>
</g>
<g>
	<g>
		<g>
			<path fill="none" d="M3481.504,291.724 M3546.793,336.549"/>
			<path fill="none" stroke="#3F3B3C" stroke-width="8.7271" stroke-linecap="round" stroke-miterlimit="10" d="M3546.793,336.549"
				/>
			<path fill="none" stroke="#3F3B3C" stroke-width="8.7271" stroke-linecap="round" stroke-miterlimit="10" d="M3481.504,291.724"
				/>
		</g>
	</g>
	<g>
		<g>
			<g>
				<g>
					<g>
						<polygon fill="#3F3B3C" points="48,344.962 50.07,345.29 55.444,344.383 						"/>
						<path fill="#3F3B3C" d="M83.316,342.944c-1.035-0.164-0.533-0.437-1.587-0.605l-20.734,2.589
							C70.263,346.394,77.213,341.964,83.316,342.944z"/>
						<path fill="#3F3B3C" d="M89.419,343.206c8.045,0.605,11.377-0.611,13.251-1.022C99.86,343.125,87.674,341.894,89.419,343.206z
							"/>
						<path fill="#3F3B3C" d="M797.598,342.602c-0.75,0.008-1.745,0.042-2.495,0.08
							C796.366,342.721,797.174,342.682,797.598,342.602z"/>
						<path fill="#3F3B3C" d="M982.363,338.477l1.933-0.972c-34.468,1.729-73.364-0.028-109.824,0.727l2.465-0.341
							c-92.521-0.377-177.843,1.242-269.634,1.981c1.43-0.106,1.913-0.39,3.392-0.503c-4.427,0.334-9.337,0.956-14.306,0.873
							c-1.292-0.215,1.39-0.451,2.987-0.547c-19.383-1.603-56.938,1.016-69.055-0.22c-5.452,0.171-7.858,0.839-4.821,1.347
							c-71.845,0.411-148.708,0.716-221.885,1.971c-3.52-0.218-4.161-0.652-3.195-1.206c-62.548,2.6-128.103,1.563-192.1,1.142
							c-2.455,0.685,6.527,0.725,0.227,1.435c20.577,0.854,37.683-1.675,56.346-0.431l-2.396,0.658
							c13.576,0.424,2.75-1.662,16.84-0.812c5.551,0.55-1.391,0.837,1.193,0.889c28.858-0.271,58.959,0.323,86.131-1.278
							c6.714,1.432,31.008,0.049,41.676,1.417c7.463-0.565,14.957-0.42,17.796-1.368c101,0.756,204.188-0.629,307.652-0.524
							c48.419-2.768,106.402,0.533,163.873-0.394c0.395,0.098,0.326,0.202-0.059,0.281c18.733-0.683,46.034-1.004,68.395-0.663
							l18.94-1.17c134.551,2.405,272.05,0.716,408.71,1.716c155.295,0.689,291.344,2.685,442.578-0.966
							c-0.197,0.271,1.025,0.42-2.879,0.533c43.646-0.559,83.41,0.437,124.514-0.141l-0.128,0.272
							c101.985-2.282,212.282,0.305,310.6-2.156c119.692,0.247,255.032,0,381.716-0.707l-0.297,0.552
							c101.375-1.159,199.338,1.749,300.484,0.873c104.017,1.251,213.909-3.145,318.812-1.477
							c64.904,2.695,150.158-3.083,211.129-0.29c9.369,0.315,18.716,0.592,28.03,0.832c9.337,0.206,18.64,0.412,27.896,0.617
							c0.5,0.012,1.001-0.058,1.486-0.165c0.474-0.161,0.957-0.304,1.396-0.539c0.436-0.203,0.825-0.4,1.197-0.623
							c0.377-0.217,0.764-0.428,1.117-0.66c1.466-0.896,2.821-1.876,4.188-2.854c2.697-1.979,5.3-4.047,7.868-6.147
							c5.132-4.206,10.114-8.554,15.033-12.963c2.458-2.205,4.896-4.43,7.317-6.674l3.616-3.383l1.796-1.709l2.009-1.947
							c0.38-0.366,0.755-0.768,1.133-1.15c0.358-0.393,0.684-0.802,0.982-1.208c0.145-0.204,0.292-0.407,0.422-0.622
							c0.116-0.224,0.192-0.474,0.29-0.709l0.277-0.718c0.096-0.238,0.107-0.496,0.166-0.743c0.42-1.974-0.016-4.165-1.361-5.719
							c-0.374-0.342-0.712-0.729-1.116-1.035c-0.43-0.255-0.85-0.6-1.288-0.782c-0.461-0.14-0.92-0.219-1.416-0.297
							c-0.514-0.052-1.016-0.12-1.549-0.137l-5.693-0.012c-13.012-0.103-26.01-1.313-38.68-4.037
							c-12.635-2.763-25.01-7.065-36.035-13.789c-5.498-3.36-10.63-7.327-15.17-11.903c-4.544-4.571-8.479-9.751-11.689-15.375
							c-3.203-5.622-5.798-11.686-7.98-17.832c-2.169-6.167-3.838-12.526-4.888-19.007c-1.047-6.479-1.491-13.08-1.202-19.678
							c0.312-6.594,1.336-13.178,3.121-19.586c1.856-6.381,4.439-12.603,8.003-18.308c3.587-5.649,8.019-10.986,13.923-14.666
							c0.801-0.405,1.553-0.893,2.399-1.217l1.242-0.531c0.202-0.098,0.429-0.146,0.642-0.222l0.545-0.17
							c0.454-0.136,0.908-0.283,1.344-0.475c0.405-0.251,0.763-0.577,1.017-0.982c0.512-0.809,0.703-1.78,0.747-2.733
							c0.049-0.922-0.09-2.065-0.354-3.075c-0.264-1.029-0.654-2.034-1.192-2.906c-0.147-0.204-0.273-0.434-0.433-0.62l-0.505-0.577
							l-0.632-0.689l-0.567-0.72c-0.723-0.972-1.363-1.977-1.947-2.988c-1.188-2.011-2.231-4.062-3.499-5.893
							c-0.625-0.92-1.311-1.783-2.095-2.479c-0.799-0.716-1.599-1.183-2.699-1.508c-2.064-0.748-4.25-0.992-6.455-0.781
							c-2.188,0.2-4.481,0.74-6.663,1.212c-2.474,0.687-5.039,1.456-7.442,1.628c-0.603,0.044-1.196,0.053-1.783-0.002
							c-0.582-0.059-1.181-0.173-1.691-0.514c-0.528-0.346-0.723-1.001-0.793-1.581c-0.052-0.599,0.015-1.181,0.138-1.764
							c0.512-2.308,1.805-4.573,3.062-6.862c1.069-2.331,2.598-4.15,4.149-5.882c1.578-1.717,3.194-3.41,5.073-4.871
							c3.459-2.811,6.637-6.226,8.406-10.21c0.859-1.981,1.258-4.141,0.799-6.141c-0.221-0.997-0.646-1.943-1.225-2.805
							c-0.562-0.867-1.357-1.66-2.041-2.241l-0.466-0.385c-0.165-0.115-0.373-0.147-0.568-0.188
							c-0.395-0.079-0.796-0.123-1.194-0.169c-0.898-0.095-1.865-0.157-2.804-0.203c-1.894-0.086-3.796-0.103-5.697-0.06
							c-3.801,0.087-7.598,0.4-11.337,0.983c-3.736,0.583-7.43,1.436-10.926,2.737c-1.746,0.649-3.442,1.41-5.037,2.316
							l-1.185,0.708l-1.231,0.769c-0.822,0.512-1.658,1.008-2.496,1.5c-3.371,1.94-6.879,3.743-10.74,4.891
							c-1.936,0.549-3.959,0.939-6.07,0.938c-2.104-0.019-4.305-0.534-6.197-1.642l-0.714-0.409l-0.644-0.508
							c-0.417-0.354-0.882-0.653-1.226-1.09c-0.776-0.795-1.383-1.7-1.921-2.632c-1.06-1.886-1.56-3.966-1.81-6.013
							c-0.153-1.03-0.128-2.055-0.146-3.082c0.084-1.014,0.097-2.044,0.295-3.038c0.262-2.019,0.866-3.948,1.514-5.847
							c1.402-3.75,3.497-7.237,5.95-10.286l1.866-2.282c0.3-0.391,0.686-0.742,1.026-1.113c0.345-0.375,0.708-0.727,1.088-1.058
							c1.474-1.383,3.091-2.571,4.775-3.635c6.722-4.224,14.784-6.44,22.804-5.582c7.771,0.933,15.224,3.383,22.149,6.746
							c3.459,1.699,6.791,3.641,9.961,5.827c3.153,2.176,6.207,4.66,8.794,7.515c0.238,0.277,0.527,0.5,0.828,0.706
							c0.334,0.208,0.703,0.435,1.093,0.637c0.769,0.417,1.588,0.8,2.409,1.17c1.652,0.734,3.348,1.406,5.055,2.022
							c1.704,0.607,3.439,1.193,5.145,1.597c1.786,0.453,3.57,0.905,5.352,1.357c1.785,0.471,3.578,0.889,5.349,1.407l5.299,1.55
							c1.78,0.457,3.478,1.186,5.195,1.831c1.731,0.614,3.372,1.454,5.053,2.179c3.095,1.229,6.154,2.636,9.116,4.276l1.121,0.599
							c0.192,0.098,0.396,0.218,0.592,0.357l0.531,0.373l2.051,1.504c1.347,1.021,2.697,2.044,4.053,3.071
							c5.389,4.138,10.766,8.41,16.158,12.769c10.782,8.72,21.615,17.801,32.562,27.039c21.893,18.477,44.235,37.583,67.431,55.802
							l-1.222-1.85c7.609,7.418,17.297,14.256,26.051,20.517l0.387,0.275l0.049,0.035c0.01,0.007-0.022-0.021-0.033-0.027
							c-0.038-0.003,0.021,0.058,0.033,0.08l0.15,0.182l0.672,0.745c0.459,0.487,0.915,0.971,1.367,1.451
							c0.912,0.951,1.809,1.887,2.689,2.806c1.762,1.835,3.445,3.607,5.001,5.319c3.111,3.424,5.709,6.606,7.415,9.541l-1.627-1.534
							c3.262,4.637,8.439,8.729,13.242,12.363c4.803,3.641,9.232,6.823,11.027,9.854l1.834,0.708
							c4.956,4.609,5.123,5.014,4.933,5.238c-0.18,0.212-0.71,0.227,3.03,3.888c2.985,2.575,2.017,0.009,7.863,5.757
							c-0.365,1.759,6.002,7.145,12.642,11.968c3.314,2.42,6.696,4.682,9.247,6.467c2.544,1.792,4.272,3.138,4.089,4.038
							c-3.349-1.798-0.926-0.064,0.53,1.136c0.727,0.598,1.201,1.074,0.451,0.983c-0.736-0.104-2.746-0.75-6.564-2.847
							c1.014,0.719,3.053,2.021,5.729,3.335c2.685,1.289,6.001,2.672,9.805,3.004c1.886,0.155,3.968-0.027,5.826-0.818
							c1.87-0.768,3.279-2.124,4.034-3.278c0.777-1.167,1.068-2.123,1.165-2.688c0.093-0.589-0.049-0.701-0.309-0.556
							c-0.37-1.2-0.038-3.987-0.407-4.932c-0.186-0.473-0.546-0.485-1.258,0.392c-0.356,0.438-0.8,1.099-1.354,2.036
							c-0.585,1-1.102,2.062-2.083,2.868c0,0-0.116,0.565-0.413,1.115c-0.279,0.555-0.76,1.054-0.76,1.055
							c-1.07,0.103-1.779-0.037-2.284-0.12c-0.504-0.094-0.806-0.175-1.025-0.238c-0.437-0.138-0.563-0.211-1.213-0.748
							c-1.933-0.333-3.702-1.03-5.248-1.749c-1.552-0.729-2.903-1.513-4.108-2.279c-2.408-1.543-4.24-3.015-5.903-4.439
							c-3.314-2.879-5.979-5.566-10.702-9.813c0.076,0.105,0.154,0.209-0.034,0.134c-7.67-4.358-16.136-13.192-21.002-18.135
							l-1.566-2.392c-1.056-1.945-5.157-5.021-8.288-7.396c-3.134-2.371-5.31-3.998-2.57-2.867
							c-6.514-6.383-13.121-13.167-19.723-20.266c-3.283-3.543-6.627-7.195-9.781-10.866l-0.558-0.665l-0.126-0.154l-0.058-0.072
							l-0.015-0.018c0.064-0.085-0.049-0.018-0.461,0.303l-1.848,1.396l-0.925,0.698c-0.141,0.099-0.049,0.014-0.085,0.03
							l-0.035-0.046l-0.035-0.047c0.039-0.048-0.112,0.074,0.083-0.113l1.376-1.264l1.375-1.264c0.609-0.551,0.23-0.247,0.395-0.413
							l0.108-0.164c0-0.022-0.097,0.043-0.14,0.061c-0.13,0.074-0.168,0.064-0.233,0.084c-0.083,0.022-0.013,0.063-0.016,0.09
							c-1.229,1.139,2.778-2.481-2.751,2.565l0.078-0.113l0.172-0.248l0.43-0.604l0.597-0.814c0.238-0.311,0.438-0.611,0.639-0.912
							l0.151-0.226c0.045-0.07,0.128-0.178,0.088-0.16l-0.076-0.061l-0.152-0.122l-0.305-0.243l-0.762-0.604
							c-0.979-0.778-1.961-1.559-2.944-2.341c-1.966-1.564-3.94-3.135-5.921-4.71c-15.82-12.635-32.061-25.606-48.093-38.412
							c-5.037-2.906-24.485-19.682-18.543-12.76c-6.816-7.927-30.379-27.362-39.306-34.361c0.445,0.121,0.951,0.261,2.295,1.424
							c-7.827-7.833-13.299-11.434-18.596-14.974c-2.65-1.77-5.255-3.525-8.103-5.784c-1.425-1.129-2.907-2.384-4.503-3.832
							c-0.809-0.747-1.652-1.527-2.538-2.347l-0.371-0.337l-0.217-0.189l-0.329-0.26c-0.311-0.227-0.626-0.456-0.944-0.688
							c-0.526-0.395-1.065-0.799-1.618-1.214c-0.508,0.025-1.422-0.268-2.656-0.804c-1.265-0.474-2.863-1.163-4.704-2.013
							c-0.925-0.415-1.941-0.794-2.993-1.241c-1.062-0.422-2.151-0.94-3.329-1.338c-1.169-0.427-2.379-0.87-3.618-1.324
							c-1.246-0.421-2.539-0.738-3.84-1.12c-2.606-0.737-5.285-1.504-7.924-2.096c-1.322-0.307-2.634-0.611-3.924-0.91
							c-0.646-0.143-1.285-0.285-1.918-0.425c-0.301-0.064-0.6-0.127-0.896-0.19c-0.24-0.05-0.448-0.074-0.713-0.138
							c-2.037-0.436-4.199-1.064-6.059-1.561c-1.878-0.514-3.534-0.956-4.844-1.225c-0.924-0.698-1.391-1.254-1.345-1.492
							c0.036-0.241,0.19-0.389,0.351-0.503c-0.055-0.046-0.118-0.081-0.162-0.133l-0.571-0.607
							c-0.233-0.243-0.466-0.498-0.702-0.729l-1.429-1.344c-0.968-0.845-1.933-1.706-2.937-2.466
							c-1.981-1.591-4.057-2.986-6.162-4.356c-4.24-2.666-8.709-4.978-13.388-6.891c-4.679-1.906-9.571-3.417-14.644-4.332
							c-1.289-0.188-2.525-0.403-3.857-0.56l-2.096-0.168c-0.697-0.033-1.391-0.02-2.085-0.027
							c-2.771,0.043-5.495,0.375-8.124,0.973c-5.243,1.246-10.145,3.357-14.51,6.396c-2.171,1.506-4.278,3.295-6.078,5.333
							c-0.791,0.945-1.578,1.885-2.362,2.821c-0.188,0.232-0.379,0.448-0.565,0.692l-0.559,0.77l-1.104,1.54
							c-1.373,2.126-2.654,4.305-3.617,6.652c-1.017,2.311-1.762,4.753-2.236,7.265c-0.504,2.499-0.638,5.122-0.403,7.77
							c0.249,2.643,0.885,5.367,2.281,7.953c0.233,0.452,0.589,0.89,0.89,1.331c0.328,0.437,0.6,0.88,1.014,1.296
							c0.387,0.421,0.784,0.836,1.188,1.243c0.407,0.401,0.875,0.718,1.322,1.071c0.875,0.724,1.904,1.253,2.933,1.779
							c0.506,0.281,1.068,0.426,1.607,0.631c0.546,0.182,1.096,0.394,1.646,0.479c0.552,0.111,1.106,0.214,1.663,0.309
							c0.55,0.076,1.082,0.083,1.627,0.119c1.108,0.097,2.097-0.044,3.148-0.096c1.985-0.265,3.912-0.672,5.658-1.268
							c3.549-1.143,6.729-2.697,9.761-4.367c1.514-0.836,3.005-1.703,4.445-2.589c0.794-0.491,1.286-0.76,1.874-1.098
							c0.604-0.305,1.201-0.618,1.844-0.889c5.106-2.24,11.209-3.306,17.1-3.827c2.959-0.262,5.903-0.369,8.742-0.378
							c1.417-0.002,2.816,0.026,4.131,0.091l0.958,0.057c0.193,0.015,0.228,0.012,0.241,0.009l0.071-0.008
							c0.099-0.014,0.204-0.015,0.288,0.04c-0.086-0.162,0.7,0.539,1.004,0.948c0.358,0.452,0.602,0.866,0.777,1.317
							c0.352,0.876,0.41,2.095,0.094,3.501c-0.68,1.561-1.901,3.324-3.504,5.032c-0.799,0.856-1.688,1.706-2.645,2.524
							c-0.48,0.404-0.975,0.806-1.479,1.187c-0.275,0.209-0.431,0.305-0.864,0.652c-0.358,0.288-0.79,0.613-1.083,0.882
							c-1.321,1.126-2.473,2.265-3.673,3.483c-0.588,0.632-1.177,1.238-1.766,1.932l-0.884,1.048
							c-0.299,0.373-0.604,0.802-0.904,1.206c-0.283,0.35-0.642,0.962-0.96,1.532l-0.387,0.7c-0.09,0.172-0.308,0.576-0.486,0.881
							c-0.743,1.304-1.502,2.627-2.121,3.951c-1.258,2.663-1.801,5.168-1.457,7.246c0.08,0.53,0.266,1.018,0.441,1.548
							c0.088,0.259,0.207,0.541,0.311,0.81c0.169,0.251,0.291,0.533,0.513,0.756c0.761,1.044,1.688,1.586,2.655,2.022
							c0.984,0.419,2.111,0.675,3.424,0.724c1.305,0.058,2.781-0.109,4.304-0.403c1.528-0.299,3.098-0.718,4.661-1.164l0.98-0.269
							l0.086-0.021l0.013-0.002l0.004-0.001c-0.006-0.038,0.033,0.142-0.062-0.311l-0.095-0.47c0.098,0.397-0.351-1.555,0.197,0.771
							l0.039-0.008l0.08-0.017l0.159-0.034l1.272-0.27c1.646-0.337,3.185-0.667,4.423-0.754c1.254-0.068,2.33-0.057,3.432,0.23
							c0.275,0.024,0.561,0.164,0.844,0.247l0.428,0.138c0.113,0.039,0.363,0.101,0.332,0.113c0.051,0.038,0.12,0.021,0.24,0.126
							c0.102,0.036,0.254,0.184,0.41,0.308c0.652,0.541,1.505,1.683,2.326,2.939c0.898,1.424,1.79,2.836,2.673,4.235l-1.628-2.164
							c0.931,1.586,1.908,3.351,3.324,5.283c0.404,0.499,0.742,0.977,1.231,1.49l0.715,0.756c0.033,0.054,0.043,0.071,0.079,0.097
							c0.148,0.189,0.408,0.6,0.612,1.105c0.188,0.52,0.369,1.098,0.449,1.673c0.038,0.254,0.07,0.645,0.075,0.672
							c0.006,0.077,0.004,0.153-0.003,0.231c-0.015,0.311-0.224,0.62-0.552,0.686l-0.88,0.301l-1.279,0.569
							c-0.87,0.364-1.667,0.805-2.453,1.257c-0.812,0.43-1.547,0.928-2.281,1.429c-0.755,0.483-1.447,1.018-2.126,1.563
							c-2.733,2.166-5.121,4.591-7.228,7.146c-4.169,5.14-7.323,10.729-9.606,16.29c-2.307,5.555-3.803,11.063-4.681,16.171
							c-0.882,5.111-1.143,9.817-1.109,13.863c-1.524,4.535-1.999,10.37-1.603,16.677c0.384,6.317,1.645,13.079,3.195,19.762
							c0.844,2.516,1.955,5.279,3.124,8.303c0.64,1.486,1.308,3.035,1.999,4.639c0.695,1.6,1.512,3.206,2.293,4.885
							c1.666,3.342,3.612,6.947,5.96,10.394c0.284,0.438,0.57,0.879,0.857,1.321c0.317,0.421,0.636,0.845,0.955,1.271
							c0.644,0.847,1.292,1.7,1.944,2.56c0.629,0.879,1.367,1.677,2.087,2.498c0.724,0.818,1.45,1.641,2.181,2.468
							c6.029,6.455,13.421,11.965,21.163,16.27c7.742,4.348,15.9,7.33,23.526,9.44c2.135,1.328,8.499,2.959,14.503,4.086
							c6.004,1.153,11.638,1.899,12.343,2.819c8.207,0.754,16.602,0.979,25.096,0.796l1.59-0.04l0.365-0.012l0.098-0.011
							l0.199-0.021l0.855-0.082c0.588,0.015,1.127,0.541,1.193,1.145c0.043,0.305-0.035,0.611-0.152,0.902
							c-0.156,0.272-0.383,0.486-0.609,0.755l-0.204,0.224l-0.104,0.113l-0.268,0.271l-1.117,1.127l-2.264,2.253
							c-6.089,6.002-12.416,11.987-18.953,17.843c-3.273,2.916-6.6,5.818-10.009,8.573c-1.7,1.382-3.43,2.723-5.16,3.947
							c-0.863,0.616-1.731,1.184-2.55,1.662c-0.213,0.139-0.394,0.207-0.562,0.301c-0.115,0.062-0.23,0.127-0.343,0.163
							c-0.221,0.099-0.465,0.146-0.707,0.135c-7.453,0.013-14.955,0.025-22.491,0.038c-7.595-0.024-15.224-0.049-22.867-0.073
							c-15.288-0.083-30.639-0.235-45.913-0.443c-30.547-0.416-60.786-1.058-89.597-1.829l1.331-0.119
							c-11.91,0.925-25.635,2.968-37.752,4.161c-1.192-0.146-1.055-0.426,1.489-0.417c-16.761,0.312-32.438-1.343-49.179-1.034
							c0.139-0.278,0.139-0.278,2.85-0.545c-15.706,0.75-32.467-1.347-51.013-0.043l-1.035-0.445l-11.792,0.624
							c0.286-0.556,0.74-1.393,7.04-1.212c-143.897-0.543-292.438,2.346-440.182,1.929l5.423-0.529l-28.651,0.946
							c0.157-0.283,1.519-0.417,2.889-0.543c-36.489-0.946-74.359,0.626-109.922,0.39c0.167-0.271,5.551-0.81,0.571-1.116
							c-26.324,1.521-42.287-1.974-55.469,1.181c-1.223-0.147-2.061-0.857,0.621-1.11c-73.245,1.046-148.452,0.986-222.24,0.475
							c-61.453,2.855-130.144,0.271-193.973,2.536l0.315-0.567c-82.642,1.997-170.311-0.136-255.969,0.263
							c-35.573-0.229-59.601,0.445-95.341,0.479l-0.896-0.707c-60.162,2.702-126.457-2.427-189.222,0.546l4.328-0.966
							c-9.73,1.494-37.968-0.525-34.251,2.033l-11.082-0.775c-42.642,3.383-77.613-1.56-129.868,0.635l3.431-0.607
							c-13.892,0.473-30.091,0.846-40.384,0.287c1.607-0.087,0.857-0.266,4.16-0.426c-43.519-2.405-91.948,0.252-137.863,0.16
							l5.206-1.132c-22.193,1.327-62.903,0.092-92.077,0.699l1.775-0.53l-14.76,0.75l-0.384-1.074
							C1055.145,337.426,1019.414,338.351,982.363,338.477z"/>
						<path fill="#3F3B3C" d="M599.375,339.695c0.108,0.008,0.276,0.008,0.404,0.033
							C600.914,339.635,600.361,339.646,599.375,339.695z"/>
						<path fill="#3F3B3C" d="M3642.489,248.979c1.27,1.152,2.323,2.109,3.384,3.072
							C3645.737,251.667,3643.578,249.959,3642.489,248.979z"/>
					</g>
				</g>
			</g>
		</g>
	</g>
	<g>
		<g>
			<g>
				<g>
					<g>
						<polygon fill="#3F3B3C" points="3680.479,331.598 3680.333,331.27 3679.954,332.178 						"/>
						<path fill="#3F3B3C" d="M3677.992,333.615c0.073,0.164,0.037,0.437,0.111,0.605l1.46-2.589
							C3678.911,330.166,3678.422,334.596,3677.992,333.615z"/>
						<path fill="#3F3B3C" d="M3677.562,333.354c-0.566-0.605-0.801,0.611-0.933,1.022
							C3676.827,333.435,3677.686,334.666,3677.562,333.354z"/>
						<path fill="#3F3B3C" d="M3627.705,333.958c0.053-0.008,0.123-0.042,0.176-0.081
							C3627.792,333.839,3627.735,333.877,3627.705,333.958z"/>
						<path fill="#3F3B3C" d="M3614.697,338.083l-0.136,0.972c2.427-1.729,5.165,0.028,7.731-0.727l-0.173,0.341
							c6.514,0.378,12.521-1.242,18.982-1.981c-0.101,0.106-0.135,0.391-0.238,0.503c0.312-0.334,0.657-0.956,1.007-0.873
							c0.091,0.215-0.098,0.451-0.21,0.547c1.364,1.603,4.008-1.016,4.861,0.22c0.384-0.17,0.554-0.84,0.339-1.347
							c5.059-0.411,10.47-0.716,15.621-1.971c0.248,0.218,0.293,0.652,0.226,1.206c4.403-2.6,9.019-1.564,13.524-1.143
							c0.172-0.684-0.46-0.724-0.017-1.434c-1.448-0.854-2.653,1.675-3.967,0.431l0.169-0.658c-0.956-0.425-0.193,1.661-1.186,0.812
							c-0.391-0.55,0.098-0.838-0.084-0.889c-2.032,0.271-4.151-0.324-6.064,1.278c-0.473-1.432-2.183-0.049-2.934-1.417
							c-0.525,0.564-1.053,0.42-1.253,1.368c-7.11-0.757-14.375,0.629-21.659,0.524c-3.408,2.768-7.491-0.533-11.537,0.394
							c-0.027-0.098-0.022-0.202,0.004-0.281c-1.318,0.683-3.24,1.004-4.814,0.663l-1.334,1.17
							c-9.473-2.406-19.152-0.716-28.773-1.716c-10.934-0.69-20.512-2.685-31.158,0.966c0.014-0.271-0.072-0.42,0.203-0.533
							c-3.073,0.559-5.873-0.437-8.767,0.141l0.009-0.272l-0.336,0.104l-0.182,0.097c-0.125,0.062-0.256,0.119-0.393,0.173
							c-0.273,0.107-0.568,0.197-0.875,0.274c-0.616,0.152-1.277,0.248-1.934,0.307l-0.491,0.037
							c-0.103,0.036-0.108-0.072-0.149-0.131c-0.041-0.064-0.053-0.139-0.07-0.212c-0.082-0.29-0.098-0.6-0.122-0.908
							c-0.028-0.621-0.01-1.254,0.033-1.874c0.053-0.701,0.105-1.4,0.158-2.096c0.078-0.889,0.135-1.774,0.186-2.66
							c0.076-1.773,0.077-3.539-0.221-5.338c0.92-4.071,2.022-8.371,3.388-12.664c1.376-4.287,2.998-8.57,4.862-12.622l0.472,0.288
							c1.228-3.369,3.569-6.082,6.085-8.458c2.528-2.4,5.258-4.401,7.616-6.922c3.117-1.736,5.619-4.382,8.685-6.639
							c3.014-2.259,6.504-4.178,10.288-4.297c1.274,0.394,2.483,0.276,3.688-0.12c1.213-0.347,2.429-0.94,3.656-1.544
							c1.235-0.545,2.482-1.09,3.711-1.358c1.23-0.221,2.439-0.17,3.564,0.427c4.553,1.772,8.742,2.077,13.052,1.704
							c4.294-0.378,8.683-1.383,13.224-2.202c3.988,1.154,8.089,1.077,12.161,1.325c4.062,0.239,8.09,0.769,11.653,3.058
							c4.091-1.173,7.166,4.023,11.275,4.469l0.021-0.696c0.926,2.354,3.939-1.973,4.06,1.231l-0.187,0.093
							c0.347,1.711,2.728-3.063,2.706-1.146l0.329-0.705c0.985,0.044-0.124,0.87,0.505,1.364c0.294-0.017,0.482-1.321,0.923-0.735
							c-0.748,3.053,2.454,0,1.509,3.409c-0.491-0.147,0.374,1.542-0.938,1.922c0.216,0.438,1.741,0.723,2.043-0.75
							c0.609-1.476,1.645-2.603,1.068-4.078l-0.534,1.048c0.025-1.206-0.07-0.629,0.07-1.495c-1.192-0.521-0.88-2.182-1.584-3.115
							c-0.001,0.035-0.001,0.068-0.031,0.122c-0.996,1.157-1.611,0.126-2.044-0.198l-0.021-0.676
							c0.061-1.388-2.119,2.154-1.128,0.023c-2.692-0.137-5.592-0.914-8.452-1.562c-0.601,0.754-2.164-0.587-1.927,1.207
							c-0.27-2.051-2.3-3.012-3.11-3.107c0.068-0.173,0.146-0.365,0.255-0.267c-1.016-2.796-2.306,1.876-3.123-1.427
							c-0.656,2.069-2.504-1.217-3.814,1.13c-0.088-0.508-0.065-0.946,0.073-1.312c-2.603-0.557-5.374-1.828-7.599-2.29
							c-2.196,1.573-4.518-1.568-6.527,0.823c-1.277-0.748-3.377-2.089-5.406-1.267l0.221-0.296
							c-2.178-0.074-4.907-0.202-6.514,1.347c-0.447-2.551-1.427-2.141-2.32-2.99c-1.531,1.071-4.46,0.574-6.714,1.589
							c-0.315-1.18-1.839,0.451-1.934-1.227c-6.309,3.191-13.714,2.366-20.958,1.163l0.079-0.135
							c-0.734,1.074-1.362,3.239-1.973,4.587c-0.113-0.125-0.16-0.401,0.021-0.433c-1.11,0.571-2.593-0.792-3.73-0.218
							c-0.058-0.273-0.059-0.273,0.073-0.576c-0.926,1.012-2.699-0.649-3.672,0.976l-0.205-0.405c0,0-0.165,0.216-0.329,0.431
							c-0.161,0.22-0.323,0.441-0.323,0.441c-0.151-0.536-0.377-1.344,0.134-1.328c-1.316,0.393-2.631,0.791-3.923,1.327
							c-1.277,0.591-2.583,1.134-3.795,1.873c-1.209,0.743-2.442,1.438-3.558,2.323l-1.693,1.279
							c-0.553,0.439-1.071,0.926-1.604,1.387c-4.245,3.744-7.716,8.064-11.162,12.281l-0.176-0.644l-0.52,2.258
							c-0.223-0.175-0.271-0.333-0.312-0.488c-1.172,0.819-1.822,2.067-2.354,3.342c-0.495,1.301-0.939,2.596-1.645,3.688
							c-0.23-0.141-0.51-0.753-0.955-0.579c0.393,2.398-3.231,1.887-0.839,4.162c-0.171,0.015-0.837-0.239-0.978-0.527
							c-1.451,5.306-3.315,10.354-5.248,15.411c0.797,2.531,0.324,4.784-0.133,7.103c-0.449,2.304-0.907,4.675-0.038,7.063
							l-0.562-0.086c0.18,0.766,0.275,1.519,0.355,2.273c0.073,0.783,0.099,1.607,0.122,2.381c0.06,1.562-0.076,3.16,0.299,4.764
							c0.014,0.276,0.284,0.175,0.457,0.219l0.578,0.053l1.175,0.118l2.44,0.254c1.755,0.195,3.204,0.229,4.72,0.133
							c2.504,0.229,4.195-0.445,6.712-0.479l0.063,0.708c4.235-2.702,8.902,2.427,13.321-0.546l-0.305,0.966
							c0.685-1.494,2.673,0.526,2.411-2.033l0.78,0.775c3.002-3.383,5.464,1.56,9.143-0.635l-0.241,0.607
							c0.978-0.473,2.118-0.846,2.843-0.288c-0.113,0.088-0.061,0.267-0.293,0.427c3.063,2.405,6.474-0.252,9.706-0.16l-0.366,1.132
							c1.562-1.328,4.429-0.092,6.482-0.699l-0.125,0.53l1.039-0.75l0.026,1.074C3609.574,339.134,3612.09,338.209,3614.697,338.083
							z"/>
						<path fill="#3F3B3C" d="M3641.661,336.864c-0.008-0.008-0.02-0.008-0.028-0.034
							C3641.553,336.924,3641.592,336.914,3641.661,336.864z"/>
						<path fill="#3F3B3C" d="M3675.784,272.642c0.103,0.096,0.186,0.188,0.263,0.301
							C3676.082,272.727,3675.875,272.714,3675.784,272.642z"/>
					</g>
				</g>
			</g>
		</g>
	</g>
	<g>
		<g>
			<g>
				<g>
					<g>
						<path fill="#3F3B3C" d="M3470.811,335.515c0,0-0.104-0.116-0.208-0.232c-0.112-0.114-0.224-0.228-0.224-0.228
							s-0.408,0.133-0.771,0.309c-0.293,0.189-0.537,0.401-0.537,0.401s0.085-0.029,0.213-0.073c0.124-0.043,0.291-0.1,0.551-0.123
							C3470.309,335.508,3470.811,335.515,3470.811,335.515z"/>
						<path fill="#3F3B3C" d="M3467.026,337.339c0.046,0.159,0.073,0.431,0.124,0.593c0,0,0.003-0.163,0.05-0.416
							c0.032-0.251,0.082-0.586,0.207-0.932c0.075-0.34,0.306-0.69,0.454-0.948c0.158-0.26,0.381-0.428,0.365-0.428
							C3466.825,333.837,3467.344,338.299,3467.026,337.339z"/>
						<path fill="#3F3B3C" d="M3466.917,337.088c-0.026-0.279,0.033,0.413,0.044,0.719c0.021,0.192,0.033,0.34,0.04,0.494
							c0.018,0.281-0.002,0.593,0,0.725c0.007,0.24-0.017,0.395-0.033,0.505c0.014-0.083,0.034-0.235,0.034-0.411l-0.003-0.135
							l0.008-0.242c0.003-0.168,0-0.338-0.009-0.499c-0.014-0.173-0.027-0.339-0.04-0.486c0.003-0.041,0.008-0.04,0.007-0.089
							C3466.965,337.583,3466.949,337.415,3466.917,337.088z"/>
						<path fill="#3F3B3C" d="M3484.978,321.191c-0.013,0.028-0.013,0.082-0.003,0.13
							C3485.037,321.307,3485.028,321.256,3484.978,321.191z"/>
						<path fill="#3F3B3C" d="M3486.671,312.744l-0.691-0.688c0.41,2.196-1.961,2.286-2.343,3.919l-0.197-0.296
							c-2.726,2.672-3.713,6.404-5.521,9.78c-0.045-0.113-0.252-0.308-0.301-0.426c0.144,0.352,0.498,0.901,0.306,1.006
							c-0.2-0.095-0.314-0.329-0.348-0.44c-1.744-0.397-0.686,2.449-1.955,2.055c-0.009,0.281,0.449,0.779,0.921,1.002
							c-1.528,2.538-3.263,5.188-4.087,8.295c-0.26-0.021-0.619-0.268-1.033-0.638c0.252,1.798-0.217,3.054-0.935,4.062
							c-0.346,0.485-0.803,0.983-1.093,1.239c-0.022,0.01-0.088,0.085-0.078,0.042l-0.001-0.009l-0.329-0.179l-0.734-0.372
							l-0.734-0.342c-0.156-0.095-0.318-0.181-0.486-0.255c-0.167-0.075-0.34-0.14-0.516-0.193c-0.18-0.051-0.383-0.096-0.426-0.144
							c-0.088-0.039-0.188-0.044-0.282-0.01l-0.018,0.007l-0.009,0.003c1.028-0.413-2.314,0.931,2.304-0.926l-0.016,0.016
							l-0.03,0.028l-0.062,0.059l-0.497,0.465c-0.729,0.083-0.729,0.562-0.592,0.134c0.024-0.082-0.062,0.215-0.006,0.015
							c-0.001,0.06-0.085,0.195-0.055,0.146c0.009-0.01-0.004,0.01,0.016-0.015c0.03-0.038,0.062-0.07,0.096-0.095l0.05-0.033
							c0.033-0.019,0.076-0.041,0.114-0.056c0.079-0.032,0.16-0.052,0.241-0.059c0.042-0.015,0.076,0.019,0.124-0.026l0.144-0.134
							l0.284-0.267l0.142-0.133l0.035-0.033l0.01-0.008l0.002-0.002l0.001-0.001c0.503-0.202-4.378,1.759-2.311,0.928l0.01-0.004
							l0.04-0.015c0.054-0.017,0.109-0.021,0.163-0.014c0.109,0.061,0.63,0.184,0.989,0.342c0.19,0.082,0.375,0.178,0.551,0.285
							l0.836,0.39c0.278,0.137,0.553,0.278,0.824,0.427l0.405,0.227c0.07,0.043,0.011,0.015,0.022,0.025
							c-0.026-0.048,0.092-0.103,0.431-0.05l0.519,0.41c0.547-0.065-1.35-0.976-0.39-0.878c0.562,0.153,0.659,0.518,0.753,0.473
							c0.358-0.987,1.555-1.589,0.935-3.416c1.298,0.658,0.795-0.955,2.141-0.456c-0.261-0.583,0.037-0.731-0.638-1.405
							c3.108-2.743,4.68-6.881,7.439-10.085c-0.885-3.288,3.173-3.019,3.958-5.413c0.085,0.05,0.164,0.119,0.215,0.182
							c-0.035-1.024,0.433-2.089,1.28-2.571l-0.4-1.345c5.375-2.671,7.721-8.05,12.14-11.594c1.8-1.654,3.678-3.086,5.374-4.551
							l0.625-0.547c0.126-0.098,0.151-0.095,0.229-0.152c0.129-0.087,0.239-0.181,0.344-0.297c0.189-0.353,0.465-0.265,0.846-0.48
							l0.187-0.094c0.1-0.024,0.027-0.095,0.283-0.1c0.38-0.035,0.762-0.086,1.146-0.151c0.765-0.149,1.543-0.35,2.333-0.646
							c-0.054,0.266-0.028,0.421-0.209,0.505c1.895-0.246,3.396,0.985,5.191,0.629l-0.04,0.27c2.141-0.814,4.192-0.59,6.277-0.412
							c1.036,0.104,2.084,0.168,3.118,0.117c0.293-0.009,0.439-0.041,0.619-0.079c0.18-0.039,0.362-0.087,0.553-0.147
							c0.385-0.116,0.795-0.283,1.268-0.539c0.241-0.119,0.488-0.255,0.76-0.406c1.012,0.003,2.031-0.117,3.084-0.368
							c0.158-0.022,0.177,0.186,0.193,0.3c0.018,0.134,0.019,0.27,0.02,0.404c-0.003,0.27-0.021,0.538-0.042,0.807
							c-0.045,0.537-0.105,1.073-0.171,1.614c-0.145,1.118-0.29,2.244-0.435,3.364c-0.182,1.298-0.363,2.589-0.541,3.858
							l-0.528-0.159c0.003,2.147-1.021,3.983-2.117,5.741c-1.1,1.767-2.266,3.451-2.633,5.491c-1.375,1.687-1.528,3.915-1.909,6.177
							c-0.364,2.228-1.025,4.577-3.058,5.717c-1.881,0.134-2.2,1.578-3.119,3.042c-0.885,1.443-2.19,2.801-3.843,1.879
							c-3.086-1.15-5.401-1.054-7.77-0.138c-2.341,0.894-4.652,2.521-7.094,4.054c-4.848-0.99-9.341,3.147-14.111,0.322
							c-2.081,2.072-4.681-2.211-7.075-1.528l0.12,0.675c-0.978-2.018-1.78,2.981-2.489-0.049l0.084-0.144
							c-0.558-1.532-0.846,3.724-1.234,1.894l-0.023,0.77c-0.533,0.258-0.123-0.865-0.569-1.141c-0.154,0.107,0.04,1.4-0.323,0.984
							c-0.326-3.135-1.271,0.791-1.648-2.721c0.323-0.032-0.646-1.312,0.012-2.119c-0.235-0.347-1.277-0.049-0.984,1.426
							c0.118,1.591-0.059,3.009,0.645,4.164l-0.03-1.162c0.318,1.131,0.206,0.56,0.369,1.416c0.701,0.074,0.969,1.756,1.501,2.405
							c-0.008-0.033-0.015-0.064-0.012-0.125c0.231-1.41,0.779-0.624,1.062-0.445l0.154,0.638c0.252,1.337,0.647-2.684,0.574-0.358
							c1.422-0.664,3.139-0.72,4.812-0.825c0.193-0.891,1.288,0.021,0.843-1.656c0.51,1.911,1.786,2.342,2.249,2.245
							c-0.009,0.185-0.02,0.39-0.096,0.32c1.028,2.463,0.96-2.37,1.961,0.651c0.024-2.171,1.585,0.614,1.934-1.958
							c0.131,0.475,0.19,0.907,0.173,1.294c1.537-0.031,3.292,0.643,4.612,0.653c0.983-1.969,2.791,0.662,3.547-2.035
							c0.84,0.486,2.246,1.466,3.268,0.302l-0.077,0.329c1.249-0.274,2.834-0.595,3.493-2.345c0.688,2.446,1.18,1.885,1.846,2.596
							c0.696-1.27,2.484-1.186,3.613-2.473c0.411,1.102,0.984-0.675,1.373,0.96c1.558-1.961,3.429-2.933,5.582-3.424
							c2.167-0.526,4.588-0.437,7.699-1.157v0.146c0.119-1.219-0.645-3.253-1.079-4.495c0.142,0.069,0.33,0.275,0.235,0.353
							c0.336-0.747,2.059-0.159,2.35-0.988c0.209,0.185,0.21,0.184,0.327,0.457c-0.103-1.036,2.062-0.397,1.52-1.888l0.392,0.218
							l-0.199-0.807c0.451,0.324,1.13,0.816,0.811,0.961c2.191-2.684,3.164-5.901,3.904-9.041c0.74-3.156,1.244-6.278,2.415-9.162
							l0.431,0.383l-0.526-1.44c0.268,0.093,0.378,0.188,0.479,0.282c1.376-1.187,0.327-3.175,0.951-4.538
							c0.259,0.078,0.718,0.442,1.069,0.321c-1.173-1.463,2.376-1.236-0.538-2.565c0.154-0.014,0.852,0.126,1.069,0.3l-0.035-0.611
							c-0.003-0.226-0.026-0.349,0.005-0.685l0.143-1.716c0.107-1.115,0.246-2.19,0.38-3.254c0.134-1.062,0.251-2.113,0.246-3.084
							c-0.019-0.971-0.075-1.852-0.36-2.705c-0.142-0.021-0.271-0.064-0.439-0.081c-0.158,0.008-0.305,0.079-0.451,0.114
							l-0.83,0.233c-0.517,0.139-0.982,0.238-1.526,0.277c-0.512,0.044-0.979,0.042-1.442,0.024l-1.623,0.109
							c-0.697,0.105-1.376,0.161-2.041,0.321c-0.651,0.158-1.352,0.45-1.803,0.855l0.024-0.566c-1.686,0.951-3.452,0.824-5.169,0.42
							c-1.726-0.385-3.416-1.034-5.166-1.069c-1.396-0.432-2.464,0.085-3.91-0.128l0.086-0.703c-0.69,0.535-1.328,0.624-1.926,0.471
							c-0.298-0.079-0.587-0.215-0.87-0.38c-0.31-0.168-0.645-0.385-0.992-0.604c-0.735-0.505-1.646-0.992-2.405-1.123l-0.072-0.013
							l-0.037-0.006l-0.009-0.002h-0.002h-0.001c0.032,0.13,0.008,0.036,0.016,0.064l-0.006,0.001l-0.02,0.001
							c-0.053-0.001-0.104,0.009-0.15,0.029c-0.098,0.03-0.185,0.079-0.271,0.13c-0.169,0.115-0.316,0.286-0.448,0.478
							c-0.265,0.378-0.454,0.889-0.522,1.487c0,0-0.085-0.251-0.17-0.502c-0.079-0.255-0.158-0.51-0.158-0.51
							c0.182,0.842-0.186,1.026-0.453,1.299c-0.263,0.274-0.373,0.584,0.525,1.495c0,0-0.205-0.065-0.41-0.131
							c-0.215-0.055-0.43-0.109-0.43-0.109c1.277,3.584-3.317,1.3-3.119,4.381l-0.36-0.508c-0.025,0.74-0.183,1.483-0.881,1.432
							c-0.022-0.107-0.177-0.202-0.208-0.409c-2.99-0.242-2.296,3.01-3.59,4.373l-0.718-0.9c0.411,1.556-1.614,2.018-1.93,3.324
							l-0.356-0.399l0.178,0.947l-0.828-0.685C3487.797,309.785,3487.555,311.502,3486.671,312.744z"/>
						<path fill="#3F3B3C" d="M3477.576,325.6c0.01,0.002,0.015-0.004,0.037,0.008C3477.57,325.513,3477.564,325.537,3477.576,325.6
							z"/>
						<path fill="#3F3B3C" d="M3471.375,345.778c-0.071-0.059-0.134-0.12-0.195-0.203
							C3471.209,345.79,3471.315,345.738,3471.375,345.778z"/>
					</g>
				</g>
			</g>
		</g>
	</g>
</g>
<g>
	<path fill="none" stroke="#3F3B3C" stroke-width="3.9804" stroke-linecap="round" stroke-miterlimit="10" d="M3400,85"/>
</g>
</svg>
