<?xml version="1.0" encoding="utf-8"?>
<!-- Generator: Adobe Illustrator 17.0.2, SVG Export Plug-In . SVG Version: 6.00 Build 0)  -->
<!DOCTYPE svg PUBLIC "-//W3C//DTD SVG 1.1//EN" "http://www.w3.org/Graphics/SVG/1.1/DTD/svg11.dtd">
<svg version="1.1" id="Layer_1" xmlns="http://www.w3.org/2000/svg" xmlns:xlink="http://www.w3.org/1999/xlink" x="0px" y="0px"
	 width="3728px" height="59.587px" viewBox="0 0 3728 59.587" enable-background="new 0 0 3728 59.587" xml:space="preserve">
<g>
	<g>
		<g>
			<g>
				<g>
					<g>
						<polygon fill="#3F3B3C" points="3680.479,30.106 3678.746,29.767 3674.253,30.703 						"/>
						<path fill="#3F3B3C" d="M3650.938,32.187c0.865,0.169,0.446,0.45,1.328,0.624l17.342-2.669
							C3661.856,28.629,3656.043,33.197,3650.938,32.187z"/>
						<path fill="#3F3B3C" d="M3645.834,31.916c-6.732-0.624-9.519,0.631-11.086,1.055
							C3637.099,31.999,3647.294,33.269,3645.834,31.916z"/>
						<path fill="#3F3B3C" d="M3053.475,32.54c0.628-0.009,1.459-0.044,2.088-0.084C3054.505,32.417,3053.83,32.457,3053.475,32.54z
							"/>
						<path fill="#3F3B3C" d="M2898.928,36.794l-1.615,1.002c28.831-1.784,61.364,0.029,91.863-0.749l-2.064,0.352
							c77.388,0.389,148.757-1.282,225.537-2.044c-1.196,0.11-1.601,0.402-2.837,0.518c3.702-0.345,7.81-0.986,11.965-0.901
							c1.081,0.222-1.162,0.466-2.496,0.565c16.211,1.652,47.625-1.049,57.759,0.226c4.56-0.176,6.573-0.866,4.033-1.389
							c60.096-0.424,124.388-0.738,185.596-2.032c2.946,0.224,3.479,0.672,2.672,1.244c52.317-2.681,107.151-1.613,160.681-1.178
							c2.054-0.706-5.459-0.747-0.189-1.479c-17.21-0.881-31.519,1.727-47.129,0.444l2.003-0.679
							c-11.356-0.438-2.3,1.714-14.086,0.837c-4.645-0.567,1.162-0.863-1-0.916c-24.139,0.279-49.314-0.334-72.044,1.318
							c-5.614-1.477-25.936-0.05-34.857-1.462c-6.246,0.582-12.512,0.433-14.886,1.411c-84.482-0.78-170.795,0.648-257.337,0.54
							c-40.501,2.855-88.998-0.549-137.069,0.407c-0.331-0.101-0.274-0.209,0.047-0.29c-15.667,0.703-38.505,1.034-57.208,0.683
							l-15.842,1.206c-112.546-2.48-227.554-0.738-341.866-1.769c-129.895-0.712-243.693-2.768-370.193,0.995
							c0.166-0.279-0.858-0.433,2.408-0.55c-36.509,0.576-69.771-0.45-104.151,0.146l0.108-0.282
							c-85.306,2.354-177.564-0.314-259.803,2.224c-100.115-0.255-213.319,0-319.285,0.729l0.247-0.569
							c-84.793,1.195-166.734-1.804-251.341-0.901c-87.002-1.29-178.922,3.244-266.67,1.523
							c-54.29-2.779-125.601,3.18-176.598,0.299c-104.77-4.342-206.405-1.547-311.147,1.055
							c-96.629-1.547-193.109,2.428-286.688-0.732c-44.342,2.026-93.312-2.505-142.653-1.921l1.763,0.701
							c-17.714-2.127-39.468,2.977-50.52-0.184l1.865-0.143c-9.377-1.608-21.781,3.779-27.479,1.872l-1.517,0.791
							c-11.357,0.229-1.344-0.898-10.103-1.215c-3.297,0.099-1.253,1.444-8.131,0.989c-1.493-3.244-27.807,0.703-28.591-2.94
							c6.209,0-9.732-1.413,4.212-2.175c-3.972-0.374-23-0.193-21.291,1.354c-1.625,1.642-9.056,3.072,2.506,4.342l2.324-1.195
							c3.895,1.195,2.962,0.598,4.354,1.494c15.109,0.158,17.129,1.896,27.966,2.617c-0.108-0.035-0.213-0.068-0.047-0.13
							c7.404-1.433,17.646-0.582,23.51-0.378l2.351,0.666c3.56,1.393,17.187-2.721,12.593-0.332
							c30.719-0.593,65.934-0.564,100.257-0.593c4.807-0.907,26.273,0.084,18.778-1.666c8.593,1.994,34.134,2.498,43.619,2.422
							c-0.355,0.189-0.76,0.4-2.243,0.325c18.396,2.588,21.805-2.395,39.049,0.77c2.696-2.235,31.32,0.714,41.076-1.914
							c2.128,0.497,2.837,0.945,2.064,1.343c31.04,0.05,65.329,0.857,91.596,0.958c22.44-1.958,54.341,0.888,73.639-1.819
							c15.991,0.573,41.859,1.703,64.184,0.617l-2.169,0.329c25.186-0.158,56.648-0.299,73.926-2.002
							c7.445,2.593,18.332,2.076,29.219,2.902c16.815-1.2,50.76-0.846,76.415-1.938c3.932,1.195,21.169-0.508,22.49,1.23
							c71.886-3.353,160.772-2.18,237.532,0.354l-1.111,0.123c9.961-0.954,21.44-3.061,31.577-4.291
							c0.996,0.151,0.882,0.439-1.246,0.43c14.022-0.323,27.131,1.384,41.136,1.066c-0.115,0.288-0.115,0.288-2.385,0.562
							c13.14-0.773,27.159,1.389,42.67,0.044l0.868,0.459l9.864-0.644c-0.24,0.573-0.622,1.437-5.891,1.25
							c120.366,0.561,244.612-2.419,368.19-1.988l-4.533,0.545l23.963-0.976c-0.132,0.292-1.27,0.431-2.415,0.561
							c30.523,0.976,62.198-0.646,91.944-0.402c-0.139,0.279-4.641,0.835-0.476,1.151c22.017-1.569,35.37,2.035,46.396-1.217
							c1.024,0.151,1.723,0.883-0.52,1.145c61.265-1.079,124.172-1.018,185.894-0.49c51.402-2.944,108.857-0.279,162.248-2.615
							l-0.263,0.584c69.126-2.058,142.457,0.141,214.106-0.27c29.753,0.235,49.851-0.459,79.746-0.494l0.75,0.729
							c50.324-2.786,105.776,2.503,158.276-0.562l-3.621,0.995c8.141-1.54,31.759,0.543,28.652-2.096l9.269,0.8
							c35.667-3.489,64.917,1.608,108.627-0.655l-2.871,0.626c11.62-0.488,25.169-0.872,33.779-0.297
							c-1.344,0.091-0.716,0.275-3.479,0.44c36.401,2.48,76.912-0.259,115.316-0.165l-4.354,1.166
							c18.565-1.369,52.615-0.094,77.017-0.721l-1.483,0.547l12.346-0.773l0.321,1.107
							C2838.052,37.877,2867.936,36.923,2898.928,36.794z"/>
						<path fill="#3F3B3C" d="M3219.281,35.537c-0.091-0.009-0.233-0.009-0.338-0.035
							C3217.994,35.599,3218.456,35.588,3219.281,35.537z"/>
						<path fill="#3F3B3C" d="M54.045,41.208c-1.463-0.066-2.672-0.134-3.895-0.224C50.448,41.208,52.799,41.162,54.045,41.208z"/>
					</g>
				</g>
			</g>
		</g>
	</g>
</g>
</svg>
