<?xml version="1.0" encoding="utf-8"?>
<!-- Generator: Adobe Illustrator 17.0.2, SVG Export Plug-In . SVG Version: 6.00 Build 0)  -->
<!DOCTYPE svg PUBLIC "-//W3C//DTD SVG 1.1//EN" "http://www.w3.org/Graphics/SVG/1.1/DTD/svg11.dtd">
<svg version="1.1" id="Layer_1" xmlns="http://www.w3.org/2000/svg" xmlns:xlink="http://www.w3.org/1999/xlink" x="0px" y="0px"
	 width="3728px" height="997.861px" viewBox="0 0 3728 997.861" enable-background="new 0 0 3728 997.861" xml:space="preserve">
<g>
	<g>
		<g>
			<g>
				<g>
					<g>
						<polygon fill="#3F3B3C" points="3680.479,968.38 3678.746,968.042 3674.253,968.978 						"/>
						<path fill="#3F3B3C" d="M3650.938,970.461c0.865,0.169,0.446,0.45,1.328,0.624l17.342-2.669
							C3661.856,966.903,3656.043,971.471,3650.938,970.461z"/>
						<path fill="#3F3B3C" d="M3645.834,970.19c-6.732-0.624-9.519,0.631-11.086,1.055
							C3637.099,970.274,3647.294,971.544,3645.834,970.19z"/>
						<path fill="#3F3B3C" d="M3053.475,970.815c0.628-0.009,1.459-0.044,2.088-0.084
							C3054.505,970.691,3053.83,970.731,3053.475,970.815z"/>
						<path fill="#3F3B3C" d="M2898.928,975.068l-1.615,1.002c28.831-1.784,61.364,0.029,91.863-0.749l-2.064,0.352
							c77.388,0.389,148.757-1.282,225.537-2.044c-1.196,0.11-1.601,0.402-2.837,0.518c3.702-0.345,7.81-0.986,11.965-0.901
							c1.081,0.222-1.162,0.466-2.496,0.565c16.211,1.652,47.625-1.049,57.759,0.226c4.56-0.176,6.573-0.866,4.033-1.389
							c60.096-0.424,124.388-0.738,185.596-2.032c2.946,0.224,3.479,0.672,2.672,1.244c52.317-2.681,107.151-1.613,160.681-1.178
							c2.054-0.706-5.459-0.747-0.189-1.479c-17.21-0.881-31.519,1.727-47.129,0.444l2.003-0.679
							c-11.356-0.438-2.3,1.714-14.086,0.837c-4.645-0.567,1.162-0.863-1-0.916c-24.139,0.279-49.314-0.334-72.044,1.318
							c-5.614-1.477-25.936-0.05-34.857-1.462c-6.246,0.582-12.512,0.433-14.886,1.411c-84.482-0.78-170.795,0.648-257.337,0.54
							c-40.501,2.855-88.998-0.549-137.069,0.407c-0.331-0.101-0.274-0.209,0.047-0.29c-15.667,0.703-38.505,1.034-57.208,0.683
							l-15.842,1.206c-112.546-2.48-227.554-0.738-341.866-1.769c-129.895-0.712-243.693-2.768-370.193,0.995
							c0.166-0.279-0.858-0.433,2.408-0.55c-36.509,0.576-69.771-0.45-104.151,0.146l0.108-0.282
							c-85.306,2.354-177.564-0.314-259.803,2.224c-100.115-0.255-213.319,0-319.285,0.729l0.247-0.569
							c-84.793,1.195-166.734-1.804-251.341-0.901c-87.002-1.29-178.922,3.244-266.67,1.523
							c-54.29-2.779-125.601,3.18-176.598,0.299c-104.77-4.342-206.405-1.547-311.147,1.055
							c-96.629-1.547-193.109,2.428-286.688-0.732c-44.342,2.026-93.312-2.505-142.653-1.921l1.763,0.701
							c-17.714-2.127-39.468,2.977-50.52-0.184l1.865-0.143c-9.377-1.608-21.781,3.779-27.479,1.872l-1.517,0.791
							c-11.357,0.229-1.344-0.898-10.103-1.215c-3.297,0.099-1.253,1.444-8.131,0.989c-1.493-3.244-27.807,0.703-28.591-2.94
							c6.209,0-9.732-1.413,4.212-2.175c-3.972-0.374-23-0.193-21.291,1.354c-1.625,1.642-9.056,3.072,2.506,4.342l2.324-1.195
							c3.895,1.195,2.962,0.598,4.354,1.494c15.109,0.158,17.129,1.896,27.966,2.617c-0.108-0.035-0.213-0.068-0.047-0.13
							c7.404-1.433,17.646-0.582,23.51-0.378l2.351,0.666c3.56,1.393,17.187-2.721,12.593-0.332
							c30.719-0.593,65.934-0.564,100.257-0.593c4.807-0.907,26.273,0.084,18.778-1.666c8.593,1.994,34.134,2.498,43.619,2.422
							c-0.355,0.189-0.76,0.4-2.243,0.325c18.396,2.588,21.805-2.395,39.049,0.77c2.696-2.235,31.32,0.714,41.076-1.914
							c2.128,0.497,2.837,0.945,2.064,1.343c31.04,0.05,65.329,0.857,91.596,0.958c22.44-1.958,54.341,0.888,73.639-1.819
							c15.991,0.573,41.859,1.703,64.184,0.617l-2.169,0.329c25.186-0.158,56.648-0.299,73.926-2.002
							c7.445,2.593,18.332,2.076,29.219,2.902c16.815-1.2,50.76-0.846,76.415-1.938c3.932,1.195,21.169-0.508,22.49,1.23
							c71.886-3.353,160.772-2.18,237.532,0.354l-1.111,0.123c9.961-0.954,21.44-3.061,31.577-4.291
							c0.996,0.151,0.882,0.439-1.246,0.43c14.022-0.323,27.131,1.384,41.136,1.066c-0.115,0.288-0.115,0.288-2.385,0.562
							c13.14-0.773,27.159,1.389,42.67,0.044l0.868,0.459l9.864-0.644c-0.24,0.573-0.622,1.437-5.891,1.25
							c120.366,0.561,244.612-2.419,368.19-1.988l-4.533,0.545l23.963-0.976c-0.132,0.292-1.27,0.431-2.415,0.561
							c30.523,0.976,62.198-0.646,91.944-0.402c-0.139,0.279-4.641,0.835-0.476,1.151c22.017-1.569,35.37,2.035,46.396-1.217
							c1.024,0.151,1.723,0.883-0.52,1.145c61.265-1.079,124.172-1.018,185.894-0.49c51.402-2.944,108.857-0.279,162.248-2.615
							l-0.263,0.584c69.126-2.058,142.457,0.141,214.106-0.27c29.753,0.235,49.851-0.459,79.746-0.494l0.75,0.729
							c50.324-2.786,105.776,2.503,158.276-0.562l-3.621,0.995c8.141-1.54,31.759,0.543,28.652-2.096l9.269,0.8
							c35.667-3.489,64.917,1.608,108.627-0.655l-2.871,0.626c11.62-0.488,25.169-0.872,33.779-0.297
							c-1.344,0.091-0.716,0.275-3.479,0.44c36.401,2.48,76.912-0.259,115.316-0.165l-4.354,1.166
							c18.565-1.369,52.615-0.094,77.017-0.721l-1.483,0.547l12.346-0.773l0.321,1.107
							C2838.052,976.152,2867.936,975.198,2898.928,975.068z"/>
						<path fill="#3F3B3C" d="M3219.281,973.812c-0.091-0.009-0.233-0.009-0.338-0.035
							C3217.994,973.873,3218.456,973.862,3219.281,973.812z"/>
						<path fill="#3F3B3C" d="M54.045,979.482c-1.463-0.066-2.672-0.134-3.895-0.224C50.448,979.482,52.799,979.437,54.045,979.482z
							"/>
					</g>
				</g>
			</g>
		</g>
	</g>
</g>
<g>
	<g>
		<g>
			<g>
				
					<rect x="70.766" y="527.009" transform="matrix(-0.9143 0.4051 -0.4051 -0.9143 626.5153 1315.1893)" fill="none" width="206.655" height="393.759"/>
				<g opacity="0.85">
					<g>
						<path fill="#FFDF7E" d="M213.922,921.581c-0.375,2.164-4.113,3.491-5.223,0.986c3.615,1.395,2.542-1.787,2.473-3.422
							l-0.829,0.367c0.336-1.48,2.809-1.92,2.048-2.898c0.022,2.311,3.48,4.104,4.691,1.579c0.245-2.45-0.033-2.327-1.048-3.863
							l-0.744,1.325c0.992-0.765,0.191-4.077,2.351-3.708c0.013-5.995-7.712-6.899-10.247-11.107
							c2.595,2.851,5.255,1.339,7.691,4.585c2.69,3.807,4.19,9.456,3.169,13.914C216.707,920.347,214.006,925.544,213.922,921.581z"
							/>
						<path fill="#FFDF7E" d="M201.819,915.294c-1.268-2.1-1.2-6.455,0.346-7.473c-4.672,3.731,5.185,5.692,0.948,8.903
							c1.545,1.974,3.361,3.826,4.755,6.211C206.389,919.598,200.796,919.745,201.819,915.294z"/>
						<path fill="#FFDF7E" d="M202.507,906.338c-0.929-0.591-1.421-1.702-1.235-2.787l2.319,2.973
							C203.032,906.772,203.002,904.453,202.507,906.338z"/>
						<path fill="#FFDF7E" d="M204.494,901.796c2.002,0.776,0.739,1.669,0.918,3.589L204.494,901.796z"/>
						<path fill="#FFDF7E" d="M164.931,905.677c-4.26-2.108-6.763-6.995-7.652-11.256l0.192-7.078
							c2.287,0.651,4.235-0.213,2.692-2.191c-1.575-1.3-3.37-0.841-4.357-0.068c-0.061-1.637-2.748-2.442-1.294-4.42
							c-4.639,3.051-10.074,2.795-14.992-0.021l0.566-3.24c-8.098,1.259-6.234-6.558-11.951-9.684
							c-11.457-5.581,0.851-9.366-10.056-15.189c2.564,0.527,6.861,1.96,6.246-2.435c-0.953-2.902-5.779-1.77-6.973-5.228
							c3.275-3.12,11.392,6.937,10.753-2.769c-1.754-3.215-0.09-6.949-0.204-10.228c-7.07-6.188-4.739-18.203-15.18-22.235
							c4.108,2.507,4.207-2.529,6.185-4.071c-0.149-5.595-5.122-7.052-7.125-10.824c1.974-1.54-0.09-3.96,3.339-4.481
							c3.677,6.033,6.075,12.956,11.417,18.249c3.18-1.082,7.201,0.474,7.669-3.736c1.122-9.48,6.174-21.378,3.77-28.297
							c5.173,14.686,13.566,27.613,19.574,41.926c7.976-1.535-3.141-8.594,1.713-10.413c2.929,4.358,6.734,1.677,10.814,1.868
							l6.319,13.511c2.011,0.772,2.751-0.556,4.392-0.618c5.678,3.813-1.28,12.888,6.343,15.831
							c1.108,5.505-3.285,9.116-0.942,14.402c4.603,0.619-0.614-4.391,1.554-7.013c2.131,1.052,0.425,5.47,3.825,5.63
							c2.631-3.83-0.576-11.067,5.454-11.743c-0.6,3.928,4.539,1.987,5.059,5.419c3.278-0.119,2.201-3.31,1.18-4.854
							c3.242,0.56,1.261,5.105,3.39,6.153c2.226-0.986-0.543-5.746,3.163-3.392c-0.218,1.76,0.737,4.667,2.058,5.405
							c2.351-0.701,0.16-3.393,1.709-4.417c1.683,10.574,10.36,20.378,6.017,31.623c-1.575,4.696-5.721,8.864-9.742,10.316
							c-3.649-0.72-11.375,1.375-13.039-3.879c-3.491-1.12-5.897-5.045-7.811-7.861c-0.773,2.011-1.892,5.498-4.886,5.497
							c-2.713-6.123,4.338-11.243,1.774-17.767c-2.315,3.027-6.83,6.359-5.784,10.223c-3.152,3.393-10.014,1.44-9.469,7.193
							c-0.645-0.715-1.726-0.904-2.525-1.213c-1.464,1.98-1.093,2.816-2.42,5.068c6.179,1.922,11.793,10.084,9.006,17.315
							C173.954,905.006,168.82,906.946,164.931,905.677z"/>
						<path opacity="0.3" fill="#FFFFFF" d="M164.314,904.285c0.158-3.397-1.913-2.812-3.861-4.954l1.085,0.193
							c1.116-3.491-5.375-1.613-2.183-5.69c-0.096-0.958,0.579,2.07,2.002,0.777c0.62-1.611-2.002-0.777-0.987-2.227
							c0.65,0.712,2.502,1.888,3.71,2.348c1.575-1.693,3.49-1.876,5.871-3.267l-2.718-0.124c1.883,0.494,2.383-1.386,3.926-2.41
							c1.792,2.539,0.865,4.948,2.618,8.161c-1.753-3.213-0.495,1.888-3.091,2.04c2.349-0.708,3.186,1.918,1.791,2.536l-0.371-0.837
							l-1.852,1.821l-0.247-0.558c-2.913,3.955,0.278-3.115-2.965-0.682l1.233,2.783L164.314,904.285z"/>
						<path opacity="0.3" fill="#FFDF7E" d="M167.966,899.007c-1.113,0.493-0.182,1.082-1.7,1.413
							c0.462-1.203-0.527-0.427-1.082-0.181c0.835-3.375,2.845,0.403,4.048-2.132c1.051,0.873,1.297,1.427,1.234,2.786
							C168.427,900.799,169.418,900.027,167.966,899.007z"/>
						<path opacity="0.3" fill="#FFDF7E" d="M170.167,895.7c-0.158,0.403,0.674,3.034,1.66,2.256l-2.929-1.361L170.167,895.7z"/>
						<path opacity="0.3" fill="#FFFFFF" d="M214.228,874.18c0.31-3.8,1.828-4.139,2.322-9.026c-1.477-0.336-2.288,2.353-3.12-0.278
							l1.208,0.463c3.338-4.474-5.835-3.401-2.896-8.038l-0.711,0.655c-1.236-2.79,0.251-2.445-1.912-5.814
							c1.392,2.38,2.659,1.481,4.36,0.069c-0.686,2.963,4.412,4.697,1.411,7.695l-1.576-1.303c0.244,3.557,5.282,6.65,4.657,8.258
							l-0.925-0.588c-0.123,2.721-2.669,7.504,0.331,7.51C216.299,873.596,214.692,872.974,214.228,874.18z"/>
						<polygon opacity="0.3" fill="#FFFFFF" points="169.523,888.996 168.779,890.326 167.759,888.774 						"/>
						<path opacity="0.3" fill="#FFFFFF" d="M211.045,869.262l-0.31,0.806c-2.837-3.403,3.155-0.398,3.156-3.395
							C213.116,868.677,213.611,869.793,211.045,869.262z"/>
						<polygon opacity="0.3" fill="#FFFFFF" points="212.129,866.45 212.873,865.122 212.811,866.485 						"/>
						<polygon opacity="0.3" fill="#FFFFFF" points="216.376,860.245 217.667,861.667 215.905,861.452 						"/>
						<polygon opacity="0.3" fill="#FFFFFF" points="209.729,859.528 210.626,860.794 210.098,860.361 						"/>
						<polygon opacity="0.3" fill="#FFFFFF" points="207.841,859.029 209.23,861.413 208.459,860.424 						"/>
						<path opacity="0.3" fill="#FFDF7E" d="M213.011,856.41l-1.392,0.617L213.011,856.41z"/>
						<polygon opacity="0.3" fill="#FFFFFF" points="207.471,858.195 206.829,857.484 209.113,858.138 207.504,857.517 						"/>
						<path opacity="0.3" fill="#FFFFFF" d="M205.341,857.14l-1.51-2.655L205.341,857.14z"/>
						<polygon opacity="0.3" fill="#FFFFFF" points="214.062,851.279 214.712,851.994 214.434,852.118 						"/>
						<polygon opacity="0.3" fill="#FFFFFF" points="207.512,851.522 207.941,853.992 207.666,854.114 						"/>
						<path opacity="0.3" fill="#FFFFFF" d="M213.57,850.169c-0.616-1.39,0.557-0.247,0.962-0.094
							C214.25,850.2,213.693,850.447,213.57,850.169z"/>
						<path opacity="0.3" fill="#FFFFFF" d="M209.462,847.661l-1.757-0.219l0.987,2.227c-3.062-1.64-0.311-2.194,1.117-3.492
							c0.581,2.074,1.758,3.216,0.298,5.191C210.175,850.01,210.358,848.931,209.462,847.661z"/>
						<path opacity="0.3" fill="#FFFFFF" d="M205.719,851.984c-0.216-1.241,0.557-0.247,0.962-0.094
							C206.4,852.015,206.277,851.737,205.719,851.984z"/>
						<path opacity="0.3" fill="#FFFFFF" d="M203.557,848.609c-0.331-1.512,0.311-0.803,0.683,0.036
							C203.966,848.766,203.966,848.766,203.557,848.609z"/>
						<polygon fill="#FFDF7E" points="196.495,813.124 197.849,813.187 196.74,813.678 						"/>
						
							<rect x="169.772" y="822.947" transform="matrix(0.9143 -0.4051 0.4051 0.9143 -318.9994 139.4281)" opacity="0.3" fill="#FFFFFF" width="0.301" height="0.91"/>
						<path opacity="0.3" fill="#FFFFFF" d="M131.135,812.126c0.158-0.403,0.036-0.679,0.31-0.8c0.648,0.708,1.7,1.578,1.387,2.377
							C132.034,813.396,132.092,812.034,131.135,812.126z"/>
						<path opacity="0.3" fill="#FFFFFF" d="M137.543,806.295c0.518,0.43,2.068-0.584,1.852-1.821
							C140.811,806.17,139.179,806.23,137.543,806.295z"/>
						<path opacity="0.3" fill="#FFFFFF" d="M138.224,800.332l-0.398-0.159L138.224,800.332z"/>
						<path fill="#FFDF7E" d="M130.108,766.977c-0.948-8.903-7.806-13.85-11.047-20.412c-5.004-0.775-9.347-6.835-9.254-11.872
							c1.175,1.148,1.23,5.779,4.016,4.545c-3.582-5.07,2.564-2.465-1.694-7.569l-2.504,1.109
							c2.479-6.432,6.408-11.833,0.887-19.035c-2.221-5.013-5.459-11.568-6.564-17.065c-0.957-2.911,1.334-2.257,3.242-2.437
							c7.719,9.893,7.268,25.406,16.629,32.247c6.016,5.319-2.766,9.546,0.257,14.863c0.836-0.37,0.19-1.084-0.058-1.643
							c0.397,3.161,4.572-1.69,3.583,2.077c-0.06-4.634,2.88-9.266,0.633-13.589c1.71,15.883,4.504,31.954,8.597,46.45
							C133.619,773.409,134.151,767.845,130.108,766.977z"/>
						
							<rect x="127.817" y="755.014" transform="matrix(0.9143 -0.4051 0.4051 0.9143 -295.1984 116.6355)" opacity="0.32" fill="#FFFFFF" width="0.309" height="1.516"/>
						<path fill="#FFDF7E" d="M166.36,734.599c-4.262-5.099-0.451-10.785-0.603-16.376c2.445,0.247,3.122,3.277,5.282,3.656
							c-1.33-0.747-1.762-0.223-3.433,0.518l0.556-0.246c0.312-0.801-0.617-1.393-1.297-1.427c-1.726,2.104-3.004,5.991-2.262,7.667
							l2.408,0.927l-2.318,0.029c1.111,2.507,2.182,5.69,4.722,6.901c0.778-2.013,3.341-4.482,5.719-2.869
							C173.494,736.431,168.888,738.81,166.36,734.599z"/>
						<path opacity="0.32" fill="#FFFFFF" d="M123.632,750.869c2.907-0.955,0.433,2.47,3.15,2.6
							C124.683,754.734,124.189,750.622,123.632,750.869z"/>
						<path fill="#FFDF7E" d="M173.357,724.844c0.023,2.316,2.804,4.086,1.997,6.772
							C176.072,727.966,172.361,728.615,173.357,724.844z"/>
						<path opacity="0.32" fill="#FFFFFF" d="M123.982,746.389l1.2,0.464c-1.14-1.821,2.724-2.868-0.334-4.507
							c-0.034,0.675-0.713,0.648-1.146,1.168c0.157-3.399,4.267-0.895,4.326,0.747c-1.76-0.216-1.086,2.81-1.271,3.896
							c1.512-0.342,3.804,0.311,2.316,2.964C128.146,750.538,126.386,747.318,123.982,746.389z"/>
						<polygon fill="#FFDF7E" points="171.687,722.585 173.11,724.286 172.024,724.101 						"/>
						<path opacity="0.32" fill="#FFFFFF" d="M124.165,745.308l-1.207-0.469L124.165,745.308z"/>
						<polygon opacity="0.32" fill="#FFFFFF" points="117.901,739.428 120.184,740.085 119.225,740.172 						"/>
						<path opacity="0.32" fill="#FFDF7E" d="M125.507,737.06c1.542-1.018-0.687-3.03,1.604-2.379
							C127.698,736.755,124.732,736.071,125.507,737.06z"/>
						<path opacity="0.32" fill="#FFFFFF" d="M120.592,734.243c2.473-0.428,0.927,0.59,2.317,2.966L120.592,734.243z"/>
						<polygon opacity="0.32" fill="#FFFFFF" points="114.069,739.792 113.721,741.28 113.754,740.599 						"/>
						<path opacity="0.32" fill="#FFFFFF" d="M116.914,737.201l0.553-0.245l-2.345-2.29c3.807-2.685,2.071,2.412,3.521,3.438
							C118.393,737.541,117.125,738.438,116.914,737.201z"/>
						<polygon opacity="0.32" fill="#FFFFFF" points="122.605,732.02 123.066,733.815 122.014,732.945 						"/>
						<polygon opacity="0.32" fill="#FFFFFF" points="113.117,730.893 113.336,732.129 112.281,731.264 						"/>
						<path fill="#FFDF7E" d="M123.259,720.74c-1.971-4.447-4.342-9.06-1.118-13.814c1.541-1.02,1.946-3.864,4.419-4.292
							c3.582,2.072,7.321,3.75,8.86,8.727c0.647,3.703,1.162,7.143-1.713,10.408C130.119,725.693,126.167,722.784,123.259,720.74z"
							/>
						<path fill="#FFDF7E" d="M159.724,698.595c-1.015-1.552,0.44-3.527,1.586-4.696c1.789-0.46,3.237,0.557,4.535,1.983
							C167.693,700.054,161.325,702.21,159.724,698.595z"/>
						<path opacity="0.32" fill="#FFFFFF" d="M128.965,712.559l2.996-0.002C129.886,713.144,130.567,716.174,128.965,712.559z"/>
						<polygon opacity="0.32" fill="#FFFFFF" points="114.65,718.567 114.83,720.486 114.024,720.172 						"/>
						<path opacity="0.32" fill="#FFFFFF" d="M126.889,713.144c-0.465,1.201-5.37-1.613-3.768,2.004
							c-1.853-1.178,0.341-4.479-0.339-4.515l1.825,1.858c1.327-2.256-1.516-2.66,0.617-4.609l2.412,0.938
							c-2.445,2.742-2.103,1.264-0.623,4.604L126.889,713.144z"/>
						<path opacity="0.32" fill="#FFFFFF" d="M128.628,708.042l-3.462-1.795c3.184-1.073,3.395,3.156,5.963,0.687
							c-1.423,1.301,1.295,4.425-1.581,4.698C128.561,709.403,127.818,710.731,128.628,708.042z"/>
						<polygon opacity="0.32" fill="#FFFFFF" points="111.714,714.206 112.734,715.756 111.682,714.886 						"/>
						
							<rect x="112.814" y="711.39" transform="matrix(0.9143 -0.4051 0.4051 0.9143 -278.813 106.8182)" opacity="0.32" fill="#FFFFFF" width="0.309" height="1.521"/>
						<path fill="#FFDF7E" d="M207.645,652.72c-2.578-14.832,8.034-26.191,12.469-39.476c2.501-1.108,4.042,0.873,4.782,2.542
							c0.92,6.584-5.57,11.456-3.728,18.632c-1.303,7.565-2.766,15.542-9.416,20.818C209.96,655.692,208.233,654.799,207.645,652.72
							z"/>
						<path opacity="0.32" fill="#FFFFFF" d="M107.898,699.584c0.369,0.832-1.301,1.572-1.791,0.466
							c1.112-0.493,3.557-3.245,3.795,0.314L107.898,699.584z"/>
						<path opacity="0.32" fill="#FFFFFF" d="M104.908,696.581c0.995-3.765,1.293,1.426,3.303-0.8
							C107.998,697.544,105.924,698.13,104.908,696.581z"/>
						<path fill="#FFDF7E" d="M165.721,646.005c-3.03-2.322-1.446-7.021-0.242-9.551c1.728,3.9-0.409,5.84,0.176,7.912l-0.402-0.159
							c-0.185,1.088,0.468,1.799,1.02,1.554c2.321-0.03,0.406-2.844,2.597-3.157c0.307,2.198,2.288,0.655,2.318,2.971
							c2.753-0.552,1.025-4.452,1.768-5.777c-0.837,0.371-3.735-4.664-8.001-3.774l0.069-4.361c3.15-0.397,2.003,3.778,5.679,3.813
							c2.034,3.089,4.008,7.545,1.783,11.523C170.072,649.065,167.659,648.138,165.721,646.005z"/>
						<path opacity="0.35" fill="#FFFFFF" d="M168.716,646.004c0.957-0.086,2.19-0.305,1.854,1.177L168.716,646.004z"/>
						<path fill="#FFDF7E" d="M170.911,563.808c-4.814-4.856-0.328-10.509-0.508-15.422c1.877,3.493,6.053,4.635,6.94,8.91
							c0.027,2.317,0.584,5.067-1.399,6.611C174.371,565.607,172.391,564.145,170.911,563.808z"/>
						<path opacity="0.3" fill="#FFFFFF" d="M171.408,561.927c-0.031-2.316-0.921-6.587-1.817-7.858
							c0.56-3.235,4.575,1.308,1.886-2.496c1.332,0.741,1.885,3.492,4.202,3.461c-2.693,2.197-0.778,5.008,0.52,6.432
							C174.463,563.57,173.043,561.86,171.408,561.927z"/>
						<path fill="#FFDF7E" d="M172.152,521.062c-2.283-3.651-1.537-7.977,0.414-11.838c2.876-0.271,4.627,2.94,6.424,5.482
							c-0.53,2.561,0.737,4.661-1.553,7.012C175.615,522.857,173.725,522.359,172.152,521.062z"/>
						<path opacity="0.3" fill="#FFFFFF" d="M177.284,519.121c-1.451-1.021-1.614,2.376-2.998-0.005l0.594-0.921
							c0.518,0.428,2.837,0.401,2.371,1.603C177.251,519.798,177.406,519.397,177.284,519.121z"/>
						<path opacity="0.3" fill="#FFFFFF" d="M177.191,515.165c0.689,0.033,1.856,1.184,0.743,1.677L177.191,515.165z"/>
						<path opacity="0.3" fill="#FFFFFF" d="M171.793,514.232c3.546,2.752,0.18-4.08,3.92-2.402l-1.419,1.294l0.399,0.148
							c0.185,1.919-2.007,2.231-3.245,2.444L171.793,514.232z"/>
						<path fill="#FFDF7E" d="M193.906,529.316c-1.109-2.503-2.057-8.409,1.897-8.493c2.446,0.245,3.926,3.584,4.069,6.18
							c-0.213,1.763-0.399,2.844-1.548,4.016C196.499,532.162,194.806,530.585,193.906,529.316z"/>
						<path opacity="0.3" fill="#FFFFFF" d="M198.425,525.983c-1.609-0.625-1.733,2.099-3.246,2.442l-1.356-3.061
							c3.116,3.277-0.403-3.154,3.122-2.72c1.604,0.626,1.815,1.853,1.973,4.452L198.425,525.983z"/>
					</g>
				</g>
			</g>
		</g>
	</g>
</g>
<g>
	<g>
		<g>
			<g>
				
					<rect x="288.195" y="719.011" transform="matrix(0.9352 0.3542 -0.3542 0.9352 315.6874 -110.7412)" fill="none" width="344.35" height="176.047"/>
				<g opacity="0.85">
					<g>
						<path fill="#B1AAFF" d="M638.733,782.452c1.24,2.406,6.338,5.411,4.392,9.409c4.171,7.173-0.347,13.418-1.004,20.263
							c-3.154-0.761-1.777,2.989-3.312,4.77c-0.384,1.579,0.999,3.607-0.015,5.155c-2.238,0.23-0.599-4.099-3.525-2.625
							c-5.257,2.527-1.325,9.179-4.208,12.814c-2.112-2.948,1.087-7.974-3.053-9.542c-2.997,1.665-6.84,3.862-8.028,6.425
							c1.793-0.183,4.334-0.083,5.223,1.546c0.135,1.343-1.538,1.786-2.477,1.43c-2.731-0.174-4.256-1.828-6.133-2.539
							c-3.726,0.737-6.134,3.696-7.982,6.87c1.246,0.684,0.603,2.381-0.13,3.18c-2.129,3.92-7.772,1.783-9.672,6.227
							c-1.702,2.796-0.418,5.651-2.496,8.3c-1.155,0.207-2.429,0.16-3.154-0.763c-1.564-3.82,3.361-6.038,0.079-9.864
							c-1.244-0.687-2.192,0.674-3.114,1.403c0.696,3.276-2.067,5.458-2.57,8.49c-0.323-1.418-1.389-0.31-2.023-0.332
							c0.115-5.983,6.394-11.776,3.375-17.436c-1.082,0.02-2.522,0.979-3.033-0.506c0.165-1.012,0.551-2.592-0.221-3.953
							c-5.924-3.107-11.456,2.974-17.594,2.15c5.535-1.557,10.286-7.282,13.896-10.003c-3.537,2.529-8.947,0.912-11.491,0.812
							c5.286-3.162,8.492-3.673,13.957-5.043c1.803-5.332,1.73-11.387,0.997-16.826c-1.946-2.245-7.484-0.69-7.377-4.946
							c2.736-1.539,4.651,3.054,8.042,2.616c1.839-1.448,5.037-0.237,6.528-2.47c-0.491-0.406-1.926-1.16-0.817-1.818
							c1.697-1.078,5.389,0.533,4.811-2.483c-0.28-0.963-0.867-2.259-1.618-2.543c0.78-0.355,2.194-0.679,3.23-1.147
							c-0.831-4.616-4.966,0.055-7.1-2.257c9.821-2.089,17.146-10.069,26.642-11.849
							C624.981,776.167,633.646,776.008,638.733,782.452z"/>
						<polygon opacity="0.3" fill="#FFFFFF" points="637.124,792.38 637.713,791.955 637.83,792.219 						"/>
						<path fill="#B1AAFF" d="M533.655,764.594c-0.316,3.107-1.996,5.269-5.126,5.584c-2.992-0.057-5.717-1.949-6.841-4.091
							c-0.98-2.524,2.224-3.034,2.749-4.984C527.79,758.5,532.7,761.436,533.655,764.594z"/>
						<polygon opacity="0.3" fill="#FFFFFF" points="631.07,800.413 631.872,799.428 631.283,799.85 						"/>
						<polygon opacity="0.3" fill="#FFFFFF" points="636.901,802.621 636.88,801.537 637.115,802.058 						"/>
						<polygon opacity="0.3" fill="#FFFFFF" points="633.194,806.166 633.83,806.191 633.805,806.822 						"/>
						<polygon opacity="0.3" fill="#FFFFFF" points="633.163,808.519 633.26,807.695 633.375,807.958 						"/>
						<polygon opacity="0.3" fill="#FFFFFF" points="635.621,812.246 635.931,810.855 635.907,811.492 						"/>
						<polygon opacity="0.3" fill="#FFFFFF" points="628.543,809.355 628.265,808.384 628.194,808.571 						"/>
						<path fill="#B1AAFF" d="M548.201,779.569c4.046,0.669,7.758,3.363,11.303,5.357c0.254,1.597-1.086,1.733-2.169,1.759
							c-3.38-3.002-9.102-3.229-11.629-6.776C545.992,779.156,548.092,777.587,548.201,779.569z"/>
						<polygon opacity="0.3" fill="#FFFFFF" points="636.982,813.193 637.008,812.561 637.125,812.816 						"/>
						<path opacity="0.3" fill="#FFFFFF" d="M553.042,782.687c1.008,0.174-0.144,0.381,0.092,0.895
							c-0.044-2.161-1.085,0.021-2.189-1.039l2.144-1.122C552.689,781.914,552.994,782.24,553.042,782.687z"/>
						<path opacity="0.3" fill="#FFFFFF" d="M550.807,781.202l-0.614,1.056c-1.362-0.95,1.367-0.77,0.123-1.463
							C550.243,780.988,550.62,781.131,550.807,781.202z"/>
						<path opacity="0.3" fill="#FFFFFF" d="M556.24,783.898c-0.403,0.497-0.501,1.322-1.136,1.294
							C555.509,784.699,555.675,783.684,556.24,783.898z"/>
						<path opacity="0.3" fill="#FFFFFF" d="M593.141,801.75c-0.59,0.421-0.706,0.162-0.305-0.332
							C593.022,801.489,592.951,801.678,593.141,801.75z"/>
						<path opacity="0.3" fill="#FFFFFF" d="M630.495,817.83c-0.564-0.214-1.058-0.615-1.219-1.318
							C630.571,815.927,630.592,817.01,630.495,817.83z"/>
						
							<rect x="586.197" y="800.307" transform="matrix(-0.9352 -0.3542 0.3542 -0.9352 851.1424 1757.4025)" opacity="0.3" fill="#FFFFFF" width="0.4" height="1.007"/>
						<path opacity="0.3" fill="#FFFFFF" d="M589.284,807.386l-1.063,1.102l0.338-2.024
							C588.746,806.535,588.647,807.363,589.284,807.386z"/>
						<path fill="#B1AAFF" d="M338.085,731.818c1.263,3.487-1.528,6.307-2.152,9.083c-3.026-2.224-4.337,1.796-7.486,1.032
							c-4.159,3.593-8.847,6.325-11.977,11.174c-1.403-1.401,2.584-3.979,1.369-7.016c-1.306-3.935-5.546-2.96-8.392-3.398
							c-3.279,0.698-6.557,3.113-9.209,1.031c9.961-0.746,10.516-13.006,19.446-15.004c4.949-1.134,10.729-5.61,15.186-0.914
							C337.415,727.908,337.194,730.188,338.085,731.818z"/>
						<path opacity="0.3" fill="#FFFFFF" d="M583.694,824.412c0.092,0.897-0.16-0.708-0.088-0.897L583.694,824.412z"/>
						<path fill="#B1AAFF" d="M565.263,817.432c-1.152,0.204-0.925,2.442-2.643,2.436
							C564.451,820.137,563.686,817.052,565.263,817.432z"/>
						<path opacity="0.3" fill="#FFFFFF" d="M579.345,823.405c-0.734,0.799-1.388-0.304-1.977,0.115
							C577.204,822.816,578.993,822.632,579.345,823.405z"/>
						<path fill="#B1AAFF" d="M563.546,817.422l-1.041,0.47L563.546,817.422z"/>
						<path fill="#B1AAFF" d="M367.366,747.637c5.816,5.647,8.858,12.39,11.941,19.58c-1.065,1.105,0.176,3.511-2.151,2.839
							c-1.908-0.071-2.463-2.007-3.639-2.879c-3.44-6.25-5.89-13.417-10.25-18.936c-0.889-1.629-3.353-3.638-0.852-5.702
							C365.742,740.571,366.994,745.775,367.366,747.637z"/>
						<path fill="#B1AAFF" d="M561.611,817.983l-0.544,0.872L561.611,817.983z"/>
						<path fill="#B1AAFF" d="M560.356,820.73l0.991-0.913C560.898,819.863,560.873,820.502,560.356,820.73z"/>
						<path fill="#B1AAFF" d="M559.718,820.708l-0.898,0.092c-0.156-0.711,0.245-1.203,0.762-1.436
							C560.479,819.276,559.745,820.074,559.718,820.708z"/>
						<path fill="#B1AAFF" d="M447.17,798.729c0.292,3.767-4.235,5.493-4.246,8.932c-1.748,2.345-5.397,2.901-8.226,3.548
							c-1.852-3.062-6.764,1.959-7.006-3.078c-1.674,0.44-4.939-0.586-5.043,1.959c2.296,3.02,1.645,8.148,5.781,9.715
							c0.279,0.969-1.25,1.032-2.216,1.313c-1.611,1.976,1.631,3.632,1.888,5.232l-2.664,1.355l0.981,2.524
							c-1.108,0.656-3.652,0.553-3.352,2.601c-0.433,2.847,3.478,2.176,2.104,4.671c-1.343,0.136-2.016-2.06-3.548-1.99
							c-2.735,1.542-3.685,4.621-2.821,6.883c-1.348,0.139-2.256-0.854-3.72-0.968c-1.581,1.332-4.102,2.312-3.57,4.881
							c-1.886,1.004-1.524-1.655-2.794-1.704c-0.246,2.921-5.207,1.251-4.209,4.859c-1.738-1.091,0.432-2.845-1.047-4.053
							c-7.064-6.332-13.4,2.447-20.099-2.019c1.992-3.554-1.122-8.386,2.182-11.432c-0.41-4.032-4.323-3.356-6.392-4.139
							c-0.299-2.053,1.451-4.404,1.197-6.005c-3.486,1.264-4.884-3.57-8.442-2.121c7.582-0.139,14.878-7.483,23.399-7.266
							c1.321-1.22,4.901-1.59,4.064-4.484c-0.955-3.158-2.452-5.448-4.873-7.01c-1.877-2.427,1.542-3.505-0.408-5.74
							c3.017-0.581,2.931,4.759,6.322,4.323c1.049,2.337,1.3,5.657,3.904,7.294c3.783,2.503,8.05,0.891,11.813,2.316
							c3.864-1.113,7.704-1.595,10.912-3.823c-1.512-5.089-7.676,0.96-11.078-3.118c-1.032-1.258-0.768-3.085,0.717-3.605
							c2.782-1.093,8.451,0.404,8.134-4.439c0.199-1.654-1.535-4.46,1.219-4.921c4.909-3.3,10.344-2.323,15.629,0.76
							C444.509,792.128,445.576,795.549,447.17,798.729z"/>
						<path fill="#B1AAFF" d="M383.6,779.165c-1.947-2.242,1.063-1.102,1.231-2.109C385.108,778.02,385.105,779.735,383.6,779.165z"
							/>
						<path fill="#B1AAFF" d="M459.718,826.925c-0.427,1.127-1.184,2.56-2.554,3.334c-1.745,0.631-3.301,1.33-4.922,0.504
							c-0.255-1.605-0.034-3.885,1.475-5.034c1.367-0.775,2.03-1.382,3.49-1.263C458.596,824.78,459.581,825.581,459.718,826.925z"
							/>
						<path opacity="0.3" fill="#FFFFFF" d="M456.943,826.302c0.636,0.029,0.538,0.852,0.019,1.083l0.072-0.189l-1.083,0.022
							c1.745-0.631-0.182-1.789-0.888-1.629C456.029,825.312,456.806,824.958,456.943,826.302z"/>
						<path fill="#B1AAFF" d="M564.879,869.55c2.314,5.817-3.281,10.368-4.831,15.593c-4.888-1.851-7.427,4.283-12.09,4.669
							c0.24-1.207,1.983-1.835,2.601-2.889l0.582,1.298c0.05-1.269,1.183-0.84,1.234-2.119l0.114,0.263
							c0.548-0.869,3.416-1.071,1.491-2.232c1.253-1.034,3.132-0.322,4.894,0.131c-1.803-2.617,2.219-1.31-0.436-3.388
							c1.37-0.773,0.374,1.858,1.881,0.713c2.764-2.182,3.318-6.489,3.399-10.114c-0.847,0.54-0.476,2.396-1.937,2.28
							c1.635-2.613-3.736-2.061-2.03-4.859c-2.238,0.229-2.594,1.168-4.481,2.175c0.417,2.31,3.038,0.507,3.336,2.552
							c-2.641,0.72-0.016,3.442-3.333,3.686c2.333-1.045,1.42-2.044,2.579-3.972c-1.771,1.267-2.75-1.254-3.743-0.338l1.152,1.509
							c-1.481-1.205-2.173,1.761-3.612,2.716l-0.117-0.256c-0.894,0.093-0.356,0.941-0.5,1.32l-0.655-1.114
							c-4.409,1.99-2.027,7.622-6.338,8.785c-0.227-2.238,3.45-3.43,1.386-5.932c2.279-6.018,5.571-11.864,11.933-13.328
							C560.21,865.414,562.621,868.695,564.879,869.55z"/>
						
							<rect x="455.733" y="827.891" transform="matrix(-0.9352 -0.3542 0.3542 -0.9352 588.904 1764.5747)" opacity="0.3" fill="#FFFFFF" width="0.403" height="1.006"/>
						<path opacity="0.3" fill="#FFFFFF" d="M560.476,869.815c0.707-0.161-0.655-1.104,0.543-0.867L560.476,869.815z"/>
						<path fill="#B1AAFF" d="M560.984,873.016c0.019,1.088-0.635-0.021-1.369,0.778c0.994-0.92-0.181-1.789-0.083-2.616
							C559.808,872.146,559.713,872.972,560.984,873.016z"/>
						<path fill="#B1AAFF" d="M558.918,872.234l-0.099,0.827L558.918,872.234z"/>
						<path opacity="0.3" fill="#FFFFFF" d="M553.927,871.207c-1.295,0.586,0.655,1.114-0.965,0.279
							C553.597,871.514,553.317,870.55,553.927,871.207z"/>
						<path fill="#B1AAFF" d="M560.745,874.221c-0.07,0.186-0.213,0.563-0.475,0.682
							C560.224,874.458,560.251,873.819,560.745,874.221z"/>
						<path fill="#B1AAFF" d="M562.244,876.51c-0.702-1.552-1.179,0.842-1.413,0.323c0.687-1.242-0.255-1.599,1.16-1.927
							C563.001,875.076,561.75,876.107,562.244,876.51z"/>
						
							<rect x="555.753" y="874.582" transform="matrix(-0.9352 -0.3542 0.3542 -0.9352 765.5865 1891.0973)" fill="#B1AAFF" width="0.203" height="1.809"/>
						<path opacity="0.3" fill="#FFFFFF" d="M552.735,875.488c-0.304-0.331,0.589-0.417,0.852-0.537
							C553.324,875.071,552.692,875.044,552.735,875.488z"/>
						<path opacity="0.3" fill="#FFFFFF" d="M551.421,874.991c-0.705,0.161-0.235-0.517-0.165-0.703
							C551.372,874.544,551.68,874.873,551.421,874.991z"/>
						<polygon fill="#B1AAFF" points="560.119,878.713 560.849,877.921 561.06,879.07 						"/>
						<polygon fill="#B1AAFF" points="591.319,891.174 592.049,890.379 592.614,890.592 						"/>
						<path fill="#B1AAFF" d="M554.78,876.911c-0.85,0.536-0.966,0.278-1.055-0.619C553.956,876.811,554.404,876.769,554.78,876.911
							z"/>
						<path fill="#B1AAFF" d="M483.74,853.226c-1.334,4.656-6.307,6.432-10.526,6.771c-1.658-2.997-1.057-6.853-0.363-9.819
							c1.203-1.477,3.841-2.198,5.561-2.191C481.232,849.055,484.382,849.818,483.74,853.226z"/>
						<path fill="#B1AAFF" d="M541.213,878.658c-1.455,6.114-7.388,6.444-11.821,9.069c-0.801-0.733-1.173-2.596-2.726-1.896
							c1.093-3.451-0.38-6.379-2.534-9.773c0.221-2.288,1.519-4.585,3.972-5.38c4.201-3.142,4.602,4.323,8.874,0.993
							C540.46,872.132,541.719,875.617,541.213,878.658z"/>
						<path fill="#B1AAFF" d="M553.356,880.669l0.017,1.083L553.356,880.669z"/>
						<path fill="#B1AAFF" d="M557.278,882.802l0.683,0.475L557.278,882.802z"/>
						<path opacity="0.3" fill="#FFFFFF" d="M533.672,874.72c0.09,0.892,0.68,0.472,1.008,0.172
							c-0.924,2.439-5.455,5.891-2.823,6.888l0.571-1.508c0.397,1.223,2.608,1.632,2.485,3.094l-1.881-0.712l1.036-0.468
							c-0.207-1.155-1.647-0.192-2.069-0.783c-1.508,1.149-0.315,3.103-2.714,2.627c-0.213-1.151,0.829-1.621,0.171-2.73
							c-1.015,1.552-0.703,0.162-2.163,0.041l1.036-0.467c-0.069,0.182,0.118,0.253,0.045,0.445c1.601-0.25,1.068-2.82,3.165-2.674
							c-1.768-0.45,0.124-3.174,0.251-4.636c-0.455,1.763,1.335,1.587,2.397,0.478C534.116,874.677,533.859,874.791,533.672,874.72z
							"/>
						<path opacity="0.3" fill="#FFFFFF" d="M528.962,874.658c-0.518,0.236-1.127-0.427-1.719-0.005
							C525.998,873.967,528.962,874.658,528.962,874.658z"/>
						<polygon fill="#B1AAFF" points="547.326,881.826 548.665,881.692 548.007,882.303 						"/>
						<polygon fill="#B1AAFF" points="589.199,897.904 589.298,897.081 589.342,897.527 						"/>
						<path opacity="0.3" fill="#B1AAFF" d="M532.835,878.059c-0.374-0.142-0.868-0.543-1.433-0.757l0.377,0.143l0.122-1.461
							C533.031,876.412,532.13,878.226,532.835,878.059z"/>
						<path opacity="0.3" fill="#FFFFFF" d="M530.067,875.723l-0.338,2.022L530.067,875.723z"/>
						<path opacity="0.3" fill="#FFFFFF" d="M534.717,878.772c-0.468-1.036-0.375-0.142,0.239-1.198L534.717,878.772z"/>
						<path opacity="0.3" fill="#FFFFFF" d="M474.149,855.832c-0.377-0.143-0.449,0.048-0.637-0.023l0.429-1.133
							C473.986,855.125,474.291,855.458,474.149,855.832z"/>
						<path opacity="0.3" fill="#FFFFFF" d="M536.204,878.257l-0.923,0.728L536.204,878.257z"/>
						<path opacity="0.3" fill="#FFFFFF" d="M528.508,876.421c-0.563-0.213-0.635-0.022-0.4,0.491
							c-0.495-0.396,0.167-1.007,0.051-1.269L528.508,876.421z"/>
						<polygon opacity="0.3" fill="#FFFFFF" points="536.764,880.19 536.666,879.296 537.048,879.441 						"/>
						<polygon fill="#B1AAFF" points="502.454,867.415 503.114,866.803 503.42,867.137 						"/>
						<polygon opacity="0.3" fill="#FFFFFF" points="535.116,879.997 535.259,879.619 536.197,879.975 						"/>
						<polygon fill="#B1AAFF" points="504.212,869.585 504.901,868.342 504.497,868.833 						"/>
						<path fill="#B1AAFF" d="M548.513,885.503l-1.742,0.628C547.289,885.9,547.929,884.21,548.513,885.503z"/>
						<path fill="#B1AAFF" d="M586.208,912.044l-1.082,0.019C585.603,911.381,585.643,911.83,586.208,912.044z"/>
						<path fill="#B1AAFF" d="M370.688,854.716c0.648,2.826-1.807,5.341-3.345,7.124c-4.124,1.233-8.792,3.338-11.887-0.415
							c-1.031-1.251-1.733-2.809-2.102-4.669c1.419-2.043,1.153-6.444,4.753-7.445C362.708,847.392,370.048,848.452,370.688,854.716
							z"/>
						<path fill="#B1AAFF" d="M469.364,894.025c0.244,3.325-2.984,4.467-4.567,5.807c-2.447,0.786-5.77,1.041-7.528-1.139
							c-1.43-0.758-1.501-2.281-1.564-3.817c0.406-2.214,2.111-5.004,4.75-5.726C464.23,887.135,469.658,889.839,469.364,894.025z"
							/>
					</g>
				</g>
			</g>
		</g>
	</g>
</g>
<g>
	<g>
		<g>
			<g>
				
					<rect x="29.648" y="241.909" transform="matrix(-0.8438 0.5366 -0.5366 -0.8438 549.2663 500.0549)" fill="none" width="344.437" height="176.091"/>
				<g opacity="0.85">
					<g>
						<path fill="#52BC78" d="M114.678,487.537c-2.67-0.448-8.131,1.834-10.167-2.12c-8.244-0.957-10.538-8.319-15.627-12.946
							c2.499-2.07-1.329-3.214-1.836-5.511c-1.034-1.253-3.487-1.361-4.119-3.101c1.157-1.931,3.642,1.977,4.215-1.25
							c1.126-5.725-6.558-6.562-7.741-11.049c3.627,0.075,5.735,5.648,9.471,3.272c0.462-3.398,1.005-7.793-0.336-10.279
							c-0.927,1.545-2.531,3.521-4.368,3.257c-1.157-0.697-0.509-2.302,0.339-2.841c1.775-2.083,4.014-2.313,5.709-3.391
							c1.642-3.426,0.715-7.127-0.72-10.51c-1.295,0.588-2.268-0.943-2.469-2.009c-1.864-4.054,3.229-7.293,0.808-11.477
							c-1.219-3.039-4.275-3.721-5.152-6.972c0.527-1.049,1.327-2.041,2.5-2.069c3.997,1.037,2.822,6.31,7.852,5.974
							c1.296-0.585,0.773-2.159,0.742-3.334c-3.041-1.406-3.133-4.926-5.26-7.146c1.33,0.591,1.08-0.927,1.478-1.421
							c4.723,3.677,5.6,12.178,11.942,13.151c0.632-0.878,0.727-2.607,2.223-2.125c0.711,0.738,1.745,1.994,3.298,2.191
							c6.039-2.883,4.482-10.957,8.82-15.379c-2.07,5.365-0.331,12.601-0.315,17.123c0.094-4.348,4.631-7.712,6.235-9.69
							c-0.635,6.129-2.147,9.002-4.324,14.2c3.19,4.64,8.083,8.209,12.878,10.88c2.964-0.213,5.037-5.58,8.382-2.944
							c-0.407,3.113-5.233,1.895-6.914,4.874c0.058,2.341-2.829,4.177-1.933,6.709c0.62-0.15,2.083-0.848,1.945,0.435
							c-0.154,2.005-3.656,3.997-0.894,5.341c0.939,0.352,2.328,0.659,3.007,0.228c-0.183,0.837-0.771,2.164-1.017,3.274
							c4.195,2.1,2.931-4.01,6.063-4.334c-4.212,9.117-2.21,19.765-6.474,28.438C127.951,480.289,122.887,487.324,114.678,487.537z"
							/>
						<polygon opacity="0.3" fill="#FFFFFF" points="107.691,480.299 107.678,481.025 107.396,480.961 						"/>
						<path fill="#52BC78" d="M191.944,414.08c-2.298-2.115-3.024-4.755-1.4-7.451c1.838-2.362,4.987-3.411,7.376-3.027
							c2.609,0.727,1.098,3.599,2.344,5.188C200.339,413.035,195.045,415.208,191.944,414.08z"/>
						<polygon opacity="0.3" fill="#FFFFFF" points="104.885,470.637 105.193,471.87 105.208,471.146 						"/>
						<polygon opacity="0.3" fill="#FFFFFF" points="99.621,473.984 100.502,474.617 99.945,474.493 						"/>
						<polygon opacity="0.3" fill="#FFFFFF" points="99.004,468.891 98.604,469.385 98.112,468.988 						"/>
						<polygon opacity="0.3" fill="#FFFFFF" points="97.139,467.456 97.74,468.027 97.46,467.962 						"/>
						<polygon opacity="0.3" fill="#FFFFFF" points="92.68,467.192 93.609,468.273 93.113,467.872 						"/>
						<polygon opacity="0.3" fill="#FFFFFF" points="99.237,463.255 100.181,463.615 100.074,463.446 						"/>
						<path fill="#52BC78" d="M171.235,416.758c-2.96,2.84-7.342,4.199-11.064,5.843c-1.431-0.753-0.738-1.908-0.109-2.791
							c4.43-0.908,8.04-5.354,12.395-5.253C172.889,415.235,172.888,417.857,171.235,416.758z"/>
						<polygon opacity="0.3" fill="#FFFFFF" points="91.106,467.714 91.597,468.114 91.323,468.055 						"/>
						<path opacity="0.3" fill="#FFFFFF" d="M165.837,418.766c-0.743,0.704-0.219-0.344-0.772-0.462
							c1.758,1.26,0.633-0.882,2.144-1.13l-0.386,2.39C166.667,418.946,166.224,418.995,165.837,418.766z"/>
						<path opacity="0.3" fill="#FFFFFF" d="M168.365,417.866l-0.478-1.124c1.577-0.522-0.202,1.556,1.098,0.975
							C168.874,417.542,168.534,417.759,168.365,417.866z"/>
						<path opacity="0.3" fill="#FFFFFF" d="M162.951,420.602c-0.156-0.621-0.759-1.193-0.355-1.685
							C162.747,419.536,163.461,420.277,162.951,420.602z"/>
						<path opacity="0.3" fill="#FFFFFF" d="M126.542,439.458c0.017-0.725,0.293-0.663,0.448-0.046
							C126.821,439.52,126.713,439.349,126.542,439.458z"/>
						<path opacity="0.3" fill="#FFFFFF" d="M91.28,459.741c0.509-0.324,1.127-0.479,1.786-0.187
							C92.758,460.942,91.878,460.309,91.28,459.741z"/>
						
							<rect x="131.135" y="434.117" transform="matrix(0.8438 -0.5366 0.5366 0.8438 -212.7137 138.3527)" opacity="0.3" fill="#FFFFFF" width="0.4" height="1.007"/>
						<path opacity="0.3" fill="#FFFFFF" d="M124.338,432.992l-0.246-1.511l1.419,1.483
							C125.343,433.072,124.738,432.496,124.338,432.992z"/>
						<path fill="#52BC78" d="M335.383,277.087c-3.55-1.078-4.136-5.003-5.985-7.166c3.595-1.091,1.16-4.55,3.659-6.614
							c-0.386-5.484,0.235-10.876-1.772-16.288c1.963-0.284,1.639,4.454,4.799,5.301c3.934,1.312,5.694-2.668,7.75-4.685
							c1.406-3.044,1.436-7.117,4.692-7.993c-5.371,8.425,4.115,16.216,0.365,24.565c-2.057,4.643-1.936,11.955-8.368,12.71
							C338.915,278.894,337.222,277.35,335.383,277.087z"/>
						<path opacity="0.3" fill="#FFFFFF" d="M114.051,418.313c-0.774-0.464,0.663,0.297,0.772,0.467L114.051,418.313z"/>
						<path fill="#52BC78" d="M130.687,407.734c0.527-1.045-1.402-2.204-0.367-3.576
							C129.006,405.463,131.935,406.699,130.687,407.734z"/>
						<path opacity="0.3" fill="#FFFFFF" d="M117.464,415.433c-0.2-1.066,1.075-0.93,1.092-1.653
							C119.219,414.071,118.295,415.615,117.464,415.433z"/>
						<path fill="#52BC78" d="M131.723,406.365l0.247-1.115L131.723,406.365z"/>
						<path fill="#52BC78" d="M305.168,291.06c-8.008,1.274-15.231-0.33-22.837-2.169c-0.247-1.515-2.917-1.963-0.984-3.424
							c1.201-1.486,3.083-0.77,4.487-1.19c7.067,0.99,14.275,3.322,21.308,3.138c1.838,0.264,4.923-0.505,5.077,2.734
							C311.8,293.993,306.881,291.877,305.168,291.06z"/>
						<path fill="#52BC78" d="M132.434,404.479l-0.372-0.958L132.434,404.479z"/>
						<path fill="#52BC78" d="M130.985,401.828l0.138,1.34C131.354,402.782,130.858,402.379,130.985,401.828z"/>
						<path fill="#52BC78" d="M131.384,401.33l0.464-0.775c0.663,0.301,0.817,0.917,0.693,1.471
							C132.076,402.797,131.876,401.732,131.384,401.33z"/>
						<path fill="#52BC78" d="M216.428,324.36c-3.193-2.023-1.862-6.683-4.609-8.752c-0.83-2.805,0.91-6.06,2.088-8.714
							c3.562,0.352,2.484-6.591,6.663-3.767c0.65-1.605,3.428-3.604,1.453-5.213c-3.794,0.029-7.512-3.565-11.245-1.191
							c-0.943-0.357-0.077-1.62,0.276-2.561c-0.617-2.475-3.886-0.87-5.322-1.623l0.511-2.946l-2.609-0.727
							c0.138-1.28,1.745-3.256-0.074-4.243c-2.021-2.052-3.826,1.482-5.002-1.114c0.696-1.157,2.858-0.381,3.72-1.649
							c0.404-3.115-1.493-5.72-3.823-6.384c0.696-1.163,2.036-1.295,3.004-2.4c-0.12-2.064,0.607-4.67-1.77-5.784
							c0.325-2.112,2.239-0.229,3.039-1.216c-2.192-1.948,2.119-4.92-1.37-6.282c1.915-0.739,2.02,2.051,3.874,1.59
							c9.304-1.863,6.07-12.198,13.661-14.887c1.653,3.725,7.389,4.126,7.848,8.598c3.475,2.087,5.278-1.451,7.145-2.639
							c1.824,0.991,2.658,3.802,4.092,4.557c1.077-3.549,5.786-1.772,6.758-5.49c-4.432,6.155-2.922,16.4-8.202,23.095
							c0.186,1.789-1.663,4.878,1.156,5.941c3.102,1.127,5.833,1.3,8.535,0.298c3.069-0.049,1.883,3.335,4.842,3.113
							c-1.342,2.764-5.568-0.504-7.251,2.473c-2.501-0.56-5.31-2.349-8.181-1.243c-4.271,1.53-5.537,5.914-8.933,8.073
							c-1.424,3.762-3.339,7.126-3.477,11.03c4.982,1.839,3.831-6.723,9.135-7.004c1.626-0.072,2.931,1.234,2.457,2.734
							c-0.792,2.883-5.388,6.526-1.319,9.175c1.205,1.151,4.492,1.443,3.211,3.925c-0.299,5.909-4.338,9.677-9.974,12.062
							C223.31,326.184,219.93,324.989,216.428,324.36z"/>
						<path fill="#52BC78" d="M270.189,285.169c2.962-0.216,0.245,1.512,0.951,2.249
							C270.202,287.063,268.831,286.033,270.189,285.169z"/>
						<path fill="#52BC78" d="M186.327,317.514c-0.647-1.017-1.341-2.482-1.14-4.043c0.54-1.776,0.913-3.441,2.545-4.244
							c1.438,0.757,3.132,2.301,3.148,4.198c-0.199,1.559-0.11,2.453-1.08,3.552C188.717,317.901,187.485,318.21,186.327,317.514z"
							/>
						<path opacity="0.3" fill="#FFFFFF" d="M188.489,315.665c-0.404,0.492-1.004-0.08-0.879-0.634l0.108,0.171l0.631-0.88
							c-0.54,1.776,1.542,0.926,1.837,0.264C189.83,315.526,189.647,316.361,188.489,315.665z"/>
						<path fill="#52BC78" d="M89.174,376.197c-6.045-1.633-6.338-8.84-9.593-13.213c4.412-2.806,1.02-8.515,3.505-12.48
							c0.822,0.915,0.281,2.688,0.756,3.814l-1.388-0.312c0.987,0.8-0.036,1.451,0.957,2.258l-0.279-0.066
							c0.368,0.959-1.189,3.378,0.894,2.532c0.077,1.623-1.619,2.702-3.038,3.841c3.176,0.124-0.281,2.562,2.975,1.681
							c-0.202,1.561-1.712-0.814-1.698,1.08c0.091,3.521,3.209,6.545,6.064,8.783c0.075-1.001-1.634-1.817-0.666-2.918
							c1.113,2.875,3.89-1.757,5.109,1.286c1.158-1.929,0.619-2.777,0.943-4.893c-2.1-1.05-2.226,2.13-4.043,1.143
							c1.006-2.547-2.748-2.075-0.955-4.879c-0.561,2.495,0.786,2.362,1.636,4.445c0.046-2.178,2.652-1.451,2.513-2.795
							l-1.898,0.018c1.853-0.464-0.108-2.796-0.011-4.521l0.275,0.06c0.461-0.772-0.54-0.849-0.758-1.192l1.284,0.143
							c1.048-4.724-4.89-6.19-3.238-10.34c1.928,1.16,0.68,4.818,3.92,4.665c3.454,5.431,6.164,11.571,3.524,17.543
							C95.285,374.936,91.212,374.901,89.174,376.197z"/>
						
							<rect x="187.215" y="313.1" transform="matrix(0.8438 -0.5366 0.5366 0.8438 -139.0152 149.5475)" opacity="0.3" fill="#FFFFFF" width="0.403" height="1.006"/>
						<path opacity="0.3" fill="#FFFFFF" d="M91.6,372.512c-0.295,0.662,1.277,0.137,0.369,0.954L91.6,372.512z"/>
						<path fill="#52BC78" d="M88.732,371.001c-0.882-0.636,0.397-0.497,0.198-1.562c0.141,1.347,1.541,0.927,2.145,1.501
							C90.134,370.579,89.53,370.008,88.732,371.001z"/>
						<path fill="#52BC78" d="M90.597,369.815l-0.603-0.575L90.597,369.815z"/>
						<path opacity="0.3" fill="#FFFFFF" d="M94.41,366.432c0.307-1.388-1.285-0.143,0.355-0.94
							C94.362,365.984,95.302,366.338,94.41,366.432z"/>
						<path fill="#52BC78" d="M87.91,370.087c-0.107-0.168-0.323-0.508-0.262-0.789C88.033,369.528,88.529,369.933,87.91,370.087z"
							/>
						<path fill="#52BC78" d="M85.18,369.916c1.664,0.368,0.032-1.449,0.588-1.325c0.584,1.294,1.434,0.754,0.849,2.084
							C85.874,371.382,85.798,369.762,85.18,369.916z"/>
						
							<rect x="89.726" y="364.507" transform="matrix(0.8438 -0.5366 0.5366 0.8438 -182.0572 105.2705)" fill="#52BC78" width="0.203" height="1.81"/>
						<path opacity="0.3" fill="#FFFFFF" d="M91.695,362.912c0.447-0.045-0.019,0.722-0.08,1.004
							C91.677,363.634,92.077,363.144,91.695,362.912z"/>
						<path opacity="0.3" fill="#FFFFFF" d="M92.881,362.158c0.293-0.661,0.555,0.121,0.662,0.289
							C93.268,362.387,92.821,362.436,92.881,362.158z"/>
						<polygon fill="#52BC78" points="84.688,366.894 84.885,367.953 83.839,367.434 						"/>
						<polygon fill="#52BC78" points="56.013,384.415 56.212,385.477 55.703,385.801 						"/>
						<path fill="#52BC78" d="M89.331,363.698c0.08-1.002,0.356-0.941,1.128-0.474C89.904,363.098,89.67,363.482,89.331,363.698z"/>
						<path fill="#52BC78" d="M150.868,320.994c-2.929-3.858-1.373-8.905,0.885-12.488c3.394,0.467,6.122,3.26,8.082,5.593
							c0.462,1.848-0.541,4.393-1.577,5.766C155.711,321.485,153.212,323.55,150.868,320.994z"/>
						<path fill="#52BC78" d="M96.061,351.785c-4.025-4.829-0.734-9.779-0.181-14.902c1.068-0.202,2.782,0.616,3.152-1.047
							c2.109,2.943,5.337,3.518,9.346,3.827c1.7,1.548,2.762,3.965,1.929,6.405c-0.001,5.247-6.22,1.095-6.113,6.513
							C101.739,355.093,98.193,354.013,96.061,351.785z"/>
						<path fill="#52BC78" d="M87.174,360.306l-0.877-0.635L87.174,360.306z"/>
						<path fill="#52BC78" d="M83.116,362.169l-0.79,0.263L83.116,362.169z"/>
						<path opacity="0.3" fill="#FFFFFF" d="M103.734,348.105c-0.769-0.463-0.786,0.262-0.742,0.705
							c-1.4-2.201-1.45-7.899-3.825-6.388l0.865,1.361c-1.217-0.414-2.869,1.111-3.967,0.137l1.697-1.079l-0.246,1.11
							c1.049,0.526,1.14-1.204,1.867-1.187c-0.016-1.896-2.297-2.112-0.477-3.748c1.049,0.519,0.801,1.635,2.084,1.773
							c-0.635-1.743,0.292-0.66,1.264-1.757l-0.247,1.11c-0.105-0.164-0.273-0.057-0.384-0.23c-0.759,1.432,1.618,2.545,0.245,4.137
							c1.42-1.146,2.468,2.001,3.563,2.979c-1.139-1.42-2.071,0.118-1.819,1.634C103.502,348.486,103.565,348.213,103.734,348.105z"
							/>
						<path opacity="0.3" fill="#FFFFFF" d="M106.606,344.37c0.122-0.556,1.017-0.647,1.034-1.374
							C108.935,342.41,106.606,344.37,106.606,344.37z"/>
						<polygon fill="#52BC78" points="89.861,354.783 89.165,355.935 89.07,355.042 						"/>
						<polygon fill="#52BC78" points="51.893,378.685 52.493,379.257 52.11,379.026 						"/>
						<path opacity="0.3" fill="#52BC78" d="M101.561,345.434c0.338-0.215,0.955-0.37,1.465-0.694l-0.34,0.216l1.097,0.974
							C102.763,346.578,101.85,344.769,101.561,345.434z"/>
						<path opacity="0.3" fill="#FFFFFF" d="M105.091,344.617l-1.417-1.483L105.091,344.617z"/>
						<path opacity="0.3" fill="#FFFFFF" d="M99.862,346.514c1.11,0.246,0.338-0.215,0.816,0.909L99.862,346.514z"/>
						<path opacity="0.3" fill="#FFFFFF" d="M154.528,311.75c0.34-0.216,0.231-0.388,0.4-0.496l0.651,1.023
							C155.192,312.044,154.742,312.088,154.528,311.75z"/>
						<path opacity="0.3" fill="#FFFFFF" d="M99.384,348.013l-0.03-1.176L99.384,348.013z"/>
						<path opacity="0.3" fill="#FFFFFF" d="M105.466,342.95c0.508-0.323,0.398-0.495-0.153-0.614
							c0.614-0.159,0.707,0.737,0.985,0.801L105.466,342.95z"/>
						<polygon opacity="0.3" fill="#FFFFFF" points="97.5,347.304 98.275,347.761 97.93,347.98 						"/>
						<polygon fill="#52BC78" points="128.29,327.48 128.385,328.375 127.935,328.42 						"/>
						<polygon opacity="0.3" fill="#FFFFFF" points="98.642,346.099 98.859,346.44 98.012,346.979 						"/>
						<polygon fill="#52BC78" points="125.499,327.587 126.082,328.884 125.931,328.266 						"/>
						<path fill="#52BC78" d="M86.204,353.53l0.541-1.772C86.62,352.312,87.59,353.837,86.204,353.53z"/>
						<path fill="#52BC78" d="M42.36,367.817l0.633-0.877C43.254,367.73,42.87,367.493,42.36,367.817z"/>
						<path fill="#52BC78" d="M217.417,229.558c-2.652-1.174-3.195-4.647-3.701-6.948c1.483-4.042,2.595-9.041,7.455-9.272
							c1.62-0.076,3.288,0.295,4.999,1.114c0.786,2.361,4.471,4.785,3.115,8.268C228.064,227.554,222.817,232.798,217.417,229.558z"
							/>
						<path fill="#52BC78" d="M126.806,285.033c-2.809-1.797-1.789-5.066-1.915-7.137c0.837-2.431,2.624-5.245,5.423-5.347
							c1.464-0.691,2.726,0.165,3.994,1.035c1.53,1.652,2.743,4.689,1.74,7.235C135.4,285.05,129.983,287.777,126.806,285.033z"/>
					</g>
				</g>
			</g>
		</g>
	</g>
</g>
</svg>
