<?xml version="1.0" encoding="utf-8"?>
<!-- Generator: Adobe Illustrator 17.0.2, SVG Export Plug-In . SVG Version: 6.00 Build 0)  -->
<!DOCTYPE svg PUBLIC "-//W3C//DTD SVG 1.1//EN" "http://www.w3.org/Graphics/SVG/1.1/DTD/svg11.dtd">
<svg version="1.1" id="Layer_1" xmlns="http://www.w3.org/2000/svg" xmlns:xlink="http://www.w3.org/1999/xlink" x="0px" y="0px"
	 width="3728px" height="2552px" viewBox="0 0 3728 2552" enable-background="new 0 0 3728 2552" xml:space="preserve">
<g>
	<g>
		<path fill="none" stroke="#F2F2D4" stroke-miterlimit="10" d="M642.286,1023.857"/>
	</g>
</g>
<g>
	<g>
		<g>
			<g>
				<g>
					<path fill="#3F3B3C" d="M313.292,1239.713c-0.037,1.626,0.382,1.042,0.457,1.287
						C313.656,1238.28,313.183,1239.782,313.292,1239.713z"/>
					<polygon fill="#3F3B3C" points="312.341,1212.88 312.511,1213.355 312.092,1209.4 					"/>
					<path fill="#3F3B3C" d="M312.348,1187.788c-0.714,2.372,0.115,9.092-0.139,13.563l-0.163,0.737l0.574,2.017
						C312.53,1198.671,312.149,1191.614,312.348,1187.788z"/>
					<path fill="#3F3B3C" d="M313.892,1174.409c-0.278,0.826-0.239-2.894-0.087,3.12c0.03-0.302,0.048-0.389,0.07-0.565
						C313.872,1176.422,313.872,1175.677,313.892,1174.409z"/>
					<path fill="#3F3B3C" d="M313.876,1176.963C313.896,1179.606,314.109,1175.234,313.876,1176.963L313.876,1176.963z"/>
					<path fill="#3F3B3C" d="M313.717,1164.76l0.248,3.481c0.164-0.727,0.201-3.825,0.32-2.674
						C314.149,1161.996,313.986,1162.73,313.717,1164.76z"/>
					<path fill="#3F3B3C" d="M313.196,1161.46l0.105,1.804C313.369,1162.948,313.393,1162.47,313.196,1161.46z"/>
					<path fill="#3F3B3C" d="M313.522,1167.089l-0.222-3.825c-0.115,0.504-0.347,0.557,0.08,1.756
						C313.169,1164.707,313.372,1165.463,313.522,1167.089z"/>
					<path fill="#3F3B3C" d="M313.413,1169.255c-0.155,1.953-0.253,4.475-0.5,0.981
						C313.011,1176.895,313.513,1175.914,313.413,1169.255z"/>
					<path fill="#3F3B3C" d="M311.61,1186.507l-0.209,2.61l0.239,2.258C311.522,1190.247,311.834,1186.345,311.61,1186.507z"/>
					<path fill="#3F3B3C" d="M314.086,1143.077c-0.152-0.217-0.405,1.17-0.599,1.43l0.174,2.571
						C313.765,1145.756,313.861,1143.252,314.086,1143.077z"/>
					<path fill="#3F3B3C" d="M313.487,1144.507l-0.261-3.847C313.196,1144.096,313.32,1144.724,313.487,1144.507z"/>
					<polygon fill="#3F3B3C" points="312.403,1160.839 312.951,1167.158 312.396,1159.621 					"/>
					<polygon fill="#3F3B3C" points="314.105,1128.385 314.457,1130.566 313.926,1126.681 					"/>
					<path fill="#3F3B3C" d="M314.044,1118.64c0.291,1.614,0.493-2.213,0.672-0.506c-0.052-2.647-0.302-4.907-0.527-6.943
						C314.314,1113.353,314.282,1115.658,314.044,1118.64z"/>
					<path fill="#3F3B3C" d="M313.861,1107.773c0.07,1.08,0.195,2.199,0.328,3.417
						C314.121,1110.042,314.025,1108.912,313.861,1107.773z"/>
					<path fill="#3F3B3C" d="M313.301,1134.107c0.092-0.298,0.332-0.87,0.434-3.027l-0.427,1.513
						C313.305,1133.054,313.303,1133.577,313.301,1134.107z"/>
					<path fill="#3F3B3C" d="M313.294,1132.646l0.014-0.053c0.009-1.642,0.019-2.781,0.024-3.269
						C313.328,1129.743,313.317,1130.743,313.294,1132.646z"/>
					<path fill="#3F3B3C" d="M313.3,1134.489c0.001-0.14,0.002-0.243,0.002-0.381C313.259,1134.253,313.245,1134.341,313.3,1134.489
						z"/>
					<path fill="#3F3B3C" d="M312.79,1150.755c-0.239-2.26-0.495-6.972-0.859-2.412
						C312.223,1149.964,312.43,1147.354,312.79,1150.755z"/>
					<path fill="#3F3B3C" d="M312.765,1136.367l-0.098,4.086c0.113-0.08,0.277-0.817,0.396,0.302L312.765,1136.367z"/>
					<polygon fill="#3F3B3C" points="312.63,1134.367 312.765,1136.367 312.801,1134.853 					"/>
					<path fill="#3F3B3C" d="M313.461,1114.772c-0.186-1.765-0.202-3.696-0.231-5.877c-0.084,2.338-0.129,4.754-0.128,7.049
						C313.236,1116.268,313.476,1117.277,313.461,1114.772z"/>
					<path fill="#3F3B3C" d="M313.342,1123.458c-0.01-0.122-0.015-0.278-0.024-0.392
						C313.282,1123.307,313.27,1123.5,313.342,1123.458z"/>
					<path fill="#3F3B3C" d="M313.233,1087.425c-0.023,0.12-0.053,0.223-0.078,0.344c0.025,0.027,0.049,0.046,0.074,0.08
						L313.233,1087.425z"/>
					<path fill="#3F3B3C" d="M313.022,1116.337c-0.082,1.757,0.022,2.807,0.154,3.808c-0.043-1.314-0.071-2.706-0.074-4.2
						C313.041,1115.799,313.001,1115.772,313.022,1116.337z"/>
					<path fill="#3F3B3C" d="M313.661,1101.783c-0.089,0.915-0.165,1.953-0.235,3.043
						C313.562,1103.931,313.773,1102.107,313.661,1101.783z"/>
					<path fill="#3F3B3C" d="M313.436,1122.473c0.007,0.088,0.015,0.167,0.019,0.263
						C313.547,1122.16,313.502,1122.232,313.436,1122.473z"/>
					<path fill="#3F3B3C" d="M313.436,1122.473c-0.061-0.904-0.167-1.615-0.261-2.329c0.034,1.069,0.079,2.061,0.143,2.921
						C313.348,1122.848,313.394,1122.63,313.436,1122.473z"/>
					<path fill="#3F3B3C" d="M310.489,1080.92c0.396,0.31,0.762,4.929,0.337,8.916c0.297,3.924,1.6,1.358,2.328-2.067
						c-0.173-0.122-0.332-0.122-0.566-4.16c-0.216,1.414-0.506,8.96-0.864,5.553c-0.204-5.349,0.14-4.382,0.35-6.983
						c-0.494,2.21-0.718-6.805-1.444-5.64l0.255,4.69C310.773,1081.318,310.592,1079.617,310.489,1080.92z"/>
					<path fill="#3F3B3C" d="M313.114,1095.463l0.049,1.662c0.069-1.894,0.227-3.25,0.537-5.746
						c-0.193-2.765-0.34-3.338-0.472-3.528l-0.055,8.182L313.114,1095.463z"/>
					<path fill="#3F3B3C" d="M313.165,1104.584c-0.431-1.297-0.614-5.288-1.081-2.844c0.03,4.876,0.36,3.417,0.547,6.33
						c-0.107-7.869,0.24,2.26,0.484-3.425c0.073,1.546,0.096,2.937,0.114,4.25c0.052-1.417,0.117-2.783,0.197-4.07
						c-0.01,0.072-0.017,0.122-0.027,0.18l0.001,0.037c-0.003,0-0.004-0.008-0.007-0.008c-0.054,0.339-0.086,0.451-0.055,0.068
						c-0.005-0.026-0.007-0.122-0.009-0.164c-0.06-0.053-0.112-0.199-0.163-0.355c0.089-2.279,0.112-0.359,0.163,0.355
						c0.021,0.026,0.042,0.088,0.064,0.096c0.002-0.008,0.004-0.018,0.005-0.029l-0.236-7.882
						C313.104,1098.792,313.116,1100.881,313.165,1104.584z"/>
					<path fill="#3F3B3C" d="M311.004,1144.138c0.038-0.245,0.069-0.234,0.1-0.252
						C311.051,1143.377,311.015,1143.183,311.004,1144.138z"/>
					<path fill="#3F3B3C" d="M311.264,1140.896c0.06,0.574,0.232,1.051,0.188,2.913c-0.129,1.616-0.207-0.008-0.348,0.077
						c0.114,1.122,0.309,3.929,0.519,0.409l-0.059-0.557c0.148-3.173,0.686-7.25,0.745-6.696
						C311.921,1137.967,311.644,1138.784,311.264,1140.896z"/>
					<path fill="#3F3B3C" d="M312.105,1122.514l-0.211-6.564l-0.373,3.343l0.224-0.17
						C311.656,1122.856,311.932,1122.049,312.105,1122.514z"/>
					<polygon fill="#3F3B3C" points="313.447,1086.674 313.902,1087.544 313.259,1083.753 					"/>
					<polygon fill="#3F3B3C" points="313.392,1078.145 313.788,1078.46 313.55,1076.208 					"/>
					<path fill="#3F3B3C" d="M308.482,596.819l-0.112-1.929C308.405,595.803,308.442,596.39,308.482,596.819z"/>
					<path fill="#3F3B3C" d="M308.455,610.782l0.195,0.342C308.543,610.477,308.464,610.212,308.455,610.782z"/>
					<path fill="#3F3B3C" d="M313.348,868.662c0.37-2.809,0.943-5.947,0.498-5.608l-0.434,0.863
						C313.489,865.879,313.441,867.384,313.348,868.662z"/>
					<path fill="#3F3B3C" d="M310.758,725.196c-0.042,0.267-0.087,0.545-0.132,0.822c0.148,0.682,0.286,1.325,0.415,1.897
						C310.952,727.098,310.857,726.17,310.758,725.196z"/>
					<path fill="#3F3B3C" d="M308.962,723.214l0.28-3.703C309.144,720.343,309.051,721.534,308.962,723.214z"/>
					<path fill="#3F3B3C" d="M308.022,520.562l-0.442-2.251C307.583,521.832,307.805,520.282,308.022,520.562z"/>
					<path fill="#3F3B3C" d="M313.233,990.786c0.169-2.424,0.241-4.353,0.262-6.048
						C313.245,987.658,312.872,990.014,313.233,990.786z"/>
					<path fill="#3F3B3C" d="M313.086,602.313c-0.079-1.18-0.167-1.684-0.264-1.65C312.897,601.879,312.98,602.565,313.086,602.313z
						"/>
					<path fill="#3F3B3C" d="M313.493,977.736c-0.043,0.427-0.065,0.847-0.102,1.281c0.073,1.772,0.131,3.556,0.104,5.72
						C313.68,982.58,313.794,980.11,313.493,977.736z"/>
					<path fill="#3F3B3C" d="M308.382,243.998c0.02-0.201,0.029-0.443,0.052-0.626C308.375,243.311,308.372,243.589,308.382,243.998
						z"/>
					<path fill="#3F3B3C" d="M312.759,163.427c0.027,0.793,0.027,2.087,0.033,3.308C312.822,166.14,312.82,165.142,312.759,163.427z
						"/>
					<path fill="#3F3B3C" d="M313.582,1043.825C313.61,1045.635,313.63,1044.112,313.582,1043.825L313.582,1043.825z"/>
					<path fill="#3F3B3C" d="M311.866,1052.623c-0.049-0.385-0.111-0.677-0.211-0.723
						C311.759,1052.049,311.826,1052.301,311.866,1052.623z"/>
					<path fill="#3F3B3C" d="M310.793,959.717c0-0.053,0.001-0.096,0.001-0.156C310.709,960.098,310.725,960.006,310.793,959.717z"
						/>
					<path fill="#3F3B3C" d="M313.384,1046.547c0.053-0.679,0.098-1.462,0.129-2.313
						C313.48,1044.608,313.438,1045.311,313.384,1046.547z"/>
					<path fill="#3F3B3C" d="M313.59,1046.181c-0.02,0.624-0.03,1.114-0.042,1.581C313.62,1047.99,313.665,1047.788,313.59,1046.181
						z"/>
					<path fill="#3F3B3C" d="M313.558,1041.305c0.007,1.035-0.014,2-0.045,2.929c0.029-0.355,0.054-0.504,0.068-0.409
						C313.575,1043.295,313.566,1042.546,313.558,1041.305z"/>
					<path fill="#3F3B3C" d="M309.543,392.182c0.014-0.12,0.023-0.258,0.041-0.388C309.404,389.97,309.432,390.771,309.543,392.182z
						"/>
					<path fill="#3F3B3C" d="M308.842,821.58c0.004,0.085,0.016,0.129,0.021,0.206c0.004-0.085,0.01-0.191,0.015-0.267
						L308.842,821.58z"/>
					<path fill="#3F3B3C" d="M308.519,815.083c0.54,2.767,0.474,4.34,0.359,6.436l1.251-2.149L308.519,815.083z"/>
					<path fill="#3F3B3C" d="M308.357,563.386l-0.39,4.563c-0.642-5.507-0.42-9.492-0.969-5.208
						c1.358,0.646,0.139,17.736,1.496,18.37l-0.286,3.008c0.013-0.862-0.067-1-0.053-1.852c-0.65,5.85,0.982,4.346,0.789,11.883
						c-0.104,2.627-0.301,4.46-0.462,2.669l0.336,5.853c-0.026,1.703-0.262,1.287-0.236-0.409l0.108,8.927l-0.04-0.066
						c0.213,1.274,0.542,4.16,0.683,5.569c-0.195,2.268-0.144-1.138-0.313-0.557l0.329,4.943c-0.352,2.014-0.693-2.083-0.643-5.497
						c-1.356,4.616,0.342,4.101-0.45,14.064l-0.172-4.667c-0.77,3.009-0.491,6.651-0.972,11.928c0.251-1.252,1.21-10.565,1.549-5.2
						c-0.103,1.512-0.151,3.505,0.122,6.398c-0.483,0.027-0.364,2.852-0.337,6.389l-0.64-0.241c0.185,3.823,0.51,3.521,0.798,5.77
						c-0.063,4.261-0.559,5.144-0.976,6.147c-0.102,6.823,0.794-4.712,0.915,3.364c-0.245,5.675,0.017,9.659,0.4,16.448
						c-0.22,3.972-0.391-0.694-0.574,0.73l0.51,3.521c-0.012,0.862-0.169,0.584-0.248,0.442c0.198,2.967,0.639,0.244,0.813,4.908
						c0.705,1.257-1.03,9.575-0.23,15.347c-0.182,1.422-0.392-0.687-0.64-0.252c0.525,7.92,0.381,6.789,1.088,13.292l-0.42,5.54
						c0.48-4.071,1.049,1.13,1.516,5.685c0.232-1.444,0.435-2.678,0.532-3.506l0.343,7.27c-0.105,0.878-0.325,0.146-0.592-1.045
						c0.053,0.496,0.105,0.966,0.153,1.332c-0.236,2.599-0.605,1.252-0.963-0.611c0.126-0.886,0.261-1.765,0.395-2.619
						c-0.389-1.795-0.819-3.475-1.193-3.101c0.074,0.473,0.137,1.382,0.173,2.383c-0.105-0.469-0.2-0.769-0.264-0.552
						c-0.067,0.247,0.074,1.005,0.237,2.194l-0.713,1.653l0.283,0.401l-0.446,9.511c0.718,6.805,1.774,12.724,2.069,23.524
						c-0.523-2.68-0.854-0.576-1.474-0.722c0.656-2.947-0.279-8.365-0.145-13.963c-0.069,2.921-0.364,2.279-0.467,1.535l0.597,9.983
						c-0.507-0.225-0.38,2.12-0.589,4.728c1.001-1.971,0.667,7.442,0.974,11.504c-0.337,0.252-0.68-0.722-0.599-5.678
						c-0.754,5.468,1.176,7.066,0.536,12.433c-0.008-1.211,0.043-1.863-0.127-2.341c0.299,2.826,0.062,9.737-0.231,8.111
						l-0.007-1.207c-0.119,8.034-0.007,24.456,0.843,25.654c-0.11,0.08-1.025-1.053-1.197-1.539l2.862,14.334
						c-0.73-1.263-2.47,3.585-2.883-3.077c-0.104,1.913-0.225,4.279,0.032,8.312c0.104-1.305,1.056-3.252,1.123-1.469
						c-0.814,4.894-0.435,3.398-1.128,9.431c0.157-1.956,1.302,0.217,1.266,3.308c-0.171-0.482-1.131,0.258-1.25-0.873l1.125,7.694
						c-0.203-1.92-0.953-0.339-1.271,1.382c0.22-0.799-0.02,6.651,0.091,8.702l0.261-3.261c-0.17,8.687,1.581,8.58,1.522,17.198
						c-0.233-1.043-1.43-2.577-1.571,1.806c0.576,2.008,2.77,8.893,3.214,16.517l-0.329,1.463l0.375,5.85
						c-0.867-3.643-2.69-13.865-3.4-19.447c-0.261,3.25-0.388,0.905-0.358,5.774c-0.309,1.719-0.468-2.654-0.486-4.086
						l-0.199,11.334c0.673-0.504,0.674,8.667,1.234,8.235l-0.697-12.31c0.671-0.499,1.908,7.118,1.789,15.148
						c-0.267,2.043-1.197-1.528-1.421-1.36c0.232,1.042,0.442,7.622,0.278,8.36l-0.359-3.407c-0.253,4.471,0.891,7.296,0.249,12.668
						c-0.043,1.854-0.866,5.537-0.468,5.857c0.767-3.024,3.14-3.615,3.716-1.6c-0.052,0.65-0.733,9.737-1.112,11.853
						c-0.602,3.054-1.434-4.583-1.95-1.984c0.184,0.112,0.41,1.798,0.483,2.502c-0.157,1.947-0.569-0.806-0.486,3.425
						c0.682,0.706-0.058,8.606,0.576,2.001c0.195,4.139-0.14,4.399-0.11,9.26c0.44-1.547,1.499,4.364,1.693,8.511
						c-0.173-0.245-0.399,0.687-0.502,1.138c-0.061,8.485-0.371,13.039-0.377,20.951c-0.165,0.729-0.365,4.547-0.658,2.921
						c0.121,1.138,0.352,2.183,0.368,4.624c-0.589,4.723-0.092-5.441-0.8-1.841c0.396,0.307,0.546,6.311,0.794,9.786
						c0.612-1.069,0.117-8.031-0.13-11.511c0.844-0.016,1.728,6.043,2.118,14.313c0.21,6.572-0.545,2.849-0.425,3.99
						c-0.147,12.345,1.474,10.517,0.865,20.767c-0.538,4.067-1.07,0.184-1.458,1.086c-0.204-5.354,0.341-8.22,0.32-11.848
						l-0.254,4.467c-0.179-1.703-0.314-5.277-0.159-7.224c-0.483,3.409-0.093,20.855-0.539,30.38
						c0.18,1.692,0.367,4.613,0.583,3.231l-0.075-3.013c0.434-2.77,0.6,5.671,0.802,1.857c0.305,4.042,0.784,8.574,0.539,14.265
						l-0.613,1.069c0.179-0.122,0.365-3.72,0.179-5.319c0.272,2.372-0.83,8.726-0.027,11.325l0.425-3.989
						c0.308,4.059,0.959,9.076,0.766,14.119c0.605-2.295-0.069-1.163,0.639-4.747c-0.881,3.107,0.037-12.902-0.889-7.911
						c0.822-3.677,0.349-6.365,1.05-11.172c-0.202,0.149-0.387,1.703-0.287-2.531c-0.059-0.191-0.134-0.642-0.178-0.929
						c0.005-0.129,0.009-0.175,0.015-0.286c-0.008,0.085-0.017,0.148-0.024,0.234c-0.03-0.184-0.037-0.2-0.008,0.087
						c-0.088,1.008-0.195,1.826-0.308,2.157c-0.464-2.102-0.45-8.835-0.69-11.111c0.096-2.512,0.232,1.051,0.448-0.321l-0.359-3.401
						c0.449-0.337,0.746-6.674,1.009-0.756l0.02-5.327c0.252-3.136,0.352-7.45,0.163-10.11c0.097-2.512-0.497-6.346-0.146-4.158
						l-0.278-8.354l0.112-0.077c0.057-8.242-0.744-16.968,0.067-26.392c-0.113-2.775-0.252-5.643-0.124-10.285l0.389-0.905
						c-0.136-3.562,0.389-10.699-0.016-12.231c1.045-3.844,0.228-17.292,0.414-23.558l-0.507-0.237
						c0.029-4.313-0.115-8.449-0.319-13.803l-0.448,0.329c-0.368-4.616,0.319-11.868,0.273-19.169
						c0.171,0.497,0.126,2.348,0.023,3.659c1.013-8.723-0.737-18.404,0.001-26.315c-0.163-1.971-0.108-3.399,0.005-4.781
						c0.001,0.184,0.009,0.348,0.023,0.489c0.005-0.202,0.006-0.502,0.005-0.81c0.077-0.87,0.167-1.767,0.239-2.738
						c-0.109,0.826-0.199,1.616-0.24,2.304c-0.009-1.52-0.065-3.826-0.177-6.086l0.482-0.963c-0.006-0.184-0.005-0.331-0.014-0.523
						c0.178-2.218-0.228-1.783-0.59-0.6c-0.079-1.138-0.174-2.181-0.29-2.989c0.777-1.802-0.262-5.93,0.567-8.389
						c-0.404-1.523-0.304-11.363-1.155-12.567c0.111-0.077,0.164-0.743,0.17,0.477c0.097-2.52,0.194-5.038-0.046-7.298l0.612-1.069
						l-0.823-5.502c0.373-3.343,0.59-4.728,1.061-1.409c-0.725-8.014-0.273-6.503-0.991-13.318l0.396,0.333
						c-0.015-2.436-0.545-6.331-0.218-7.8c0.752-5.45,0.104-26.966,0.803-40.955c-1.166,2.713,0.522-6.503-0.381-7.057
						c0.275-0.815,0.431-2.765,0.671-0.499c-0.271-7.139,0.437-10.727-0.325-15.656c0.277-0.817,0.404,1.528,0.568,0.801
						c-0.06-0.573-0.24-2.268-0.075-3.011c0.164-0.727,0.232,1.045,0.352,2.176c-0.046-7.293-0.896-8.031-1.693-8.561
						c0.378-3.696,0.324-5.54-0.199-8.209c0.261-1.287,0.534-3.433,0.627,1.099c0.038-2.549,0.382-15.573-0.257-15.833
						c0.162-0.799,0.047-3.563-0.026-4.235c0.038-5.72,0.096-6.223,0.035-11.84l-0.104,1.557c-0.771-2.218-0.172-4.669-0.265-9.198
						l0.079,0.129c0.556-10.383-0.267-4.482,0.368-14.727l-0.48,0.557c-1.032-0.955,0.608-9.076,0.214-15.021l-0.274,2.146
						c-0.353-3.247,1.403-9.076,1.532-12.337c0.09-0.711,0.144,1.123,0.21,2.115c0.608-8.537-0.628-1.106-0.774-7.468
						c0.339-1.174,0.862,1.512,0.925-2.77c0.274-2.133-1.1-12.42-0.45-18.262c-0.261,1.288-0.522,2.566-0.718-0.389
						c-0.093-4.529,0.987-12.245,0.164-16.335c0.071-0.576,0.14-0.793,0.205-0.817c-0.212-3.462-0.353-11.251-0.799-13.337
						c1.657-3.199-0.806-21.524,0.722-21.447l-0.082-10.649l0.156,0.278c0.101-6.807-0.265-9.214-0.632-11.607
						c0.104-1.573,0.246-0.425,0.327-0.294c0.308-9.946,0.243-10.935-0.518-19.274l0.496-0.867
						c-0.288-2.26,0.777-14.38,0.199-24.135c0.056,0.096,0.152,0.298,0.222,1.073c-0.582-10.975,1.375-26.276-0.43-30.297
						l-0.445-7.243c-0.14,9.37-0.783-1.395-1.083,2.459c-0.106-3.685,0.545-9.527,0.637-4.999l-0.09,0.709
						c0.941,1.664,0.333-11.644,0.974-11.392c-0.046-18.439,0.475-36.41,0.515-53.682l-0.732,1.99l0.042-6.025
						c0.17-1.581,0.572-2.122,0.542,2.176c0.415-2.26-0.347-7.208-0.506-7.331c0.296-8.415,0.853,3.287,0.871,0.706l-0.055-3.505
						l-0.086,0.79c-0.299-2.841-0.616-3.093-0.579-8.259c0.146-3.269,0.451-1.677,0.479-2.963c0.052,0.008,0.076-0.427,0.021-1.973
						l0.062-7.59l-0.578,3.035c-0.285-3.364,0.03-7.137-0.624-3.635c1.009-5.141,0.362-28.313,0.675-31.47
						c-0.421-4.712-0.414-9.363-0.363-15.124c-0.12,1.432-0.77,2.29-0.69-2.68c1.34,1.817,0.582-9.1,1.546-13.116
						c-0.639,3.589-0.158-14.128-1.065-8.496c0.108-4.147,0.501-0.252,0.817-3.398c-0.519-9.869,0.337-21.75,0.162-33.949
						c-0.176-0.19-0.445,1.853-0.707-0.764l0.879-6.441c-0.086-2.409-1.015-2.218-0.405-6.62c-0.148,0.622-0.371,1.55-0.427-0.066
						c0.857-23.898-0.702-48.834,0.908-73.104c-0.341,3.287-0.375,1.096-0.387-1.414c-0.081,1.632-0.434-0.037-0.673,0.284
						l0.662-10.16c-0.662-1.852-0.045-10.894-0.677-11.954l0.114,3.218c-0.747-4.279-1.659,5.988-2.617,5.362
						c0.849,4.791-1.257,12.634-0.042,20.495c-0.195,1.735-0.309-1.48-0.531-0.552c0.411,1.993,0.496,4.399,0.312,8.859
						l-0.102-0.504c0.1,12.528-0.305,17.9-0.574,31.974l0.474-1.042c-0.063,3.024-0.212,3.661-0.331,5.077
						c0.718,3.471,0.04-8.495,0.833-5.332c-0.964,4.012-0.015,21.328-1.11,24.039c-0.006,4.653,0.548-1.364,0.542,3.287
						l-0.296,1.233l0.382,1.176c-0.063,3.05-0.434,4.589-0.685,4.703c0.03-0.74-0.07-2.104-0.092-2.897
						c-0.349,3.956,0.119,11.154,0.005,12.512l0.183-4.471c0.277,12.698-0.112,28.201,0.491,40.469l0.224-0.931
						c0.414,9.368-0.246,7.503-0.054,17.789l-0.053-0.374c0.223,2.058,0.335,4.807,0.31,7.622c-0.262-2.597-0.509,4.887-0.798,1.48
						c0.444,10.158,0.349,5.025,1.179,11.734l-0.371,1.547c0.335,2.286,0.512,2.478,0.608,7.614
						c-0.318-4.213-0.565,3.279-0.986-1.441c-0.811,10.779,0.819,16.006-0.367,20.951c1.026,4.95,0.57-9.328,0.79-6.556
						c0.335-2.321,0.767,4.086,0.664,7.469c-0.023,3.444-1.313,5.855-1.293,14.517c0.005-0.862-0.073-0.92-0.068-1.78
						c-0.262,3.242,0.354,6.352-0.071,10.328c0.621,2.229-0.036,5.163,0.756,5.805l-0.183-7.946
						c0.207,4.504,1.133,8.728,0.684,16.149c-0.16-0.578-0.37-2.786-0.487-4.303c-0.233,2.17,0.155,4.178-0.085,6.428
						c-0.792-0.641-0.172-9.656-0.776-14.482c-0.335,2.329,0.574,9.129-0.284,6.704c1.091,3.486-0.138,8.535,0.695,14.401
						l-0.475-0.387c0.075,0.928,0.299,2.851,0.287,4.56l-0.615-3.093c0.525,4.749-0.459,9.155-0.173,13.711
						c-0.015-9.538,0.572-2.141,0.918-6.173c0.635,11.763-1.241,6.765-1.014,19.935c-0.067-1.783,0.285-6.694,0.505-3.906
						c-0.098,2.507-0.28,5.818-0.529,7.357c0.099,8.726,0.488-1.34,0.78,2.374c-0.578,2.971,0.235,4.285,0.421,8.11l-0.482,0.027
						c-0.31,9.943,1.005,2.636,0.631,11.588l-0.669-3.784l0.173,4.667l-0.549-0.963c0.407,5.077,0.302,6.658,0.148,11.633
						c0.34-1.156,0.875,0.65,0.891,5.054c-0.287,3.004-0.458-1.682-0.39,4.561c-0.302-1.409-0.681-2.954-0.236-5.67
						c-0.157-0.278-0.303-1.39-0.458-1.677c-0.329,3.235-0.075,8.129-0.071,10.39c0.018-0.87,0.044-1.91,0.113-2.444l0.668,9.05
						c-0.181,1.425-0.327,0.294-0.469-0.825c0.052,1.833,0.274,3.101,0.315,5.796c-0.392-0.698-0.797-0.53-0.982-4.346l0.435,8.623
						c-0.17,0.576-0.468,4.425-0.613,3.306c-0.23,4.78,0.761,11.726,0.457,18.064c0.076,0.329,0.149,0.99,0.205,2.337
						c-0.089,5.956-0.57,11.233-0.032,18.293l-0.703,4.005c0.16,5.529,0.886-5.423,1.151,3.784c0.224,6.518-0.6,2.433-0.796,4.719
						c0.355,3.242,1.076,8.877,0.504,14.865C308.305,566.792,308.409,565.238,308.357,563.386z M308.669,631.576
						c-0.101-1.321-0.414-3.956-0.129-4.922C309.092,628.16,308.828,629.324,308.669,631.576z M309.83,735.235
						c-0.16-0.982-0.08-2.502,0.102-4.216C309.972,732.263,309.954,733.672,309.83,735.235z M313.189,1023.997
						c-0.008-0.057-0.014-0.096-0.023-0.141C313.354,1020.908,313.28,1021.954,313.189,1023.997z M312.98,1030.117
						c0.067,0.615,0.134,0.573,0.202,0.313c-0.122-0.427-0.13-1.802-0.096-3.367C312.959,1027.498,312.872,1028.289,312.98,1030.117
						z M312.79,372.86l-0.126,1.191C312.525,371.361,312.65,372.115,312.79,372.86z"/>
					<path fill="#3F3B3C" d="M309.17,723.482c0.082-0.374,0.171-0.477,0.262-0.565C309.351,722.397,309.258,722.386,309.17,723.482z
						"/>
					<path fill="#3F3B3C" d="M308.104,520.978c0.004-0.07,0.002-0.138,0.005-0.208c-0.029-0.114-0.058-0.175-0.087-0.209
						L308.104,520.978z"/>
					<path fill="#3F3B3C" d="M308.889,935.311c0.069-1.259,0.158-1.963,0.249-2.43C309.02,932.813,308.921,933.386,308.889,935.311z
						"/>
					<path fill="#3F3B3C" d="M313.8,1062.55l-0.125-3.921c0.024,1.896-0.082,2.573-0.158,3.531
						C313.629,1062.073,313.792,1061.324,313.8,1062.55z"/>
					<path fill="#3F3B3C" d="M310.814,1096.578c0.059,0.573,0.006,1.215,0.066,1.78l0.224-0.156
						C311.09,1095.761,310.909,1094.055,310.814,1096.578z"/>
					<path fill="#3F3B3C" d="M312.197,1066.179c-0.406,0.311-0.268,2.77-0.193,5.516c-0.001-0.165-0.005-0.322,0-0.486
						C312.572,1072.019,312.384,1069.093,312.197,1066.179z"/>
					<path fill="#3F3B3C" d="M312.017,1072.332c0.019,0.846,0.03,1.71,0.01,2.538
						C312.255,1075.192,312.075,1073.841,312.017,1072.332z"/>
					<path fill="#3F3B3C" d="M313.249,1037.88c-0.104,1.302,0.519,0.817,0.353,1.554
						C314.119,1040.888,312.977,1030.752,313.249,1037.88z"/>
					<polygon fill="#3F3B3C" points="310.86,1068.403 311.361,1067.418 310.957,1065.879 					"/>
					<path fill="#3F3B3C" d="M311.227,1046.719l-0.139,4.388c0.084-0.066,0.133,0.491,0.171,1.176
						C311.276,1049.579,311.376,1046.616,311.227,1046.719z"/>
					<path fill="#3F3B3C" d="M311.259,1052.283c-0.01,1.408,0.001,2.748,0.083,3.532
						C311.337,1055.053,311.321,1053.413,311.259,1052.283z"/>
					<polygon fill="#3F3B3C" points="310.709,1062.404 310.814,1061.107 310.85,1058.009 					"/>
					<path fill="#3F3B3C" d="M311.324,999.549l-0.144-4.789c-0.172-0.488-0.277,0.817-0.208,2.6
						C311.092,998.507,311.158,1000.283,311.324,999.549z"/>
					<path fill="#3F3B3C" d="M309.952,1014.032c0.104-1.295,0.216-1.382,0.381-2.113l-0.621-0.146L309.952,1014.032z"/>
					<path fill="#3F3B3C" d="M309.807,1000.066c-0.172-0.477-0.495-6.95-0.456-0.88
						C309.522,999.672,309.665,1004.468,309.807,1000.066z"/>
					<polygon fill="#3F3B3C" points="310.592,927.907 310.6,929.125 311.619,928.95 					"/>
					<path fill="#3F3B3C" d="M308.156,864.307c-0.244,5.675,0.628,1.347,0.324,6.475c0.241,1.332,0.249-4.191,0.457-2.825
						C308.682,864.532,308.826,862.733,308.156,864.307z"/>
					<path fill="#3F3B3C" d="M308.936,867.957c0.04,0.549,0.089,1.13,0.155,1.748C309.028,868.713,308.979,868.246,308.936,867.957z
						"/>
					<polygon fill="#3F3B3C" points="313.306,150.057 313.519,146.407 313.176,148.763 					"/>
					<path fill="#3F3B3C" d="M312.551,143.051l0.649-0.86L312.613,140C312.641,140.825,312.697,142.424,312.551,143.051z"/>
					<path fill="#3F3B3C" d="M307.361,641.714l0.156,0.278c0.169-0.565,0.182-1.419,0.208-3.131L307.361,641.714z"/>
					<polygon fill="#3F3B3C" points="307.847,592.221 307.834,593.073 308.421,591.481 					"/>
					<path fill="#3F3B3C" d="M307.098,550.683c-0.024,1.695,0.107,3.688,0.082,5.391
						C307.074,552.378,307.83,550.225,307.098,550.683z"/>
				</g>
			</g>
		</g>
	</g>
</g>
<g>
	<g>
		<g>
			<g>
				<g>
					<path fill="#3F3B3C" d="M1509.455,1221.422c1.772,0.037,1.136-0.382,1.402-0.457
						C1507.893,1221.058,1509.529,1221.531,1509.455,1221.422z"/>
					<polygon fill="#3F3B3C" points="1480.209,1222.374 1480.726,1222.203 1476.415,1222.622 					"/>
					<path fill="#3F3B3C" d="M1452.86,1222.366c2.585,0.714,9.91-0.115,14.782,0.139l0.803,0.163l2.198-0.574
						C1464.722,1222.184,1457.03,1222.565,1452.86,1222.366z"/>
					<path fill="#3F3B3C" d="M1438.278,1220.822c0.9,0.278-3.154,0.239,3.4,0.087c-0.329-0.03-0.424-0.048-0.616-0.07
						C1440.473,1220.843,1439.66,1220.842,1438.278,1220.822z"/>
					<path fill="#3F3B3C" d="M1441.062,1220.839C1443.943,1220.819,1439.178,1220.605,1441.062,1220.839L1441.062,1220.839z"/>
					<path fill="#3F3B3C" d="M1427.762,1220.998l3.794-0.248c-0.792-0.164-4.169-0.201-2.915-0.32
						C1424.749,1220.565,1425.549,1220.728,1427.762,1220.998z"/>
					<path fill="#3F3B3C" d="M1424.165,1221.519l1.966-0.105C1425.786,1221.345,1425.266,1221.321,1424.165,1221.519z"/>
					<path fill="#3F3B3C" d="M1430.3,1221.192l-4.169,0.222c0.55,0.115,0.608,0.347,1.914-0.08
						C1427.704,1221.545,1428.528,1221.342,1430.3,1221.192z"/>
					<path fill="#3F3B3C" d="M1432.661,1221.301c2.128,0.155,4.877,0.253,1.069,0.5
						C1440.988,1221.703,1439.918,1221.201,1432.661,1221.301z"/>
					<path fill="#3F3B3C" d="M1451.464,1223.104l2.845,0.209l2.461-0.239C1455.54,1223.193,1451.287,1222.88,1451.464,1223.104z"/>
					<path fill="#3F3B3C" d="M1404.129,1220.628c-0.237,0.152,1.276,0.405,1.559,0.599l2.802-0.174
						C1407.049,1220.949,1404.319,1220.853,1404.129,1220.628z"/>
					<path fill="#3F3B3C" d="M1405.687,1221.227l-4.193,0.261C1405.24,1221.519,1405.924,1221.395,1405.687,1221.227z"/>
					<polygon fill="#3F3B3C" points="1423.489,1222.311 1430.376,1221.763 1422.161,1222.319 					"/>
					<polygon fill="#3F3B3C" points="1388.116,1220.609 1390.493,1220.258 1386.259,1220.789 					"/>
					<path fill="#3F3B3C" d="M1377.494,1220.671c1.759-0.291-2.411-0.493-0.552-0.672c-2.885,0.052-5.349,0.302-7.567,0.527
						C1371.732,1220.4,1374.244,1220.432,1377.494,1220.671z"/>
					<path fill="#3F3B3C" d="M1365.65,1220.853c1.177-0.07,2.397-0.195,3.725-0.328
						C1368.123,1220.593,1366.892,1220.69,1365.65,1220.853z"/>
					<path fill="#3F3B3C" d="M1394.353,1221.413c-0.325-0.092-0.949-0.332-3.3-0.434l1.649,0.427
						C1393.205,1221.409,1393.775,1221.411,1394.353,1221.413z"/>
					<path fill="#3F3B3C" d="M1392.76,1221.42l-0.058-0.014c-1.79-0.009-3.031-0.019-3.563-0.024
						C1389.596,1221.386,1390.686,1221.397,1392.76,1221.42z"/>
					<path fill="#3F3B3C" d="M1394.768,1221.415c-0.153-0.001-0.265-0.002-0.416-0.002
						C1394.511,1221.455,1394.607,1221.469,1394.768,1221.415z"/>
					<path fill="#3F3B3C" d="M1412.498,1221.925c-2.464,0.239-7.599,0.495-2.629,0.859
						C1411.635,1222.491,1408.79,1222.284,1412.498,1221.925z"/>
					<path fill="#3F3B3C" d="M1396.816,1221.949l4.453,0.098c-0.088-0.113-0.891-0.277,0.329-0.396L1396.816,1221.949z"/>
					<polygon fill="#3F3B3C" points="1394.636,1222.085 1396.816,1221.949 1395.165,1221.913 					"/>
					<path fill="#3F3B3C" d="M1373.279,1221.253c-1.923,0.186-4.028,0.202-6.405,0.231c2.548,0.084,5.182,0.129,7.683,0.129
						C1374.91,1221.479,1376.009,1221.238,1373.279,1221.253z"/>
					<path fill="#3F3B3C" d="M1382.746,1221.372c-0.133,0.01-0.303,0.015-0.427,0.024
						C1382.581,1221.432,1382.792,1221.444,1382.746,1221.372z"/>
					<path fill="#3F3B3C" d="M1343.473,1221.482c0.13,0.023,0.243,0.053,0.375,0.078c0.03-0.025,0.05-0.049,0.088-0.074
						L1343.473,1221.482z"/>
					<path fill="#3F3B3C" d="M1374.984,1221.693c1.915,0.083,3.059-0.022,4.15-0.154c-1.432,0.043-2.949,0.071-4.578,0.074
						C1374.398,1221.674,1374.369,1221.714,1374.984,1221.693z"/>
					<path fill="#3F3B3C" d="M1359.122,1221.053c0.997,0.089,2.128,0.165,3.316,0.235
						C1361.464,1221.153,1359.475,1220.942,1359.122,1221.053z"/>
					<path fill="#3F3B3C" d="M1381.673,1221.278c0.096-0.007,0.182-0.015,0.287-0.019
						C1381.332,1221.167,1381.41,1221.212,1381.673,1221.278z"/>
					<path fill="#3F3B3C" d="M1381.673,1221.278c-0.985,0.062-1.76,0.167-2.538,0.261c1.166-0.034,2.247-0.079,3.184-0.142
						C1382.081,1221.366,1381.843,1221.32,1381.673,1221.278z"/>
					<path fill="#3F3B3C" d="M1336.383,1224.225c0.338-0.396,5.372-0.762,9.718-0.337c4.277-0.297,1.481-1.6-2.253-2.328
						c-0.133,0.173-0.133,0.333-4.534,0.566c1.541,0.216,9.765,0.506,6.052,0.864c-5.83,0.204-4.777-0.14-7.611-0.35
						c2.409,0.494-7.417,0.718-6.147,1.444l5.112-0.255C1336.817,1223.942,1334.963,1224.122,1336.383,1224.225z"/>
					<path fill="#3F3B3C" d="M1352.234,1221.6l1.811-0.049c-2.064-0.069-3.542-0.227-6.263-0.537
						c-3.013,0.193-3.638,0.34-3.846,0.472l8.917,0.055L1352.234,1221.6z"/>
					<path fill="#3F3B3C" d="M1362.175,1221.549c-1.414,0.431-5.763,0.614-3.1,1.081c5.314-0.03,3.724-0.36,6.899-0.547
						c-8.576,0.107,2.464-0.24-3.733-0.484c1.685-0.073,3.201-0.096,4.632-0.114c-1.544-0.052-3.033-0.117-4.435-0.197
						c0.078,0.01,0.133,0.017,0.197,0.027l0.04-0.001c0,0.003-0.008,0.004-0.008,0.007c0.37,0.054,0.492,0.086,0.075,0.055
						c-0.028,0.005-0.133,0.007-0.179,0.009c-0.058,0.06-0.217,0.112-0.387,0.163c-2.484-0.089-0.391-0.112,0.387-0.163
						c0.028-0.021,0.096-0.042,0.104-0.064c-0.008-0.002-0.02-0.004-0.032-0.005l-8.59,0.236
						C1355.863,1221.611,1358.139,1221.598,1362.175,1221.549z"/>
					<path fill="#3F3B3C" d="M1405.286,1223.711c-0.266-0.038-0.255-0.069-0.275-0.1
						C1404.456,1223.663,1404.245,1223.699,1405.286,1223.711z"/>
					<path fill="#3F3B3C" d="M1401.752,1223.45c0.625-0.06,1.145-0.233,3.175-0.188c1.761,0.129-0.008,0.207,0.084,0.348
						c1.224-0.114,4.283-0.309,0.445-0.519l-0.608,0.059c-3.458-0.148-7.902-0.686-7.298-0.745
						C1398.56,1222.794,1399.45,1223.07,1401.752,1223.45z"/>
					<path fill="#3F3B3C" d="M1381.717,1222.609l-7.154,0.212l3.643,0.373l-0.185-0.224
						C1382.09,1223.058,1381.211,1222.782,1381.717,1222.609z"/>
					<polygon fill="#3F3B3C" points="1342.654,1221.267 1343.603,1220.812 1339.471,1221.455 					"/>
					<polygon fill="#3F3B3C" points="1333.358,1221.322 1333.702,1220.926 1331.248,1221.165 					"/>
					<path fill="#3F3B3C" d="M808.753,1226.232l-2.102,0.112C807.645,1226.31,808.285,1226.272,808.753,1226.232z"/>
					<path fill="#3F3B3C" d="M823.971,1226.259l0.373-0.195C823.639,1226.172,823.35,1226.251,823.971,1226.259z"/>
					<path fill="#3F3B3C" d="M1105.039,1221.366c-3.062-0.37-6.482-0.943-6.113-0.498l0.94,0.434
						C1102.006,1221.225,1103.647,1221.273,1105.039,1221.366z"/>
					<path fill="#3F3B3C" d="M948.673,1223.957c0.291,0.042,0.595,0.087,0.895,0.132c0.744-0.148,1.444-0.286,2.068-0.415
						C950.746,1223.762,949.735,1223.857,948.673,1223.957z"/>
					<path fill="#3F3B3C" d="M946.513,1225.752l-4.036-0.28C943.384,1225.57,944.682,1225.663,946.513,1225.752z"/>
					<path fill="#3F3B3C" d="M725.638,1226.692l-2.453,0.442C727.023,1227.132,725.334,1226.909,725.638,1226.692z"/>
					<path fill="#3F3B3C" d="M1238.144,1221.482c-2.642-0.169-4.745-0.241-6.592-0.262
						C1234.735,1221.469,1237.303,1221.843,1238.144,1221.482z"/>
					<path fill="#3F3B3C" d="M814.741,1221.628c-1.286,0.079-1.836,0.167-1.798,0.264
						C814.267,1221.818,815.016,1221.734,814.741,1221.628z"/>
					<path fill="#3F3B3C" d="M1223.921,1221.221c0.465,0.043,0.923,0.065,1.396,0.102c1.932-0.073,3.875-0.131,6.235-0.104
						C1229.201,1221.034,1226.509,1220.92,1223.921,1221.221z"/>
					<path fill="#3F3B3C" d="M424.206,1226.333c-0.219-0.02-0.483-0.029-0.682-0.052
						C423.458,1226.34,423.761,1226.343,424.206,1226.333z"/>
					<path fill="#3F3B3C" d="M336.39,1221.955c0.865-0.027,2.275-0.027,3.605-0.033
						C339.348,1221.892,338.26,1221.895,336.39,1221.955z"/>
					<path fill="#3F3B3C" d="M1295.953,1221.133C1297.925,1221.104,1296.266,1221.085,1295.953,1221.133L1295.953,1221.133z"/>
					<path fill="#3F3B3C" d="M1305.542,1222.848c-0.419,0.049-0.738,0.111-0.788,0.211
						C1304.916,1222.955,1305.191,1222.888,1305.542,1222.848z"/>
					<path fill="#3F3B3C" d="M1204.281,1223.922c-0.058,0-0.104-0.001-0.171-0.001
						C1204.697,1224.005,1204.596,1223.989,1204.281,1223.922z"/>
					<path fill="#3F3B3C" d="M1298.92,1221.33c-0.74-0.053-1.593-0.098-2.521-0.129
						C1296.806,1221.234,1297.572,1221.276,1298.92,1221.33z"/>
					<path fill="#3F3B3C" d="M1298.521,1221.125c0.68,0.02,1.214,0.03,1.723,0.042
						C1300.493,1221.094,1300.272,1221.049,1298.521,1221.125z"/>
					<path fill="#3F3B3C" d="M1293.206,1221.156c1.127-0.007,2.179,0.014,3.192,0.045c-0.387-0.029-0.55-0.054-0.445-0.068
						C1295.375,1221.139,1294.559,1221.148,1293.206,1221.156z"/>
					<path fill="#3F3B3C" d="M585.715,1225.172c-0.13-0.014-0.281-0.022-0.423-0.041
						C583.304,1225.311,584.177,1225.282,585.715,1225.172z"/>
					<path fill="#3F3B3C" d="M1053.724,1225.872c0.092-0.004,0.141-0.016,0.225-0.021c-0.092-0.004-0.208-0.01-0.291-0.015
						L1053.724,1225.872z"/>
					<path fill="#3F3B3C" d="M1046.642,1226.195c3.015-0.54,4.73-0.474,7.015-0.359l-2.343-1.251L1046.642,1226.195z"/>
					<path fill="#3F3B3C" d="M772.314,1226.357l4.973,0.39c-6.002,0.642-10.346,0.42-5.677,0.969
						c0.704-1.358,19.33-0.139,20.022-1.496l3.278,0.286c-0.939-0.013-1.09,0.067-2.018,0.053c6.376,0.65,4.736-0.982,12.951-0.789
						c2.863,0.104,4.861,0.301,2.909,0.462l6.379-0.336c1.856,0.026,1.402,0.262-0.445,0.236l9.73-0.108l-0.072,0.04
						c1.388-0.213,4.534-0.542,6.07-0.682c2.472,0.195-1.24,0.144-0.608,0.313l5.388-0.329c2.195,0.352-2.271,0.693-5.992,0.643
						c5.031,1.356,4.47-0.342,15.328,0.45l-5.087,0.172c3.28,0.771,7.25,0.491,13.001,0.972c-1.364-0.251-11.515-1.211-5.667-1.549
						c1.648,0.103,3.82,0.151,6.974-0.122c0.03,0.483,3.109,0.364,6.963,0.337l-0.263,0.64c4.167-0.185,3.837-0.51,6.289-0.798
						c4.644,0.063,5.607,0.559,6.7,0.976c7.437,0.102-5.135-0.794,3.667-0.915c6.185,0.245,10.528-0.017,17.927-0.4
						c4.329,0.22-0.757,0.391,0.796,0.574l3.837-0.51c0.939,0.012,0.636,0.169,0.482,0.248c3.233-0.198,0.266-0.639,5.35-0.813
						c1.37-0.705,10.436,1.03,16.727,0.229c1.55,0.182-0.749,0.392-0.275,0.64c8.632-0.525,7.4-0.381,14.487-1.088l6.038,0.42
						c-4.437-0.48,1.232-1.049,6.197-1.516c-1.574-0.232-2.918-0.435-3.821-0.532l7.924-0.343c0.957,0.105,0.159,0.325-1.139,0.592
						c0.54-0.053,1.053-0.105,1.452-0.153c2.833,0.236,1.364,0.605-0.666,0.963c-0.965-0.126-1.923-0.261-2.854-0.395
						c-1.957,0.389-3.788,0.819-3.38,1.193c0.515-0.074,1.507-0.137,2.597-0.173c-0.512,0.105-0.839,0.2-0.602,0.264
						c0.269,0.067,1.096-0.074,2.391-0.237l1.801,0.713l0.437-0.283l10.366,0.446c7.417-0.718,13.868-1.774,25.64-2.069
						c-2.921,0.523-0.628,0.854-0.786,1.474c-3.212-0.656-9.117,0.279-15.218,0.146c3.184,0.069,2.484,0.364,1.674,0.467
						l10.881-0.597c-0.245,0.507,2.311,0.38,5.153,0.589c-2.148-1.001,8.111-0.667,12.538-0.974c0.275,0.337-0.786,0.68-6.188,0.599
						c5.96,0.754,7.701-1.176,13.551-0.536c-1.319,0.008-2.03-0.043-2.551,0.127c3.081-0.299,10.612-0.062,8.84,0.231l-1.316,0.007
						c8.756,0.119,26.655,0.007,27.961-0.843c0.088,0.11-1.148,1.025-1.677,1.197l15.623-2.862c-1.376,0.731,3.907,2.47-3.354,2.883
						c2.085,0.104,4.664,0.225,9.059-0.032c-1.422-0.104-3.545-1.056-1.601-1.123c5.334,0.813,3.703,0.435,10.279,1.128
						c-2.132-0.157,0.237-1.302,3.605-1.266c-0.526,0.171,0.281,1.131-0.951,1.25l8.385-1.125c-2.093,0.203-0.37,0.953,1.507,1.271
						c-0.87-0.22,7.25,0.021,9.484-0.091l-3.554-0.261c9.468,0.17,9.352-1.582,18.744-1.523c-1.137,0.233-2.808,1.43,1.968,1.571
						c2.189-0.576,9.693-2.771,18.003-3.214l1.594,0.329l6.375-0.375c-3.97,0.867-15.112,2.69-21.196,3.4
						c3.542,0.261,0.987,0.388,6.293,0.358c1.874,0.309-2.892,0.468-4.453,0.486l12.353,0.199c-0.55-0.673,9.447-0.674,8.975-1.234
						l-13.417,0.697c-0.544-0.671,7.758-1.908,16.51-1.79c2.227,0.267-1.665,1.197-1.483,1.421c1.136-0.231,8.307-0.442,9.111-0.278
						l-3.713,0.359c4.873,0.253,7.952-0.891,13.807-0.25c2.021,0.043,6.035,0.866,6.384,0.468c-3.296-0.767-3.94-3.14-1.743-3.716
						c0.708,0.052,10.612,0.733,12.919,1.112c3.328,0.602-4.996,1.434-2.163,1.95c0.122-0.184,1.96-0.41,2.726-0.483
						c2.122,0.157-0.879,0.569,3.733,0.486c0.77-0.682,9.38,0.058,2.18-0.576c4.511-0.195,4.794,0.14,10.092,0.11
						c-1.687-0.441,4.756-1.499,9.276-1.693c-0.266,0.173,0.749,0.399,1.24,0.502c9.248,0.062,14.211,0.371,22.835,0.377
						c0.795,0.165,4.956,0.365,3.184,0.658c1.24-0.121,2.379-0.352,5.04-0.368c5.147,0.589-5.93,0.092-2.006,0.8
						c0.335-0.396,6.879-0.546,10.667-0.794c-1.165-0.612-8.753-0.117-12.546,0.13c-0.018-0.844,6.586-1.728,15.599-2.118
						c7.163-0.21,3.105,0.545,4.349,0.425c13.455,0.147,11.462-1.474,22.635-0.865c4.433,0.538,0.2,1.07,1.183,1.458
						c-5.835,0.204-8.959-0.341-12.913-0.32l4.869,0.254c-1.856,0.179-5.751,0.314-7.874,0.159
						c3.715,0.483,22.731,0.093,33.112,0.539c1.844-0.18,5.028-0.367,3.521-0.583l-3.284,0.075c-3.019-0.434,6.181-0.6,2.024-0.802
						c4.406-0.305,9.345-0.784,15.547-0.539l1.165,0.613c-0.133-0.179-4.054-0.365-5.797-0.179c2.585-0.271,9.511,0.83,12.344,0.027
						l-4.348-0.425c4.424-0.308,9.892-0.959,15.389-0.766c-2.501-0.605-1.267,0.069-5.173-0.639
						c3.386,0.881-14.062-0.037-8.622,0.889c-4.008-0.822-6.937-0.349-12.177-1.05c0.162,0.202,1.856,0.387-2.758,0.287
						c-0.208,0.059-0.7,0.134-1.013,0.178c-0.141-0.005-0.191-0.009-0.312-0.015c0.092,0.008,0.161,0.017,0.255,0.024
						c-0.2,0.03-0.218,0.037,0.095,0.008c1.099,0.088,1.99,0.195,2.351,0.308c-2.291,0.464-9.629,0.45-12.11,0.69
						c-2.738-0.096,1.145-0.232-0.349-0.448l-3.707,0.359c-0.367-0.449-7.274-0.746-0.824-1.009l-5.806-0.02
						c-3.418-0.252-8.12-0.352-11.02-0.163c-2.738-0.097-6.917,0.497-4.531,0.146l-9.106,0.278l-0.084-0.112
						c-8.984-0.057-18.494,0.744-28.765-0.067c-3.025,0.113-6.151,0.252-11.21,0.125l-0.987-0.389
						c-3.882,0.136-11.661-0.389-13.33,0.016c-4.189-1.045-18.847-0.228-25.676-0.414l-0.258,0.507
						c-4.701-0.029-9.208,0.115-15.044,0.319l0.359,0.448c-5.031,0.368-12.935-0.319-20.892-0.273
						c0.541-0.171,2.559-0.126,3.988-0.023c-9.507-1.013-20.059,0.737-28.681-0.001c-2.149,0.163-3.705,0.108-5.211-0.005
						c0.2-0.001,0.379-0.009,0.533-0.023c-0.22-0.005-0.547-0.006-0.882-0.005c-0.949-0.077-1.926-0.167-2.985-0.239
						c0.9,0.109,1.761,0.199,2.511,0.24c-1.657,0.009-4.17,0.065-6.634,0.177l-1.049-0.481c-0.2,0.006-0.361,0.005-0.57,0.014
						c-2.417-0.178-1.943,0.228-0.654,0.59c-1.24,0.079-2.377,0.174-3.258,0.29c-1.964-0.777-6.463,0.262-9.143-0.567
						c-1.661,0.404-12.385,0.304-13.697,1.155c-0.084-0.111-0.81-0.163,0.52-0.17c-2.747-0.097-5.491-0.194-7.954,0.046
						l-1.165-0.612l-5.997,0.823c-3.643-0.373-5.153-0.59-1.536-1.061c-8.735,0.725-7.087,0.273-14.516,0.991l0.362-0.396
						c-2.655,0.015-6.9,0.545-8.502,0.218c-5.94-0.752-29.391-0.104-44.637-0.803c2.957,1.166-7.087-0.523-7.691,0.381
						c-0.888-0.275-3.013-0.431-0.544-0.671c-7.781,0.271-11.691-0.437-17.063,0.325c-0.891-0.277,1.665-0.404,0.873-0.568
						c-0.624,0.06-2.472,0.24-3.282,0.075c-0.792-0.164,1.139-0.232,2.371-0.352c-7.948,0.046-8.753,0.896-9.331,1.693
						c-4.028-0.378-6.038-0.324-8.947,0.199c-1.402-0.261-3.742-0.534,1.197-0.627c-2.779-0.038-16.973-0.382-17.256,0.257
						c-0.871-0.162-3.884-0.047-4.616,0.026c-6.235-0.038-6.783-0.096-12.905-0.035l1.697,0.104
						c-2.417,0.771-5.089,0.172-10.025,0.265l0.141-0.079c-11.317-0.556-4.886,0.267-16.051-0.368l0.608,0.479
						c-1.041,1.032-9.892-0.608-16.372-0.214l2.339,0.274c-3.539,0.353-9.892-1.403-13.446-1.532
						c-0.775-0.09,1.223-0.144,2.305-0.21c-9.305-0.608-1.206,0.628-8.139,0.774c-1.279-0.339,1.648-0.862-3.019-0.925
						c-2.325-0.274-13.536,1.1-19.904,0.45c1.403,0.261,2.796,0.522-0.424,0.718c-4.937,0.093-13.346-0.987-17.804-0.164
						c-0.628-0.071-0.865-0.14-0.891-0.205c-3.773,0.212-12.263,0.353-14.536,0.799c-3.487-1.657-23.459,0.806-23.375-0.722
						l-11.607,0.082l0.303-0.156c-7.419-0.101-10.042,0.265-12.65,0.632c-1.715-0.104-0.463-0.246-0.321-0.327
						c-10.841-0.308-11.918-0.243-21.007,0.518l-0.945-0.496c-2.464,0.288-15.673-0.777-26.305-0.199
						c0.104-0.056,0.325-0.152,1.169-0.222c-11.962,0.582-28.638-1.375-33.022,0.43l-7.894,0.445
						c10.213,0.14-1.521,0.783,2.68,1.083c-4.016,0.106-10.384-0.544-5.448-0.637l0.772,0.09c1.813-0.941-12.691-0.333-12.416-0.974
						c-20.097,0.046-39.684-0.475-58.509-0.515l2.169,0.731l-6.566-0.042c-1.723-0.17-2.313-0.572,2.371-0.542
						c-2.464-0.415-7.856,0.347-7.99,0.506c-9.172-0.297,3.583-0.853,0.77-0.871l-3.82,0.055l0.861,0.085
						c-3.096,0.299-3.371,0.616-9.001,0.579c-3.563-0.146-1.828-0.451-3.23-0.479c0.008-0.052-0.465-0.076-2.151-0.021l-8.273-0.062
						l3.308,0.578c-3.667,0.285-7.779-0.03-3.962,0.624c-5.603-1.009-30.859-0.362-34.3-0.675
						c-5.135,0.421-10.205,0.414-16.484,0.363c1.561,0.12,2.495,0.769-2.921,0.69c1.98-1.34-9.918-0.582-14.296-1.546
						c3.912,0.639-15.398,0.158-9.26,1.066c-4.52-0.108-0.275-0.501-3.704-0.817c-10.757,0.519-23.705-0.337-37.001-0.162
						c-0.207,0.176,2.019,0.445-0.833,0.707l-7.02-0.879c-2.626,0.086-2.417,1.015-7.215,0.405c0.677,0.148,1.689,0.371-0.072,0.427
						c-26.047-0.857-53.225,0.702-79.677-0.908c3.583,0.341,1.195,0.375-1.541,0.387c1.779,0.082-0.04,0.435,0.309,0.673
						l-11.074-0.662c-2.018,0.662-11.873,0.045-13.029,0.677l3.507-0.114c-4.664,0.747,6.526,1.659,5.844,2.617
						c5.222-0.849,13.77,1.257,22.337,0.042c1.891,0.195-1.613,0.308-0.602,0.531c2.172-0.411,4.794-0.496,9.655-0.312l-0.55,0.102
						c13.655-0.1,19.509,0.305,34.849,0.574l-1.136-0.474c3.296,0.063,3.99,0.212,5.533,0.331c3.783-0.718-9.258-0.041-5.812-0.833
						c4.373,0.964,23.246,0.015,26.201,1.11c5.072,0.006-1.486-0.548,3.583-0.542l1.344,0.296l1.281-0.382
						c3.325,0.063,5.002,0.434,5.126,0.685c-0.807-0.03-2.293,0.07-3.158,0.092c4.311,0.349,12.157-0.119,13.637-0.005l-4.873-0.183
						c13.84-0.277,30.737,0.112,44.108-0.491l-1.015-0.224c10.211-0.413,8.178,0.246,19.388,0.054l-0.407,0.053
						c2.243-0.223,5.24-0.335,8.307-0.31c-2.831,0.262,5.326,0.509,1.613,0.798c11.072-0.444,5.477-0.349,12.789-1.179l1.687,0.371
						c2.492-0.335,2.7-0.512,8.299-0.608c-4.592,0.318,3.573,0.565-1.57,0.986c11.748,0.811,17.445-0.819,22.835,0.367
						c5.395-1.026-10.167-0.57-7.145-0.79c-2.53-0.335,4.453-0.767,8.14-0.664c3.753,0.023,6.381,1.313,15.822,1.293
						c-0.939-0.005-1.003,0.073-1.94,0.068c3.533,0.262,6.923-0.354,11.256,0.071c2.429-0.621,5.627,0.036,6.327-0.756l-8.66,0.183
						c4.909-0.207,9.513-1.133,17.601-0.684c-0.63,0.16-3.037,0.37-4.69,0.487c2.365,0.233,4.554-0.155,7.006,0.085
						c-0.699,0.792-10.524,0.172-15.784,0.776c2.538,0.334,9.95-0.574,7.306,0.284c3.8-1.091,9.302,0.138,15.695-0.695l-0.422,0.475
						c1.011-0.075,3.108-0.299,4.97-0.287l-3.371,0.615c5.176-0.525,9.978,0.459,14.943,0.173
						c-10.395,0.015-2.333-0.572-6.729-0.918c12.821-0.635,7.373,1.241,21.728,1.014c-1.944,0.067-7.296-0.285-4.257-0.505
						c2.732,0.098,6.341,0.28,8.018,0.529c9.511-0.099-1.46-0.488,2.588-0.78c3.238,0.578,4.67-0.235,8.839-0.421l0.03,0.483
						c10.837,0.309,2.873-1.005,12.63-0.631l-4.124,0.669l5.087-0.173l-1.049,0.549c5.533-0.407,7.257-0.302,12.679-0.148
						c-1.26-0.34,0.708-0.875,5.509-0.891c3.274,0.287-1.833,0.458,4.971,0.39c-1.536,0.302-3.219,0.681-6.18,0.236
						c-0.303,0.157-1.515,0.303-1.828,0.458c3.526,0.329,8.86,0.075,11.324,0.071c-0.949-0.018-2.082-0.044-2.664-0.113l9.864-0.668
						c1.553,0.181,0.321,0.327-0.899,0.469c1.998-0.052,3.38-0.274,6.318-0.315c-0.76,0.392-0.578,0.797-4.736,0.981l9.398-0.435
						c0.628,0.17,4.823,0.468,3.603,0.613c5.21,0.23,12.781-0.761,19.688-0.457c0.359-0.076,1.079-0.149,2.548-0.205
						c6.492,0.089,12.243,0.57,19.938,0.032l4.366,0.703c6.026-0.16-5.91-0.886,4.124-1.151c7.104-0.224,2.652,0.6,5.144,0.796
						c3.533-0.354,9.675-1.076,16.201-0.504C776.026,1226.409,774.332,1226.305,772.314,1226.357z M846.635,1226.046
						c-1.44,0.101-4.311,0.414-5.364,0.129C842.911,1225.622,844.18,1225.886,846.635,1226.046z M959.615,1224.884
						c-1.071,0.16-2.727,0.081-4.595-0.102C956.375,1224.742,957.912,1224.76,959.615,1224.884z M1274.341,1221.525
						c-0.062,0.008-0.104,0.014-0.154,0.023C1270.975,1221.361,1272.115,1221.435,1274.341,1221.525z M1281.012,1221.734
						c0.67-0.067,0.624-0.134,0.341-0.202c-0.465,0.122-1.964,0.13-3.669,0.096
						C1278.157,1221.755,1279.02,1221.843,1281.012,1221.734z M564.655,1221.925l1.298,0.126
						C563.022,1222.19,563.843,1222.064,564.655,1221.925z"/>
					<path fill="#3F3B3C" d="M946.804,1225.544c-0.407-0.082-0.52-0.171-0.616-0.262
						C945.622,1225.363,945.611,1225.457,946.804,1225.544z"/>
					<path fill="#3F3B3C" d="M726.092,1226.611c-0.076-0.004-0.15-0.002-0.226-0.005c-0.124,0.029-0.191,0.058-0.227,0.087
						L726.092,1226.611z"/>
					<path fill="#3F3B3C" d="M1177.681,1225.825c-1.373-0.069-2.139-0.158-2.648-0.249
						C1174.958,1225.694,1175.583,1225.794,1177.681,1225.825z"/>
					<path fill="#3F3B3C" d="M1316.361,1220.915l-4.273,0.125c2.067-0.024,2.805,0.082,3.848,0.158
						C1315.841,1221.086,1315.025,1220.922,1316.361,1220.915z"/>
					<path fill="#3F3B3C" d="M1353.449,1223.9c0.624-0.059,1.324-0.006,1.94-0.066l-0.171-0.224
						C1352.558,1223.624,1350.699,1223.805,1353.449,1223.9z"/>
					<path fill="#3F3B3C" d="M1320.317,1222.518c0.339,0.406,3.019,0.268,6.012,0.193c-0.18,0.001-0.351,0.005-0.529,0
						C1326.682,1222.143,1323.492,1222.331,1320.317,1222.518z"/>
					<path fill="#3F3B3C" d="M1327.023,1222.697c0.923-0.019,1.864-0.03,2.767-0.01
						C1330.14,1222.459,1328.668,1222.639,1327.023,1222.697z"/>
					<path fill="#3F3B3C" d="M1289.473,1221.466c1.419,0.104,0.891-0.519,1.694-0.354
						C1292.751,1220.595,1281.703,1221.737,1289.473,1221.466z"/>
					<polygon fill="#3F3B3C" points="1322.74,1223.855 1321.667,1223.354 1319.99,1223.758 					"/>
					<path fill="#3F3B3C" d="M1299.107,1223.487l4.783,0.139c-0.072-0.084,0.535-0.133,1.281-0.171
						C1302.224,1223.438,1298.994,1223.339,1299.107,1223.487z"/>
					<path fill="#3F3B3C" d="M1305.171,1223.455c1.535,0.01,2.995-0.001,3.849-0.083
						C1308.19,1223.377,1306.403,1223.394,1305.171,1223.455z"/>
					<polygon fill="#3F3B3C" points="1316.202,1224.005 1314.788,1223.901 1311.411,1223.864 					"/>
					<path fill="#3F3B3C" d="M1247.695,1223.39l-5.22,0.144c-0.532,0.172,0.891,0.277,2.834,0.208
						C1246.559,1223.623,1248.496,1223.556,1247.695,1223.39z"/>
					<path fill="#3F3B3C" d="M1263.481,1224.762c-1.412-0.104-1.507-0.216-2.302-0.381l-0.159,0.621L1263.481,1224.762z"/>
					<path fill="#3F3B3C" d="M1248.259,1224.907c-0.52,0.172-7.575,0.495-0.959,0.456
						C1247.829,1225.192,1253.057,1225.049,1248.259,1224.907z"/>
					<polygon fill="#3F3B3C" points="1169.611,1224.122 1170.939,1224.114 1170.748,1223.095 					"/>
					<path fill="#3F3B3C" d="M1100.292,1226.558c6.185,0.244,1.469-0.628,7.058-0.324c1.452-0.241-4.568-0.248-3.079-0.456
						C1100.538,1226.032,1098.577,1225.888,1100.292,1226.558z"/>
					<path fill="#3F3B3C" d="M1104.271,1225.778c0.598-0.04,1.232-0.089,1.906-0.155
						C1105.095,1225.687,1104.586,1225.736,1104.271,1225.778z"/>
					<polygon fill="#3F3B3C" points="321.819,1221.408 317.84,1221.196 320.408,1221.538 					"/>
					<path fill="#3F3B3C" d="M314.183,1222.163l-0.937-0.649l-2.389,0.587C311.756,1222.073,313.5,1222.017,314.183,1222.163z"/>
					<path fill="#3F3B3C" d="M857.684,1227.353l0.303-0.156c-0.616-0.169-1.547-0.182-3.412-0.208L857.684,1227.353z"/>
					<polygon fill="#3F3B3C" points="803.741,1226.867 804.67,1226.88 802.935,1226.294 					"/>
					<path fill="#3F3B3C" d="M758.468,1227.616c1.848,0.024,4.02-0.107,5.876-0.082
						C760.316,1227.64,757.968,1226.884,758.468,1227.616z"/>
				</g>
			</g>
		</g>
	</g>
</g>
<g>
	<g>
		<path fill="none" stroke="#F2F2D4" stroke-miterlimit="10" d="M645.286,1420.571"/>
	</g>
</g>
<g>
	<g>
		<g>
			<g>
				<g>
					<path fill="#3F3B3C" d="M311.419,1261.656c0.041-0.71-0.379-0.455-0.454-0.562
						C311.05,1262.282,311.528,1261.627,311.419,1261.656z"/>
					<polygon fill="#3F3B3C" points="312.297,1273.369 312.128,1273.162 312.536,1274.889 					"/>
					<path fill="#3F3B3C" d="M312.221,1284.322c0.72-1.035-0.09-3.969,0.176-5.92l0.165-0.322l-0.569-0.881
						C312.069,1279.572,312.431,1282.652,312.221,1284.322z"/>
					<path fill="#3F3B3C" d="M310.641,1290.161c0.28-0.36,0.231,1.263,0.095-1.362c-0.031,0.132-0.049,0.17-0.072,0.247
						C310.667,1289.282,310.664,1289.607,310.641,1290.161z"/>
					<path fill="#3F3B3C" d="M310.664,1289.046C310.651,1287.892,310.426,1289.8,310.664,1289.046L310.664,1289.046z"/>
					<path fill="#3F3B3C" d="M310.79,1294.372l-0.239-1.52c-0.166,0.317-0.212,1.669-0.328,1.167
						C310.35,1295.578,310.515,1295.258,310.79,1294.372z"/>
					<path fill="#3F3B3C" d="M311.302,1295.813l-0.1-0.787C311.132,1295.164,311.107,1295.372,311.302,1295.813z"/>
					<path fill="#3F3B3C" d="M310.991,1293.356l0.211,1.67c0.117-0.22,0.348-0.243-0.075-0.767
						C311.337,1294.396,311.136,1294.066,310.991,1293.356z"/>
					<path fill="#3F3B3C" d="M311.105,1292.411c0.161-0.852,0.265-1.953,0.503-0.428
						C311.528,1289.076,311.024,1289.504,311.105,1292.411z"/>
					<path fill="#3F3B3C" d="M312.956,1284.882l0.216-1.139l-0.233-0.986C313.054,1283.25,312.732,1284.953,312.956,1284.882z"/>
					<path fill="#3F3B3C" d="M310.361,1303.836c0.151,0.095,0.408-0.51,0.603-0.623l-0.167-1.123
						C310.689,1302.667,310.587,1303.76,310.361,1303.836z"/>
					<path fill="#3F3B3C" d="M310.964,1303.213l0.25,1.68C311.255,1303.393,311.132,1303.118,310.964,1303.213z"/>
					<polygon fill="#3F3B3C" points="312.093,1296.085 311.562,1293.326 312.097,1296.617 					"/>
					<polygon fill="#3F3B3C" points="310.302,1310.249 309.957,1309.296 310.477,1310.993 					"/>
					<path fill="#3F3B3C" d="M310.337,1314.502c-0.287-0.705-0.499,0.965-0.673,0.22c0.045,1.156,0.289,2.143,0.508,3.031
						C310.052,1316.809,310.091,1315.803,310.337,1314.502z"/>
					<path fill="#3F3B3C" d="M310.49,1319.246c-0.067-0.472-0.189-0.96-0.318-1.492
						C310.236,1318.255,310.33,1318.748,310.49,1319.246z"/>
					<path fill="#3F3B3C" d="M311.122,1307.752c-0.093,0.13-0.334,0.379-0.442,1.321l0.431-0.659
						C311.114,1308.212,311.118,1307.984,311.122,1307.752z"/>
					<path fill="#3F3B3C" d="M311.125,1308.39l-0.014,0.023c-0.016,0.717-0.028,1.214-0.033,1.427
						C311.084,1309.657,311.098,1309.221,311.125,1308.39z"/>
					<path fill="#3F3B3C" d="M311.125,1307.586c-0.001,0.061-0.002,0.106-0.003,0.167
						C311.164,1307.689,311.178,1307.651,311.125,1307.586z"/>
					<path fill="#3F3B3C" d="M311.679,1300.487c0.233,0.987,0.476,3.044,0.853,1.054
						C312.243,1300.833,312.029,1301.972,311.679,1300.487z"/>
					<path fill="#3F3B3C" d="M311.664,1306.767l0.109-1.783c-0.113,0.035-0.28,0.356-0.395-0.133L311.664,1306.767z"/>
					<polygon fill="#3F3B3C" points="311.794,1307.64 311.664,1306.767 311.624,1307.428 					"/>
					<path fill="#3F3B3C" d="M310.909,1316.192c0.181,0.771,0.192,1.614,0.215,2.566c0.09-1.02,0.142-2.075,0.148-3.077
						C311.139,1315.539,310.901,1315.098,310.909,1316.192z"/>
					<path fill="#3F3B3C" d="M311.052,1312.401c0.007,0.053,0.016,0.121,0.023,0.171
						C311.112,1312.467,311.124,1312.382,311.052,1312.401z"/>
					<path fill="#3F3B3C" d="M311.063,1328.129c0.027-0.051,0.051-0.098,0.079-0.15c-0.025-0.012-0.049-0.02-0.074-0.035
						L311.063,1328.129z"/>
					<path fill="#3F3B3C" d="M311.353,1315.51c0.087-0.767-0.014-1.225-0.144-1.662c0.039,0.573,0.063,1.181,0.063,1.833
						C311.332,1315.744,311.372,1315.756,311.353,1315.51z"/>
					<path fill="#3F3B3C" d="M310.674,1321.861c0.092-0.399,0.17-0.852,0.243-1.328
						C310.779,1320.923,310.563,1321.719,310.674,1321.861z"/>
					<path fill="#3F3B3C" d="M310.955,1312.83c-0.006-0.038-0.012-0.073-0.018-0.115
						C310.843,1312.967,310.889,1312.935,310.955,1312.83z"/>
					<path fill="#3F3B3C" d="M310.955,1312.83c0.059,0.395,0.163,0.705,0.254,1.017c-0.031-0.467-0.074-0.9-0.135-1.275
						C311.044,1312.667,310.998,1312.762,310.955,1312.83z"/>
					<path fill="#3F3B3C" d="M313.789,1330.976c-0.395-0.136-0.749-2.154-0.313-3.893c-0.286-1.714-1.596-0.597-2.334,0.896
						c0.172,0.054,0.332,0.054,0.555,1.817c0.22-0.617,0.53-3.91,0.879-2.422c0.19,2.335-0.152,1.913-0.369,3.047
						c0.5-0.964,0.7,2.972,1.429,2.466l-0.243-2.048C313.507,1330.801,313.682,1331.544,313.789,1330.976z"/>
					<path fill="#3F3B3C" d="M311.203,1324.621l-0.045-0.725c-0.074,0.827-0.236,1.418-0.553,2.507
						c0.186,1.207,0.331,1.458,0.462,1.541l0.078-3.571L311.203,1324.621z"/>
					<path fill="#3F3B3C" d="M311.177,1320.639c0.428,0.567,0.6,2.309,1.073,1.244c-0.017-2.128-0.351-1.492-0.53-2.764
						c0.085,3.435-0.234-0.987-0.494,1.494c-0.069-0.675-0.088-1.282-0.102-1.855c-0.056,0.618-0.125,1.214-0.208,1.776
						c0.011-0.031,0.018-0.053,0.027-0.079l-0.001-0.016l0.007,0.003c0.055-0.148,0.088-0.197,0.055-0.03
						c0.005,0.011,0.007,0.053,0.008,0.072c0.06,0.023,0.112,0.087,0.162,0.156c-0.095,0.994-0.113,0.156-0.162-0.156
						c-0.021-0.011-0.041-0.039-0.064-0.042l-0.005,0.013l0.214,3.441C311.223,1323.167,311.217,1322.256,311.177,1320.639z"/>
					<path fill="#3F3B3C" d="M313.447,1303.378c-0.039,0.107-0.069,0.102-0.101,0.11
						C313.397,1303.71,313.433,1303.795,313.447,1303.378z"/>
					<path fill="#3F3B3C" d="M313.178,1304.793c-0.059-0.25-0.23-0.459-0.18-1.272c0.134-0.705,0.206,0.004,0.348-0.033
						c-0.111-0.49-0.298-1.716-0.517-0.179l0.057,0.244c-0.157,1.385-0.705,3.164-0.763,2.922
						C312.513,1306.07,312.792,1305.714,313.178,1304.793z"/>
					<path fill="#3F3B3C" d="M312.287,1312.815l0.194,2.865l0.382-1.458l-0.225,0.073
						C312.736,1312.667,312.458,1313.018,312.287,1312.815z"/>
					<polygon fill="#3F3B3C" points="310.847,1328.456 310.394,1328.075 311.026,1329.732 					"/>
					<polygon fill="#3F3B3C" points="310.878,1332.179 310.483,1332.041 310.716,1333.024 					"/>
					<path fill="#3F3B3C" d="M314.477,1542.317l0.107,0.843C314.552,1542.761,314.516,1542.505,314.477,1542.317z"/>
					<path fill="#3F3B3C" d="M314.542,1536.223l-0.194-0.151C314.454,1536.355,314.532,1536.471,314.542,1536.223z"/>
					<path fill="#3F3B3C" d="M310.352,1423.616c-0.377,1.224-0.959,2.59-0.513,2.445l0.436-0.374
						C310.203,1424.83,310.255,1424.173,310.352,1423.616z"/>
					<path fill="#3F3B3C" d="M312.551,1486.259c0.044-0.116,0.089-0.237,0.134-0.357c-0.147-0.299-0.285-0.579-0.41-0.832
						C312.359,1485.428,312.453,1485.834,312.551,1486.259z"/>
					<path fill="#3F3B3C" d="M314.341,1487.14l-0.29,1.614C314.151,1488.392,314.248,1487.873,314.341,1487.14z"/>
					<path fill="#3F3B3C" d="M314.729,1575.606l0.436,0.985C315.172,1575.054,314.945,1575.729,314.729,1575.606z"/>
					<path fill="#3F3B3C" d="M310.8,1370.311c-0.176,1.057-0.253,1.899-0.278,2.639
						C310.779,1371.676,311.159,1370.649,310.8,1370.311z"/>
					<path fill="#3F3B3C" d="M309.888,1539.884c0.075,0.516,0.162,0.737,0.259,0.722
						C310.076,1540.075,309.995,1539.774,309.888,1539.884z"/>
					<path fill="#3F3B3C" d="M310.504,1376.006c0.045-0.186,0.068-0.369,0.105-0.559c-0.068-0.774-0.122-1.553-0.088-2.497
						C310.33,1373.891,310.209,1374.968,310.504,1376.006z"/>
					<path fill="#3F3B3C" d="M313.616,1696.32c-0.02,0.088-0.03,0.193-0.054,0.273
						C313.621,1696.62,313.625,1696.499,313.616,1696.32z"/>
					<path fill="#3F3B3C" d="M309.019,1731.487c-0.025-0.346-0.022-0.911-0.024-1.444
						C308.963,1730.303,308.963,1730.738,309.019,1731.487z"/>
					<path fill="#3F3B3C" d="M310.595,1347.159C310.572,1346.369,310.548,1347.033,310.595,1347.159L310.595,1347.159z"/>
					<path fill="#3F3B3C" d="M312.335,1343.324c0.048,0.168,0.109,0.296,0.209,0.316
						C312.44,1343.575,312.374,1343.464,312.335,1343.324z"/>
					<path fill="#3F3B3C" d="M313.155,1383.884c-0.001,0.023-0.001,0.042-0.002,0.068
						C313.24,1383.718,313.223,1383.758,313.155,1383.884z"/>
					<path fill="#3F3B3C" d="M310.8,1345.971c-0.055,0.296-0.102,0.638-0.135,1.009
						C310.699,1346.817,310.743,1346.511,310.8,1345.971z"/>
					<path fill="#3F3B3C" d="M310.594,1346.13c0.018-0.272,0.033-0.486,0.046-0.69
						C310.569,1345.34,310.523,1345.428,310.594,1346.13z"/>
					<path fill="#3F3B3C" d="M310.612,1348.259c-0.004-0.452,0.019-0.873,0.053-1.278c-0.03,0.155-0.055,0.22-0.069,0.178
						C310.599,1347.39,310.604,1347.717,310.612,1348.259z"/>
					<path fill="#3F3B3C" d="M312.859,1631.635c-0.013,0.052-0.028,0.111-0.042,0.169
						C312.992,1632.601,312.965,1632.251,312.859,1631.635z"/>
					<path fill="#3F3B3C" d="M314.729,1444.198c-0.004-0.037-0.015-0.057-0.02-0.09c-0.005,0.037-0.011,0.083-0.016,0.117
						L314.729,1444.198z"/>
					<path fill="#3F3B3C" d="M315.034,1447.037c-0.532-1.212-0.462-1.898-0.342-2.812l-1.257,0.93L315.034,1447.037z"/>
					<path fill="#3F3B3C" d="M314.511,1556.911l0.402-1.989c0.627,2.408,0.395,4.146,0.954,2.28
						c-1.357-0.291-0.091-7.742-1.446-8.029l0.294-1.311c-0.016,0.376,0.064,0.437,0.048,0.809c0.666-2.548-0.97-1.904-0.756-5.193
						c0.111-1.146,0.313-1.944,0.47-1.161l-0.32-2.557c0.031-0.743,0.266-0.56,0.235,0.18l-0.084-3.897l0.04,0.029
						c-0.21-0.558-0.531-1.82-0.667-2.436c0.201-0.988,0.141,0.498,0.312,0.246l-0.316-2.16c0.357-0.876,0.688,0.915,0.628,2.405
						c1.368-2.004-0.331-1.793,0.488-6.135l0.16,2.039c0.779-1.307,0.509-2.899,1.004-5.198c-0.254,0.544-1.239,4.601-1.563,2.257
						c0.107-0.659,0.161-1.528-0.105-2.794c0.483-0.008,0.372-1.242,0.354-2.786l0.639,0.111c-0.174-1.67-0.501-1.541-0.783-2.525
						c0.075-1.859,0.573-2.241,0.993-2.675c0.12-2.977-0.807,2.05-0.906-1.476c0.26-2.475,0.01-4.216-0.355-7.183
						c0.231-1.732,0.389,0.307,0.576-0.314l-0.501-1.541c0.015-0.376,0.171-0.253,0.249-0.191c-0.19-1.297-0.638-0.113-0.8-2.15
						c-0.701-0.555,1.056-4.17,0.271-6.698c0.185-0.619,0.39,0.303,0.639,0.116c-0.503-3.462-0.363-2.968-1.052-5.813l0.435-2.415
						c-0.491,1.773-1.046-0.503-1.5-2.495c-0.236,0.629-0.442,1.165-0.541,1.526l-0.323-3.176c0.107-0.382,0.325-0.061,0.589,0.461
						c-0.055-0.216-0.108-0.421-0.15-0.583c0.243-1.133,0.609-0.541,0.961,0.275c-0.135,0.383-0.27,0.766-0.402,1.14
						c0.384,0.787,0.809,1.524,1.185,1.364c-0.072-0.207-0.133-0.605-0.166-1.042c0.104,0.206,0.198,0.338,0.262,0.243
						c0.068-0.107-0.071-0.439-0.231-0.96l0.717-0.715l-0.282-0.177l0.472-4.148c-0.699-2.977-1.74-5.569-2.005-10.286
						c0.516,1.174,0.852,0.258,1.472,0.327c-0.664,1.281,0.256,3.654,0.107,6.097c0.077-1.275,0.37-0.992,0.471-0.666l-0.569-4.363
						c0.506,0.102,0.386-0.922,0.602-2.059c-1.007,0.853-0.647-3.254-0.943-5.03c0.337-0.107,0.678,0.32,0.583,2.483
						c0.769-2.381-1.157-3.094-0.502-5.432c0.005,0.529-0.048,0.813,0.121,1.023c-0.291-1.236-0.036-4.251,0.253-3.539l0.004,0.527
						c0.14-3.506,0.074-10.676-0.773-11.206c0.11-0.034,1.022,0.467,1.193,0.68l-2.823-6.278c0.727,0.556,2.48-1.548,2.874,1.364
						c0.109-0.834,0.237-1.867-0.01-3.629c-0.108,0.569-1.065,1.413-1.127,0.634c0.827-2.131,0.444-1.48,1.154-4.11
						c-0.162,0.853-1.302-0.104-1.257-1.453c0.17,0.212,1.131-0.105,1.248,0.389l-1.104-3.366c0.197,0.839,0.952,0.154,1.275-0.595
						c-0.222,0.347,0.039-2.904-0.067-3.8l-0.27,1.422c0.194-3.791-1.558-3.756-1.476-7.517c0.23,0.457,1.423,1.134,1.576-0.779
						c-0.571-0.88-2.746-3.899-3.169-7.23l0.333-0.636l-0.359-2.556c0.857,1.595,2.653,6.068,3.347,8.509
						c0.27-1.417,0.391-0.393,0.374-2.518c0.313-0.749,0.461,1.161,0.475,1.787l0.23-4.947c-0.674,0.216-0.651-3.788-1.212-3.602
						l0.663,5.378c-0.672,0.214-1.889-3.119-1.748-6.623c0.273-0.89,1.193,0.674,1.417,0.602c-0.229-0.456-0.421-3.33-0.255-3.651
						l0.35,1.489c0.265-1.95-0.871-3.19-0.215-5.532c0.048-0.809,0.881-2.412,0.484-2.555c-0.775,1.316-3.15,1.562-3.721,0.679
						c0.053-0.283,0.76-4.246,1.145-5.168c0.61-1.33,1.421,2.008,1.945,0.876c-0.183-0.05-0.405-0.787-0.476-1.095
						c0.162-0.849,0.567,0.355,0.495-1.493c-0.68-0.312,0.081-3.757-0.571-0.876c-0.184-1.808,0.152-1.92,0.136-4.042
						c-0.445,0.673-1.487-1.912-1.67-3.723c0.173,0.108,0.401-0.298,0.505-0.494c0.085-3.704,0.407-5.69,0.434-9.144
						c0.167-0.318,0.377-1.983,0.666-1.272c-0.117-0.497-0.346-0.954-0.356-2.02c0.602-2.059,0.077,2.376,0.795,0.807
						c-0.395-0.136-0.529-2.758-0.767-4.276c-0.615,0.464-0.139,3.505,0.099,5.026c-0.844,0.003-1.711-2.645-2.079-6.257
						c-0.192-2.87,0.553-1.242,0.436-1.74c0.181-5.388-1.445-4.596-0.808-9.068c0.549-1.774,1.07-0.076,1.46-0.469
						c0.189,2.338-0.364,3.587-0.352,5.171l0.267-1.949c0.174,0.744,0.3,2.305,0.139,3.154c0.492-1.486,0.15-9.104,0.621-13.26
						c-0.176-0.739-0.354-2.015-0.574-1.412l0.067,1.316c-0.441,1.208-0.584-2.478-0.797-0.813c-0.294-1.766-0.761-3.745-0.5-6.228
						l0.616-0.465c-0.18,0.053-0.375,1.623-0.193,2.321c-0.265-1.036,0.854-3.807,0.058-4.944l-0.436,1.74
						c-0.297-1.773-0.934-3.964-0.727-6.165c-0.612,1,0.066,0.508-0.652,2.07c0.89-1.354-0.072,5.631,0.868,3.456
						c-0.832,1.603-0.366,2.777-1.08,4.873c0.203-0.064,0.391-0.742,0.28,1.106c0.059,0.084,0.132,0.281,0.176,0.406
						c-0.007,0.056-0.01,0.076-0.016,0.125c0.009-0.037,0.016-0.065,0.025-0.102c0.03,0.08,0.036,0.087,0.009-0.038
						c0.091-0.44,0.2-0.796,0.313-0.94c0.459,0.919,0.426,3.858,0.66,4.852c-0.103,1.096-0.229-0.459-0.449,0.138l0.35,1.486
						c-0.45,0.146-0.764,2.911-1.011,0.327l-0.035,2.325c-0.261,1.368-0.372,3.251-0.191,4.412c-0.104,1.096,0.48,2.772,0.134,1.815
						l0.256,3.648l-0.113,0.033c-0.079,3.597,0.697,7.41-0.139,11.52c0.106,1.212,0.237,2.464,0.096,4.49l-0.391,0.393
						c0.126,1.555-0.418,4.668-0.017,5.339c-1.056,1.673-0.275,7.547-0.478,10.281l0.507,0.106
						c-0.041,1.882,0.092,3.688,0.281,6.026l0.449-0.141c0.356,2.017-0.351,5.178-0.325,8.366c-0.17-0.218-0.12-1.026-0.013-1.597
						c-1.036,3.802,0.687,8.037-0.073,11.486c0.158,0.861,0.098,1.484-0.018,2.087c0-0.08-0.008-0.152-0.022-0.214
						c-0.002,0.088-0.005,0.219-0.008,0.353c-0.079,0.38-0.172,0.77-0.246,1.194c0.111-0.36,0.203-0.704,0.246-1.004
						c0.005,0.664,0.055,1.671,0.161,2.658l-0.484,0.417c0.004,0.08,0.008,0.144,0.012,0.228c-0.184,0.967,0.223,0.78,0.589,0.266
						c0.076,0.497,0.168,0.953,0.282,1.307c-0.782,0.781,0.246,2.59-0.59,3.658c0.4,0.668,0.273,4.962,1.12,5.493
						c-0.111,0.033-0.166,0.323-0.169-0.209c-0.104,1.099-0.208,2.198,0.026,3.186l-0.615,0.463l0.808,2.407
						c-0.382,1.457-0.603,2.06-1.065,0.608c0.703,3.503,0.255,2.84,0.955,5.821l-0.395-0.148c0.008,1.063,0.528,2.767,0.197,3.406
						c-0.767,2.373-0.177,11.77-0.915,17.871c1.173-1.175-0.54,2.834,0.362,3.083c-0.278,0.354-0.439,1.203-0.672,0.212
						c0.251,3.119-0.466,4.678,0.282,6.836c-0.279,0.354-0.4-0.67-0.566-0.354c0.058,0.25,0.233,0.992,0.067,1.315
						c-0.166,0.316-0.229-0.458-0.346-0.953c0.027,3.183,0.874,3.513,1.67,3.751c-0.388,1.61-0.339,2.415,0.176,3.585
						c-0.264,0.559-0.543,1.494-0.624-0.485c-0.045,1.112-0.425,6.794,0.214,6.913c-0.164,0.347-0.057,1.555,0.015,1.849
						c-0.054,2.497-0.113,2.716-0.067,5.168l0.109-0.679c0.765,0.975,0.159,2.04,0.24,4.018l-0.079-0.057
						c-0.584,4.528,0.254,1.959-0.408,6.426l0.481-0.239c1.029,0.426-0.633,3.957-0.255,6.556l0.28-0.934
						c0.344,1.42-1.427,3.95-1.565,5.373c-0.092,0.309-0.141-0.491-0.205-0.925c-0.632,3.722,0.625,0.488,0.754,3.267
						c-0.342,0.51-0.858-0.667-0.932,1.202c-0.28,0.929,1.066,5.431,0.4,7.976c0.265-0.56,0.529-1.116,0.717,0.176
						c0.081,1.978-1.021,5.338-0.208,7.13c-0.073,0.251-0.142,0.345-0.207,0.355c0.203,1.513,0.322,4.915,0.763,5.828
						c-1.665,1.384,0.747,9.402-0.781,9.357l0.053,4.65l-0.155-0.123c-0.12,2.971,0.24,4.024,0.6,5.071
						c-0.108,0.686-0.248,0.184-0.327,0.126c-0.335,4.34-0.273,4.772,0.465,8.418l-0.498,0.375
						c0.282,0.988-0.816,6.273-0.265,10.535c-0.056-0.042-0.151-0.131-0.219-0.469c0.552,4.795-1.447,11.463,0.348,13.229
						l0.425,3.164c0.166-4.09,0.779,0.613,1.09-1.068c0.096,1.609-0.57,4.156-0.651,2.179l0.092-0.309
						c-0.936-0.731-0.365,5.081-1.005,4.968c-0.004,8.05-0.574,15.893-0.661,23.433l0.737-0.865l-0.058,2.63
						c-0.175,0.69-0.578,0.924-0.536-0.952c-0.421,0.985,0.327,3.148,0.486,3.202c-0.319,3.672-0.844-1.439-0.869-0.312l0.045,1.53
						l0.088-0.345c0.291,1.241,0.607,1.353,0.557,3.608c-0.155,1.426-0.456,0.73-0.487,1.292c-0.052-0.004-0.077,0.186-0.026,0.861
						l-0.083,3.313l0.586-1.323c0.276,1.47-0.05,3.116,0.614,1.589c-1.023,2.24-0.439,12.359-0.761,13.736
						c0.408,2.058,0.388,4.089,0.322,6.604c0.124-0.625,0.776-0.997,0.683,1.172c-1.335-0.797-0.606,3.971-1.581,5.722
						c0.649-1.565,0.119,6.168,1.042,3.712c-0.12,1.81-0.502,0.109-0.826,1.481c0.492,4.31-0.397,9.494-0.255,14.82
						c0.175,0.083,0.45-0.808,0.704,0.335l-0.897,2.81c0.08,1.052,1.009,0.97,0.387,2.891c0.15-0.271,0.375-0.676,0.427,0.03
						c-0.922,10.432,0.569,21.319-1.107,31.913c0.35-1.435,0.378-0.478,0.383,0.617c0.086-0.713,0.434,0.016,0.674-0.124
						l-0.69,4.435c0.657,0.809,0.015,4.756,0.645,5.219l-0.105-1.405c0.735,1.868,1.676-2.614,2.632-2.34
						c-0.836-2.092,1.291-5.514,0.098-8.946c0.2-0.757,0.304,0.646,0.529,0.241c-0.405-0.87-0.484-1.92-0.288-3.867l0.1,0.22
						c-0.066-5.469,0.353-7.813,0.661-13.956l-0.476,0.454c0.072-1.32,0.222-1.598,0.344-2.216
						c-0.709-1.516-0.064,3.708-0.847,2.327c0.975-1.75,0.073-9.31,1.175-10.492c0.018-2.031-0.552,0.594-0.533-1.436l0.3-0.538
						l-0.379-0.514c0.071-1.331,0.446-2.002,0.697-2.052c-0.032,0.323,0.065,0.918,0.084,1.265c0.36-1.726-0.089-4.869,0.029-5.461
						l-0.195,1.951c-0.243-5.543,0.189-12.309-0.38-17.666l-0.226,0.406c-0.388-4.09,0.266-3.275,0.103-7.765l0.052,0.163
						c-0.217-0.899-0.322-2.099-0.289-3.328c0.255,1.134,0.522-2.132,0.802-0.644c-0.416-4.435-0.335-2.194-1.147-5.126l0.375-0.674
						c-0.329-0.999-0.505-1.083-0.588-3.326c0.307,1.84,0.574-1.429,0.982,0.632c0.84-4.702-0.775-6.989,0.424-9.144
						c-1.013-2.164-0.595,4.07-0.807,2.859c-0.342,1.012-0.756-1.786-0.644-3.263c0.032-1.503,1.329-2.551,1.333-6.332
						c-0.007,0.376,0.07,0.402,0.064,0.777c0.271-1.414-0.337-2.774,0.099-4.508c-0.615-0.975,0.05-2.253-0.74-2.537l0.161,3.469
						c-0.195-1.967-1.11-3.815-0.64-7.052c0.158,0.253,0.362,1.218,0.475,1.88c0.239-0.946-0.143-1.824,0.102-2.805
						c0.791,0.283,0.146,4.216,0.737,6.325c0.341-1.015-0.549-3.987,0.302-2.925c-1.081-1.526,0.161-3.725-0.656-6.289l0.474,0.171
						c-0.072-0.405-0.291-1.246-0.274-1.992l0.607,1.353c-0.512-2.075,0.484-3.994,0.211-5.984c-0.011,4.163-0.578,0.932-0.935,2.69
						c-0.603-5.138,1.26-2.947,1.068-8.697c0.062,0.779-0.303,2.92-0.516,1.702c0.105-1.094,0.296-2.538,0.549-3.208
						c-0.075-3.809-0.492,0.582-0.773-1.04c0.586-1.294-0.224-1.871-0.398-3.542l0.483-0.009c0.337-4.339-0.998-1.156-0.6-5.062
						l0.659,1.655l-0.16-2.038l0.546,0.423c-0.393-2.218-0.284-2.908-0.116-5.078c-0.343,0.503-0.874-0.288-0.877-2.211
						c0.295-1.309,0.454,0.737,0.402-1.989c0.298,0.617,0.673,1.293,0.221,2.476c0.157,0.122,0.299,0.608,0.454,0.734
						c0.338-1.41,0.097-3.548,0.099-4.535c-0.02,0.38-0.049,0.834-0.119,1.066l-0.644-3.954c0.185-0.621,0.328-0.127,0.467,0.363
						c-0.047-0.8-0.265-1.355-0.3-2.532c0.39,0.307,0.795,0.236,0.97,1.903l-0.412-3.766c0.172-0.25,0.48-1.929,0.622-1.439
						c0.244-2.085-0.729-5.123-0.407-7.887c-0.075-0.144-0.146-0.433-0.199-1.021c0.105-2.599,0.6-4.899,0.082-7.984l0.714-1.744
						c-0.145-2.414-0.9,2.361-1.141-1.659c-0.206-2.847,0.606-1.058,0.808-2.055c-0.346-1.417-1.052-3.882-0.463-6.492
						C314.572,1555.425,314.464,1556.103,314.511,1556.911z M314.385,1527.145c0.098,0.578,0.403,1.73,0.115,2.149
						C313.952,1528.632,314.22,1528.127,314.385,1527.145z M313.506,1481.885c0.157,0.43,0.074,1.093-0.114,1.84
						C313.356,1483.181,313.378,1482.566,313.506,1481.885z M310.934,1355.815c0.008,0.025,0.013,0.042,0.023,0.062
						C310.761,1357.162,310.838,1356.706,310.934,1355.815z M311.16,1353.144c-0.066-0.269-0.133-0.25-0.201-0.137
						c0.121,0.187,0.125,0.787,0.087,1.47C311.174,1354.287,311.263,1353.942,311.16,1353.144z M309.559,1640.056l0.129-0.519
						C309.82,1640.712,309.697,1640.382,309.559,1640.056z"/>
					<path fill="#3F3B3C" d="M314.134,1487.022c-0.083,0.162-0.173,0.207-0.264,0.245
						C313.95,1487.494,314.044,1487.499,314.134,1487.022z"/>
					<path fill="#3F3B3C" d="M314.649,1575.424l-0.006,0.091c0.029,0.05,0.058,0.077,0.086,0.092L314.649,1575.424z"/>
					<path fill="#3F3B3C" d="M314.992,1394.547c-0.073,0.55-0.163,0.856-0.256,1.06
						C314.854,1395.637,314.955,1395.388,314.992,1394.547z"/>
					<path fill="#3F3B3C" d="M310.429,1338.985l0.115,1.712c-0.019-0.828,0.089-1.123,0.168-1.541
						C310.598,1339.194,310.433,1339.52,310.429,1338.985z"/>
					<path fill="#3F3B3C" d="M313.507,1324.14c-0.058-0.25-0.003-0.53-0.062-0.777l-0.225,0.068
						C313.228,1324.496,313.405,1325.241,313.507,1324.14z"/>
					<path fill="#3F3B3C" d="M312.041,1337.406c0.407-0.135,0.276-1.208,0.208-2.407c0.001,0.072,0.004,0.14-0.001,0.212
						C311.682,1334.855,311.862,1336.133,312.041,1337.406z"/>
					<path fill="#3F3B3C" d="M312.237,1334.72c-0.017-0.37-0.025-0.747-0.003-1.108
						C312.007,1333.471,312.184,1334.061,312.237,1334.72z"/>
					<path fill="#3F3B3C" d="M310.912,1349.755c0.108-0.568-0.516-0.358-0.349-0.679
						C310.05,1348.439,311.164,1352.867,310.912,1349.755z"/>
					<polygon fill="#3F3B3C" points="313.384,1336.439 312.881,1336.867 313.28,1337.54 					"/>
					<path fill="#3F3B3C" d="M312.958,1345.903l0.151-1.915c-0.084,0.029-0.132-0.215-0.168-0.514
						C312.917,1344.654,312.809,1345.948,312.958,1345.903z"/>
					<path fill="#3F3B3C" d="M312.941,1343.474c0.014-0.615,0.006-1.2-0.073-1.542
						C312.87,1342.265,312.883,1342.981,312.941,1343.474z"/>
					<polygon fill="#3F3B3C" points="313.518,1339.058 313.41,1339.624 313.365,1340.976 					"/>
					<path fill="#3F3B3C" d="M312.732,1366.494l0.131,2.091c0.17,0.214,0.279-0.356,0.216-1.134
						C312.962,1366.95,312.9,1366.174,312.732,1366.494z"/>
					<path fill="#3F3B3C" d="M314.144,1360.177c-0.108,0.565-0.22,0.603-0.387,0.921l0.621,0.066L314.144,1360.177z"/>
					<path fill="#3F3B3C" d="M314.251,1366.274c0.171,0.209,0.476,3.036,0.453,0.386
						C314.535,1366.447,314.405,1364.353,314.251,1366.274z"/>
					<polygon fill="#3F3B3C" points="313.269,1397.771 313.264,1397.239 312.245,1397.31 					"/>
					<path fill="#3F3B3C" d="M315.532,1425.55c0.26-2.476-0.625-0.592-0.306-2.829c-0.237-0.583-0.26,1.828-0.464,1.231
						C315.006,1425.448,314.858,1426.232,315.532,1425.55z"/>
					<path fill="#3F3B3C" d="M314.762,1423.951c-0.039-0.24-0.086-0.494-0.15-0.764
						C314.672,1423.621,314.72,1423.825,314.762,1423.951z"/>
					<polygon fill="#3F3B3C" points="308.435,1737.324 308.213,1738.917 308.562,1737.889 					"/>
					<path fill="#3F3B3C" d="M309.172,1740.382l-0.651,0.375l0.581,0.957C309.075,1741.354,309.023,1740.656,309.172,1740.382z"/>
					<path fill="#3F3B3C" d="M315.72,1522.731l-0.156-0.123c-0.17,0.245-0.185,0.618-0.217,1.365L315.72,1522.731z"/>
					<polygon fill="#3F3B3C" points="315.1,1544.329 315.115,1543.957 314.524,1544.648 					"/>
					<path fill="#3F3B3C" d="M315.735,1562.465c0.029-0.74-0.096-1.611-0.067-2.354
						C315.764,1561.725,315.002,1562.66,315.735,1562.465z"/>
				</g>
			</g>
		</g>
	</g>
</g>
<g>
	<g>
		<g>
			<g>
				<g>
					<path fill="#3F3B3C" d="M2014.028,1257.137c2.492,0.037,1.598-0.382,1.972-0.458
						C2011.83,1256.772,2014.133,1257.246,2014.028,1257.137z"/>
					<polygon fill="#3F3B3C" points="1972.892,1258.088 1973.62,1257.917 1967.556,1258.336 					"/>
					<path fill="#3F3B3C" d="M1934.425,1258.08c3.637,0.714,13.938-0.115,20.792,0.139l1.13,0.163l3.092-0.574
						C1951.109,1257.898,1940.29,1258.279,1934.425,1258.08z"/>
					<path fill="#3F3B3C" d="M1913.914,1256.536c1.266,0.278-4.436,0.239,4.783,0.087c-0.463-0.03-0.596-0.048-0.866-0.07
						C1917.001,1256.557,1915.858,1256.556,1913.914,1256.536z"/>
					<path fill="#3F3B3C" d="M1917.831,1256.553C1921.882,1256.533,1915.18,1256.319,1917.831,1256.553L1917.831,1256.553z"/>
					<path fill="#3F3B3C" d="M1899.123,1256.712l5.336-0.248c-1.114-0.164-5.864-0.201-4.1-0.32
						C1894.885,1256.279,1896.011,1256.443,1899.123,1256.712z"/>
					<path fill="#3F3B3C" d="M1894.063,1257.233l2.765-0.105C1896.344,1257.059,1895.613,1257.035,1894.063,1257.233z"/>
					<path fill="#3F3B3C" d="M1902.693,1256.906l-5.864,0.222c0.773,0.115,0.855,0.347,2.692-0.08
						C1899.041,1257.259,1900.201,1257.056,1902.693,1256.906z"/>
					<path fill="#3F3B3C" d="M1906.013,1257.015c2.994,0.155,6.86,0.253,1.504,0.5
						C1917.726,1257.417,1916.222,1256.915,1906.013,1257.015z"/>
					<path fill="#3F3B3C" d="M1932.461,1258.818l4.001,0.209l3.462-0.239C1938.195,1258.907,1932.212,1258.595,1932.461,1258.818z"
						/>
					<path fill="#3F3B3C" d="M1865.882,1256.342c-0.333,0.152,1.794,0.405,2.192,0.599l3.942-0.174
						C1869.99,1256.663,1866.15,1256.568,1865.882,1256.342z"/>
					<path fill="#3F3B3C" d="M1868.074,1256.942l-5.897,0.261C1867.444,1257.233,1868.407,1257.109,1868.074,1256.942z"/>
					<polygon fill="#3F3B3C" points="1893.112,1258.026 1902.799,1257.478 1891.245,1258.033 					"/>
					<polygon fill="#3F3B3C" points="1843.359,1256.323 1846.702,1255.972 1840.747,1256.503 					"/>
					<path fill="#3F3B3C" d="M1828.419,1256.385c2.474-0.291-3.392-0.493-0.776-0.672c-4.058,0.052-7.523,0.302-10.643,0.527
						C1820.315,1256.114,1823.848,1256.147,1828.419,1256.385z"/>
					<path fill="#3F3B3C" d="M1811.76,1256.568c1.656-0.07,3.372-0.195,5.239-0.328
						C1815.239,1256.307,1813.506,1256.404,1811.76,1256.568z"/>
					<path fill="#3F3B3C" d="M1852.131,1257.127c-0.456-0.092-1.334-0.332-4.641-0.434l2.319,0.427
						C1850.517,1257.123,1851.318,1257.125,1852.131,1257.127z"/>
					<path fill="#3F3B3C" d="M1849.891,1257.134l-0.082-0.014c-2.517-0.009-4.263-0.019-5.011-0.024
						C1845.441,1257.101,1846.974,1257.111,1849.891,1257.134z"/>
					<path fill="#3F3B3C" d="M1852.716,1257.129c-0.215-0.001-0.373-0.002-0.585-0.002
						C1852.355,1257.169,1852.49,1257.183,1852.716,1257.129z"/>
					<path fill="#3F3B3C" d="M1877.653,1257.639c-3.465,0.239-10.688,0.495-3.698,0.859
						C1876.44,1258.206,1872.439,1257.998,1877.653,1257.639z"/>
					<path fill="#3F3B3C" d="M1855.596,1257.663l6.264,0.098c-0.123-0.113-1.253-0.277,0.463-0.396L1855.596,1257.663z"/>
					<polygon fill="#3F3B3C" points="1852.53,1257.799 1855.596,1257.663 1853.274,1257.627 					"/>
					<path fill="#3F3B3C" d="M1822.49,1256.967c-2.705,0.186-5.666,0.202-9.009,0.231c3.583,0.084,7.288,0.129,10.807,0.128
						C1824.784,1257.193,1826.33,1256.952,1822.49,1256.967z"/>
					<path fill="#3F3B3C" d="M1835.806,1257.086c-0.187,0.01-0.426,0.015-0.601,0.024
						C1835.574,1257.147,1835.871,1257.158,1835.806,1257.086z"/>
					<path fill="#3F3B3C" d="M1780.566,1257.196c0.183,0.024,0.342,0.053,0.528,0.078c0.042-0.025,0.07-0.049,0.123-0.074
						L1780.566,1257.196z"/>
					<path fill="#3F3B3C" d="M1824.889,1257.407c2.694,0.082,4.303-0.022,5.837-0.154c-2.014,0.043-4.148,0.071-6.439,0.074
						C1824.064,1257.388,1824.023,1257.428,1824.889,1257.407z"/>
					<path fill="#3F3B3C" d="M1802.578,1256.767c1.403,0.089,2.994,0.165,4.664,0.235
						C1805.871,1256.867,1803.074,1256.656,1802.578,1256.767z"/>
					<path fill="#3F3B3C" d="M1834.296,1256.992c0.135-0.007,0.257-0.015,0.403-0.019
						C1833.817,1256.881,1833.927,1256.926,1834.296,1256.992z"/>
					<path fill="#3F3B3C" d="M1834.296,1256.992c-1.386,0.062-2.475,0.167-3.57,0.261c1.639-0.034,3.16-0.079,4.478-0.143
						C1834.871,1257.08,1834.536,1257.034,1834.296,1256.992z"/>
					<path fill="#3F3B3C" d="M1770.594,1259.939c0.475-0.396,7.556-0.762,13.669-0.337c6.016-0.297,2.082-1.6-3.169-2.328
						c-0.187,0.173-0.187,0.332-6.377,0.566c2.167,0.216,13.735,0.506,8.513,0.864c-8.2,0.204-6.719-0.14-10.705-0.35
						c3.388,0.494-10.432,0.718-8.646,1.444l7.19-0.255C1771.204,1259.656,1768.597,1259.836,1770.594,1259.939z"/>
					<path fill="#3F3B3C" d="M1792.889,1257.314l2.547-0.049c-2.904-0.069-4.983-0.227-8.809-0.537
						c-4.238,0.193-5.118,0.34-5.409,0.472l12.542,0.055L1792.889,1257.314z"/>
					<path fill="#3F3B3C" d="M1806.873,1257.263c-1.989,0.431-8.106,0.614-4.36,1.081c7.475-0.03,5.238-0.36,9.704-0.547
						c-12.063,0.107,3.465-0.24-5.251-0.484c2.37-0.073,4.503-0.096,6.515-0.114c-2.172-0.052-4.266-0.117-6.239-0.197
						c0.11,0.01,0.187,0.017,0.277,0.027l0.057-0.001c0,0.003-0.012,0.004-0.012,0.007c0.52,0.054,0.691,0.086,0.105,0.055
						c-0.04,0.005-0.187,0.007-0.252,0.009c-0.082,0.06-0.305,0.112-0.545,0.163c-3.493-0.089-0.55-0.112,0.545-0.163
						c0.04-0.021,0.135-0.042,0.147-0.064c-0.012-0.002-0.028-0.004-0.045-0.005l-12.083,0.236
						C1797.993,1257.325,1801.195,1257.313,1806.873,1257.263z"/>
					<path fill="#3F3B3C" d="M1867.509,1259.425c-0.375-0.038-0.358-0.069-0.386-0.1
						C1866.341,1259.378,1866.045,1259.414,1867.509,1259.425z"/>
					<path fill="#3F3B3C" d="M1862.538,1259.165c0.88-0.06,1.611-0.232,4.466-0.188c2.477,0.129-0.012,0.207,0.118,0.348
						c1.721-0.114,6.024-0.309,0.626-0.519l-0.855,0.059c-4.864-0.148-11.115-0.686-10.265-0.745
						C1858.049,1258.508,1859.301,1258.784,1862.538,1259.165z"/>
					<path fill="#3F3B3C" d="M1834.358,1258.324l-10.062,0.211l5.124,0.373l-0.26-0.224
						C1834.883,1258.772,1833.647,1258.496,1834.358,1258.324z"/>
					<polygon fill="#3F3B3C" points="1779.415,1256.982 1780.75,1256.526 1774.937,1257.169 					"/>
					<polygon fill="#3F3B3C" points="1766.34,1257.036 1766.823,1256.64 1763.371,1256.879 					"/>
					<path fill="#3F3B3C" d="M1028.459,1261.946l-2.957,0.112C1026.901,1262.024,1027.801,1261.986,1028.459,1261.946z"/>
					<path fill="#3F3B3C" d="M1049.864,1261.973l0.525-0.195C1049.397,1261.886,1048.991,1261.965,1049.864,1261.973z"/>
					<path fill="#3F3B3C" d="M1445.199,1257.081c-4.306-0.37-9.117-0.943-8.598-0.498l1.323,0.434
						C1440.933,1256.939,1443.24,1256.987,1445.199,1257.081z"/>
					<path fill="#3F3B3C" d="M1225.264,1259.671c0.41,0.042,0.836,0.087,1.259,0.132c1.046-0.148,2.031-0.286,2.909-0.415
						C1228.179,1259.477,1226.756,1259.571,1225.264,1259.671z"/>
					<path fill="#3F3B3C" d="M1222.225,1261.466l-5.677-0.28C1217.824,1261.284,1219.65,1261.378,1222.225,1261.466z"/>
					<path fill="#3F3B3C" d="M911.555,1262.406l-3.45,0.442C913.502,1262.846,911.127,1262.623,911.555,1262.406z"/>
					<path fill="#3F3B3C" d="M1632.417,1257.196c-3.717-0.169-6.674-0.241-9.272-0.262
						C1627.623,1257.183,1631.234,1257.557,1632.417,1257.196z"/>
					<path fill="#3F3B3C" d="M1036.882,1257.342c-1.809,0.079-2.582,0.167-2.529,0.264
						C1036.215,1257.532,1037.268,1257.449,1036.882,1257.342z"/>
					<path fill="#3F3B3C" d="M1612.411,1256.936c0.655,0.043,1.298,0.065,1.964,0.102c2.717-0.073,5.451-0.131,8.769-0.104
						C1619.838,1256.749,1616.052,1256.634,1612.411,1256.936z"/>
					<path fill="#3F3B3C" d="M487.578,1262.047c-0.308-0.019-0.68-0.029-0.96-0.052
						C486.525,1262.054,486.951,1262.057,487.578,1262.047z"/>
					<path fill="#3F3B3C" d="M364.06,1257.669c1.216-0.027,3.2-0.027,5.071-0.033C368.22,1257.606,366.691,1257.609,364.06,1257.669
						z"/>
					<path fill="#3F3B3C" d="M1713.728,1256.847C1716.501,1256.818,1714.167,1256.799,1713.728,1256.847L1713.728,1256.847z"/>
					<path fill="#3F3B3C" d="M1727.215,1258.563c-0.59,0.049-1.038,0.111-1.108,0.211
						C1726.335,1258.669,1726.722,1258.603,1727.215,1258.563z"/>
					<path fill="#3F3B3C" d="M1584.788,1259.636c-0.082,0-0.147-0.002-0.24-0.002
						C1585.372,1259.719,1585.231,1259.703,1584.788,1259.636z"/>
					<path fill="#3F3B3C" d="M1717.901,1257.044c-1.041-0.053-2.241-0.098-3.547-0.129
						C1714.927,1256.949,1716.005,1256.991,1717.901,1257.044z"/>
					<path fill="#3F3B3C" d="M1717.339,1256.839c0.956,0.02,1.708,0.03,2.424,0.042
						C1720.113,1256.809,1719.803,1256.763,1717.339,1256.839z"/>
					<path fill="#3F3B3C" d="M1709.864,1256.87c1.586-0.007,3.065,0.014,4.49,0.045c-0.545-0.029-0.773-0.054-0.626-0.068
						C1712.915,1256.854,1711.767,1256.862,1709.864,1256.87z"/>
					<path fill="#3F3B3C" d="M714.747,1260.886c-0.183-0.014-0.395-0.023-0.595-0.041
						C711.355,1261.025,712.583,1260.996,714.747,1260.886z"/>
					<path fill="#3F3B3C" d="M1373.021,1261.586c0.13-0.004,0.198-0.016,0.317-0.021c-0.13-0.005-0.293-0.01-0.41-0.015
						L1373.021,1261.586z"/>
					<path fill="#3F3B3C" d="M1363.061,1261.909c4.241-0.54,6.654-0.474,9.867-0.359l-3.295-1.251L1363.061,1261.909z"/>
					<path fill="#3F3B3C" d="M977.206,1262.071l6.995,0.39c-8.443,0.642-14.552,0.42-7.985,0.969
						c0.99-1.358,27.189-0.139,28.162-1.496l4.611,0.286c-1.321-0.013-1.533,0.067-2.839,0.053c8.967,0.65,6.662-0.982,18.216-0.789
						c4.026,0.104,6.837,0.301,4.091,0.462l8.973-0.336c2.61,0.026,1.972,0.262-0.626,0.236l13.685-0.108l-0.102,0.04
						c1.952-0.213,6.377-0.542,8.538-0.683c3.477,0.195-1.744,0.144-0.855,0.313l7.578-0.329c3.087,0.352-3.193,0.693-8.428,0.643
						c7.077,1.356,6.287-0.342,21.56,0.45l-7.155,0.172c4.613,0.771,10.197,0.491,18.286,0.972
						c-1.919-0.251-16.196-1.21-7.971-1.549c2.317,0.103,5.373,0.151,9.809-0.122c0.042,0.483,4.373,0.364,9.794,0.337l-0.37,0.64
						c5.861-0.185,5.397-0.51,8.846-0.798c6.532,0.063,7.886,0.559,9.424,0.976c10.46,0.102-7.223-0.794,5.158-0.915
						c8.699,0.245,14.808-0.017,25.215-0.4c6.089,0.22-1.065,0.391,1.119,0.574l5.398-0.51c1.321,0.012,0.895,0.169,0.678,0.248
						c4.548-0.198,0.375-0.639,7.525-0.813c1.927-0.705,14.678,1.03,23.527,0.23c2.181,0.182-1.053,0.392-0.386,0.64
						c12.141-0.525,10.409-0.381,20.377-1.088l8.493,0.42c-6.24-0.48,1.733-1.049,8.716-1.516c-2.214-0.232-4.105-0.435-5.374-0.532
						l11.145-0.343c1.346,0.105,0.223,0.325-1.603,0.592c0.76-0.053,1.481-0.105,2.042-0.153c3.985,0.236,1.919,0.606-0.936,0.963
						c-1.358-0.126-2.705-0.261-4.015-0.395c-2.752,0.389-5.328,0.819-4.754,1.193c0.725-0.074,2.119-0.137,3.653-0.173
						c-0.72,0.105-1.179,0.2-0.846,0.264c0.378,0.067,1.541-0.074,3.363-0.237l2.534,0.713l0.615-0.283l14.58,0.446
						c10.432-0.718,19.506-1.774,36.063-2.069c-4.108,0.523-0.883,0.854-1.106,1.474c-4.518-0.656-12.824,0.279-21.405,0.146
						c4.478,0.069,3.493,0.364,2.354,0.467l15.304-0.597c-0.345,0.507,3.25,0.38,7.248,0.589
						c-3.022-1.002,11.408-0.667,17.635-0.974c0.386,0.337-1.106,0.68-8.704,0.599c8.383,0.754,10.832-1.176,19.059-0.536
						c-1.856,0.008-2.855-0.043-3.588,0.127c4.333-0.299,14.926-0.062,12.434,0.231l-1.851,0.007
						c12.316,0.119,37.491,0.007,39.328-0.843c0.123,0.11-1.614,1.025-2.359,1.197l21.975-2.862c-1.936,0.73,5.496,2.47-4.718,2.883
						c2.932,0.104,6.56,0.225,12.742-0.032c-2.001-0.104-4.986-1.056-2.252-1.123c7.503,0.814,5.209,0.435,14.458,1.128
						c-2.999-0.157,0.333-1.302,5.071-1.266c-0.74,0.171,0.395,1.131-1.338,1.25l11.794-1.125c-2.944,0.203-0.52,0.953,2.119,1.271
						c-1.224-0.22,10.197,0.02,13.34-0.091l-4.999-0.261c13.317,0.17,13.154-1.581,26.364-1.522c-1.599,0.233-3.95,1.43,2.769,1.571
						c3.078-0.576,13.634-2.771,25.322-3.214l2.242,0.329l8.967-0.375c-5.584,0.867-21.255,2.69-29.813,3.4
						c4.983,0.261,1.388,0.388,8.851,0.358c2.635,0.309-4.068,0.468-6.264,0.486l17.375,0.199
						c-0.773-0.673,13.287-0.674,12.624-1.234l-18.871,0.697c-0.765-0.671,10.912-1.908,23.223-1.789
						c3.132,0.267-2.342,1.197-2.086,1.421c1.598-0.232,11.685-0.442,12.816-0.278l-5.223,0.359
						c6.854,0.253,11.185-0.891,19.421-0.25c2.842,0.043,8.488,0.866,8.979,0.468c-4.636-0.767-5.542-3.14-2.452-3.716
						c0.996,0.052,14.926,0.733,18.172,1.112c4.681,0.601-7.027,1.434-3.042,1.95c0.172-0.184,2.757-0.41,3.835-0.483
						c2.985,0.157-1.236,0.569,5.251,0.486c1.083-0.682,13.194,0.058,3.067-0.576c6.345-0.195,6.744,0.14,14.195,0.11
						c-2.372-0.44,6.69-1.499,13.047-1.693c-0.375,0.173,1.053,0.399,1.744,0.502c13.007,0.061,19.989,0.371,32.118,0.377
						c1.118,0.165,6.97,0.365,4.478,0.658c1.744-0.121,3.347-0.352,7.088-0.368c7.24,0.589-8.341,0.092-2.822,0.8
						c0.471-0.396,9.675-0.547,15.003-0.794c-1.639-0.612-12.311-0.117-17.647,0.13c-0.025-0.844,9.264-1.727,21.941-2.118
						c10.075-0.209,4.368,0.545,6.117,0.425c18.924,0.147,16.122-1.474,31.837-0.865c6.235,0.538,0.281,1.07,1.664,1.458
						c-8.208,0.204-12.601-0.341-18.163-0.32l6.849,0.254c-2.61,0.179-8.09,0.314-11.075,0.159
						c5.226,0.483,31.972,0.093,46.573,0.539c2.594-0.18,7.072-0.367,4.953-0.583l-4.62,0.075c-4.246-0.434,8.694-0.6,2.847-0.802
						c6.197-0.305,13.144-0.784,21.868-0.539l1.639,0.613c-0.187-0.179-5.702-0.365-8.155-0.179
						c3.637-0.272,13.377,0.83,17.362,0.027l-6.115-0.425c6.222-0.308,13.913-0.959,21.645-0.766
						c-3.518-0.605-1.783,0.069-7.277-0.639c4.763,0.881-19.779-0.037-12.128,0.889c-5.637-0.822-9.757-0.349-17.127-1.05
						c0.228,0.202,2.61,0.387-3.88,0.287c-0.293,0.059-0.985,0.134-1.424,0.178c-0.198-0.005-0.268-0.009-0.438-0.015
						c0.13,0.008,0.227,0.016,0.358,0.024c-0.281,0.03-0.307,0.037,0.133,0.008c1.546,0.088,2.799,0.195,3.307,0.308
						c-3.222,0.464-13.544,0.45-17.034,0.69c-3.852-0.096,1.611-0.232-0.491-0.448l-5.214,0.359
						c-0.516-0.449-10.232-0.746-1.159-1.009l-8.166-0.02c-4.808-0.252-11.421-0.352-15.499-0.163
						c-3.852-0.097-9.729,0.497-6.374,0.146l-12.807,0.278l-0.118-0.112c-12.636-0.057-26.013,0.744-40.459-0.067
						c-4.255,0.113-8.651,0.252-15.768,0.125l-1.388-0.389c-5.461,0.136-16.402-0.389-18.75,0.016
						c-5.892-1.045-26.509-0.228-36.115-0.414l-0.363,0.507c-6.612-0.029-12.952,0.115-21.16,0.319l0.505,0.448
						c-7.077,0.368-18.193-0.319-29.386-0.273c0.761-0.172,3.6-0.127,5.609-0.023c-13.372-1.013-28.214,0.737-40.341-0.001
						c-3.022,0.163-5.211,0.108-7.33-0.005c0.282-0.001,0.533-0.009,0.75-0.024c-0.31-0.005-0.77-0.006-1.241-0.005
						c-1.334-0.077-2.709-0.167-4.198-0.239c1.266,0.109,2.477,0.199,3.532,0.24c-2.331,0.009-5.866,0.065-9.331,0.177l-1.476-0.481
						c-0.282,0.006-0.508,0.005-0.801,0.014c-3.4-0.178-2.734,0.228-0.92,0.59c-1.744,0.079-3.343,0.174-4.583,0.291
						c-2.762-0.777-9.091,0.262-12.861-0.567c-2.336,0.404-17.42,0.304-19.266,1.155c-0.118-0.111-1.14-0.164,0.731-0.17
						c-3.863-0.097-7.723-0.194-11.188,0.046l-1.639-0.612l-8.434,0.823c-5.124-0.373-7.248-0.59-2.161-1.061
						c-12.286,0.725-9.969,0.273-20.417,0.991l0.51-0.396c-3.735,0.015-9.705,0.545-11.958,0.218
						c-8.354-0.752-41.339-0.104-62.784-0.803c4.16,1.166-9.969-0.522-10.818,0.381c-1.249-0.276-4.238-0.431-0.765-0.671
						c-10.945,0.271-16.444-0.437-24,0.325c-1.253-0.277,2.342-0.404,1.228-0.568c-0.878,0.06-3.477,0.24-4.616,0.075
						c-1.115-0.164,1.603-0.231,3.335-0.352c-11.18,0.046-12.311,0.896-13.124,1.693c-5.666-0.377-8.493-0.324-12.584,0.199
						c-1.972-0.261-5.263-0.534,1.684-0.627c-3.908-0.038-23.874-0.382-24.272,0.257c-1.224-0.162-5.462-0.047-6.492,0.026
						c-8.769-0.038-9.541-0.096-18.152-0.035l2.387,0.104c-3.4,0.771-7.158,0.172-14.1,0.265l0.198-0.079
						c-15.917-0.556-6.872,0.267-22.576-0.368l0.855,0.479c-1.464,1.032-13.914-0.608-23.028-0.214l3.29,0.274
						c-4.978,0.353-13.913-1.403-18.913-1.532c-1.089-0.09,1.721-0.144,3.242-0.21c-13.087-0.608-1.696,0.628-11.448,0.774
						c-1.799-0.339,2.317-0.862-4.246-0.925c-3.27-0.274-19.039,1.1-27.995,0.45c1.974,0.261,3.933,0.522-0.596,0.718
						c-6.943,0.093-18.771-0.987-25.042-0.164c-0.883-0.071-1.216-0.14-1.253-0.205c-5.307,0.212-17.249,0.353-20.445,0.799
						c-4.904-1.657-32.996,0.806-32.878-0.722l-16.326,0.082l0.427-0.156c-10.435-0.101-14.125,0.265-17.793,0.632
						c-2.412-0.104-0.651-0.246-0.451-0.327c-15.248-0.308-16.764-0.243-29.548,0.518l-1.329-0.496
						c-3.465,0.288-22.045-0.777-36.999-0.199c0.147-0.056,0.456-0.152,1.644-0.222c-16.826,0.582-40.281-1.375-46.447,0.43
						l-11.103,0.445c14.365,0.14-2.139,0.783,3.77,1.083c-5.649,0.106-14.605-0.545-7.663-0.637l1.086,0.09
						c2.55-0.941-17.85-0.333-17.464-0.974c-28.267,0.046-55.817-0.474-82.295-0.515l3.05,0.732l-9.236-0.042
						c-2.424-0.17-3.253-0.572,3.335-0.542c-3.465-0.415-11.05,0.347-11.238,0.506c-12.901-0.296,5.039-0.853,1.083-0.871
						l-5.372,0.055l1.211,0.086c-4.355,0.299-4.741,0.616-12.661,0.579c-5.011-0.146-2.57-0.451-4.543-0.479
						c0.012-0.052-0.655-0.076-3.025-0.021l-11.636-0.062l4.653,0.578c-5.158,0.285-10.942-0.03-5.572,0.624
						c-7.881-1.009-43.405-0.362-48.244-0.675c-7.223,0.421-14.353,0.414-23.186,0.363c2.196,0.12,3.51,0.77-4.108,0.69
						c2.785-1.34-13.95-0.582-20.107-1.546c5.502,0.639-21.658,0.158-13.024,1.065c-6.357-0.108-0.386-0.501-5.209-0.817
						c-15.13,0.519-33.343-0.337-52.044-0.162c-0.292,0.176,2.84,0.445-1.171,0.707l-9.874-0.879
						c-3.693,0.086-3.4,1.015-10.149,0.405c0.953,0.148,2.376,0.371-0.102,0.427c-36.636-0.857-74.863,0.702-112.069-0.908
						c5.039,0.341,1.681,0.375-2.167,0.387c2.502,0.081-0.057,0.434,0.435,0.673l-15.576-0.662
						c-2.839,0.662-16.701,0.045-18.326,0.677l4.933-0.114c-6.56,0.747,9.179,1.659,8.219,2.617
						c7.345-0.849,19.368,1.257,31.419,0.042c2.66,0.195-2.269,0.308-0.846,0.531c3.055-0.411,6.744-0.496,13.58-0.312l-0.773,0.102
						c19.206-0.1,27.441,0.305,49.017,0.574l-1.598-0.474c4.636,0.063,5.612,0.212,7.783,0.33c5.321-0.718-13.022-0.041-8.175-0.833
						c6.15,0.964,32.696,0.015,36.853,1.11c7.133,0.006-2.091-0.548,5.039-0.542l1.891,0.297l1.803-0.382
						c4.676,0.063,7.035,0.434,7.21,0.685c-1.134-0.03-3.225,0.07-4.441,0.092c6.064,0.349,17.099-0.119,19.181-0.005l-6.854-0.183
						c19.466-0.277,43.233,0.112,62.039-0.491l-1.428-0.224c14.362-0.414,11.503,0.246,27.271,0.054l-0.573,0.053
						c3.155-0.223,7.37-0.335,11.685-0.31c-3.982,0.262,7.491,0.509,2.269,0.798c15.573-0.444,7.703-0.349,17.988-1.179l2.372,0.371
						c3.505-0.335,3.798-0.512,11.673-0.608c-6.459,0.318,5.026,0.565-2.209,0.986c16.524,0.811,24.537-0.819,32.118,0.367
						c7.588-1.026-14.3-0.57-10.05-0.79c-3.558-0.335,6.264-0.767,11.45-0.664c5.279,0.023,8.976,1.313,22.255,1.293
						c-1.321-0.005-1.411,0.073-2.729,0.068c4.969,0.262,9.737-0.354,15.833,0.071c3.417-0.621,7.915,0.036,8.899-0.756
						l-12.181,0.183c6.905-0.207,13.38-1.133,24.757-0.684c-0.886,0.16-4.271,0.37-6.597,0.487c3.327,0.233,6.405-0.155,9.854,0.085
						c-0.983,0.792-14.803,0.172-22.201,0.776c3.57,0.335,13.995-0.574,10.277,0.284c5.344-1.091,13.084,0.138,22.076-0.695
						l-0.593,0.474c1.423-0.075,4.371-0.299,6.99-0.287l-4.741,0.615c7.28-0.525,14.035,0.459,21.018,0.173
						c-14.622,0.015-3.282-0.572-9.464-0.918c18.033-0.635,10.37,1.241,30.561,1.014c-2.734,0.067-10.262-0.285-5.987-0.505
						c3.843,0.098,8.919,0.28,11.278,0.529c13.377-0.099-2.054-0.488,3.64-0.78c4.555,0.578,6.569-0.235,12.432-0.421l0.042,0.482
						c15.243,0.31,4.041-1.005,17.765-0.631l-5.801,0.669l7.155-0.173l-1.476,0.549c7.783-0.407,10.207-0.302,17.833-0.148
						c-1.772-0.34,0.996-0.875,7.748-0.891c4.605,0.287-2.579,0.458,6.992,0.39c-2.161,0.302-4.528,0.681-8.693,0.236
						c-0.426,0.157-2.131,0.303-2.57,0.458c4.959,0.329,12.463,0.075,15.928,0.071c-1.334-0.018-2.929-0.044-3.747-0.113
						l13.874-0.668c2.184,0.181,0.451,0.327-1.264,0.469c2.81-0.052,4.754-0.274,8.886-0.315c-1.07,0.392-0.813,0.797-6.662,0.982
						l13.219-0.435c0.883,0.17,6.784,0.468,5.068,0.613c7.328,0.23,17.977-0.761,27.692-0.457c0.505-0.076,1.518-0.149,3.583-0.205
						c9.131,0.089,17.22,0.57,28.044,0.032l6.141,0.703c8.476-0.16-8.313-0.886,5.801-1.151c9.992-0.224,3.73,0.6,7.235,0.796
						c4.969-0.355,13.609-1.076,22.788-0.504C982.427,1262.123,980.045,1262.019,977.206,1262.071z M1081.742,1261.76
						c-2.026,0.101-6.064,0.414-7.545,0.129C1076.505,1261.336,1078.289,1261.601,1081.742,1261.76z M1240.653,1260.598
						c-1.506,0.16-3.835,0.08-6.464-0.102C1236.097,1260.457,1238.258,1260.475,1240.653,1260.598z M1683.33,1257.239
						c-0.087,0.008-0.147,0.014-0.217,0.023C1678.596,1257.075,1680.198,1257.149,1683.33,1257.239z M1692.712,1257.449
						c0.943-0.067,0.878-0.134,0.48-0.202c-0.655,0.122-2.762,0.13-5.161,0.096
						C1688.698,1257.47,1689.91,1257.557,1692.712,1257.449z M685.126,1257.639l1.826,0.126
						C682.828,1257.904,683.983,1257.778,685.126,1257.639z"/>
					<path fill="#3F3B3C" d="M1222.635,1261.258c-0.573-0.082-0.731-0.171-0.866-0.262
						C1220.972,1261.077,1220.956,1261.171,1222.635,1261.258z"/>
					<path fill="#3F3B3C" d="M912.193,1262.325c-0.107-0.004-0.212-0.002-0.318-0.005c-0.175,0.029-0.268,0.058-0.32,0.087
						L912.193,1262.325z"/>
					<path fill="#3F3B3C" d="M1547.374,1261.539c-1.931-0.069-3.009-0.158-3.725-0.249
						C1543.544,1261.408,1544.422,1261.508,1547.374,1261.539z"/>
					<path fill="#3F3B3C" d="M1742.432,1256.629l-6.01,0.125c2.907-0.024,3.945,0.082,5.412,0.158
						C1741.701,1256.8,1740.553,1256.637,1742.432,1256.629z"/>
					<path fill="#3F3B3C" d="M1794.598,1259.614c0.878-0.059,1.862-0.006,2.729-0.066l-0.24-0.224
						C1793.345,1259.339,1790.73,1259.519,1794.598,1259.614z"/>
					<path fill="#3F3B3C" d="M1747.997,1258.232c0.476,0.406,4.246,0.268,8.456,0.193c-0.253,0.001-0.493,0.005-0.745,0
						C1756.949,1257.857,1752.463,1258.045,1747.997,1258.232z"/>
					<path fill="#3F3B3C" d="M1757.429,1258.411c1.298-0.019,2.622-0.03,3.891-0.01
						C1761.813,1258.174,1759.743,1258.354,1757.429,1258.411z"/>
					<path fill="#3F3B3C" d="M1704.614,1257.18c1.996,0.104,1.253-0.519,2.382-0.354
						C1709.225,1256.31,1693.685,1257.451,1704.614,1257.18z"/>
					<polygon fill="#3F3B3C" points="1751.405,1259.569 1749.896,1259.068 1747.537,1259.472 					"/>
					<path fill="#3F3B3C" d="M1718.164,1259.201l6.727,0.139c-0.102-0.084,0.753-0.133,1.802-0.171
						C1722.548,1259.153,1718.006,1259.053,1718.164,1259.201z"/>
					<path fill="#3F3B3C" d="M1726.693,1259.169c2.159,0.01,4.213-0.001,5.414-0.083
						C1730.94,1259.091,1728.426,1259.108,1726.693,1259.169z"/>
					<polygon fill="#3F3B3C" points="1742.209,1259.719 1740.22,1259.615 1735.471,1259.578 					"/>
					<path fill="#3F3B3C" d="M1645.851,1259.105l-7.342,0.144c-0.748,0.172,1.253,0.277,3.986,0.209
						C1644.253,1259.337,1646.977,1259.271,1645.851,1259.105z"/>
					<path fill="#3F3B3C" d="M1668.054,1260.477c-1.986-0.104-2.119-0.216-3.239-0.381l-0.223,0.621L1668.054,1260.477z"/>
					<path fill="#3F3B3C" d="M1646.644,1260.622c-0.731,0.172-10.655,0.495-1.349,0.456
						C1646.039,1260.906,1653.392,1260.763,1646.644,1260.622z"/>
					<polygon fill="#3F3B3C" points="1536.022,1259.836 1537.89,1259.828 1537.621,1258.81 					"/>
					<path fill="#3F3B3C" d="M1438.523,1262.273c8.699,0.244,2.066-0.628,9.927-0.324c2.042-0.241-6.425-0.249-4.331-0.457
						C1438.867,1261.746,1436.11,1261.603,1438.523,1262.273z"/>
					<path fill="#3F3B3C" d="M1444.118,1261.492c0.841-0.04,1.733-0.089,2.68-0.155
						C1445.278,1261.401,1444.561,1261.45,1444.118,1261.492z"/>
					<polygon fill="#3F3B3C" points="343.565,1257.122 337.969,1256.91 341.581,1257.252 					"/>
					<path fill="#3F3B3C" d="M332.825,1257.878l-1.318-0.649l-3.36,0.587C329.411,1257.787,331.864,1257.731,332.825,1257.878z"/>
					<path fill="#3F3B3C" d="M1097.283,1263.068l0.427-0.156c-0.866-0.169-2.176-0.182-4.799-0.208L1097.283,1263.068z"/>
					<polygon fill="#3F3B3C" points="1021.41,1262.582 1022.716,1262.595 1020.276,1262.008 					"/>
					<path fill="#3F3B3C" d="M957.732,1263.33c2.599,0.024,5.654-0.106,8.265-0.082
						C960.331,1263.355,957.029,1262.598,957.732,1263.33z"/>
				</g>
			</g>
		</g>
	</g>
</g>
</svg>
